<svg viewBox="0 0 160 160" xmlns="http://www.w3.org/2000/svg">
  <defs>
    <path id="dahlia-petal" d="M80,80 C71,68 68,48 80,16 C92,48 89,68 80,80 Z"/>
  </defs>
  <circle cx="80" cy="82" r="54" fill="var(--bloom-fill-deep)" opacity="0.25"/>
  <g fill="var(--bloom-fill)" stroke="var(--color-line)" stroke-width="2.5" stroke-linejoin="round" stroke-linecap="round">
    <use href="#dahlia-petal" transform="rotate(0 80 80)"/>
    <use href="#dahlia-petal" transform="rotate(36 80 80)"/>
    <use href="#dahlia-petal" transform="rotate(72 80 80)"/>
    <use href="#dahlia-petal" transform="rotate(108 80 80)"/>
    <use href="#dahlia-petal" transform="rotate(144 80 80)"/>
    <use href="#dahlia-petal" transform="rotate(180 80 80)"/>
    <use href="#dahlia-petal" transform="rotate(216 80 80)"/>
    <use href="#dahlia-petal" transform="rotate(252 80 80)"/>
    <use href="#dahlia-petal" transform="rotate(288 80 80)"/>
    <use href="#dahlia-petal" transform="rotate(324 80 80)"/>
  </g>
  <g transform="translate(80,80) scale(0.68) translate(-80,-80)" fill="var(--bloom-fill-deep)" stroke="var(--color-line)" stroke-width="2.5" stroke-linejoin="round" stroke-linecap="round">
    <use href="#dahlia-petal" transform="rotate(22.5 80 80)"/>
    <use href="#dahlia-petal" transform="rotate(67.5 80 80)"/>
    <use href="#dahlia-petal" transform="rotate(112.5 80 80)"/>
    <use href="#dahlia-petal" transform="rotate(157.5 80 80)"/>
    <use href="#dahlia-petal" transform="rotate(202.5 80 80)"/>
    <use href="#dahlia-petal" transform="rotate(247.5 80 80)"/>
    <use href="#dahlia-petal" transform="rotate(292.5 80 80)"/>
    <use href="#dahlia-petal" transform="rotate(337.5 80 80)"/>
  </g>
  <g transform="translate(80,80) scale(0.4) translate(-80,-80)" fill="var(--bloom-fill)" stroke="var(--color-line)" stroke-width="2.5" stroke-linejoin="round" stroke-linecap="round">
    <use href="#dahlia-petal" transform="rotate(0 80 80)"/>
    <use href="#dahlia-petal" transform="rotate(72 80 80)"/>
    <use href="#dahlia-petal" transform="rotate(144 80 80)"/>
    <use href="#dahlia-petal" transform="rotate(216 80 80)"/>
    <use href="#dahlia-petal" transform="rotate(288 80 80)"/>
  </g>
  <circle cx="80" cy="80" r="6" fill="var(--bloom-center)"/>
</svg>
