<svg role="img" aria-label="gerbera daisy" viewBox="0 0 700 700" version="1.1" xmlns="http://www.w3.org/2000/svg">
<path d="M0 0 C3 9 5 18 7 28 C7 29 7 30 7 31 C11 50 11 69 11 88 C11 91 11 93 11 95 C11 100 11 106 11 111 C13 89 13 67 10 45 C10 45 10 45 9 43 C8 32 6 22 4 12 C3 8 3 8 4 4 C9 6 11 10 13 15 C14 17 14 19 15 20 C15 22 16 23 16 25 C16 25 16 25 19 26 C22 32 23 39 24 46 C24 46 24 46 22 47 C22 48 23 49 23 49 C32 78 30 116 20 144 C20 145 20 146 20 147 C19 147 19 147 18 147 C18 147 18 147 18 149 C17 155 15 160 13 166 C12 167 12 169 11 170 C10 173 10 173 8 175 C3 175 3 175 0 174 C-8 175 -8 175 -12 178 C-15 178 -15 178 -17 177 C-18 175 -18 175 -19 172 C-20 171 -20 170 -20 169 C-21 168 -21 167 -21 166 C-22 165 -22 164 -23 163 C-32 137 -36 109 -35 82 C-35 77 -36 73 -36 68 C-36 69 -36 70 -36 71 C-36 75 -36 79 -36 83 C-36 85 -36 87 -36 88 C-35 105 -38 119 -45 134 C-46 135 -46 135 -46 136 C-59 160 -59 160 -67 166 C-70 166 -70 166 -73 166 C-73 165 -73 165 -73 164 C-74 164 -74 164 -75 164 C-75 163 -75 163 -75 162 C-76 162 -76 162 -79 164 C-80 163 -82 163 -83 162 C-84 162 -86 163 -87 163 C-90 158 -91 154 -91 148 C-91 147 -91 146 -91 145 C-93 121 -94 99 -80 78 C-77 75 -76 71 -74 68 C-72 68 -71 68 -69 68 C-69 68 -69 68 -68 70 C-64 65 -62 61 -60 55 C-58 46 -55 38 -52 29 C-52 29 -52 29 -51 26 C-49 20 -47 14 -44 9 C-43 9 -42 9 -41 9 C-41 10 -41 12 -41 13 C-40 13 -39 12 -38 12 C-37 13 -36 13 -35 14 C-35 15 -35 15 -35 16 C-34 16 -34 16 -33 16 C-33 24 -34 33 -34 41 C-33 41 -33 40 -32 40 C-32 42 -33 45 -33 47 C-33 48 -33 50 -33 51 C-34 55 -34 58 -35 62 C-34 62 -33 62 -32 62 C-30 55 -29 48 -28 41 C-29 44 -29 48 -30 51 C-31 51 -32 52 -33 52 C-32 49 -32 46 -31 44 C-31 42 -30 41 -30 39 C-29 35 -29 35 -28 33 C-27 33 -27 33 -26 33 C-26 32 -26 32 -25 31 C-24 28 -23 25 -22 21 C-22 20 -21 19 -21 18 C-17 7 -17 7 -15 3 C-12 2 -12 2 -10 2 C-8 8 -11 15 -12 21 C-10 14 -9 8 -7 1 C-2 0 -2 0 0 0 Z " fill="#F3EBEF" transform="translate(355,470)"/>
<path d="M0 0 C3 0 3 0 5 1 C5 1 5 1 6 3 C4 3 2 2 0 2 C0 3 0 3 1 6 C3 6 4 6 6 6 C7 6 9 6 10 6 C10 5 11 4 11 3 C13 3 13 3 16 4 C17 7 17 7 18 9 C19 9 20 9 20 8 C23 8 23 8 26 10 C28 10 31 10 33 10 C33 9 33 8 34 8 C35 5 35 5 38 4 C38 4 39 4 40 4 C43 7 44 10 45 13 C46 13 46 13 47 13 C47 12 47 11 47 10 C47 6 47 6 49 4 C53 5 53 5 54 6 C54 8 54 9 54 11 C55 11 56 11 57 10 C61 10 61 10 63 12 C64 13 64 13 65 14 C66 13 67 11 68 10 C73 11 73 11 74 12 C74 14 74 15 74 17 C73 18 73 18 72 19 C73 20 74 20 75 21 C75 23 75 24 75 26 C74 27 73 28 72 29 C71 29 70 29 69 29 C69 29 69 29 70 31 C71 30 73 30 74 29 C75 29 76 29 77 29 C77 27 77 26 77 24 C78 23 80 23 81 22 C81 23 81 23 81 24 C80 24 80 25 79 25 C79 25 79 25 78 28 C79 28 81 28 82 28 C82 26 82 25 82 23 C83 23 83 23 84 23 C85 25 85 25 85 28 C84 29 84 29 83 30 C82 30 80 30 79 30 C79 31 79 31 80 34 C79 35 78 36 77 37 C77 38 77 38 77 39 C80 41 80 41 82 42 C82 41 82 40 82 39 C82 35 82 35 84 33 C86 33 87 33 89 33 C89 34 89 34 91 37 C89 37 88 36 86 36 C86 37 86 37 86 38 C87 39 89 39 90 40 C90 40 89 41 89 41 C87 41 86 41 84 41 C84 42 85 44 86 45 C87 49 87 49 87 51 C88 51 88 51 89 51 C89 52 90 52 90 53 C91 53 92 53 93 53 C93 52 93 51 93 50 C92 50 90 50 89 50 C89 49 90 48 90 47 C94 48 94 48 95 49 C95 51 95 54 95 56 C92 57 91 57 88 56 C88 56 88 56 89 58 C89 59 89 60 89 61 C87 63 87 63 84 63 C83 63 82 63 81 63 C81 66 81 66 82 69 C84 70 85 70 87 71 C88 74 88 74 88 76 C87 77 87 77 86 78 C85 78 84 78 83 78 C82 78 82 78 79 78 C78 79 78 80 77 81 C72 81 72 81 69 79 C69 80 69 82 69 83 C70 84 70 84 71 85 C70 89 70 89 68 92 C69 92 71 92 72 92 C77 92 77 92 79 94 C79 96 79 97 79 99 C77 100 77 100 74 100 C74 100 74 100 71 98 C70 98 69 98 69 99 C68 99 68 99 66 99 C65 98 64 97 63 96 C62 96 60 97 59 97 C59 97 59 97 60 100 C60 103 60 103 58 106 C56 106 55 105 53 105 C53 104 54 104 54 103 C55 103 55 103 58 104 C57 103 57 101 56 100 C55 100 54 101 53 101 C50 102 48 102 44 101 C44 101 44 101 43 104 C44 104 44 105 45 105 C45 106 45 106 44 109 C47 108 47 108 49 105 C49 107 48 108 48 110 C48 110 48 110 45 111 C45 112 45 112 45 113 C47 113 48 114 50 114 C50 116 50 117 50 119 C49 120 49 120 46 120 C45 120 44 120 43 120 C43 118 42 117 42 115 C40 116 38 116 35 117 C35 117 34 117 33 117 C32 116 32 116 31 115 C31 114 31 113 31 112 C28 113 28 113 26 116 C26 117 25 118 25 119 C23 119 22 119 20 119 C19 118 18 116 17 115 C13 114 11 114 7 115 C7 115 7 115 5 115 C3 113 3 113 3 111 C2 107 0 106 -3 104 C-3 104 -3 104 -5 106 C-4 107 -2 108 -1 109 C-1 112 -1 112 -1 115 C-1 115 -2 116 -2 116 C-4 116 -5 116 -7 116 C-8 115 -8 115 -9 114 C-9 110 -9 110 -8 107 C-9 106 -11 105 -12 104 C-12 102 -12 101 -12 99 C-7 98 -7 98 -5 99 C-5 98 -6 96 -6 95 C-8 95 -9 95 -11 95 C-12 94 -12 94 -13 93 C-14 94 -15 95 -16 96 C-19 96 -19 96 -21 95 C-21 94 -21 94 -22 90 C-25 93 -25 93 -26 97 C-27 97 -29 97 -30 97 C-29 90 -29 90 -28 88 C-26 87 -24 87 -22 86 C-22 86 -22 86 -21 84 C-18 84 -16 85 -13 85 C-12 84 -12 83 -11 82 C-11 82 -11 82 -9 81 C-9 80 -9 79 -9 78 C-9 78 -9 77 -9 77 C-10 77 -10 77 -11 77 C-11 75 -11 74 -11 72 C-11 71 -12 70 -12 69 C-12 68 -11 66 -11 65 C-13 65 -16 65 -18 65 C-19 69 -19 70 -18 74 C-18 75 -19 76 -19 77 C-20 77 -22 76 -23 76 C-23 75 -23 75 -23 74 C-24 74 -25 74 -26 74 C-26 72 -25 69 -25 67 C-26 67 -26 67 -27 67 C-27 64 -27 61 -27 58 C-29 58 -30 57 -32 57 C-33 55 -33 55 -33 52 C-32 51 -32 51 -31 50 C-28 50 -28 50 -25 51 C-25 55 -24 59 -24 63 C-24 63 -24 63 -21 62 C-21 57 -21 54 -23 50 C-24 49 -25 48 -26 47 C-25 43 -25 43 -24 42 C-22 42 -19 42 -17 42 C-16 41 -16 39 -15 38 C-16 37 -18 36 -19 35 C-19 33 -18 32 -18 30 C-17 30 -15 29 -14 29 C-13 30 -13 30 -12 31 C-10 31 -9 31 -7 31 C-7 30 -7 30 -7 29 C-8 28 -10 28 -11 27 C-11 26 -10 24 -10 23 C-9 23 -7 22 -6 22 C-6 23 -5 23 -5 24 C-4 23 -2 22 -1 21 C0 21 1 21 2 21 C1 20 0 18 -1 17 C-1 14 0 12 1 9 C0 8 -1 7 -2 6 C-2 2 -2 2 0 0 Z " fill="#D1A42E" transform="translate(321,291)"/>
<path d="M0 0 C0 0 0 0 1 2 C2 1 4 1 5 0 C7 0 8 0 10 0 C11 1 11 2 12 3 C13 4 14 5 15 6 C18 15 20 24 21 33 C21 34 22 36 22 37 C26 59 27 81 27 103 C27 105 27 106 27 108 C27 121 24 136 19 148 C19 147 18 147 18 146 C17 146 17 146 16 146 C16 147 16 149 16 150 C17 150 17 150 18 150 C18 151 18 151 18 152 C17 152 16 152 15 152 C15 153 15 155 15 156 C14 163 14 163 11 166 C8 167 8 167 6 168 C5 162 6 158 7 152 C11 133 12 113 12 94 C12 95 12 96 12 96 C10 123 10 123 9 136 C9 137 9 139 9 141 C8 148 6 155 4 162 C3 162 1 162 0 162 C0 161 0 161 0 160 C-3 161 -3 161 -6 162 C-6 163 -7 164 -7 165 C-9 165 -11 164 -13 164 C-13 162 -13 162 -15 152 C-16 152 -16 153 -17 153 C-18 150 -18 147 -19 144 C-19 144 -19 144 -19 146 C-16 164 -16 164 -19 171 C-22 170 -22 170 -24 167 C-24 166 -25 165 -25 163 C-26 162 -26 161 -27 160 C-27 158 -28 157 -28 156 C-28 155 -29 155 -29 154 C-31 148 -32 142 -33 136 C-33 133 -33 131 -34 128 C-39 99 -39 71 -30 43 C-29 39 -28 36 -28 32 C-27 32 -27 32 -26 32 C-26 31 -26 31 -26 30 C-24 23 -22 17 -19 11 C-19 10 -19 10 -17 6 C-16 5 -16 4 -15 3 C-15 2 -14 2 -14 1 C-13 1 -11 1 -10 1 C-6 1 -4 0 0 0 Z " fill="#F5F2F1" transform="translate(356,56)"/>
<path d="M0 0 C11 2 20 10 28 17 C29 18 30 19 31 19 C36 24 42 28 47 33 C49 35 51 36 53 38 C53 39 54 39 55 40 C55 41 55 41 55 42 C56 43 56 43 57 44 C59 46 59 46 59 48 C59 48 59 48 62 49 C64 52 66 55 68 58 C68 59 69 60 69 61 C74 68 77 75 80 83 C82 87 84 91 86 95 C92 110 99 126 100 142 C100 144 100 145 100 147 C100 148 100 149 100 150 C99 150 99 150 98 150 C98 151 97 152 97 153 C95 154 92 154 90 155 C84 158 84 158 83 162 C60 152 41 133 28 112 C28 111 27 110 27 109 C26 109 25 108 24 108 C23 106 23 106 21 104 C21 103 20 102 20 101 C19 100 18 99 18 98 C17 97 17 96 16 95 C14 92 13 89 11 86 C11 86 11 86 10 83 C-3 61 -3 61 -1 53 C0 54 0 55 1 56 C1 54 0 53 0 51 C-1 51 -3 51 -4 51 C-4 50 -3 48 -3 47 C-3 44 -4 42 -4 39 C-5 38 -5 37 -5 36 C-6 33 -6 31 -7 29 C-7 27 -7 26 -8 25 C-8 25 -8 25 -8 22 C-9 19 -9 19 -9 14 C-5 18 -5 18 -4 20 C-3 20 -2 20 -1 20 C-1 21 0 21 0 22 C1 26 2 29 4 32 C4 33 5 34 5 36 C6 37 6 38 7 39 C7 40 7 41 8 42 C9 45 10 47 12 50 C11 49 11 47 10 46 C6 36 1 26 -2 16 C-2 15 -3 14 -3 13 C-5 9 -5 7 -4 3 C1 6 5 10 9 14 C6 10 3 6 -1 3 C-1 2 0 1 0 0 Z " fill="#F3EFED" transform="translate(418,446)"/>
<path d="M0 0 C6 0 12 1 18 3 C19 3 21 3 22 4 C36 7 49 13 62 19 C67 21 71 23 75 25 C85 29 96 34 103 42 C106 44 106 44 109 44 C128 60 128 60 130 68 C132 70 133 72 135 74 C141 82 141 82 143 85 C143 87 142 88 142 89 C138 88 138 88 135 86 C136 87 136 88 137 88 C138 89 138 90 139 91 C140 92 141 93 141 94 C143 96 143 96 143 99 C143 100 142 101 142 101 C133 100 126 98 118 95 C115 94 112 93 109 92 C111 93 112 93 114 94 C116 95 118 95 120 96 C121 96 122 97 123 97 C124 97 125 98 126 98 C127 98 128 99 129 99 C132 101 133 102 134 105 C111 107 91 99 69 91 C69 91 69 90 69 89 C68 89 68 89 67 89 C64 88 62 87 59 86 C59 85 59 85 56 84 C55 83 55 83 54 82 C53 82 52 81 50 80 C44 76 37 72 31 67 C30 66 28 65 27 64 C26 63 24 62 23 61 C22 60 21 60 20 59 C17 57 15 55 13 52 C13 52 13 52 11 51 C10 51 9 51 8 50 C8 49 7 48 7 47 C6 46 5 45 4 44 C-5 37 -11 28 -15 17 C-15 16 -15 15 -15 14 C-14 14 -13 14 -12 13 C-12 13 -11 13 -10 12 C-10 11 -9 10 -9 9 C-8 9 -8 9 -7 9 C-7 8 -7 7 -7 6 C-7 0 -6 0 0 0 Z " fill="#F4F1EF" transform="translate(103.86328125,193.7109375)"/>
<path d="M0 0 C1 0 1 0 4 1 C4 4 4 6 4 9 C6 9 8 9 10 9 C10 10 10 12 10 13 C11 13 12 13 13 13 C16 21 13 27 9 33 C2 46 2 46 -3 49 C-3 49 -3 48 -4 48 C-4 49 -4 49 -6 51 C-6 53 -7 54 -8 56 C-9 57 -10 58 -11 60 C-17 69 -24 77 -32 85 C-33 86 -34 87 -35 88 C-40 93 -45 97 -51 101 C-51 101 -52 102 -53 102 C-53 103 -53 104 -53 105 C-54 107 -54 107 -57 108 C-58 109 -59 109 -59 110 C-60 110 -61 111 -62 111 C-63 112 -64 113 -65 113 C-68 115 -71 116 -74 118 C-75 119 -76 120 -78 121 C-86 125 -86 125 -91 124 C-94 126 -98 127 -101 129 C-106 132 -109 133 -114 131 C-114 130 -114 128 -115 127 C-114 127 -113 126 -112 126 C-106 122 -99 119 -94 114 C-94 114 -94 114 -98 115 C-98 115 -99 115 -100 115 C-106 119 -106 119 -107 122 C-109 124 -111 125 -114 125 C-117 124 -117 124 -119 123 C-118 119 -117 116 -114 112 C-113 111 -113 110 -112 109 C-112 109 -111 108 -111 107 C-116 115 -121 123 -126 131 C-126 131 -127 131 -128 131 C-127 110 -113 88 -100 72 C-98 71 -97 69 -96 67 C-96 67 -96 67 -94 64 C-95 65 -96 65 -97 66 C-89 51 -75 40 -62 30 C-59 28 -56 26 -54 23 C-54 23 -54 23 -53 25 C-47 22 -42 18 -36 15 C-27 9 -18 4 -8 1 C-5 -1 -5 -1 0 0 Z " fill="#F2EDEC" transform="translate(558.6875,138.875)"/>
<path d="M0 0 C10 -1 18 1 27 4 C30 5 32 5 35 6 C35 6 35 6 34 4 C39 5 43 6 48 8 C48 8 48 8 49 10 C48 10 47 10 46 10 C48 11 51 12 53 13 C54 13 56 14 57 14 C62 16 66 18 71 19 C79 23 87 27 94 33 C94 33 94 33 97 35 C97 36 98 37 98 38 C100 39 102 41 104 42 C111 47 117 53 123 59 C126 62 129 65 131 67 C133 69 134 70 135 71 C136 72 136 72 137 73 C142 78 148 84 148 92 C148 93 148 94 148 95 C147 95 147 95 144 97 C144 98 144 99 144 100 C143 100 143 101 143 102 C142 102 141 103 141 103 C140 103 139 104 138 104 C137 107 137 107 137 110 C130 109 123 109 116 107 C116 108 115 108 115 109 C108 107 100 105 93 102 C93 101 93 101 93 100 C90 99 86 98 83 97 C83 96 83 94 83 93 C82 93 82 93 79 92 C71 90 63 85 56 81 C56 80 56 80 56 79 C55 79 54 79 53 79 C53 78 53 78 53 77 C49 76 49 76 47 77 C44 76 44 76 42 74 C42 73 42 73 42 72 C41 72 41 72 40 72 C40 71 39 69 39 68 C37 66 37 66 35 65 C31 62 30 60 27 57 C26 57 25 57 25 57 C21 56 20 54 17 52 C16 51 16 50 15 49 C13 47 13 47 13 44 C11 42 11 42 9 40 C5 35 2 31 -2 27 C-2 26 -2 26 -5 23 C-7 20 -7 20 -8 16 C-7 16 -5 15 -4 15 C-1 18 -1 18 2 21 C3 22 4 23 6 24 C6 25 7 26 8 27 C5 23 2 20 -2 16 C-1 13 0 10 1 7 C9 9 16 11 24 14 C16 11 8 8 0 5 C0 3 0 2 0 0 Z " fill="#F2EBED" transform="translate(463,403)"/>
<path d="M0 0 C1 0 2 0 4 0 C14 1 24 2 34 3 C36 3 37 3 39 3 C51 5 63 7 76 11 C76 12 76 12 78 12 C82 14 85 15 88 18 C88 23 88 23 87 25 C87 28 87 28 88 32 C90 37 90 39 89 44 C86 46 86 46 82 47 C80 48 78 48 76 49 C65 53 55 56 44 57 C43 57 41 57 40 58 C23 62 5 61 -13 59 C-14 59 -16 59 -17 58 C-23 58 -28 57 -34 56 C-34 57 -34 57 -34 58 C-46 57 -56 53 -67 49 C-67 48 -67 47 -67 46 C-68 46 -68 46 -72 45 C-77 43 -81 41 -85 39 C-85 38 -85 37 -84 36 C-79 37 -73 38 -68 39 C-60 41 -53 42 -45 42 C-47 42 -48 42 -49 41 C-62 40 -74 38 -86 33 C-86 32 -86 30 -85 29 C-82 28 -82 28 -79 27 C-77 26 -76 26 -75 26 C-75 25 -75 25 -72 25 C-76 25 -79 26 -83 26 C-83 25 -83 24 -83 23 C-71 13 -56 9 -41 6 C-41 6 -41 6 -37 5 C-32 4 -27 3 -22 2 C-18 2 -18 2 -16 1 C-10 -1 -5 0 0 0 Z " fill="#F2ECEC" transform="translate(555.1875,317.125)"/>
<path d="M0 0 C3 0 7 0 10 0 C11 0 11 0 13 1 C20 1 26 1 32 2 C32 4 33 6 33 8 C34 8 35 8 36 8 C36 9 36 9 38 15 C38 15 38 15 36 16 C33 17 31 18 29 21 C29 21 29 21 27 23 C27 23 27 23 25 25 C21 29 17 32 13 35 C12 36 12 36 11 37 C11 38 11 39 11 40 C3 47 -12 60 -23 60 C-23 61 -23 61 -23 62 C-26 63 -29 64 -32 65 C-33 66 -34 66 -35 66 C-41 68 -46 70 -52 71 C-53 71 -53 70 -54 70 C-54 71 -55 71 -55 72 C-57 73 -60 73 -62 73 C-65 74 -68 75 -71 75 C-72 76 -73 76 -74 76 C-76 77 -78 77 -80 78 C-87 80 -94 81 -101 81 C-101 80 -101 80 -101 79 C-102 79 -102 79 -103 79 C-107 79 -110 79 -113 79 C-114 79 -114 79 -117 79 C-118 79 -119 79 -120 79 C-121 79 -121 79 -123 79 C-126 79 -126 79 -130 78 C-130 76 -130 76 -132 64 C-134 63 -135 63 -137 62 C-133 51 -127 46 -118 39 C-118 38 -118 37 -118 36 C-111 30 -111 30 -106 30 C-106 29 -105 28 -105 27 C-104 27 -104 27 -103 27 C-103 28 -103 28 -103 29 C-99 27 -95 26 -91 23 C-82 18 -73 13 -62 11 C-62 10 -62 10 -62 9 C-62 9 -62 9 -59 9 C-26 9 -26 9 -11 4 C-10 4 -10 4 -8 3 C-1 1 -1 1 0 0 Z " fill="#EBE8E5" transform="translate(205,373)"/>
<path d="M0 0 C6 -1 9 1 14 4 C17 7 21 10 24 13 C25 14 26 15 27 16 C29 18 29 18 29 20 C30 20 30 20 31 20 C31 21 31 21 31 22 C32 23 34 23 35 24 C40 29 40 29 40 32 C41 33 43 33 44 34 C44 35 44 35 44 36 C45 36 46 37 47 37 C52 42 52 42 52 46 C52 46 52 46 55 47 C55 48 55 49 55 50 C55 50 55 50 58 51 C60 53 61 55 63 58 C64 59 65 60 66 61 C68 64 69 67 70 70 C71 72 71 73 72 75 C79 89 85 104 88 120 C88 121 89 123 89 124 C90 128 90 132 90 136 C90 137 90 138 90 140 C90 141 90 142 90 143 C87 143 87 143 84 142 C82 139 81 135 80 132 C79 130 78 128 78 126 C78 125 77 124 77 123 C76 121 74 118 73 115 C73 116 74 116 74 117 C75 120 76 123 77 126 C78 127 78 128 79 129 C79 130 80 131 80 132 C80 133 81 134 81 135 C82 138 83 141 83 144 C81 144 80 144 78 144 C76 145 74 145 72 146 C71 146 71 146 70 146 C70 147 70 148 71 148 C71 151 71 151 71 154 C67 153 63 150 60 148 C59 147 58 147 56 146 C56 146 56 146 54 144 C54 143 54 143 54 142 C53 142 51 142 50 142 C49 142 48 141 47 141 C47 140 47 140 47 139 C46 139 45 138 44 138 C44 137 43 135 43 134 C41 132 41 132 39 130 C29 122 22 113 16 102 C16 101 15 100 14 99 C9 90 4 80 0 70 C0 70 0 70 -1 67 C-1 67 -1 67 -2 64 C-3 62 -3 60 -4 59 C-4 58 -5 57 -5 57 C-6 54 -7 52 -8 50 C-10 45 -11 40 -12 34 C-12 33 -13 32 -13 31 C-14 22 -15 15 -12 6 C-9 6 -5 5 -2 5 C-1 3 -1 2 0 0 Z " fill="#F4F1F0" transform="translate(209,93)"/>
<path d="M0 0 C0 0 0 0 3 1 C6 2 6 2 9 1 C14 0 19 0 24 0 C24 0 24 0 27 0 C48 0 67 3 88 10 C88 10 89 11 91 11 C97 13 103 16 109 19 C109 21 109 23 109 25 C107 25 105 24 103 24 C103 26 103 27 103 29 C103 31 103 33 103 35 C106 35 108 34 111 34 C111 35 111 36 111 37 C112 37 112 38 113 38 C112 38 112 39 111 39 C110 39 109 40 108 40 C107 41 106 41 105 42 C102 43 100 45 97 48 C94 50 90 51 87 52 C86 52 85 52 84 53 C83 53 82 53 81 54 C80 54 79 54 78 55 C76 55 76 55 72 54 C69 55 69 55 66 55 C61 57 56 57 51 57 C51 58 51 59 51 60 C50 60 49 60 47 59 C41 59 36 59 30 59 C14 59 -1 58 -16 55 C-16 54 -16 53 -16 52 C-21 51 -26 51 -31 51 C-42 50 -52 47 -62 41 C-64 38 -64 38 -64 36 C-63 35 -63 34 -63 33 C-63 31 -63 28 -64 26 C-64 19 -64 19 -62 16 C-54 11 -43 9 -34 8 C-32 7 -30 6 -28 6 C-24 5 -20 4 -17 4 C-15 4 -14 4 -13 3 C-8 3 -4 2 0 2 C0 1 0 1 0 0 Z " fill="#F5F2F1" transform="translate(118,321)"/>
<path d="M0 0 C0 1 0 1 2 4 C1 5 0 6 -1 7 C-7 13 -13 20 -18 27 C-14 23 -11 19 -7 15 C-7 15 -7 15 -5 16 C-5 17 -5 18 -5 19 C-3 19 -2 19 0 19 C-1 27 -1 27 -2 29 C-1 29 -1 29 0 29 C0 27 1 26 1 24 C2 24 2 24 3 24 C3 23 4 23 4 22 C5 23 7 23 8 24 C8 32 7 39 6 47 C5 48 5 49 5 50 C4 53 4 55 3 58 C4 58 4 59 5 59 C5 59 5 59 2 60 C1 62 1 65 0 67 C-4 80 -9 92 -15 103 C-15 104 -15 104 -17 106 C-21 114 -26 120 -31 127 C-34 130 -34 130 -34 133 C-35 133 -36 133 -37 133 C-39 135 -40 137 -42 139 C-45 142 -48 145 -51 148 C-54 151 -57 155 -60 158 C-63 162 -66 165 -71 167 C-74 167 -74 167 -76 166 C-76 165 -76 164 -76 163 C-77 163 -79 162 -80 162 C-80 161 -81 161 -81 160 C-82 160 -83 160 -84 160 C-88 159 -88 159 -91 156 C-92 149 -91 142 -89 135 C-89 134 -88 133 -88 132 C-85 119 -81 105 -75 93 C-74 90 -74 90 -73 87 C-67 70 -57 55 -46 41 C-45 40 -45 39 -44 38 C-39 32 -33 26 -27 21 C-25 20 -24 18 -22 17 C-15 10 -8 5 0 0 Z " fill="#F5F3F0" transform="translate(288,446)"/>
<path d="M0 0 C0 1 0 1 1 4 C-5 9 -10 13 -16 17 C-15 16 -14 15 -12 15 C-12 14 -11 14 -10 13 C-8 11 -5 10 -3 8 C-2 7 -1 7 1 6 C2 5 3 4 5 3 C8 1 8 1 12 2 C12 7 10 11 6 15 C6 16 5 18 4 19 C0 24 -3 29 -7 34 C2 26 10 13 14 2 C15 2 17 2 18 2 C15 11 12 20 8 28 C9 28 9 29 10 29 C7 35 3 39 -2 43 C-7 48 -11 53 -15 59 C-17 61 -17 61 -19 62 C-19 63 -20 64 -20 65 C-22 68 -23 71 -25 74 C-29 78 -31 83 -33 89 C-35 92 -37 94 -40 97 C-41 98 -42 99 -43 100 C-56 112 -84 135 -103 136 C-105 136 -105 136 -109 135 C-109 134 -110 133 -110 131 C-112 127 -112 127 -116 125 C-119 122 -119 122 -119 119 C-119 115 -118 110 -116 106 C-115 104 -115 102 -114 100 C-113 100 -112 100 -111 100 C-109 97 -109 97 -107 94 C-106 93 -106 91 -105 90 C-104 89 -103 87 -102 86 C-97 77 -92 68 -86 60 C-84 58 -84 58 -83 55 C-82 55 -82 55 -81 55 C-80 54 -80 52 -79 51 C-74 45 -70 39 -63 34 C-59 32 -59 32 -58 28 C-57 28 -56 28 -55 28 C-51 26 -46 23 -42 20 C-26 9 -26 9 -21 9 C-21 8 -21 8 -21 7 C-19 6 -16 5 -14 4 C-13 4 -12 3 -11 3 C-11 3 -10 2 -9 2 C-8 1 -7 1 -6 1 C-4 0 -4 0 0 0 Z " fill="#F3F0EE" transform="translate(253,429)"/>
<path d="M0 0 C1 0 1 0 2 0 C2 1 2 1 3 3 C5 7 5 7 9 8 C10 9 12 9 13 9 C14 18 14 18 13 22 C13 24 13 25 13 27 C12 29 12 30 11 32 C11 33 10 35 10 36 C9 37 9 38 8 38 C7 41 7 41 7 46 C6 46 6 46 5 46 C5 47 5 48 5 49 C4 55 2 59 0 64 C0 65 -1 66 -1 67 C-4 74 -8 80 -15 84 C-16 84 -16 84 -17 84 C-17 85 -17 85 -17 86 C-19 88 -21 89 -23 91 C-26 94 -28 96 -30 99 C-31 100 -31 101 -32 101 C-37 108 -42 114 -46 121 C-47 123 -48 125 -50 127 C-51 129 -53 132 -54 135 C-58 143 -64 147 -72 151 C-74 151 -75 151 -77 151 C-74 147 -71 144 -67 141 C-65 139 -63 136 -61 134 C-61 134 -61 134 -63 136 C-64 137 -64 138 -65 139 C-66 139 -67 140 -68 141 C-70 143 -70 143 -73 143 C-73 143 -73 143 -75 142 C-76 142 -77 141 -78 141 C-79 141 -80 140 -81 140 C-81 141 -81 141 -81 142 C-83 142 -84 143 -86 143 C-85 136 -83 129 -80 122 C-80 121 -79 121 -79 120 C-78 117 -77 115 -76 113 C-81 123 -85 133 -88 143 C-89 143 -90 142 -91 142 C-91 129 -91 118 -87 106 C-87 106 -87 106 -86 103 C-83 94 -80 86 -76 77 C-76 76 -75 75 -75 74 C-71 67 -67 61 -62 55 C-60 52 -60 52 -58 48 C-57 48 -57 48 -56 48 C-56 47 -55 46 -55 45 C-54 45 -54 45 -53 45 C-53 44 -52 43 -52 43 C-51 40 -51 40 -50 38 C-49 38 -49 38 -48 38 C-47 37 -47 35 -46 34 C-44 32 -43 30 -41 29 C-40 28 -39 27 -39 26 C-33 20 -33 20 -31 18 C-30 18 -30 18 -29 18 C-29 16 -28 14 -28 12 C-27 12 -26 12 -26 12 C-22 11 -20 10 -18 7 C-14 4 -11 3 -6 4 C-3 3 -3 3 0 2 C0 1 0 1 0 0 Z " fill="#F2F0ED" transform="translate(498,95)"/>
<path d="M0 0 C1 1 2 1 3 2 C4 2 5 1 6 1 C10 1 10 1 12 3 C17 8 22 14 26 21 C28 23 28 23 30 25 C31 28 32 31 32 35 C35 46 39 56 45 67 C46 69 47 72 49 75 C52 82 57 89 62 97 C64 100 64 103 64 107 C65 109 65 111 66 113 C68 123 68 132 68 142 C68 142 68 142 68 145 C68 153 68 162 64 170 C63 170 61 170 60 170 C54 170 54 170 51 173 C50 173 50 172 49 172 C49 173 49 173 49 174 C45 175 45 175 43 174 C43 173 43 173 43 172 C42 171 40 171 39 170 C33 163 28 154 24 146 C23 145 22 143 22 142 C19 138 17 134 15 130 C14 128 14 126 13 124 C4 108 3 93 2 75 C2 65 0 55 -3 46 C-8 31 -4 15 0 0 Z " fill="#EDE4E5" transform="translate(380,458)"/>
<path d="M0 0 C0 1 0 1 0 2 C0 6 0 9 0 12 C0 13 0 13 0 16 C0 32 1 47 4 62 C4 64 4 66 4 67 C6 79 9 89 15 100 C16 100 16 100 17 100 C19 93 18 84 16 77 C16 74 16 74 16 69 C18 72 19 74 19 78 C20 77 20 77 21 76 C21 78 22 80 22 82 C22 83 22 84 23 85 C23 88 23 91 23 94 C25 94 27 95 29 95 C29 94 29 94 30 91 C30 91 31 90 31 90 C33 90 34 90 36 90 C36 91 36 91 36 92 C37 92 39 92 40 92 C40 92 40 92 40 89 C41 88 41 86 41 85 C41 84 41 83 41 81 C42 78 42 75 43 72 C44 67 45 62 45 56 C45 56 45 56 45 53 C46 40 47 26 48 13 C48 13 49 13 49 13 C50 38 48 62 43 86 C42 95 42 95 42 98 C46 96 47 95 49 91 C50 88 50 85 51 82 C52 82 53 82 54 82 C54 81 54 81 54 80 C53 80 53 80 52 80 C52 79 52 77 52 76 C53 76 54 76 55 76 C56 72 57 68 58 64 C59 61 59 58 60 56 C61 48 62 41 62 34 C63 34 63 33 64 33 C65 50 62 66 56 81 C55 87 55 92 56 97 C56 98 57 99 57 100 C57 105 58 109 60 114 C62 113 64 113 66 112 C66 113 66 113 66 114 C73 110 80 103 84 95 C84 92 85 89 85 86 C88 75 91 64 96 54 C96 53 96 52 97 51 C99 46 100 43 105 40 C102 48 102 48 100 52 C97 57 96 63 94 68 C94 69 93 70 93 72 C90 82 88 91 87 102 C87 102 87 102 87 104 C87 107 87 109 87 111 C88 111 89 110 90 110 C91 106 91 106 93 102 C95 93 99 85 103 77 C104 81 103 82 101 86 C93 105 93 105 93 111 C94 111 96 111 97 111 C97 110 97 110 97 109 C103 110 103 110 105 111 C108 111 108 111 111 109 C111 108 111 108 113 106 C114 105 115 104 116 103 C117 102 117 102 118 101 C118 104 118 104 116 107 C115 108 114 108 113 109 C112 110 111 111 110 112 C109 113 109 113 107 115 C106 116 104 118 103 119 C104 120 104 120 105 121 C99 125 99 125 97 125 C97 126 97 126 97 127 C98 127 98 128 99 128 C98 129 97 130 96 131 C96 129 96 127 96 125 C95 125 93 125 92 125 C90 125 89 125 87 125 C85 127 85 127 84 130 C85 130 86 129 87 129 C88 130 88 130 91 135 C83 137 83 137 80 137 C78 137 76 138 74 138 C74 139 75 139 75 140 C76 139 77 139 78 138 C78 138 78 138 81 140 C81 142 81 143 81 145 C80 145 79 144 78 144 C78 143 79 143 79 142 C78 143 77 143 76 144 C73 144 70 143 67 143 C67 144 67 145 68 145 C68 146 68 147 68 148 C67 149 66 150 65 151 C61 150 61 150 59 148 C59 144 59 144 59 141 C58 141 56 142 55 142 C55 143 56 144 56 145 C54 146 52 147 50 148 C51 149 51 149 52 150 C52 153 51 155 49 157 C46 157 44 156 42 154 C42 151 42 151 43 148 C42 149 41 149 40 150 C38 150 37 150 35 150 C33 147 33 147 33 144 C34 142 34 142 36 140 C37 140 39 140 40 140 C40 139 41 139 41 138 C44 137 44 137 46 137 C46 136 45 135 45 134 C45 134 45 134 42 135 C39 136 39 136 36 135 C36 134 35 134 34 133 C33 133 33 133 30 131 C29 132 29 132 28 133 C29 134 29 134 30 135 C30 138 30 138 30 141 C29 142 29 142 28 143 C25 143 23 142 21 140 C21 139 21 138 21 137 C19 138 19 138 17 142 C18 143 19 144 20 145 C20 147 20 148 20 150 C18 152 18 152 15 152 C12 152 12 152 10 150 C10 147 11 145 12 142 C9 142 7 143 4 143 C4 144 3 145 3 146 C2 149 2 149 1 150 C-2 150 -5 151 -8 151 C-8 152 -8 152 -8 153 C-7 153 -7 153 -6 153 C-6 154 -6 154 -6 155 C-7 155 -8 156 -9 156 C-9 157 -9 159 -9 160 C-8 160 -6 160 -5 160 C-4 159 -4 158 -3 157 C-3 159 -4 160 -4 162 C-6 162 -7 163 -9 163 C-10 162 -11 160 -12 159 C-12 158 -11 156 -11 155 C-14 154 -14 154 -17 155 C-20 158 -20 158 -21 161 C-20 161 -18 161 -17 161 C-17 160 -16 159 -16 158 C-16 160 -16 160 -17 163 C-22 167 -22 167 -25 167 C-25 168 -25 168 -25 169 C-26 169 -26 169 -27 169 C-27 170 -28 171 -28 172 C-29 173 -30 174 -31 175 C-31 176 -32 176 -32 177 C-32 177 -32 177 -29 177 C-26 177 -26 177 -25 178 C-25 181 -25 181 -25 184 C-25 184 -26 185 -26 185 C-28 185 -31 185 -33 185 C-34 185 -34 186 -35 186 C-35 185 -36 185 -36 184 C-39 183 -39 183 -41 183 C-40 181 -40 178 -39 176 C-41 176 -43 175 -45 175 C-45 174 -45 174 -44 171 C-42 171 -41 172 -39 172 C-41 170 -41 170 -45 168 C-44 166 -44 166 -41 165 C-41 164 -40 164 -39 163 C-39 161 -39 160 -39 158 C-40 157 -42 156 -43 155 C-42 154 -42 154 -41 153 C-39 151 -39 149 -38 146 C-37 146 -37 145 -36 145 C-39 145 -43 146 -46 147 C-47 147 -47 146 -48 146 C-48 145 -48 145 -47 142 C-45 142 -42 141 -40 141 C-40 139 -40 137 -40 135 C-38 135 -35 135 -33 135 C-33 134 -33 133 -33 133 C-33 132 -32 131 -32 130 C-31 130 -31 130 -28 128 C-27 128 -26 129 -25 129 C-24 129 -24 129 -21 127 C-22 127 -22 126 -23 126 C-24 124 -24 124 -24 121 C-24 120 -24 119 -25 118 C-25 117 -25 116 -25 115 C-25 113 -26 112 -26 110 C-27 110 -27 110 -28 110 C-30 105 -32 101 -34 96 C-34 95 -35 94 -35 92 C-36 91 -36 90 -37 88 C-37 87 -38 86 -38 85 C-39 82 -39 82 -38 79 C-36 83 -35 87 -33 91 C-33 92 -32 93 -32 94 C-31 95 -31 96 -30 97 C-30 98 -30 98 -29 100 C-28 103 -27 106 -27 109 C-25 109 -24 109 -22 109 C-20 113 -20 115 -19 119 C-19 120 -19 122 -19 123 C-19 124 -19 125 -19 126 C-18 126 -18 126 -17 126 C-17 124 -16 123 -16 121 C-15 121 -13 121 -12 121 C-12 121 -12 121 -10 123 C-10 121 -9 120 -9 118 C-4 120 -4 120 -2 121 C-2 116 -2 116 -4 114 C-4 113 -5 113 -6 112 C-6 112 -6 112 -8 110 C-9 110 -9 109 -10 109 C-10 108 -9 108 -9 107 C-8 107 -8 107 -7 107 C-7 106 -8 104 -8 103 C-7 103 -6 103 -5 103 C-2 100 -2 100 -2 96 C-2 90 -3 84 -4 79 C-4 78 -4 77 -4 75 C-6 69 -7 62 -8 55 C-8 55 -8 55 -6 56 C-5 58 -5 58 -5 62 C-4 63 -4 64 -4 65 C-4 67 -3 68 -3 69 C-3 70 -3 70 -2 73 C-1 81 1 89 2 97 C3 97 4 97 5 97 C7 94 7 94 7 91 C6 89 5 86 4 84 C-4 63 -4 44 -4 23 C-4 21 -4 19 -4 16 C-4 11 -4 6 -4 1 C-1 0 -1 0 0 0 Z " fill="#AF8B33" transform="translate(320,126)"/>
<path d="M0 0 C2 3 2 3 4 6 C4 7 3 9 3 10 C7 10 11 10 15 9 C23 21 20 45 18 59 C16 68 13 75 7 83 C2 89 -2 96 -5 103 C-6 105 -7 106 -8 108 C-11 114 -13 121 -16 128 C-16 129 -17 130 -17 131 C-22 145 -22 145 -22 152 C-24 162 -31 169 -38 175 C-42 176 -45 176 -49 176 C-51 169 -53 163 -53 155 C-53 154 -54 153 -54 153 C-54 147 -54 144 -51 139 C-50 136 -50 134 -49 131 C-49 130 -49 130 -48 127 C-45 113 -44 100 -44 86 C-44 85 -44 84 -44 83 C-44 81 -44 79 -44 77 C-44 71 -43 67 -40 61 C-39 58 -38 56 -37 53 C-33 42 -27 31 -20 21 C-19 20 -19 19 -18 18 C-18 17 -17 16 -16 16 C-16 15 -15 14 -15 13 C-13 11 -11 10 -8 8 C-7 7 -6 6 -5 5 C-4 5 -4 5 -3 5 C-3 4 -3 4 -3 3 C-4 4 -5 4 -6 5 C-7 5 -8 6 -9 6 C-10 6 -10 5 -11 5 C-6 0 -6 0 0 0 Z " fill="#ECDEE3" transform="translate(428,64)"/>
<path d="M0 0 C1 0 3 0 4 0 C20 1 31 3 44 14 C60 25 83 32 102 36 C106 37 108 38 112 41 C112 42 113 42 114 43 C116 45 116 45 117 48 C112 49 111 49 107 46 C106 46 105 45 104 45 C103 44 103 44 100 43 C91 38 82 34 72 31 C73 31 74 32 74 32 C78 34 82 35 85 37 C86 37 88 38 89 38 C106 45 106 45 113 50 C113 51 114 52 114 53 C112 54 111 54 109 55 C109 56 109 58 109 59 C104 59 100 59 95 59 C101 60 106 60 112 61 C112 62 112 63 112 64 C113 65 113 65 114 66 C112 66 109 67 107 67 C106 67 106 67 103 68 C99 68 96 67 92 66 C91 66 91 66 88 65 C87 64 86 64 84 64 C83 63 82 63 81 62 C78 61 76 61 74 60 C71 59 68 58 64 58 C63 58 62 58 61 57 C60 57 59 57 58 57 C58 58 58 58 58 59 C56 59 56 59 53 58 C53 57 52 57 52 56 C51 56 51 56 48 56 C43 56 38 56 34 57 C32 57 29 57 27 57 C24 57 21 57 18 57 C17 57 17 57 16 57 C10 57 5 56 0 54 C-2 54 -4 53 -6 53 C-14 51 -20 48 -27 44 C-27 43 -27 43 -27 42 C-27 42 -27 42 -29 42 C-32 41 -32 41 -35 39 C-35 38 -35 38 -35 37 C-36 37 -38 36 -39 36 C-42 34 -42 34 -45 31 C-45 30 -45 30 -45 29 C-46 28 -48 28 -49 27 C-51 23 -51 23 -50 19 C-49 16 -47 16 -44 15 C-44 11 -44 8 -45 4 C-30 -1 -15 0 0 0 Z " fill="#EEEDEA" transform="translate(112,263)"/>
<path d="M0 0 C4 2 4 2 6 4 C9 5 9 5 12 4 C13 4 13 4 15 3 C15 3 15 3 17 5 C16 6 15 7 14 8 C13 8 12 8 11 8 C11 9 10 10 10 11 C8 11 7 12 5 12 C4 17 4 17 5 19 C10 19 10 19 13 18 C13 19 13 20 13 21 C13 24 13 24 15 26 C18 26 18 26 20 25 C21 23 21 23 21 20 C21 20 21 20 19 17 C21 16 23 16 25 15 C25 14 25 13 25 12 C26 12 28 11 29 11 C29 12 29 13 29 14 C30 18 30 18 32 20 C34 20 35 20 37 20 C37 14 37 14 36 12 C42 13 45 14 49 19 C53 24 54 28 54 34 C53 34 53 34 52 34 C52 35 52 36 52 37 C54 38 55 38 57 39 C57 40 56 40 56 41 C55 41 55 41 50 40 C51 41 51 42 52 43 C53 43 53 43 58 42 C58 43 58 43 58 44 C59 44 59 44 62 42 C63 42 64 42 65 42 C65 43 64 44 64 45 C64 45 64 45 62 46 C63 46 64 46 65 47 C69 48 70 51 73 54 C74 54 75 55 76 55 C78 58 78 60 78 64 C78 65 78 65 78 66 C79 66 79 66 82 63 C83 64 85 64 86 65 C86 67 85 68 85 70 C84 70 84 70 79 71 C80 71 80 71 85 72 C85 73 85 75 85 76 C85 81 85 81 87 83 C87 86 87 86 86 88 C83 86 82 84 80 80 C79 80 79 80 74 81 C74 83 75 84 75 86 C79 87 79 87 81 87 C81 88 80 90 80 91 C81 91 81 91 85 90 C84 95 84 95 83 96 C83 98 82 100 82 102 C82 101 81 101 81 100 C80 100 78 100 77 100 C78 101 78 101 79 102 C79 103 78 105 78 106 C76 106 75 105 73 105 C73 106 73 106 71 109 C69 109 68 108 66 108 C65 110 65 113 64 115 C65 115 66 116 67 116 C66 117 65 118 64 119 C64 118 63 117 63 116 C61 116 58 116 56 116 C56 117 56 119 56 120 C55 120 55 120 50 119 C50 121 51 122 51 124 C51 124 51 124 49 125 C49 125 49 125 46 124 C46 124 46 124 48 127 C45 127 42 127 39 127 C39 126 39 126 41 123 C40 119 40 119 38 115 C39 114 40 113 41 112 C41 112 41 112 43 115 C46 116 46 116 48 116 C48 115 48 115 50 112 C52 112 55 112 57 112 C57 110 58 109 58 107 C57 107 57 107 52 105 C52 103 52 100 52 98 C53 98 53 98 59 96 C59 94 59 93 59 91 C61 91 63 91 65 91 C65 89 65 86 65 84 C64 84 62 83 61 83 C62 84 64 84 65 85 C65 86 64 88 64 89 C63 89 61 88 60 88 C60 87 60 87 60 86 C59 86 59 86 58 86 C57 83 56 79 55 76 C56 76 56 76 60 75 C59 74 57 74 56 73 C56 72 57 71 57 70 C58 70 60 71 61 71 C61 70 60 70 60 69 C58 69 57 69 55 69 C53 71 53 74 53 77 C51 76 50 76 48 75 C48 74 48 72 48 71 C49 71 49 71 50 71 C50 69 50 67 50 65 C52 64 53 64 55 63 C55 61 55 60 55 58 C55 59 55 59 53 64 C52 64 52 64 49 63 C49 62 50 60 50 59 C51 59 51 59 52 59 C52 58 52 58 52 57 C51 58 50 58 49 59 C49 59 49 59 49 61 C48 64 48 64 46 66 C43 67 43 67 40 66 C40 65 40 65 40 64 C41 64 42 63 42 63 C45 61 45 61 46 58 C46 58 46 58 46 56 C44 56 41 55 39 55 C40 54 42 54 43 53 C43 53 44 52 44 52 C44 50 44 49 44 47 C42 47 41 46 39 46 C38 48 36 49 35 51 C34 49 33 48 32 46 C31 46 30 46 30 47 C27 47 27 47 25 46 C24 44 24 42 23 40 C22 40 20 41 19 41 C19 43 19 46 19 48 C18 48 16 48 15 48 C14 45 12 43 11 40 C9 40 9 40 6 41 C5 44 5 44 4 46 C1 46 -1 46 -4 46 C-4 45 -4 45 -4 44 C-6 44 -9 44 -11 44 C-11 43 -11 43 -13 39 C-18 39 -18 39 -20 41 C-21 41 -21 41 -22 43 C-24 42 -27 42 -29 41 C-29 40 -29 38 -29 37 C-27 37 -26 37 -24 37 C-26 37 -27 36 -29 36 C-29 38 -30 39 -30 41 C-29 42 -29 42 -25 45 C-26 45 -27 45 -28 45 C-29 52 -29 52 -27 56 C-32 59 -32 59 -34 59 C-34 60 -35 61 -35 62 C-35 60 -35 59 -35 57 C-36 58 -38 58 -39 59 C-38 63 -38 63 -35 66 C-35 66 -35 67 -35 67 C-38 67 -38 67 -41 67 C-41 67 -41 67 -43 65 C-44 65 -44 65 -47 66 C-47 68 -47 68 -46 71 C-45 72 -44 72 -43 73 C-46 77 -46 77 -50 78 C-51 78 -52 78 -53 78 C-53 79 -54 81 -54 82 C-53 83 -51 85 -50 86 C-49 90 -49 93 -49 97 C-50 97 -50 97 -53 98 C-54 94 -54 90 -54 86 C-56 86 -58 86 -60 86 C-60 88 -61 89 -61 91 C-59 92 -58 92 -56 93 C-56 96 -56 99 -56 102 C-55 102 -55 102 -54 102 C-54 103 -53 105 -53 106 C-54 107 -54 108 -55 109 C-54 109 -54 109 -53 109 C-52 110 -52 112 -51 113 C-50 114 -50 114 -49 115 C-49 116 -50 117 -50 118 C-50 118 -50 118 -53 117 C-56 117 -56 117 -59 118 C-59 116 -59 114 -59 112 C-60 112 -61 112 -62 112 C-66 112 -66 112 -68 110 C-68 108 -68 107 -68 105 C-69 105 -71 104 -72 104 C-73 104 -74 103 -75 103 C-75 101 -74 99 -74 97 C-75 96 -76 96 -77 95 C-77 94 -76 92 -76 91 C-73 91 -70 91 -67 91 C-69 91 -70 91 -72 91 C-72 90 -72 89 -71 89 C-71 88 -71 87 -71 86 C-72 85 -72 85 -73 84 C-73 84 -73 84 -72 83 C-72 82 -72 80 -72 79 C-72 77 -72 76 -72 74 C-69 72 -69 72 -66 70 C-66 69 -65 67 -65 66 C-67 64 -67 64 -71 63 C-71 62 -71 62 -71 61 C-70 61 -69 61 -69 60 C-66 59 -66 59 -65 56 C-64 56 -64 55 -63 54 C-59 54 -59 54 -56 54 C-56 52 -56 50 -56 48 C-58 48 -60 47 -62 47 C-61 43 -60 42 -57 39 C-56 39 -56 39 -55 39 C-55 38 -55 38 -55 37 C-52 35 -50 34 -47 32 C-48 32 -50 31 -51 31 C-51 30 -50 28 -50 27 C-49 27 -49 27 -48 27 C-48 26 -47 25 -47 24 C-46 24 -44 23 -43 23 C-42 24 -41 24 -40 25 C-40 26 -41 28 -41 29 C-40 30 -40 31 -39 32 C-37 32 -36 31 -34 31 C-34 31 -35 31 -35 31 C-37 31 -38 30 -40 30 C-40 28 -39 27 -39 25 C-38 25 -37 25 -36 25 C-36 24 -36 24 -36 23 C-37 23 -37 23 -38 23 C-38 22 -38 22 -38 21 C-37 21 -35 21 -34 20 C-32 20 -31 19 -29 19 C-28 17 -27 14 -26 12 C-22 11 -22 11 -18 11 C-17 12 -17 12 -16 13 C-17 13 -17 13 -18 13 C-18 15 -19 18 -19 20 C-18 21 -18 21 -15 21 C-12 21 -12 21 -11 20 C-11 15 -11 15 -13 13 C-14 12 -14 12 -15 11 C-14 11 -13 11 -12 11 C-12 10 -11 8 -11 7 C-10 7 -10 7 -9 7 C-7 10 -7 10 -6 12 C-5 12 -5 12 -1 11 C-1 5 -1 5 -3 2 C-2 1 -1 1 0 0 Z " fill="#E5C762" transform="translate(350,256)"/>
<path d="M0 0 C8 6 13 14 18 23 C18 24 19 24 19 25 C22 31 25 36 28 42 C29 43 29 45 30 46 C36 60 36 75 35 90 C35 105 35 118 39 132 C40 133 40 133 41 137 C42 142 44 147 46 151 C47 154 47 154 46 157 C46 156 45 156 45 155 C44 156 44 157 43 158 C42 158 40 158 39 158 C39 156 39 155 38 153 C36 141 34 128 31 116 C31 117 31 118 31 118 C32 122 33 125 33 129 C34 130 34 131 34 133 C38 152 38 152 37 160 C35 163 35 163 32 165 C32 165 31 165 31 165 C31 166 31 166 31 167 C30 167 29 168 28 168 C20 162 18 155 17 146 C12 122 2 100 -11 79 C-13 76 -13 76 -14 73 C-15 70 -15 70 -19 68 C-26 56 -25 40 -25 26 C-25 25 -25 24 -25 23 C-25 16 -25 16 -24 15 C-24 13 -23 12 -23 10 C-23 9 -23 8 -22 7 C-22 6 -22 6 -22 5 C-13 4 -13 4 -9 5 C-9 4 -9 3 -9 3 C-9 2 -9 2 -8 0 C-5 -2 -3 -1 0 0 Z " fill="#F0EFEB" transform="translate(282,66)"/>
<path d="M0 0 C0 1 0 2 -1 3 C-1 6 -1 8 1 11 C1 11 1 11 3 13 C3 18 -1 21 -4 25 C-15 34 -29 39 -42 44 C-43 45 -44 45 -46 46 C-51 47 -56 47 -62 47 C-63 47 -64 47 -65 47 C-69 47 -72 47 -76 47 C-78 47 -81 47 -83 47 C-89 46 -95 46 -101 46 C-100 44 -100 43 -99 41 C-100 41 -101 42 -102 42 C-102 41 -103 41 -103 40 C-113 40 -122 42 -132 44 C-136 44 -141 45 -146 45 C-143 42 -141 41 -137 39 C-138 37 -138 37 -140 34 C-139 34 -138 34 -137 34 C-133 33 -130 32 -126 31 C-127 30 -129 30 -130 29 C-130 28 -130 28 -130 27 C-138 30 -146 34 -153 39 C-153 40 -154 41 -154 42 C-155 42 -155 42 -158 43 C-159 40 -159 40 -159 36 C-142 13 -98 1 -71 -4 C-15 -12 -15 -12 0 0 Z " fill="#F4F2EF" transform="translate(631,270)"/>
<path d="M0 0 C20 2 41 17 57 29 C56 30 56 31 56 32 C55 39 59 45 62 51 C63 52 63 54 64 55 C66 59 69 63 72 66 C72 67 73 68 73 69 C79 78 87 87 94 95 C97 99 100 103 103 107 C105 109 105 109 108 110 C111 112 112 113 114 116 C115 117 115 117 116 119 C118 121 118 121 118 124 C117 124 116 124 115 124 C114 125 114 126 114 126 C113 126 113 126 110 124 C110 125 110 125 115 129 C114 130 114 131 114 131 C106 131 97 129 91 123 C90 121 88 119 87 116 C82 111 82 111 79 108 C79 108 79 107 79 106 C78 106 78 106 75 104 C73 103 71 101 69 100 C64 96 60 92 55 89 C52 88 49 86 47 84 C31 74 31 74 23 72 C15 69 10 63 6 56 C6 56 6 55 6 54 C5 54 4 54 4 54 C3 53 2 52 2 51 C1 51 1 51 0 47 C-1 46 -1 46 -2 45 C-5 40 -8 34 -11 29 C-13 26 -13 24 -13 20 C-14 20 -15 20 -15 20 C-15 18 -15 16 -15 13 C-12 12 -10 11 -6 11 C-6 10 -6 8 -6 7 C-5 1 -5 1 0 0 Z " fill="#F6F5F2" transform="translate(145.4375,138.625)"/>
<path d="M0 0 C0 1 0 1 2 4 C5 5 5 5 7 5 C6 5 4 6 3 6 C3 7 3 7 3 8 C3 8 3 8 5 8 C6 8 7 9 8 9 C8 10 8 10 10 13 C5 18 5 18 2 19 C2 20 2 22 3 23 C3 24 3 24 3 28 C3 28 3 28 2 29 C3 30 4 30 5 31 C4 31 4 32 3 32 C3 33 2 35 2 36 C6 35 6 35 8 32 C8 34 7 35 7 37 C4 37 1 37 -2 37 C-2 38 -3 39 -3 40 C-2 41 0 41 1 42 C1 44 0 46 0 48 C2 48 3 48 5 48 C7 50 7 50 7 55 C10 56 10 56 15 56 C16 61 16 61 15 63 C16 63 16 62 17 62 C20 61 20 61 24 63 C23 59 23 59 21 57 C21 56 22 54 22 53 C23 53 23 54 24 54 C24 55 23 55 23 56 C24 56 25 56 26 56 C26 51 26 51 25 48 C25 48 25 48 25 46 C25 46 25 46 27 44 C31 44 31 44 34 45 C34 46 34 47 34 48 C34 51 34 51 35 53 C35 54 34 56 34 57 C36 56 37 56 39 55 C38 56 38 57 37 57 C37 58 36 59 36 60 C36 61 37 61 37 62 C36 62 36 62 35 62 C35 63 34 64 34 65 C27 66 27 66 24 64 C24 65 24 65 22 68 C20 68 19 68 17 68 C17 69 18 71 18 72 C18 72 18 72 16 73 C16 74 16 74 15 77 C16 77 18 76 19 76 C19 75 19 73 19 72 C20 72 20 72 21 72 C21 74 21 75 21 77 C20 78 20 78 17 78 C16 78 15 78 14 78 C14 76 13 75 13 73 C12 73 12 73 9 76 C10 77 10 77 11 78 C12 83 12 83 11 86 C12 86 12 86 13 86 C14 85 15 83 16 82 C16 82 16 82 19 83 C19 83 19 83 17 84 C17 85 17 85 16 88 C17 88 19 88 20 88 C20 86 20 85 20 83 C21 84 22 85 23 86 C23 84 23 81 23 79 C28 78 28 78 30 79 C30 80 30 80 29 83 C29 84 29 86 29 87 C31 89 31 89 33 91 C33 95 31 98 30 101 C29 101 27 101 26 101 C25 100 25 99 24 99 C22 96 22 96 19 95 C19 95 18 95 17 95 C17 97 16 99 16 101 C18 102 19 102 21 103 C22 103 23 103 24 103 C26 104 26 104 28 104 C28 106 27 109 27 111 C26 111 24 110 23 110 C23 109 22 109 22 108 C21 108 20 107 19 107 C19 108 19 108 19 111 C19 112 19 112 18 115 C17 116 16 116 15 117 C16 117 16 118 17 118 C17 118 16 119 16 119 C16 121 16 122 16 124 C19 125 21 127 24 128 C23 131 22 134 21 137 C19 137 18 137 16 137 C15 136 15 134 14 133 C13 133 13 134 12 134 C10 134 9 133 7 133 C7 131 7 130 7 128 C9 127 10 127 12 126 C12 126 11 126 11 126 C9 126 8 125 6 125 C6 124 6 122 6 121 C5 121 5 121 4 121 C5 123 5 125 6 127 C4 127 1 127 -1 127 C-3 124 -3 122 -4 118 C-6 118 -7 117 -9 117 C-9 115 -8 113 -8 111 C-10 110 -11 110 -13 109 C-13 108 -13 107 -13 106 C-14 106 -14 106 -17 108 C-18 107 -19 106 -20 105 C-20 104 -20 104 -18 101 C-18 101 -18 101 -21 99 C-21 98 -21 98 -21 97 C-22 97 -22 97 -25 96 C-25 91 -24 88 -22 84 C-21 84 -21 83 -20 83 C-20 82 -21 80 -21 79 C-20 78 -18 78 -17 77 C-17 77 -17 77 -16 74 C-14 74 -12 74 -10 74 C-10 73 -10 73 -10 72 C-11 72 -12 72 -12 73 C-13 73 -13 73 -15 73 C-15 73 -16 72 -16 72 C-16 70 -16 69 -16 67 C-14 67 -13 68 -11 68 C-11 67 -11 66 -12 65 C-12 64 -12 63 -12 62 C-12 62 -11 61 -11 61 C-11 61 -11 61 -14 60 C-14 58 -14 57 -14 55 C-14 55 -15 55 -15 55 C-15 56 -15 56 -17 61 C-19 60 -22 60 -24 59 C-24 57 -24 56 -24 54 C-25 55 -26 55 -27 56 C-27 55 -27 54 -27 53 C-27 50 -27 50 -29 47 C-33 48 -33 48 -36 51 C-37 46 -37 46 -36 44 C-36 44 -36 44 -39 43 C-39 42 -38 40 -38 39 C-37 39 -36 39 -35 39 C-35 38 -35 38 -35 37 C-37 37 -37 37 -40 38 C-40 38 -40 38 -41 40 C-43 41 -45 41 -47 42 C-47 42 -47 42 -50 43 C-53 44 -53 44 -55 44 C-55 41 -55 37 -55 34 C-54 34 -54 34 -49 35 C-49 33 -49 31 -49 29 C-50 29 -51 28 -52 28 C-55 27 -57 26 -60 25 C-76 18 -92 14 -109 12 C-109 11 -108 11 -108 10 C-107 10 -107 11 -106 11 C-106 10 -106 10 -106 9 C-107 9 -109 8 -110 8 C-107 8 -105 9 -102 9 C-102 9 -102 9 -99 9 C-92 10 -86 12 -79 15 C-75 16 -71 17 -66 18 C-65 18 -63 19 -62 19 C-59 18 -56 18 -53 17 C-53 16 -52 14 -52 13 C-58 13 -63 12 -69 12 C-69 12 -69 12 -70 10 C-65 10 -60 11 -55 11 C-55 10 -55 8 -55 7 C-54 7 -53 6 -53 6 C-50 5 -50 5 -49 3 C-47 4 -46 5 -44 6 C-43 6 -42 7 -41 7 C-41 8 -41 8 -39 9 C-39 10 -39 11 -39 12 C-38 12 -37 12 -36 11 C-34 11 -33 11 -32 11 C-29 14 -29 14 -28 17 C-28 16 -27 14 -27 13 C-26 13 -26 13 -21 12 C-21 10 -20 9 -20 7 C-19 7 -19 7 -14 6 C-14 5 -13 4 -13 3 C-12 4 -11 4 -10 5 C-5 5 -5 5 -2 3 C-1 2 -1 1 0 0 Z " fill="#AF8B33" transform="translate(276,311)"/>
<path d="M0 0 C1 0 1 0 2 0 C2 1 2 2 2 3 C3 3 5 2 6 2 C7 3 7 3 7 6 C7 7 7 8 7 9 C8 9 8 9 13 10 C13 12 13 13 13 15 C14 15 14 15 20 14 C22 18 22 20 22 24 C23 24 23 24 24 24 C24 23 24 23 24 22 C26 22 27 22 29 22 C30 25 30 27 29 30 C30 30 31 30 32 29 C32 29 32 29 35 29 C37 31 37 31 37 36 C36 37 34 37 33 38 C34 38 36 39 37 39 C37 40 37 40 38 43 C40 43 42 43 44 43 C44 44 44 44 45 47 C44 48 44 48 43 49 C42 48 41 48 40 47 C40 47 41 48 41 48 C43 50 43 50 43 55 C44 55 44 55 49 54 C49 55 49 55 50 58 C49 59 47 59 46 60 C46 61 46 61 46 62 C47 62 49 63 50 63 C50 65 50 68 50 70 C51 70 51 70 54 71 C54 74 53 76 53 79 C52 79 52 79 51 79 C52 80 54 82 55 83 C55 83 55 83 56 80 C55 80 55 80 54 80 C54 80 54 80 55 77 C61 78 67 78 73 79 C73 80 74 81 74 82 C72 83 70 84 68 84 C67 85 66 85 65 86 C62 87 62 87 58 88 C58 87 57 86 57 85 C56 85 56 85 55 85 C55 86 55 86 57 94 C56 93 55 92 54 91 C54 90 54 90 54 89 C54 89 54 89 52 90 C54 93 55 95 57 98 C57 99 57 101 57 102 C56 102 54 102 53 102 C53 103 53 103 56 106 C56 107 56 107 56 108 C57 108 58 107 59 107 C59 108 59 108 59 109 C57 109 55 110 53 110 C53 111 53 111 53 112 C53 112 53 112 56 113 C56 115 56 115 55 118 C52 119 52 119 50 120 C51 120 52 120 53 120 C53 121 53 122 53 123 C53 123 53 123 56 125 C56 127 56 127 55 130 C54 130 54 130 51 132 C51 133 51 134 52 134 C52 135 52 136 52 137 C52 137 51 138 51 138 C49 138 48 138 46 138 C47 139 47 139 48 140 C49 143 49 143 48 146 C48 147 47 147 47 148 C42 148 40 147 37 143 C36 143 36 143 35 143 C36 143 36 144 37 144 C37 145 36 147 36 148 C35 148 33 147 32 147 C31 144 31 141 30 138 C29 138 29 138 28 138 C28 140 29 142 29 144 C25 146 25 146 21 145 C21 146 20 146 20 147 C19 146 19 145 18 144 C18 145 17 147 17 148 C16 148 14 148 13 148 C14 149 14 151 15 152 C12 153 10 155 7 156 C6 155 6 153 5 152 C4 151 2 151 1 150 C1 150 2 149 2 149 C1 149 0 148 -1 148 C-1 147 -1 145 -1 144 C1 144 2 143 4 143 C4 142 4 141 4 140 C5 140 6 139 7 139 C7 138 7 137 7 136 C7 136 7 136 4 134 C3 136 2 137 1 139 C-1 139 -2 138 -4 138 C-4 136 -5 135 -5 133 C-7 132 -9 132 -11 131 C-11 130 -11 130 -12 126 C-11 127 -9 129 -8 130 C-7 127 -7 127 -7 125 C-5 125 -3 126 -1 126 C-1 125 -1 123 -1 122 C2 121 2 121 6 121 C7 122 7 122 8 123 C8 123 9 122 9 122 C8 122 8 121 7 121 C7 118 7 118 7 115 C7 115 7 115 9 113 C12 113 12 113 14 114 C15 113 15 111 16 110 C18 110 19 111 21 111 C20 107 20 107 17 105 C19 105 22 106 24 106 C25 102 25 102 24 100 C25 100 26 99 27 99 C27 99 27 99 28 96 C27 96 27 96 23 97 C23 96 23 96 24 93 C23 93 22 93 22 94 C21 94 20 94 19 94 C18 93 17 92 16 91 C16 88 16 88 17 86 C20 85 20 85 23 85 C25 87 25 87 25 91 C25 91 25 91 27 92 C27 92 27 92 29 93 C28 88 28 88 27 87 C27 84 28 81 28 78 C26 78 24 78 22 78 C22 77 21 77 21 76 C23 76 26 76 28 76 C28 74 28 73 28 71 C24 71 24 71 22 72 C21 73 21 74 20 75 C20 74 19 73 19 72 C19 71 20 71 20 70 C20 67 20 64 19 61 C18 61 16 60 15 60 C14 59 13 58 13 57 C10 54 8 53 4 52 C5 51 7 49 8 48 C7 48 7 48 5 49 C0 50 -2 50 -6 49 C-6 49 -6 49 -7 46 C-3 45 -3 45 -2 45 C-3 44 -4 44 -5 43 C-5 42 -5 41 -5 40 C-4 40 -4 40 -3 40 C-3 39 -4 39 -4 38 C-5 35 -5 35 -6 31 C-7 27 -8 26 -11 23 C-11 22 -11 22 -11 21 C-12 21 -14 20 -15 20 C-13 19 -10 19 -8 18 C-8 19 -8 19 -8 20 C-7 20 -7 21 -6 21 C-6 19 -7 18 -7 16 C-8 16 -9 15 -10 15 C-11 16 -12 17 -13 18 C-13 17 -13 15 -13 14 C-12 14 -11 14 -10 14 C-9 13 -8 13 -7 13 C-7 12 -6 12 -6 11 C-5 11 -4 12 -3 12 C0 11 0 11 3 10 C2 9 0 7 -1 6 C-2 6 -2 6 -3 6 C-2 2 -2 2 0 0 Z " fill="#CCA232" transform="translate(407,250)"/>
<path d="M0 0 C15 5 31 4 46 4 C57 5 64 6 74 12 C75 12 76 12 77 13 C92 18 111 31 120 44 C120 47 120 47 119 49 C118 49 117 50 116 50 C116 55 116 59 116 64 C109 68 103 69 94 68 C93 68 92 68 90 68 C80 68 70 67 60 64 C58 64 57 63 55 63 C47 61 41 59 35 54 C31 51 27 49 23 47 C22 47 21 46 20 46 C18 45 16 44 14 43 C14 42 15 40 15 39 C20 39 23 40 27 42 C29 43 31 43 33 44 C33 43 33 43 33 42 C34 42 34 43 35 43 C36 43 36 43 39 44 C40 44 40 44 43 45 C43 44 43 44 43 43 C36 38 28 34 20 30 C19 29 17 29 16 28 C6 23 -4 20 -15 16 C-21 14 -26 12 -31 9 C-31 8 -31 7 -31 6 C-24 7 -17 8 -9 9 C-9 9 -9 9 -6 9 C-4 10 -3 10 -2 10 C-1 10 0 10 1 10 C4 11 6 12 9 13 C12 14 16 14 19 15 C20 15 20 15 21 15 C27 16 32 16 38 16 C42 17 42 17 45 18 C45 18 45 18 42 17 C41 17 40 16 39 16 C38 16 38 16 35 15 C32 14 32 14 28 15 C28 15 28 15 30 14 C30 13 30 13 30 12 C29 12 27 11 26 11 C26 12 25 12 25 13 C23 13 22 12 20 12 C20 11 20 11 20 10 C19 10 17 9 16 9 C13 8 10 8 7 7 C-4 5 -14 3 -25 2 C-26 2 -28 2 -29 2 C-30 2 -31 1 -32 1 C-34 1 -34 1 -37 -1 C-37 -3 -36 -4 -36 -6 C-23 -8 -12 -4 0 0 Z " fill="#F5EFEF" transform="translate(514.97265625,376.0625)"/>
<path d="M0 0 C0 0 0 0 2 1 C2 2 1 4 1 5 C2 5 4 5 5 5 C5 4 5 4 4 0 C5 0 5 0 6 0 C6 0 6 0 7 2 C8 2 10 2 11 2 C15 3 15 3 17 6 C17 6 17 6 18 8 C19 8 19 7 20 7 C23 6 23 6 27 7 C28 7 29 7 30 7 C31 6 31 5 32 5 C32 4 32 4 34 2 C36 2 37 2 39 2 C41 4 41 4 41 7 C41 10 40 12 38 15 C36 15 35 15 33 15 C33 16 33 16 33 17 C33 17 33 17 36 18 C36 19 35 21 35 22 C34 22 33 22 32 22 C32 20 32 18 32 16 C31 16 31 16 30 16 C30 17 30 17 30 18 C30 19 30 19 30 21 C30 22 30 22 29 24 C29 27 29 27 28 31 C27 31 27 31 26 31 C26 32 26 32 26 33 C24 33 23 33 21 33 C20 34 20 36 19 37 C18 38 16 39 15 40 C15 41 14 42 14 43 C12 47 10 48 6 49 C5 49 5 49 4 49 C4 50 3 52 3 53 C3 53 2 54 2 54 C-1 54 -1 54 -5 53 C-6 52 -6 51 -7 50 C-8 52 -9 55 -10 57 C-11 57 -12 57 -13 57 C-13 58 -13 60 -13 61 C-14 61 -14 61 -15 61 C-16 60 -16 60 -17 59 C-17 61 -18 62 -18 64 C-22 63 -22 63 -23 62 C-24 66 -25 69 -26 73 C-27 73 -27 73 -31 74 C-31 73 -32 73 -32 72 C-31 70 -30 67 -29 65 C-28 63 -28 63 -28 59 C-29 59 -29 59 -30 59 C-30 60 -30 61 -30 62 C-32 62 -33 62 -35 62 C-36 61 -36 59 -37 58 C-37 60 -38 62 -38 64 C-39 64 -39 64 -43 65 C-43 64 -43 63 -43 62 C-44 62 -44 62 -47 63 C-48 58 -48 58 -48 56 C-49 56 -51 56 -52 56 C-52 55 -52 55 -53 50 C-53 50 -54 50 -54 50 C-54 52 -54 53 -54 55 C-54 56 -54 58 -54 59 C-55 59 -55 59 -56 58 C-59 58 -59 58 -63 60 C-63 59 -63 59 -64 55 C-66 55 -68 55 -70 55 C-71 54 -71 52 -72 51 C-72 52 -73 53 -73 54 C-74 54 -74 54 -75 54 C-75 61 -76 69 -76 76 C-76 76 -77 76 -77 76 C-77 74 -77 73 -77 71 C-81 70 -81 70 -84 71 C-84 73 -85 74 -85 76 C-86 76 -86 76 -87 76 C-86 73 -86 69 -85 66 C-87 66 -88 66 -90 66 C-91 64 -91 64 -91 61 C-90 59 -90 59 -88 57 C-87 56 -86 55 -86 55 C-83 52 -80 52 -76 51 C-76 50 -76 48 -76 47 C-75 43 -75 43 -73 40 C-74 40 -75 39 -76 39 C-80 38 -80 38 -82 36 C-82 31 -82 31 -81 27 C-81 27 -80 27 -80 27 C-79 24 -79 22 -78 19 C-77 19 -75 20 -74 20 C-74 21 -74 21 -74 22 C-73 22 -71 23 -70 23 C-70 21 -70 19 -70 17 C-71 17 -72 16 -73 16 C-77 15 -77 15 -81 13 C-81 11 -80 9 -80 7 C-78 7 -77 7 -75 7 C-72 10 -72 10 -70 13 C-69 13 -68 12 -67 12 C-66 12 -65 11 -64 11 C-63 12 -61 13 -60 14 C-60 16 -61 18 -61 20 C-57 22 -54 22 -50 21 C-50 21 -50 21 -49 18 C-51 18 -52 18 -54 18 C-55 17 -55 17 -56 16 C-56 13 -56 13 -55 11 C-53 10 -53 10 -50 10 C-49 11 -47 12 -46 13 C-45 12 -45 12 -44 11 C-42 9 -42 9 -37 9 C-35 12 -35 12 -35 17 C-33 17 -32 17 -30 17 C-28 19 -28 19 -28 24 C-27 24 -26 24 -24 24 C-21 25 -18 25 -15 26 C-16 25 -16 25 -17 24 C-18 21 -18 19 -17 16 C-16 16 -16 17 -15 17 C-15 18 -15 20 -15 21 C-14 21 -12 21 -11 21 C-11 19 -12 18 -12 16 C-9 17 -9 17 -8 19 C-5 19 -2 18 1 18 C1 19 1 19 3 22 C3 22 3 22 5 21 C7 21 9 21 11 21 C11 20 11 19 11 18 C11 18 11 18 10 19 C8 19 6 19 4 19 C4 17 3 16 3 14 C4 14 4 13 5 13 C5 14 5 14 6 17 C7 17 8 17 9 17 C9 15 9 14 9 12 C9 11 9 11 9 10 C9 8 8 7 8 5 C7 6 5 6 4 7 C3 7 1 6 0 6 C-1 2 -1 2 0 0 Z " fill="#C19325" transform="translate(373,399)"/>
<path d="M0 0 C5 2 10 5 14 9 C17 11 17 11 21 13 C22 12 22 11 23 10 C24 11 26 12 27 13 C27 14 27 14 27 15 C28 16 30 16 31 17 C33 19 36 22 38 24 C37 23 36 21 35 20 C36 20 38 19 39 19 C41 20 42 22 44 23 C52 30 61 34 70 39 C92 50 92 50 98 61 C98 62 99 63 100 63 C113 84 113 84 113 96 C111 96 110 97 108 97 C108 98 109 99 109 100 C108 101 107 102 106 103 C105 106 105 106 104 108 C85 109 59 92 45 80 C42 77 41 74 39 70 C36 64 32 58 29 52 C27 49 27 49 27 47 C26 47 26 47 25 47 C24 46 24 45 23 44 C21 40 21 40 18 36 C18 35 18 35 18 34 C22 35 24 36 27 39 C27 38 27 38 27 37 C28 37 28 37 29 37 C28 36 28 36 27 35 C26 33 24 31 23 29 C21 27 19 25 18 23 C15 20 13 18 11 15 C10 14 10 13 9 12 C8 11 7 11 7 10 C6 9 5 8 5 7 C3 5 1 3 0 0 Z " fill="#F5F2F0" transform="translate(458,452)"/>
<path d="M0 0 C2 4 2 4 2 7 C0 10 0 10 -3 12 C2 11 2 11 4 9 C5 10 6 10 7 11 C7 12 6 14 6 15 C2 16 2 16 0 15 C0 16 0 16 1 19 C0 20 0 20 -1 21 C1 23 3 23 6 24 C6 24 6 24 5 27 C8 29 12 32 15 34 C15 34 15 34 13 35 C10 33 8 32 5 30 C4 30 4 30 3 30 C3 31 4 32 4 33 C5 36 5 36 5 39 C5 39 4 39 4 39 C3 47 3 47 4 50 C8 54 11 56 15 59 C28 68 38 79 47 92 C47 93 47 94 47 95 C48 95 48 95 49 95 C51 98 52 100 54 103 C54 104 55 105 55 105 C58 110 60 114 62 118 C63 120 64 121 65 123 C65 124 65 124 67 126 C68 128 68 128 71 131 C70 131 70 131 69 131 C70 132 70 132 73 136 C73 137 72 137 72 138 C72 139 73 141 73 142 C69 138 68 135 66 130 C66 129 66 129 66 128 C65 128 64 129 63 129 C62 128 62 126 61 125 C57 115 52 105 46 96 C45 95 45 94 44 93 C43 91 43 91 41 89 C40 88 40 88 39 87 C39 86 39 86 39 85 C38 85 37 84 36 84 C35 82 33 81 32 79 C20 65 2 51 -15 43 C-16 43 -17 43 -18 43 C-16 47 -15 48 -12 51 C-12 52 -12 52 -10 53 C-9 54 -9 54 -8 55 C-8 55 -8 55 -9 57 C-9 57 -9 57 -11 55 C-12 54 -13 53 -14 52 C-15 51 -16 50 -17 49 C-19 47 -19 47 -22 46 C-21 53 -19 59 -16 65 C-16 66 -16 67 -15 68 C-12 75 -9 83 -5 91 C-4 94 -4 94 -5 97 C-11 86 -16 74 -20 62 C-21 62 -22 62 -23 62 C-24 61 -25 59 -26 58 C-25 67 -23 76 -20 85 C-19 89 -19 89 -20 92 C-20 92 -21 91 -21 91 C-21 92 -22 92 -22 93 C-21 93 -19 93 -18 93 C-18 94 -18 94 -16 100 C-18 99 -18 99 -19 98 C-19 99 -19 99 -18 100 C-18 101 -18 102 -17 103 C-17 104 -17 105 -17 106 C-16 108 -16 108 -17 111 C-21 103 -23 94 -25 85 C-27 79 -29 76 -33 72 C-35 70 -36 68 -38 65 C-41 62 -43 59 -46 56 C-48 56 -51 57 -53 57 C-54 56 -54 56 -55 55 C-55 57 -56 58 -56 60 C-57 61 -57 62 -57 63 C-59 69 -59 76 -60 82 C-60 83 -60 83 -60 85 C-60 90 -60 94 -58 98 C-57 103 -57 103 -58 107 C-59 105 -59 103 -60 101 C-60 100 -61 99 -61 98 C-62 95 -62 95 -62 92 C-63 92 -63 92 -64 92 C-64 93 -65 93 -65 94 C-65 93 -66 91 -66 90 C-67 89 -67 87 -68 85 C-68 85 -68 85 -69 83 C-70 79 -71 76 -74 72 C-74 72 -74 72 -77 71 C-77 74 -77 76 -77 79 C-80 75 -80 71 -81 66 C-82 66 -82 66 -88 67 C-88 69 -89 70 -89 72 C-90 78 -91 85 -93 91 C-93 91 -94 91 -94 91 C-93 83 -92 75 -90 67 C-90 66 -89 65 -89 64 C-88 61 -88 59 -87 56 C-86 57 -85 57 -84 58 C-83 58 -82 58 -81 58 C-81 56 -81 54 -81 52 C-80 53 -79 53 -78 54 C-78 55 -78 55 -78 56 C-77 56 -77 56 -76 56 C-76 55 -76 53 -76 52 C-75 52 -74 52 -73 52 C-73 51 -72 49 -72 48 C-71 47 -71 45 -70 44 C-69 44 -69 44 -68 44 C-68 45 -68 47 -68 48 C-66 48 -63 48 -61 48 C-60 47 -60 45 -59 44 C-58 43 -56 43 -55 42 C-50 40 -50 38 -48 33 C-45 31 -45 31 -43 30 C-43 29 -42 29 -42 28 C-40 28 -39 28 -37 28 C-37 27 -37 27 -37 26 C-36 26 -36 26 -35 26 C-35 25 -35 23 -35 22 C-34 18 -34 15 -33 11 C-32 11 -32 11 -31 11 C-31 13 -31 15 -31 17 C-30 17 -29 16 -28 16 C-28 15 -28 14 -28 13 C-28 13 -28 13 -30 12 C-30 11 -30 11 -30 10 C-29 10 -28 9 -27 9 C-24 8 -22 7 -19 5 C-19 5 -19 5 -17 8 C-13 7 -10 6 -7 5 C-7 5 -6 5 -6 5 C-6 4 -5 4 -5 3 C-4 3 -2 2 -1 2 C-1 1 0 1 0 0 Z " fill="#897339" transform="translate(436,404)"/>
<path d="M0 0 C-1 6 -1 6 -4 7 C-5 8 -6 8 -7 9 C-9 11 -12 12 -14 14 C-18 17 -22 21 -26 24 C-30 27 -34 30 -38 34 C-40 36 -42 37 -44 39 C-51 44 -55 51 -59 59 C-59 61 -59 62 -59 64 C-62 65 -65 66 -67 67 C-68 67 -68 67 -70 68 C-75 70 -81 72 -86 74 C-87 74 -88 75 -89 75 C-95 77 -101 77 -108 77 C-109 73 -110 70 -110 66 C-112 65 -115 65 -117 64 C-118 58 -116 55 -112 50 C-109 45 -105 41 -100 37 C-100 36 -99 35 -98 35 C-92 29 -87 24 -79 21 C-78 21 -77 20 -76 20 C-72 19 -69 18 -65 18 C-60 17 -56 15 -51 13 C-47 10 -44 9 -40 8 C-36 7 -33 5 -29 3 C-26 2 -25 2 -22 3 C-24 6 -27 9 -30 12 C-31 12 -32 12 -33 12 C-33 13 -33 13 -33 14 C-32 13 -31 13 -30 12 C-23 9 -17 6 -10 3 C-9 2 -9 2 -7 1 C-4 0 -4 0 0 0 Z " fill="#F3F0EE" transform="translate(211,432)"/>
<path d="M0 0 C0 3 0 3 -1 7 C0 7 1 8 2 8 C0 9 -2 9 -4 10 C-4 11 -4 11 -4 12 C-3 12 -2 13 -1 13 C-2 19 -4 21 -8 25 C-9 26 -10 26 -11 27 C-13 28 -13 28 -16 32 C-17 32 -18 33 -19 34 C-22 35 -22 35 -24 39 C-32 45 -32 45 -37 45 C-37 46 -38 48 -38 49 C-29 49 -20 46 -12 43 C-9 42 -6 41 -4 40 C-2 40 0 39 2 38 C3 38 4 38 4 37 C9 36 11 35 15 32 C20 32 25 33 30 34 C31 34 32 34 33 34 C33 35 33 35 33 36 C32 37 30 37 29 38 C23 41 18 44 12 47 C12 47 12 48 12 48 C11 48 9 49 8 49 C-6 53 -19 56 -32 63 C-36 65 -36 65 -39 65 C-39 66 -39 66 -39 67 C-40 68 -41 68 -42 69 C-43 69 -43 69 -46 71 C-46 71 -46 71 -49 73 C-53 75 -55 77 -58 79 C-61 80 -63 80 -67 80 C-68 80 -69 80 -70 80 C-71 80 -72 81 -74 81 C-75 81 -76 81 -77 81 C-80 81 -83 81 -86 81 C-86 80 -86 79 -86 78 C-86 76 -86 75 -86 74 C-87 73 -88 73 -89 72 C-88 66 -85 63 -81 58 C-80 58 -79 58 -78 59 C-73 59 -73 59 -69 57 C-69 57 -69 57 -66 55 C-65 54 -64 53 -63 52 C-62 52 -61 51 -60 50 C-60 49 -60 48 -60 47 C-53 45 -53 45 -50 44 C-44 43 -41 42 -37 37 C-35 36 -33 34 -31 33 C-30 33 -30 32 -29 32 C-23 28 -23 28 -20 28 C-20 27 -20 27 -20 26 C-19 26 -19 26 -18 26 C-18 25 -18 24 -18 23 C-18 20 -18 20 -15 17 C-12 15 -12 15 -10 15 C-10 14 -9 13 -9 12 C-7 8 -7 8 -5 5 C-4 5 -4 5 -3 5 C-2 4 -2 2 -1 1 C-1 1 0 0 0 0 Z " fill="#DFCAD3" transform="translate(539,219)"/>
<path d="M0 0 C2 3 4 6 6 9 C14 24 23 35 35 47 C37 49 37 49 37 51 C39 52 40 54 42 55 C42 55 42 55 43 53 C43 53 43 53 46 55 C46 56 46 56 46 57 C47 57 47 58 48 58 C51 59 54 61 56 63 C57 63 57 63 59 64 C60 65 60 65 61 66 C61 67 61 67 61 68 C61 68 61 68 63 69 C68 70 72 72 76 73 C77 67 77 62 76 56 C79 59 79 61 80 65 C81 71 81 71 82 73 C80 75 80 75 77 76 C76 76 76 76 73 75 C72 77 71 79 70 81 C68 81 65 81 63 81 C63 83 63 85 63 87 C62 87 61 88 60 88 C58 88 57 89 56 89 C56 89 56 89 55 92 C56 92 56 92 57 92 C60 91 64 90 67 90 C68 91 68 91 69 92 C68 92 66 93 65 93 C65 94 65 95 65 96 C64 99 64 99 62 102 C62 102 62 102 65 104 C65 106 65 107 65 109 C64 110 63 111 62 112 C61 112 60 112 59 112 C59 113 59 113 59 114 C61 115 63 116 65 117 C65 118 64 118 64 119 C62 119 61 118 59 118 C59 118 59 118 58 121 C60 121 62 122 64 122 C64 124 63 126 63 128 C64 128 65 128 65 129 C66 129 67 130 68 130 C68 131 69 133 69 134 C67 136 67 136 64 136 C63 136 62 136 61 136 C60 135 60 133 59 132 C58 133 57 134 56 135 C53 137 53 137 50 137 C48 136 48 136 46 135 C45 136 44 137 43 138 C42 138 40 138 39 138 C39 140 39 142 39 144 C37 144 34 144 32 144 C32 146 32 147 32 149 C28 146 28 146 27 143 C25 143 22 143 20 143 C20 142 20 141 20 140 C20 140 20 140 18 139 C14 138 11 136 8 134 C-6 126 -20 120 -35 114 C-31 113 -31 113 -27 115 C-26 115 -25 116 -24 116 C-23 117 -22 117 -21 117 C-20 118 -19 118 -18 119 C-10 122 -2 126 5 130 C8 131 8 131 12 131 C8 125 3 122 -3 119 C1 118 3 118 7 118 C14 119 20 119 26 119 C29 119 29 119 33 120 C33 119 33 119 34 117 C35 113 35 113 36 112 C38 112 39 112 41 112 C41 113 42 113 42 114 C40 114 39 115 37 115 C37 116 37 117 37 118 C37 121 37 121 35 123 C32 124 29 125 26 125 C26 126 26 128 26 129 C25 129 25 129 24 129 C24 127 25 125 25 123 C20 123 16 123 11 123 C15 127 19 130 23 134 C24 133 24 131 25 130 C28 129 28 129 32 129 C32 129 32 129 35 131 C36 130 37 129 38 128 C41 128 41 128 44 128 C47 123 47 123 47 119 C46 117 46 117 45 116 C44 108 50 101 55 95 C54 94 54 94 53 93 C53 91 53 90 53 88 C52 88 52 88 49 87 C49 86 48 84 48 83 C49 83 49 84 50 84 C50 85 50 85 50 86 C51 86 52 86 53 86 C51 78 48 71 44 64 C43 62 43 62 43 59 C42 59 42 59 41 59 C40 58 40 58 39 57 C37 54 37 54 34 51 C28 46 23 40 19 33 C18 33 18 33 17 33 C16 32 16 32 13 26 C12 24 12 24 10 22 C8 20 6 17 5 15 C3 11 1 8 -1 5 C-1 2 -1 2 0 0 Z " fill="#7B612B" transform="translate(217,180)"/>
<path d="M0 0 C0 0 0 0 1 3 C0 4 0 4 -1 5 C-1 6 -1 8 -1 9 C1 9 3 9 5 9 C4 10 4 12 3 13 C3 14 3 15 3 16 C4 17 6 17 7 18 C5 19 4 20 2 21 C3 24 3 24 6 28 C6 29 5 31 5 32 C6 32 6 32 7 32 C7 33 7 33 7 34 C8 34 8 34 9 34 C9 35 9 35 10 38 C10 38 10 38 13 39 C13 40 13 40 13 41 C14 42 16 42 17 43 C16 44 16 46 15 47 C15 48 15 48 15 49 C17 49 19 48 21 48 C21 49 22 50 22 51 C23 52 25 52 26 53 C26 55 26 57 26 59 C27 59 27 59 30 60 C30 60 30 60 31 58 C31 60 31 60 33 68 C35 68 37 68 39 68 C39 66 38 65 38 63 C39 63 39 63 40 63 C40 64 41 66 41 67 C42 67 44 67 45 67 C46 66 46 66 47 65 C47 66 47 66 46 69 C44 69 43 70 41 70 C41 72 41 73 41 75 C43 75 44 75 46 75 C46 76 46 77 46 78 C43 80 43 80 40 82 C32 88 25 94 18 100 C17 101 16 102 15 102 C-5 120 -20 147 -29 171 C-31 168 -31 168 -31 165 C-30 164 -30 163 -30 163 C-29 159 -28 157 -28 154 C-27 154 -27 154 -24 152 C-23 150 -23 148 -22 146 C-19 140 -16 134 -12 128 C-10 126 -10 126 -9 124 C-8 120 -6 118 -3 116 C-1 114 1 111 3 109 C6 105 10 101 14 98 C17 95 19 93 20 89 C20 88 19 86 19 85 C20 83 21 81 22 79 C24 75 25 71 27 67 C28 64 28 64 29 62 C28 62 26 62 25 62 C25 63 25 63 25 64 C22 76 11 87 4 96 C4 91 7 88 10 84 C22 67 22 67 22 62 C12 64 4 72 -4 78 C-4 78 -4 78 -6 77 C-4 76 -3 75 -1 73 C-1 73 0 72 1 71 C4 69 6 68 8 66 C9 66 10 65 11 64 C11 63 11 61 11 60 C9 61 7 61 5 62 C4 62 3 62 2 63 C-1 64 -1 64 -4 66 C-6 67 -6 67 -10 67 C-10 68 -10 68 -10 69 C-10 69 -10 69 -13 70 C-20 74 -27 78 -34 83 C-37 85 -40 87 -43 89 C-44 88 -45 87 -46 86 C-37 78 -15 61 -2 61 C-2 60 -1 58 -1 57 C1 55 3 52 5 50 C6 49 6 48 7 47 C8 46 8 46 9 44 C10 44 10 44 11 44 C11 43 12 42 12 41 C6 42 4 45 0 49 C-1 50 -1 50 -4 52 C-4 53 -5 54 -6 55 C-6 55 -6 55 -8 54 C-7 53 -6 52 -5 51 C-4 50 -3 49 -2 48 C-1 47 0 46 1 45 C4 42 4 42 5 40 C2 41 -2 41 -5 42 C-2 40 0 38 4 37 C-18 38 -18 38 -25 46 C-35 54 -48 63 -60 66 C-60 65 -60 65 -60 64 C-59 64 -58 63 -57 63 C-48 58 -41 54 -33 48 C-30 46 -30 46 -26 44 C-26 43 -27 42 -27 41 C-26 40 -25 40 -24 39 C-18 34 -12 29 -7 23 C-3 19 -3 19 0 18 C0 18 -1 17 -1 17 C-1 15 -1 14 -1 12 C-2 12 -3 12 -4 12 C-4 11 -4 11 -4 10 C-8 10 -13 10 -17 10 C-17 10 -17 9 -17 9 C-13 9 -9 9 -5 9 C-5 8 -5 6 -5 5 C-4 5 -4 5 -3 5 C-3 4 -3 4 -4 1 C-2 0 -2 0 0 0 Z " fill="#554635" transform="translate(242,369)"/>
<path d="M0 0 C0 0 0 0 1 2 C0 3 -2 3 -3 4 C-2 4 0 4 1 4 C-1 8 -3 10 -6 13 C-7 14 -8 15 -9 16 C-9 16 -9 16 -11 18 C-7 15 -4 12 0 8 C3 5 3 5 8 5 C8 6 7 8 7 9 C6 9 6 9 5 9 C3 11 3 11 2 14 C-1 17 -2 19 -5 22 C-5 22 -5 22 -6 25 C-9 27 -9 27 -13 29 C-60 52 -60 52 -69 69 C-70 69 -70 69 -71 69 C-71 70 -71 70 -71 71 C-73 73 -74 74 -76 76 C-77 78 -78 79 -79 81 C-80 82 -81 83 -82 84 C-82 85 -83 85 -83 86 C-82 86 -82 86 -81 86 C-82 90 -83 92 -86 96 C-89 100 -91 105 -94 109 C-95 110 -95 111 -96 112 C-97 114 -98 116 -99 118 C-100 120 -102 122 -103 124 C-104 124 -106 124 -107 124 C-103 116 -99 109 -94 102 C-92 99 -91 96 -90 93 C-91 93 -93 92 -94 92 C-93 92 -93 92 -90 91 C-90 91 -90 91 -91 89 C-92 89 -94 89 -95 89 C-93 78 -85 69 -76 62 C-75 62 -75 61 -74 61 C-72 59 -69 57 -67 55 C-63 51 -59 47 -54 44 C-50 41 -46 38 -42 35 C-40 33 -40 33 -37 33 C-36 31 -36 29 -35 27 C-57 36 -57 36 -66 41 C-67 41 -67 41 -68 41 C-68 40 -68 40 -68 39 C-67 39 -66 39 -66 38 C-62 37 -62 35 -60 32 C-59 31 -59 31 -58 30 C-59 29 -59 29 -60 28 C-59 28 -59 27 -58 27 C-46 21 -36 14 -26 6 C-19 0 -9 0 0 0 Z " fill="#D1CDCA" transform="translate(246,405)"/>
<path d="M0 0 C1 2 1 2 2 6 C4 6 4 6 7 5 C8 4 8 3 9 2 C9 2 9 2 11 5 C14 5 14 5 17 5 C17 7 17 8 17 10 C15 10 12 10 10 10 C12 16 12 16 15 18 C15 19 15 20 14 21 C14 22 14 22 14 25 C14 25 15 26 15 26 C17 26 18 26 20 26 C20 23 20 23 20 20 C19 19 17 18 16 17 C17 16 18 15 19 14 C23 17 26 20 27 25 C28 25 29 25 31 24 C35 24 37 24 40 26 C41 27 41 28 42 29 C44 29 45 29 47 29 C47 28 47 28 50 23 C51 23 52 23 53 23 C53 24 53 24 55 27 C60 26 60 26 62 25 C63 25 63 26 64 26 C64 27 64 27 65 30 C67 30 69 30 71 30 C71 28 71 27 71 25 C70 25 68 24 67 24 C67 22 67 22 69 20 C68 20 67 20 66 20 C66 19 66 19 65 12 C66 12 67 12 68 12 C69 12 71 12 72 12 C76 11 76 11 79 11 C79 12 79 12 80 15 C78 15 77 16 75 16 C77 16 78 16 80 16 C81 13 81 11 81 8 C83 7 84 7 86 6 C86 6 86 6 88 9 C89 9 91 9 92 9 C93 8 93 6 94 5 C94 6 94 6 96 10 C97 10 99 10 100 10 C100 5 100 5 99 2 C101 2 102 2 104 2 C104 4 104 5 104 7 C106 7 107 8 109 8 C110 6 111 4 112 2 C112 3 113 4 113 5 C114 5 114 5 117 7 C117 7 117 7 115 9 C113 11 113 11 112 14 C110 14 109 14 107 14 C107 15 107 17 107 18 C108 18 108 18 111 19 C105 26 105 26 102 28 C102 28 102 28 100 26 C97 26 94 27 91 28 C91 27 91 27 89 23 C86 23 84 22 81 22 C81 22 81 22 80 19 C80 20 80 20 79 24 C78 24 76 24 75 24 C75 22 74 21 74 19 C74 21 74 22 74 24 C78 25 78 25 82 24 C82 24 82 24 83 26 C84 29 84 29 85 31 C84 31 84 31 83 31 C83 32 83 32 84 36 C83 36 81 37 80 37 C80 36 80 36 78 33 C78 34 78 36 78 37 C81 37 81 37 84 37 C85 36 86 34 87 33 C86 38 86 38 85 40 C82 40 80 41 77 41 C76 40 76 39 75 38 C74 38 72 38 71 39 C69 39 68 39 66 39 C65 38 65 38 64 37 C64 38 63 40 63 41 C61 41 60 40 58 40 C58 38 57 37 57 35 C57 37 57 38 57 40 C58 41 58 41 59 42 C59 43 59 44 59 45 C54 46 51 45 46 43 C44 40 44 40 44 37 C42 37 41 36 39 36 C38 34 38 31 37 29 C32 29 31 30 27 33 C27 32 26 31 26 30 C24 30 22 30 20 30 C20 32 19 33 19 35 C21 36 23 36 25 37 C25 38 24 40 24 41 C20 42 19 42 16 41 C15 40 14 40 13 39 C13 38 13 37 13 36 C13 35 13 34 13 33 C10 31 10 31 7 29 C8 28 8 27 9 26 C9 22 8 21 5 17 C6 13 6 13 7 10 C5 10 3 10 1 10 C1 12 1 15 1 17 C0 17 0 18 -1 18 C-1 17 -2 17 -2 16 C-2 17 -3 18 -3 19 C-4 19 -6 19 -7 19 C-7 17 -6 16 -6 14 C-8 15 -8 15 -10 19 C-10 18 -10 18 -10 17 C-11 17 -11 17 -12 17 C-12 16 -12 14 -12 13 C-13 9 -13 9 -16 6 C-14 6 -13 5 -11 5 C-11 4 -10 2 -10 1 C-10 3 -9 6 -9 8 C-7 8 -5 8 -3 8 C-3 7 -2 6 -2 5 C-1 1 -1 1 0 0 Z " fill="#E5C762" transform="translate(299,380)"/>
<path d="M0 0 C1 1 3 1 4 2 C4 3 4 3 4 4 C3 4 3 4 0 5 C-5 8 -7 12 -10 17 C-11 17 -11 17 -12 19 C-14 22 -16 25 -17 29 C-16 30 -15 30 -14 31 C-14 34 -14 34 -14 37 C-10 37 -6 37 -2 37 C-2 37 -2 37 1 37 C7 37 12 36 17 32 C18 31 19 31 20 30 C23 28 25 27 27 26 C30 24 30 24 32 24 C32 23 32 23 32 22 C33 22 34 22 35 22 C35 23 35 23 35 24 C35 24 35 24 33 25 C18 33 4 43 -7 55 C-7 56 -6 57 -5 57 C-4 60 -4 60 -4 63 C2 64 9 64 15 65 C18 65 18 65 19 66 C22 66 24 65 27 65 C25 69 23 69 19 70 C14 73 9 75 4 79 C4 79 4 80 4 80 C6 80 6 80 17 79 C14 82 12 82 8 83 C7 83 6 83 5 83 C4 84 3 84 2 84 C2 85 3 87 3 88 C14 92 27 94 38 95 C39 96 41 96 42 96 C42 97 43 97 43 98 C29 98 16 95 3 91 C6 96 7 96 13 98 C14 99 15 99 17 100 C18 100 19 101 20 101 C20 102 20 103 20 104 C21 104 23 105 24 105 C25 106 26 106 27 106 C29 107 31 107 34 108 C34 108 34 108 37 109 C38 109 39 110 40 110 C43 111 43 111 44 113 C39 113 35 112 30 110 C24 108 18 108 11 109 C10 109 10 109 7 110 C4 110 0 110 -3 111 C-3 114 -3 116 -3 119 C-4 119 -4 119 -7 120 C-7 121 -7 121 -7 122 C-6 123 -4 123 -3 124 C-1 125 1 127 3 129 C5 131 8 133 11 135 C11 136 11 136 11 137 C7 136 6 135 3 132 C2 132 1 131 1 130 C0 130 0 130 -1 129 C-1 129 -1 129 -3 131 C-3 131 -3 131 -6 129 C-8 129 -11 128 -13 128 C-13 129 -14 129 -14 130 C-14 129 -15 127 -15 126 C-14 126 -14 126 -10 125 C-10 123 -11 121 -11 119 C-10 119 -10 119 -6 117 C-6 116 -6 114 -6 113 C-6 113 -6 113 -9 111 C-9 111 -9 111 -8 108 C-9 108 -10 108 -11 108 C-11 107 -10 107 -10 106 C-9 106 -9 106 -6 105 C-6 104 -6 102 -6 101 C-7 101 -7 100 -8 100 C-8 99 -8 99 -8 98 C-7 98 -7 98 -2 97 C-2 97 -2 97 -5 96 C-8 92 -8 92 -8 90 C-7 90 -5 90 -4 90 C-5 88 -5 87 -6 85 C-6 84 -7 83 -7 82 C-8 80 -8 80 -10 77 C-9 77 -8 77 -7 77 C-6 78 -6 78 -5 79 C-5 77 -6 75 -6 73 C-5 73 -5 73 -4 73 C-4 73 -4 73 -3 75 C-2 75 -2 74 -1 74 C2 73 5 72 8 71 C9 71 10 71 11 71 C11 70 11 70 13 70 C13 69 12 69 12 68 C9 68 6 67 3 67 C3 67 3 67 0 67 C-2 66 -4 66 -6 66 C-6 67 -7 67 -7 68 C-6 68 -6 68 -5 68 C-5 69 -6 71 -6 72 C-7 71 -9 70 -10 69 C-10 68 -10 68 -10 67 C-9 67 -9 67 -8 67 C-8 64 -8 62 -8 59 C-8 59 -8 59 -11 58 C-11 56 -12 53 -12 51 C-12 51 -12 51 -15 50 C-15 49 -15 49 -15 48 C-14 47 -13 47 -12 46 C-12 45 -12 43 -12 42 C-13 42 -13 42 -18 43 C-18 42 -19 41 -19 40 C-20 37 -20 37 -22 36 C-22 35 -21 35 -21 34 C-20 35 -19 35 -18 36 C-18 35 -17 33 -17 32 C-19 32 -22 32 -24 32 C-24 30 -25 29 -25 27 C-27 27 -28 27 -30 27 C-29 26 -29 25 -28 24 C-27 24 -25 24 -24 24 C-25 22 -25 20 -26 18 C-28 18 -30 18 -32 18 C-31 14 -31 14 -29 12 C-28 12 -28 12 -27 12 C-26 11 -25 11 -24 10 C-23 10 -21 9 -20 9 C-14 7 -9 4 -3 1 C-2 1 -1 0 0 0 Z " fill="#4C4331" transform="translate(468,262)"/>
<path d="M0 0 C13 1 22 7 30 17 C32 19 33 21 35 23 C39 27 43 31 48 35 C53 40 53 40 55 42 C55 42 55 42 53 43 C54 45 56 46 57 48 C54 46 52 45 49 42 C46 39 46 39 44 38 C44 37 44 37 44 36 C43 35 41 35 40 34 C39 35 39 36 38 37 C30 32 30 32 28 30 C25 27 22 26 18 24 C19 25 20 26 20 27 C27 35 33 43 40 51 C42 54 42 54 44 56 C45 57 45 57 46 58 C46 61 46 61 45 63 C44 62 43 61 42 61 C38 58 38 58 36 58 C32 57 31 55 28 52 C28 52 28 52 26 49 C24 47 24 47 24 45 C23 44 21 44 20 43 C18 41 16 40 14 38 C11 35 7 32 3 29 C-1 26 -1 26 -3 23 C-3 15 -3 15 0 12 C-1 11 -1 10 -2 10 C-2 9 -3 8 -3 7 C-3 6 -2 5 -2 4 C1 5 4 7 7 8 C4 6 2 4 -1 2 C-1 1 0 1 0 0 Z " fill="#D7B2D5" transform="translate(441,429)"/>
<path d="M0 0 C10 0 20 1 30 2 C32 2 33 2 35 2 C41 3 46 4 52 6 C54 6 55 7 57 7 C58 7 59 8 60 8 C60 9 60 9 60 10 C61 10 62 10 62 9 C65 9 65 9 67 10 C67 10 67 10 68 12 C69 12 69 11 70 11 C73 12 73 12 76 13 C77 13 78 13 79 14 C82 15 82 15 86 18 C83 18 81 17 78 16 C75 15 75 15 71 15 C66 15 61 14 56 14 C55 13 54 13 53 13 C47 12 47 12 44 11 C41 10 38 9 35 9 C34 9 33 9 31 9 C30 8 29 8 28 8 C20 7 13 6 6 4 C7 7 7 7 9 8 C17 11 24 14 31 16 C40 19 49 23 57 27 C58 28 60 28 61 29 C69 33 76 37 83 42 C82 43 81 43 80 44 C78 43 75 42 73 41 C73 41 73 41 72 43 C71 42 71 41 70 40 C70 41 70 41 70 42 C61 40 61 40 58 38 C55 38 55 38 52 38 C51 39 51 39 50 40 C47 39 45 37 42 36 C42 35 42 34 42 33 C44 33 47 34 49 34 C49 34 49 34 47 33 C30 28 15 20 0 12 C0 8 0 4 0 0 Z " fill="#E2E2DE" transform="translate(478,378)"/>
<path d="M0 0 C2 0 3 0 5 0 C5 1 5 1 5 2 C4 2 3 3 2 3 C2 4 2 5 2 6 C3 6 3 7 4 7 C4 9 4 11 4 13 C5 12 5 12 6 11 C6 11 6 11 8 9 C9 9 11 10 12 10 C13 13 13 13 14 15 C14 15 14 15 15 16 C16 16 18 16 19 16 C18 16 17 17 16 17 C16 18 16 18 17 22 C19 22 21 23 23 23 C24 21 24 19 25 17 C27 17 28 16 30 16 C29 17 28 17 27 18 C27 20 27 21 27 23 C28 23 28 23 31 24 C31 24 31 24 28 25 C28 26 28 26 29 31 C27 31 26 30 24 30 C24 31 24 31 25 35 C27 35 28 35 30 35 C30 36 30 36 30 37 C28 37 26 37 24 37 C24 38 23 40 23 41 C22 42 21 43 20 44 C20 45 21 46 21 47 C20 47 19 47 18 47 C18 49 17 52 17 54 C16 54 16 54 13 55 C13 54 13 54 13 53 C12 53 12 53 11 53 C11 53 11 53 11 51 C10 48 10 48 7 46 C7 44 7 44 8 41 C9 40 10 40 11 39 C10 38 9 38 8 37 C9 33 9 33 11 30 C10 30 10 30 5 31 C4 29 4 29 4 26 C5 25 5 24 6 23 C6 22 6 22 6 21 C5 22 4 22 3 23 C3 24 3 25 3 26 C0 27 -3 27 -6 27 C-7 27 -7 27 -10 27 C-13 26 -16 26 -19 26 C-27 26 -33 26 -40 29 C-41 29 -41 28 -42 28 C-37 26 -32 24 -27 22 C-25 21 -24 21 -22 20 C-21 20 -20 19 -19 19 C-19 18 -20 18 -20 17 C-15 15 -11 13 -6 11 C-6 10 -6 10 -7 7 C-8 7 -9 8 -11 8 C-15 9 -15 9 -19 8 C-17 7 -14 6 -12 6 C-10 5 -9 5 -8 4 C-4 3 -4 3 -1 3 C-1 2 0 1 0 0 Z " fill="#896C28" transform="translate(236,348)"/>
<path d="M0 0 C2 1 2 1 5 3 C5 4 6 6 6 7 C7 8 8 9 8 10 C12 14 12 17 13 22 C15 22 16 22 18 22 C20 24 20 24 22 27 C22 28 23 29 24 30 C25 32 25 32 25 34 C25 34 25 34 28 35 C32 40 32 40 32 44 C33 44 33 44 34 44 C35 45 37 47 38 49 C39 50 39 50 40 51 C41 52 41 53 42 54 C47 60 47 60 50 62 C50 63 50 63 50 64 C51 65 53 65 54 66 C55 67 55 69 56 70 C57 70 57 70 58 70 C58 71 59 72 59 73 C60 74 60 75 61 76 C61 77 62 79 62 80 C64 82 65 85 66 87 C66 88 66 88 65 91 C60 90 58 87 54 83 C52 81 52 81 50 80 C46 79 45 76 43 74 C41 71 38 68 36 65 C24 51 13 36 4 20 C3 19 3 18 2 17 C0 13 -2 9 -2 4 C-1 3 -1 1 0 0 Z " fill="#E2BCE3" transform="translate(202,169)"/>
<path d="M0 0 C1 0 1 0 2 0 C2 1 2 2 2 3 C3 4 3 5 3 6 C4 6 4 7 5 7 C5 8 4 8 4 9 C5 9 7 9 8 9 C8 8 9 7 9 6 C8 6 7 5 6 5 C7 5 8 4 9 4 C10 5 10 5 11 6 C13 8 15 9 19 9 C19 7 20 6 20 4 C21 4 22 3 23 3 C23 5 23 8 23 10 C24 10 24 10 25 10 C42 11 58 16 74 21 C69 22 67 21 63 20 C63 20 63 20 65 22 C59 21 53 19 47 18 C41 16 35 15 28 15 C28 17 28 18 28 20 C29 20 30 20 32 21 C39 22 45 25 52 28 C52 28 52 28 53 30 C45 28 37 25 29 22 C27 27 27 27 27 31 C30 35 34 39 38 42 C35 42 35 42 32 40 C31 37 29 35 27 33 C24 31 24 31 21 31 C21 31 21 31 19 32 C18 30 17 29 16 27 C15 26 14 25 14 24 C12 22 12 22 11 20 C11 21 11 21 10 25 C9 25 8 26 7 26 C4 27 4 27 2 29 C-1 29 -1 29 -3 28 C-3 27 -2 27 -2 26 C-1 26 -1 26 0 26 C2 22 2 22 2 20 C2 19 1 19 1 18 C0 19 0 19 -1 20 C-2 20 -3 21 -4 21 C-4 22 -3 22 -3 23 C-4 23 -4 23 -5 22 C-9 22 -10 23 -13 25 C-17 24 -17 24 -19 22 C-21 23 -22 24 -24 25 C-19 16 -19 16 -14 14 C-14 13 -13 13 -13 12 C-14 11 -16 11 -17 10 C-17 9 -16 8 -16 7 C-16 7 -16 7 -14 10 C-13 10 -12 9 -11 9 C-11 7 -11 6 -11 4 C-10 5 -8 6 -7 7 C-6 7 -5 6 -4 6 C-3 6 -1 6 0 6 C0 4 0 2 0 0 Z " fill="#9C7F33" transform="translate(435,388)"/>
<path d="M0 0 C0 0 0 0 1 2 C2 2 3 2 4 2 C4 3 4 3 4 4 C3 4 2 5 2 5 C1 5 0 6 -1 6 C-2 6 -3 7 -4 7 C-7 8 -7 8 -8 9 C-7 9 -7 9 -6 9 C-6 10 -6 12 -6 13 C-7 14 -7 14 -14 17 C-4 16 7 14 17 13 C23 12 26 11 31 14 C31 17 31 17 29 20 C25 21 25 21 21 22 C13 23 7 25 -1 28 C-5 29 -10 31 -15 32 C-15 31 -15 31 -15 30 C-16 30 -17 30 -18 30 C-31 30 -31 30 -37 28 C-39 25 -39 25 -40 22 C-41 21 -41 21 -42 20 C-38 16 -33 13 -29 9 C-28 11 -28 13 -27 15 C-24 13 -24 13 -22 11 C-18 7 -15 6 -11 4 C-9 3 -8 2 -7 2 C-3 0 -3 0 0 0 Z " fill="#D7CBC2" transform="translate(501,297)"/>
<path d="M0 0 C0 0 1 0 1 0 C1 1 2 2 2 3 C2 5 3 7 4 10 C6 17 6 17 5 20 C4 20 2 21 1 21 C1 22 1 24 1 25 C1 31 1 37 0 43 C0 44 0 45 0 46 C-1 50 -1 53 -3 57 C-3 51 -3 44 -2 38 C-2 37 -2 36 -2 35 C-1 33 -1 31 -1 29 C-2 29 -2 29 -3 29 C-3 28 -3 28 -3 27 C-5 27 -7 26 -9 26 C-9 25 -9 23 -9 22 C-10 22 -11 22 -12 22 C-12 23 -13 24 -13 25 C-14 28 -15 31 -17 35 C-22 49 -27 65 -31 80 C-32 80 -32 80 -33 80 C-34 81 -35 83 -36 84 C-36 83 -37 82 -37 81 C-38 81 -40 81 -41 81 C-39 76 -37 71 -35 66 C-31 57 -29 49 -28 40 C-26 31 -24 24 -18 17 C-17 16 -17 15 -16 15 C-15 13 -13 11 -12 10 C-10 8 -10 8 -7 4 C-4 3 -4 3 -1 3 C-1 2 0 1 0 0 Z " fill="#C7C0A6" transform="translate(323,457)"/>
<path d="M0 0 C6 3 11 8 17 13 C19 15 21 17 23 19 C28 22 32 27 36 31 C37 32 38 33 39 34 C39 34 39 34 38 32 C36 24 36 19 37 11 C37 11 38 11 38 11 C38 12 38 13 38 15 C41 36 41 36 44 40 C45 41 45 41 46 42 C49 45 49 45 50 49 C51 51 52 52 53 54 C53 55 54 56 54 57 C55 57 55 57 56 60 C69 82 77 103 82 128 C83 133 83 133 84 136 C85 136 85 136 88 138 C89 139 91 141 92 143 C94 145 96 147 99 149 C99 151 98 152 98 154 C93 152 93 152 91 151 C91 153 91 154 91 156 C90 156 89 156 88 156 C88 155 88 155 88 154 C87 154 85 155 84 155 C84 156 83 158 83 159 C82 159 82 159 81 159 C80 150 79 141 78 132 C78 126 77 121 75 116 C74 113 73 110 73 108 C71 101 68 94 65 87 C64 83 62 78 60 74 C58 69 55 64 51 59 C50 57 49 55 48 54 C46 51 46 51 44 50 C44 49 43 48 43 47 C43 47 43 47 41 46 C41 46 41 46 40 44 C37 39 33 35 28 30 C26 28 26 28 24 25 C22 23 22 23 20 22 C20 21 20 21 20 20 C19 20 19 20 18 20 C16 18 15 16 13 14 C7 8 0 1 -8 1 C-9 1 -10 1 -11 1 C-12 2 -12 4 -13 5 C-17 6 -17 6 -21 6 C-20 5 -18 5 -17 4 C-14 1 -14 1 -13 -1 C-8 -3 -4 -1 0 0 Z " fill="#5E334B" transform="translate(220,93)"/>
<path d="M0 0 C3 1 5 1 8 2 C8 2 8 2 10 2 C18 4 25 6 32 9 C35 10 35 10 39 10 C37 7 35 4 32 1 C33 0 34 0 35 0 C36 0 36 0 37 1 C38 3 39 5 41 6 C42 8 43 10 44 11 C47 14 51 15 54 17 C61 19 67 23 73 26 C74 27 75 27 76 28 C86 34 95 41 104 49 C105 49 106 50 107 50 C113 56 121 63 123 71 C126 71 128 72 131 73 C133 74 133 74 137 75 C142 77 148 78 153 80 C153 81 152 82 150 84 C150 85 150 87 150 89 C148 89 145 89 142 90 C142 92 142 93 142 96 C142 96 142 96 138 98 C138 96 137 95 136 94 C131 86 126 78 119 71 C117 69 117 69 116 66 C113 58 104 50 96 45 C96 45 95 45 93 45 C92 44 91 43 90 42 C80 32 65 26 52 21 C49 19 46 18 44 17 C25 9 5 2 -16 1 C-11 -3 -5 -1 0 0 Z " fill="#574441" transform="translate(115.50830078125,193.478515625)"/>
<path d="M0 0 C0 4 -2 5 -5 9 C-19 25 -31 47 -34 68 C-32 67 -32 67 -30 63 C-27 56 -22 49 -17 43 C-17 47 -18 48 -20 52 C-22 54 -24 57 -25 60 C-20 61 -17 62 -13 59 C-13 58 -12 56 -12 55 C-9 52 -9 52 -5 50 C-4 50 -3 51 -2 51 C-1 51 0 51 1 51 C-16 64 -16 64 -21 64 C-20 67 -20 67 -16 70 C-17 70 -18 71 -19 71 C-23 72 -23 72 -27 74 C-28 73 -28 72 -29 71 C-32 70 -32 70 -34 70 C-34 71 -34 71 -34 72 C-35 72 -35 72 -36 72 C-37 69 -37 66 -38 63 C-40 63 -43 63 -45 63 C-45 61 -45 60 -45 58 C-47 58 -49 57 -51 57 C-51 55 -52 53 -52 51 C-53 51 -55 51 -56 51 C-56 50 -55 49 -55 48 C-54 48 -54 49 -53 49 C-53 48 -52 48 -52 47 C-49 49 -49 49 -48 53 C-48 52 -48 50 -48 49 C-45 47 -43 45 -40 43 C-39 43 -38 42 -37 42 C-34 40 -31 38 -28 37 C-27 37 -27 36 -26 36 C-25 34 -25 32 -24 30 C-19 20 -12 8 -3 1 C-2 1 -2 1 -1 1 C-1 1 0 0 0 0 Z " fill="#605339" transform="translate(465,202)"/>
<path d="M0 0 C0 1 1 3 1 4 C4 5 6 5 9 6 C10 6 11 6 12 6 C15 6 17 7 20 7 C20 7 20 7 23 7 C24 7 25 7 27 8 C27 8 28 8 29 8 C29 8 29 8 30 10 C28 10 27 10 25 10 C20 9 14 9 8 8 C5 8 3 8 0 7 C0 8 0 10 1 11 C1 16 1 16 0 18 C11 24 22 29 33 34 C34 34 35 35 36 35 C41 37 46 39 51 41 C47 42 46 41 42 40 C43 43 43 43 45 44 C46 45 47 45 48 45 C49 46 50 46 51 47 C52 47 52 47 54 48 C59 50 64 53 68 56 C68 56 68 56 66 57 C63 56 60 54 57 52 C54 51 51 51 48 50 C46 49 43 48 41 47 C37 45 33 44 29 42 C30 42 30 42 33 41 C33 41 33 41 31 40 C31 39 31 39 31 38 C30 38 29 38 28 37 C18 35 9 33 -1 30 C-1 29 -1 29 -1 28 C0 28 0 28 1 28 C1 27 1 27 1 26 C0 25 -2 25 -3 24 C-5 22 -7 21 -9 19 C-15 14 -15 14 -17 13 C-17 12 -17 12 -17 11 C-16 11 -15 10 -14 10 C-14 7 -14 5 -14 2 C-9 0 -5 0 0 0 Z " fill="#958A6F" transform="translate(478,371)"/>
<path d="M0 0 C1 0 1 1 2 1 C2 3 2 5 2 7 C3 7 5 6 6 6 C6 5 7 3 7 2 C8 6 8 9 6 13 C5 12 5 11 4 10 C3 11 2 12 1 13 C1 13 1 13 -1 14 C-6 16 -9 21 -12 25 C-12 25 -12 25 -14 27 C-20 35 -21 42 -23 51 C-28 73 -36 94 -50 112 C-51 112 -51 112 -52 112 C-51 107 -49 104 -46 99 C-41 89 -36 78 -32 67 C-32 66 -31 64 -31 63 C-31 63 -31 63 -30 60 C-29 58 -29 58 -27 57 C-27 57 -27 57 -28 56 C-28 50 -26 44 -25 38 C-23 27 -22 16 -21 5 C-20 5 -20 5 -19 5 C-19 4 -18 2 -18 1 C-17 2 -17 4 -16 5 C-14 5 -12 5 -10 5 C-10 6 -10 6 -9 10 C-8 10 -8 9 -7 9 C-4 8 -4 8 0 9 C0 8 0 6 -1 5 C-1 4 -1 2 -1 1 C-1 1 0 0 0 0 Z " fill="#4F4632" transform="translate(319,448)"/>
<path d="M0 0 C2 0 5 1 7 1 C7 2 7 2 8 8 C7 8 6 8 5 8 C5 8 5 9 5 9 C6 9 7 10 8 10 C8 10 8 10 8 12 C9 15 9 15 12 17 C11 17 11 17 10 17 C9 18 9 20 8 21 C6 23 5 26 3 28 C1 32 1 34 1 38 C2 39 3 40 4 41 C3 43 3 43 0 51 C-2 51 -5 51 -7 51 C-8 53 -8 55 -9 57 C-10 56 -10 54 -11 53 C-14 52 -14 52 -18 52 C-18 52 -18 52 -20 51 C-20 50 -19 48 -19 47 C-15 45 -12 44 -8 43 C-8 42 -8 42 -9 37 C-7 36 -6 36 -4 35 C-6 35 -7 35 -9 35 C-10 38 -11 40 -12 43 C-13 43 -13 43 -14 43 C-17 42 -20 42 -24 42 C-24 42 -24 42 -27 42 C-28 42 -28 42 -30 42 C-30 42 -30 41 -30 41 C-29 41 -29 41 -25 40 C-26 39 -26 37 -27 36 C-31 35 -31 35 -35 34 C-38 33 -41 32 -43 31 C-45 30 -46 30 -48 29 C-51 28 -51 28 -52 26 C-44 28 -36 31 -28 34 C-24 35 -20 36 -16 37 C-16 30 -19 27 -24 22 C-24 21 -23 21 -23 20 C-22 21 -22 21 -21 22 C-19 24 -19 24 -16 25 C-16 25 -16 25 -15 22 C-12 25 -10 29 -7 32 C-5 29 -5 27 -4 24 C-2 24 1 23 3 23 C3 23 3 23 3 21 C4 18 4 18 6 16 C2 15 -2 14 -6 13 C-5 13 -4 12 -3 12 C-4 8 -4 8 -7 6 C-8 5 -9 5 -10 4 C-9 4 -9 3 -8 3 C-7 3 -6 4 -6 5 C-3 6 -3 6 1 5 C1 4 1 4 0 0 Z " fill="#BF9E44" transform="translate(262,258)"/>
<path d="M0 0 C2 3 5 6 7 10 C12 18 18 25 24 32 C33 42 33 42 33 45 C35 47 35 47 37 49 C37 49 37 49 39 51 C41 53 43 53 46 54 C48 56 49 58 51 60 C52 61 54 62 55 63 C56 63 57 64 58 65 C58 66 58 68 58 69 C59 69 59 69 60 69 C60 70 61 71 61 72 C56 71 54 68 50 65 C43 58 43 58 40 56 C35 51 31 47 27 42 C26 41 25 40 24 39 C21 36 21 36 19 33 C15 29 13 28 8 27 C7 26 5 26 4 25 C3 25 1 24 0 24 C-3 23 -5 22 -8 21 C-8 22 -9 22 -9 23 C-9 22 -10 20 -10 19 C-11 19 -11 18 -12 18 C-11 18 -10 17 -9 17 C-9 16 -9 14 -9 13 C-7 13 -5 12 -3 12 C-3 10 -3 9 -3 7 C-2 7 -1 7 0 7 C0 5 0 2 0 0 Z " fill="#4A4537" transform="translate(445,406)"/>
<path d="M0 0 C1 1 1 3 2 4 C5 5 5 5 7 5 C7 4 7 3 7 2 C8 2 8 2 9 2 C10 8 8 11 5 16 C0 26 -3 37 -6 48 C-7 48 -8 47 -9 47 C-9 48 -9 49 -10 50 C-10 51 -10 53 -10 54 C-11 56 -11 57 -11 58 C-12 62 -12 62 -15 66 C-14 58 -13 51 -10 44 C-4 30 -6 21 -11 8 C-11 7 -12 6 -12 5 C-10 5 -8 5 -6 5 C-6 6 -6 7 -6 8 C-4 8 -3 7 -1 7 C-1 6 -1 5 -1 4 C-1 1 -1 1 0 0 Z " fill="#4F4632" transform="translate(336,456)"/>
<path d="M0 0 C7 1 14 1 21 2 C40 5 57 4 76 1 C78 1 81 0 83 0 C83 1 83 2 83 3 C79 4 76 4 72 5 C71 5 70 5 69 5 C64 6 59 6 54 6 C54 7 54 7 54 8 C55 8 56 9 57 9 C56 9 56 10 55 10 C54 10 53 9 52 9 C50 9 47 9 45 9 C44 9 42 9 41 9 C39 9 38 9 36 9 C4 8 4 8 -9 3 C-9 2 -9 2 -9 1 C-6 1 -3 2 0 2 C0 1 0 1 0 0 Z " fill="#4C4331" transform="translate(521,373)"/>
<path d="M0 0 C1 0 1 0 2 0 C4 9 5 17 5 26 C6 41 7 54 14 67 C16 71 16 71 16 74 C16 74 16 74 13 75 C11 70 9 64 7 59 C6 63 5 66 5 70 C5 71 4 73 4 74 C4 77 3 80 3 83 C3 84 2 86 2 87 C2 88 2 89 2 91 C1 94 1 94 -1 98 C-1 94 -1 89 0 85 C4 61 7 32 -1 9 C-2 6 -2 6 -1 2 C-1 3 -1 4 -1 5 C-1 3 0 2 0 0 Z " fill="#897339" transform="translate(378,511)"/>
<path d="M0 0 C2 6 2 12 1 18 C-5 17 -10 15 -15 12 C-14 11 -14 10 -13 9 C-14 8 -14 6 -15 5 C-15 4 -14 4 -14 3 C-15 3 -15 3 -16 3 C-16 2 -15 2 -15 1 C-15 1 -15 1 -13 2 C-8 2 -5 0 0 0 Z " fill="#AF8B33" transform="translate(293,236)"/>
<path d="M0 0 C4 2 8 4 11 7 C23 15 35 23 48 29 C48 30 48 30 48 31 C48 31 48 31 51 31 C54 32 57 33 59 34 C61 34 62 34 63 35 C64 35 65 36 66 36 C68 37 70 37 72 38 C73 38 74 39 75 39 C78 40 81 41 84 42 C84 42 84 42 88 43 C88 44 89 44 89 45 C64 43 38 30 18 15 C15 13 13 12 9 12 C10 11 10 11 11 10 C10 9 9 9 8 8 C7 7 6 7 5 6 C5 5 5 5 5 4 C4 3 2 3 1 2 C1 1 0 1 0 0 Z " fill="#7B612B" transform="translate(125,254)"/>
<path d="M0 0 C-3 2 -6 3 -10 4 C-23 8 -36 13 -45 24 C-46 25 -48 26 -49 27 C-52 30 -55 33 -57 36 C-62 40 -66 43 -71 47 C-72 47 -72 46 -73 46 C-72 45 -71 44 -70 44 C-69 43 -68 42 -67 41 C-67 40 -67 39 -67 38 C-65 36 -65 36 -62 34 C-55 29 -48 23 -42 16 C-41 15 -40 14 -39 13 C-36 10 -34 8 -31 5 C-31 6 -31 8 -31 9 C-30 9 -29 8 -28 8 C-25 7 -21 5 -17 4 C-17 4 -17 4 -13 2 C-12 2 -11 2 -9 1 C-9 1 -9 1 -6 0 C-3 -1 -3 -1 0 0 Z " fill="#4C4331" transform="translate(573,202)"/>
<path d="M0 0 C0 0 0 0 2 1 C5 2 5 2 8 2 C9 2 9 3 10 3 C10 4 10 4 10 5 C11 5 12 5 13 5 C13 6 13 6 13 7 C14 7 14 7 15 8 C20 10 26 13 31 15 C34 17 37 18 40 19 C40 20 40 22 40 23 C41 23 41 23 42 23 C45 24 47 25 50 26 C49 26 49 26 46 28 C49 32 51 35 54 39 C54 39 54 39 53 41 C52 40 51 38 50 37 C49 36 49 35 48 35 C46 32 46 32 44 28 C41 24 38 23 33 21 C28 18 23 16 18 13 C16 12 14 11 13 10 C8 8 4 5 0 2 C0 1 0 1 0 0 Z " fill="#4A4537" transform="translate(506,477)"/>
<path d="M0 0 C4 1 6 2 8 5 C13 9 19 10 25 11 C26 11 27 12 28 12 C35 14 41 15 48 16 C48 16 48 17 48 17 C41 17 34 16 27 15 C24 14 24 14 20 14 C22 16 25 18 27 20 C28 21 28 21 29 22 C30 22 30 23 31 24 C31 24 31 24 33 25 C34 26 36 28 37 29 C42 33 42 33 43 37 C39 35 36 32 33 29 C28 24 23 20 16 16 C16 15 15 15 14 14 C14 13 14 12 14 11 C13 10 11 10 10 9 C8 8 6 7 5 6 C4 5 3 4 2 4 C2 3 2 3 0 2 C0 1 0 1 0 0 Z " fill="#958A6F" transform="translate(546,427)"/>
<path d="M0 0 C3 0 3 0 5 1 C7 13 4 21 -1 32 C-2 33 -2 33 -3 34 C-3 29 -3 23 -3 18 C-3 17 -3 15 -3 14 C-2 12 -2 11 -2 9 C-2 8 -2 7 -2 5 C-2 2 -2 2 0 0 Z " fill="#F3EBEF" transform="translate(325,476)"/>
<path d="M0 0 C1 5 0 8 -2 13 C-3 14 -3 14 -3 15 C-4 17 -5 19 -6 21 C-5 21 -3 22 -2 22 C-2 22 -2 22 -4 24 C-18 34 -30 45 -40 58 C-41 58 -41 57 -42 57 C-41 55 -39 53 -38 51 C-37 51 -37 51 -36 51 C-36 50 -36 50 -35 49 C-34 45 -32 43 -29 41 C-28 40 -27 39 -26 38 C-24 36 -24 36 -22 36 C-22 35 -22 35 -22 34 C-20 33 -19 32 -17 31 C-8 24 -6 13 -2 3 C-1 1 -1 1 0 0 Z " fill="#605339" transform="translate(503,145)"/>
<path d="M0 0 C-1 2 -1 2 -4 3 C-8 4 -12 5 -16 5 C-24 7 -32 8 -39 10 C-43 11 -46 12 -49 12 C-44 4 -27 3 -18 1 C-12 0 -6 0 0 0 Z " fill="#4C4331" transform="translate(544,316)"/>
<path d="M0 0 C0 1 0 1 0 2 C-2 2 -3 3 -5 3 C-5 4 -5 4 -5 5 C-3 5 -2 5 0 5 C6 5 12 6 18 7 C19 7 20 7 21 8 C23 8 26 9 28 9 C28 9 28 10 28 10 C22 10 16 9 10 8 C-8 6 -26 5 -45 4 C-45 3 -45 3 -45 2 C-44 2 -43 2 -42 2 C-38 2 -33 2 -29 2 C-28 2 -26 2 -24 2 C-22 2 -19 2 -16 2 C-15 2 -13 2 -12 2 C-7 2 -5 0 0 0 Z " fill="#4C4331" transform="translate(589,314)"/>
<path d="M0 0 C2 0 4 1 5 1 C6 1 6 1 8 1 C11 2 11 2 15 4 C18 4 22 4 25 4 C26 4 27 4 28 4 C31 4 34 4 37 4 C39 4 41 4 44 3 C49 3 54 3 59 3 C59 3 59 3 60 6 C61 6 61 7 62 7 C48 7 34 7 20 7 C20 8 19 8 19 9 C18 9 17 9 17 9 C14 8 14 8 13 8 C13 7 12 7 12 6 C8 3 4 2 0 1 C0 1 0 0 0 0 Z " fill="#AF8B33" transform="translate(105,315)"/>
<path d="M0 0 C3 6 4 12 5 18 C5 20 6 22 6 24 C9 37 11 50 12 63 C13 63 14 63 15 63 C15 64 14 64 14 65 C13 71 13 76 13 81 C13 83 13 86 13 88 C13 89 13 90 13 91 C13 93 13 93 11 95 C11 94 11 93 11 92 C10 64 7 36 1 9 C0 5 0 5 0 0 Z " fill="#AF8B33" transform="translate(372,64)"/>
<path d="M0 0 C0 3 0 3 -1 7 C-3 9 -3 9 -5 10 C-12 14 -16 19 -20 25 C-21 26 -22 28 -23 29 C-24 29 -24 29 -25 29 C-25 30 -26 32 -26 33 C-28 35 -28 35 -30 37 C-31 37 -31 36 -32 36 C-31 34 -31 33 -30 31 C-29 31 -29 31 -28 31 C-28 30 -28 30 -27 29 C-26 26 -24 23 -22 21 C-21 21 -21 21 -20 21 C-20 20 -20 20 -20 19 C-19 19 -19 19 -18 19 C-17 18 -17 16 -16 15 C-11 10 -6 5 0 0 Z " fill="#554635" transform="translate(195,455)"/>
<path d="M0 0 C1 1 1 1 2 2 C-5 8 -12 13 -19 19 C-21 20 -21 20 -22 21 C-18 21 -15 21 -11 21 C-11 21 -11 22 -11 22 C-16 23 -20 23 -25 24 C-26 24 -28 24 -29 24 C-35 25 -42 26 -48 27 C-44 23 -39 23 -33 23 C-29 22 -29 22 -26 19 C-24 18 -23 18 -21 17 C-19 15 -19 15 -16 13 C-16 13 -15 12 -14 11 C-13 11 -12 10 -11 9 C-9 7 -7 6 -5 4 C-3 3 -2 1 0 0 Z " fill="#4C4331" transform="translate(591,243)"/>
<path d="M0 0 C7 0 7 0 10 2 C11 1 11 1 12 0 C14 1 15 3 17 4 C18 5 19 6 20 7 C21 8 21 8 22 9 C22 9 22 10 22 10 C16 10 9 9 3 8 C3 6 2 4 2 2 C1 2 1 2 0 2 C0 1 0 1 0 0 Z " fill="#958A6F" transform="translate(455,390)"/>
<path d="M0 0 C1 1 3 1 4 2 C4 3 4 3 4 4 C1 5 -2 5 -4 6 C-5 6 -5 6 -9 7 C-14 8 -18 8 -23 8 C-22 8 -22 7 -21 7 C-21 6 -21 5 -21 4 C-20 4 -18 4 -17 3 C-16 3 -14 3 -12 3 C-11 2 -11 2 -10 2 C-6 2 -3 1 0 0 Z " fill="#896C28" transform="translate(190,374)"/>
<path d="M0 0 C0 1 -1 2 -1 3 C-4 4 -6 4 -9 5 C-12 6 -15 7 -18 8 C-19 8 -19 8 -21 9 C-27 11 -32 13 -38 16 C-39 16 -39 15 -40 15 C-36 11 -31 9 -25 7 C-24 7 -23 6 -22 6 C-6 0 -6 0 0 0 Z " fill="#4C4331" transform="translate(543,269)"/>
<path d="M0 0 C5 0 10 1 15 1 C15 6 15 9 13 13 C9 9 4 4 0 0 Z " fill="#BF9E44" transform="translate(227,302)"/>
<path d="M0 0 C15 0 30 0 45 0 C45 1 45 2 45 3 C35 3 26 4 16 4 C16 3 16 3 16 2 C15 2 13 2 12 2 C8 2 4 2 0 1 C0 1 0 0 0 0 Z " fill="#896C28" transform="translate(122,379)"/>
<path d="M0 0 C0 0 1 0 1 0 C0 6 0 13 -2 19 C-2 23 -3 27 -3 31 C-3 31 -4 31 -4 31 C-4 29 -5 26 -5 24 C-6 25 -7 27 -8 28 C-8 18 -8 18 -6 14 C-5 14 -3 13 -2 13 C-2 11 -2 10 -2 8 C-1 5 -1 3 0 0 Z " fill="#4F4632" transform="translate(327,508)"/>
<path d="M0 0 C0 4 -2 6 -5 9 C-5 10 -6 11 -7 13 C-10 17 -14 20 -17 24 C-18 24 -18 23 -19 23 C-17 20 -15 16 -13 13 C-12 12 -11 11 -11 10 C-11 10 -11 10 -9 7 C-9 7 -8 6 -8 5 C-7 5 -7 5 -6 3 C-5 3 -4 3 -3 3 C-2 2 -1 1 0 0 Z " fill="#4C4331" transform="translate(561,183)"/>
<path d="M0 0 C2 4 0 8 -1 12 C-1 12 -1 13 -1 14 C-2 17 -2 19 -3 21 C-4 21 -4 22 -5 22 C-5 18 -4 14 -4 10 C-5 11 -7 13 -8 14 C-9 15 -11 17 -12 18 C-13 17 -13 17 -14 16 C-13 15 -13 15 -12 14 C-8 9 -4 5 0 0 Z " fill="#4F4632" transform="translate(267,560)"/>
<path d="M0 0 C1 0 1 1 2 1 C-6 8 -14 12 -23 16 C-24 16 -25 17 -26 17 C-32 20 -32 20 -36 19 C-32 17 -28 15 -24 13 C-16 10 -8 6 0 0 Z " fill="#4C4331" transform="translate(625,295)"/>
<path d="M0 0 C1 1 2 1 3 2 C0 7 -3 11 -6 16 C-8 19 -8 19 -10 23 C-11 23 -11 23 -12 23 C-11 18 -10 15 -7 10 C-6 9 -6 8 -5 7 C-3 5 -2 2 0 0 Z " fill="#AF8B33" transform="translate(436,143)"/>
<path d="M0 0 C1 0 1 0 2 0 C2 42 2 42 -1 49 C-1 33 0 17 0 0 Z " fill="#897339" transform="translate(366,536)"/>
<path d="M0 0 C1 0 1 0 2 0 C5 10 6 20 7 30 C7 31 8 33 8 34 C8 41 9 47 9 53 C6 49 6 45 6 41 C5 27 3 13 0 0 Z " fill="#897339" transform="translate(358,483)"/>
<path d="M0 0 C1 0 1 1 2 1 C2 2 2 3 2 4 C4 4 6 4 8 4 C8 5 7 6 7 7 C6 7 5 7 4 7 C-1 8 -4 11 -7 15 C-7 15 -7 15 -9 17 C-11 19 -12 21 -14 23 C-15 24 -15 24 -16 25 C-17 27 -19 28 -20 30 C-20 26 -18 24 -15 21 C-14 20 -13 19 -12 18 C-11 18 -11 18 -9 15 C-1 6 -1 6 0 0 Z " fill="#554635" transform="translate(290,444)"/>
<path d="M0 0 C5 2 5 5 7 9 C15 24 15 24 13 31 C12 31 10 32 9 32 C9 33 8 35 8 36 C7 36 7 35 6 35 C6 34 7 32 7 31 C9 31 10 30 12 30 C10 21 7 14 3 6 C1 3 1 3 0 0 Z " fill="#4A4537" transform="translate(559,518)"/>
<path d="M0 0 C8 0 17 1 25 4 C25 4 25 4 26 6 C20 6 20 6 -11 3 C-11 3 -11 2 -11 2 C-7 2 -4 2 0 2 C0 1 0 1 0 0 Z " fill="#7B612B" transform="translate(108,260)"/>
<path d="M0 0 C1 0 2 1 3 1 C2 4 2 6 1 9 C1 11 0 12 0 14 C-1 18 -1 18 -2 21 C-3 24 -3 24 -3 29 C-4 33 -4 33 -6 35 C-5 23 -4 11 0 0 Z " fill="#AF8B33" transform="translate(325,91)"/>
<path d="M0 0 C1 3 1 3 1 5 C0 5 -1 6 -2 6 C-4 6 -5 7 -6 7 C-6 8 -7 8 -7 9 C-10 8 -13 7 -16 6 C-16 5 -15 5 -15 4 C-13 3 -10 3 -7 2 C-6 2 -5 1 -3 1 C-2 1 -1 0 0 0 Z " fill="#DFCAD3" transform="translate(555,213)"/>
<path d="M0 0 C1 0 1 0 2 0 C4 4 7 8 9 12 C10 13 10 14 11 16 C11 17 12 18 13 19 C13 20 14 21 14 22 C16 25 17 27 18 30 C12 25 9 19 5 12 C4 11 4 10 3 9 C0 3 0 3 0 0 Z " fill="#574441" transform="translate(131,163)"/>
<path d="M0 0 C0 1 1 2 1 3 C2 3 4 4 5 4 C6 5 6 5 6 9 C5 18 -1 27 -6 35 C-7 35 -7 34 -8 34 C-7 33 -7 32 -6 31 C-2 24 1 18 3 10 C3 9 2 8 2 7 C2 6 3 5 3 4 C2 4 1 4 0 4 C0 3 0 1 0 0 Z " fill="#4C4331" transform="translate(569,148)"/>
<path d="M0 0 C-4 9 -16 13 -25 16 C-26 16 -27 16 -28 16 C-25 13 -23 12 -19 10 C-14 8 -9 5 -4 1 C-2 0 -2 0 0 0 Z " fill="#4C4331" transform="translate(500,248)"/>
<path d="M0 0 C0 4 -2 7 -4 11 C-6 16 -8 21 -10 26 C-12 30 -12 30 -14 31 C-13 24 -11 18 -8 12 C-7 11 -7 11 -6 9 C-3 2 -3 2 0 0 Z " fill="#AF8B33" transform="translate(400,96)"/>
<path d="M0 0 C0 0 1 0 1 0 C1 12 2 24 2 36 C2 36 1 36 1 36 C0 24 0 24 0 19 C-1 19 -1 19 -2 19 C-2 16 -2 13 -2 10 C-2 9 -1 8 -1 7 C-1 1 -1 1 0 0 Z " fill="#4F4632" transform="translate(262,582)"/>
</svg>