<svg role="img" aria-label="peony" viewBox="0 0 700 700" version="1.1" xmlns="http://www.w3.org/2000/svg">
<path d="M0 0 C1 1 2 1 3 2 C6 2 9 3 12 3 C12 3 12 3 14 4 C15 6 15 9 16 11 C15 12 14 13 12 13 C3 21 -2 31 -7 42 C-8 43 -8 44 -9 46 C-10 49 -10 51 -10 54 C-10 60 -14 64 -19 68 C-21 70 -23 71 -25 73 C-33 80 -38 89 -43 98 C-43 99 -43 99 -43 100 C-43 99 -42 98 -42 97 C-34 84 -25 71 -12 62 C-11 62 -11 62 -10 62 C-9 61 -8 60 -7 59 C-5 58 -3 56 0 55 C4 53 8 50 12 47 C13 47 15 46 16 45 C17 45 17 45 20 46 C20 46 20 46 18 48 C14 54 10 59 6 65 C0 73 0 73 -4 76 C-6 76 -8 76 -10 76 C-20 78 -29 85 -34 93 C-33 92 -32 91 -31 90 C-23 82 -15 77 -4 77 C-3 76 -2 76 -1 75 C2 75 2 75 4 76 C6 76 6 76 8 74 C10 72 12 70 14 68 C18 64 22 63 27 63 C31 63 34 65 37 68 C33 70 33 70 29 72 C24 74 21 76 17 80 C17 80 17 80 16 83 C15 83 15 83 12 85 C8 88 4 92 0 96 C-2 100 -5 102 -9 104 C-17 112 -21 122 -23 133 C-23 132 -24 132 -24 131 C-26 131 -29 132 -31 132 C-33 140 -33 148 -34 156 C-34 159 -34 159 -35 161 C-36 161 -36 161 -37 161 C-37 162 -37 163 -37 164 C-38 168 -38 171 -39 174 C-40 180 -40 183 -38 188 C-41 186 -42 184 -44 180 C-43 198 -35 214 -24 228 C-23 229 -23 230 -22 231 C-22 228 -23 226 -23 223 C-23 222 -23 220 -23 219 C-24 215 -24 215 -25 212 C-26 210 -26 210 -25 206 C-25 203 -25 200 -25 197 C-25 196 -25 194 -25 193 C-25 191 -25 190 -25 189 C-25 189 -24 189 -24 189 C-24 191 -24 194 -23 196 C-23 198 -23 200 -23 202 C-22 207 -22 212 -22 217 C-21 223 -20 228 -18 234 C-17 234 -16 234 -15 234 C-14 236 -13 237 -12 239 C-12 239 -12 239 -9 241 C-10 241 -11 241 -12 241 C-11 246 -10 250 -8 254 C-7 254 -7 254 -6 254 C-6 255 -5 257 -5 258 C-5 258 -5 258 -3 261 C-2 261 -2 261 -1 261 C-2 256 -3 251 -5 246 C-6 241 -6 237 -6 232 C-6 232 -5 232 -5 232 C-5 233 -4 235 -4 236 C-4 238 -3 240 -3 242 C-3 243 -2 244 -2 245 C-1 252 1 257 4 263 C4 262 3 262 3 261 C2 258 2 255 1 251 C1 251 1 251 1 248 C1 247 1 246 1 245 C1 245 2 245 2 245 C2 245 2 245 2 248 C5 259 7 269 15 277 C15 278 15 278 15 279 C16 279 16 280 17 280 C20 281 20 281 23 283 C26 284 29 285 32 286 C33 286 33 286 36 288 C42 290 48 290 54 291 C54 292 55 293 55 294 C54 295 53 295 52 296 C48 298 47 300 45 304 C50 311 61 314 69 316 C75 317 81 317 87 317 C87 317 87 317 90 317 C92 317 95 317 97 317 C98 320 98 323 99 326 C99 323 99 319 99 316 C100 316 102 316 103 316 C104 318 105 320 106 322 C106 321 106 321 104 315 C107 314 109 312 112 311 C113 310 114 310 114 309 C119 307 123 305 128 304 C128 304 128 304 129 306 C133 312 138 315 145 317 C151 318 157 317 163 315 C165 315 166 314 168 314 C167 321 165 328 161 334 C158 336 154 337 151 338 C145 340 141 342 137 346 C133 348 131 348 127 348 C127 348 128 349 128 349 C131 349 134 348 137 348 C137 347 137 347 137 346 C142 343 147 341 152 339 C157 338 160 336 163 333 C165 329 165 329 166 326 C167 331 166 333 163 338 C155 349 143 356 132 364 C130 365 129 366 127 367 C114 376 91 376 76 374 C69 372 62 368 56 365 C52 363 52 363 50 363 C50 369 49 374 49 380 C49 380 48 380 48 380 C48 379 48 377 48 376 C47 372 47 372 45 370 C45 367 44 364 44 361 C43 361 42 360 41 360 C35 358 28 355 22 352 C22 353 22 353 22 354 C20 363 15 370 8 375 C10 371 12 368 15 364 C17 361 18 358 18 354 C16 357 13 361 11 364 C11 363 10 363 10 362 C11 360 12 357 13 355 C12 355 11 356 10 356 C4 357 0 358 -6 355 C-6 354 -6 354 -6 353 C-5 353 -4 353 -3 353 C-1 353 0 353 2 353 C3 353 4 353 6 353 C10 352 13 351 16 348 C15 347 14 346 13 345 C8 338 6 333 6 325 C6 321 8 318 11 315 C12 313 12 313 13 310 C12 310 12 310 11 310 C11 309 12 307 12 306 C14 306 15 307 17 307 C17 306 16 304 16 303 C14 303 13 303 11 303 C11 302 11 301 11 300 C12 300 12 300 13 300 C13 299 13 298 13 297 C8 297 8 297 4 300 C3 300 3 299 2 299 C3 298 5 298 6 297 C6 296 7 295 7 294 C11 292 13 291 17 291 C17 290 16 290 16 289 C15 289 15 289 14 289 C8 290 4 290 -2 287 C-5 286 -8 286 -11 285 C-11 285 -11 285 -9 287 C-8 290 -8 290 -9 294 C-8 295 -8 297 -7 298 C-8 297 -10 297 -11 296 C-12 293 -12 293 -12 291 C-11 291 -11 291 -10 291 C-10 290 -10 290 -10 289 C-11 289 -11 289 -12 289 C-13 288 -13 286 -14 285 C-17 284 -17 284 -21 283 C-23 282 -26 282 -28 281 C-28 280 -29 280 -29 279 C-28 279 -27 279 -27 279 C-26 280 -26 280 -24 280 C-23 280 -22 280 -21 281 C-18 281 -18 281 -15 280 C-15 279 -16 279 -16 278 C-17 274 -18 270 -18 265 C-18 264 -17 264 -17 263 C-18 263 -18 263 -19 263 C-22 262 -24 261 -27 259 C-26 259 -26 258 -25 258 C-24 258 -24 259 -23 259 C-19 260 -17 260 -13 260 C-12 260 -12 260 -11 260 C-11 257 -12 255 -13 252 C-14 252 -14 252 -15 252 C-15 251 -16 250 -16 249 C-20 236 -20 236 -25 232 C-29 228 -31 224 -34 219 C-36 216 -38 214 -41 211 C-41 210 -41 210 -43 207 C-42 207 -41 208 -40 208 C-40 207 -40 207 -42 204 C-44 198 -46 192 -48 186 C-48 185 -48 184 -49 183 C-51 173 -52 163 -52 153 C-52 151 -52 150 -52 149 C-52 139 -51 130 -50 120 C-49 113 -49 106 -48 100 C-48 99 -48 98 -48 97 C-47 90 -47 90 -50 86 C-54 85 -56 85 -60 85 C-60 86 -60 87 -61 88 C-63 94 -65 99 -70 103 C-72 105 -73 108 -75 110 C-75 110 -76 110 -76 110 C-76 104 -77 99 -77 93 C-77 96 -77 98 -77 101 C-78 109 -80 114 -85 120 C-88 124 -91 128 -93 132 C-94 133 -94 133 -95 135 C-97 138 -98 140 -99 143 C-100 138 -99 136 -97 131 C-97 130 -96 128 -96 127 C-95 123 -95 123 -93 119 C-92 115 -91 110 -90 105 C-89 101 -87 98 -85 94 C-84 94 -84 94 -83 94 C-83 93 -83 93 -82 92 C-80 86 -75 82 -71 78 C-67 75 -67 75 -66 71 C-62 68 -62 68 -59 68 C-59 67 -59 67 -59 66 C-60 66 -60 66 -65 65 C-65 64 -66 63 -66 62 C-67 62 -68 61 -69 61 C-69 59 -69 57 -69 55 C-69 54 -68 53 -68 52 C-68 49 -67 47 -66 44 C-63 42 -63 42 -61 41 C-61 41 -61 41 -60 39 C-59 39 -57 40 -56 40 C-56 41 -56 42 -56 43 C-55 40 -54 38 -53 35 C-52 35 -52 35 -51 35 C-51 34 -51 34 -50 33 C-49 29 -46 26 -43 23 C-42 22 -42 21 -41 20 C-37 20 -35 20 -31 22 C-31 23 -31 23 -31 24 C-30 23 -28 23 -27 22 C-27 20 -26 17 -26 15 C-23 9 -18 4 -14 0 C-9 -2 -5 -1 0 0 Z " fill="#E1B4B4" transform="translate(253,105)"/>
<path d="M0 0 C4 4 5 8 6 14 C6 14 6 14 8 15 C8 24 7 32 3 41 C2 43 2 43 1 47 C0 52 -2 53 -6 56 C-8 59 -9 62 -11 64 C-12 67 -15 70 -17 72 C-18 74 -18 77 -19 79 C-20 79 -20 79 -23 81 C-23 72 -17 63 -12 56 C-18 63 -21 70 -24 79 C-27 84 -30 87 -35 89 C-38 90 -41 90 -45 90 C-45 91 -46 91 -46 92 C-47 91 -47 91 -48 90 C-49 90 -50 90 -51 90 C-51 91 -51 92 -51 93 C-53 105 -53 105 -58 109 C-62 111 -62 111 -66 113 C-67 114 -68 114 -69 115 C-69 114 -69 114 -69 113 C-70 113 -70 113 -73 114 C-78 115 -78 115 -83 115 C-83 116 -83 116 -83 117 C-84 117 -86 118 -87 118 C-91 120 -94 121 -97 123 C-97 124 -97 125 -97 126 C-99 127 -102 127 -104 128 C-106 128 -107 129 -109 129 C-113 130 -117 130 -121 129 C-122 129 -122 130 -123 130 C-138 131 -157 127 -171 120 C-171 119 -171 118 -171 117 C-172 117 -172 117 -173 117 C-173 116 -173 116 -173 115 C-174 114 -176 114 -177 113 C-180 110 -180 110 -183 106 C-183 105 -182 104 -182 103 C-179 106 -175 109 -172 112 C-173 111 -173 111 -174 110 C-175 109 -175 109 -177 107 C-178 106 -179 105 -180 104 C-189 95 -189 95 -189 88 C-190 88 -190 88 -191 88 C-191 87 -191 87 -191 86 C-190 86 -189 87 -188 87 C-188 88 -188 88 -188 89 C-187 89 -187 90 -186 90 C-183 91 -183 91 -179 94 C-179 95 -179 95 -179 96 C-174 98 -174 98 -173 98 C-174 98 -174 98 -176 95 C-178 94 -179 93 -181 92 C-182 91 -182 91 -183 90 C-189 85 -189 85 -190 81 C-189 81 -187 82 -186 82 C-181 82 -181 82 -178 80 C-177 79 -177 78 -176 77 C-175 77 -175 77 -174 77 C-174 75 -174 74 -174 72 C-172 69 -172 69 -170 67 C-169 67 -169 67 -168 67 C-167 66 -167 64 -166 63 C-160 61 -155 60 -149 59 C-149 60 -149 62 -149 63 C-148 63 -147 63 -146 63 C-145 62 -145 61 -144 60 C-140 54 -132 48 -125 46 C-124 45 -124 43 -123 42 C-121 38 -119 34 -117 30 C-115 31 -115 31 -114 33 C-114 31 -113 30 -113 28 C-112 28 -112 28 -111 28 C-110 30 -108 32 -107 34 C-104 37 -102 39 -99 41 C-98 41 -96 41 -95 41 C-95 40 -95 40 -97 37 C-92 33 -92 33 -90 33 C-90 31 -89 30 -89 28 C-81 27 -75 26 -67 27 C-66 24 -65 20 -64 17 C-63 17 -62 17 -61 17 C-45 15 -27 11 -13 1 C-9 -1 -5 -2 0 0 Z " fill="#EDC6C6" transform="translate(549,445)"/>
<path d="M0 0 C3 3 3 4 3 8 C4 8 5 7 6 7 C9 6 9 6 12 7 C12 8 12 8 12 9 C12 9 12 9 14 10 C14 11 15 11 15 12 C20 13 24 13 29 12 C29 11 30 11 30 10 C30 11 30 11 32 14 C32 14 32 14 34 15 C34 16 34 17 34 18 C35 18 36 19 37 19 C37 18 38 18 38 17 C39 17 39 18 40 18 C40 19 40 19 40 20 C44 20 48 21 52 21 C52 22 52 24 52 25 C51 25 50 25 49 25 C49 26 49 26 49 27 C50 27 50 27 51 26 C54 26 57 26 60 27 C60 28 60 28 60 29 C62 30 65 30 67 31 C67 30 68 30 68 29 C66 28 64 28 62 27 C62 26 62 25 62 24 C67 25 70 26 73 30 C74 33 74 33 75 36 C75 36 75 36 75 39 C76 42 76 45 76 48 C77 54 79 57 84 61 C87 63 89 65 92 67 C99 73 99 73 100 77 C100 80 100 82 100 85 C100 85 99 85 99 85 C99 84 99 82 98 81 C97 76 95 73 92 70 C92 71 92 71 93 74 C93 75 93 76 93 76 C94 79 94 79 95 82 C96 87 96 91 96 96 C96 97 96 98 96 99 C96 106 95 111 92 117 C91 117 91 117 90 117 C90 116 89 115 89 115 C87 112 86 109 84 107 C81 102 79 97 77 91 C79 98 82 105 86 112 C90 118 92 124 93 132 C91 129 89 127 87 124 C85 121 84 120 80 118 C76 114 76 110 75 104 C75 99 74 95 72 91 C72 92 71 94 71 95 C71 94 71 94 69 92 C68 91 67 89 66 88 C65 86 64 85 64 84 C61 81 59 78 57 75 C62 76 65 79 69 83 C65 77 60 73 53 71 C52 71 51 71 50 71 C50 70 51 69 51 68 C52 68 52 67 53 67 C52 58 52 58 47 54 C41 52 36 51 30 53 C30 53 30 53 29 51 C28 49 28 48 27 47 C27 47 27 47 26 44 C23 40 21 37 16 36 C15 36 15 36 14 36 C15 37 16 37 17 38 C26 43 28 50 30 59 C33 73 33 73 33 80 C33 79 32 79 32 78 C31 78 31 78 30 78 C31 80 32 82 33 83 C33 84 34 85 34 86 C36 89 36 89 40 90 C41 89 42 89 43 88 C46 88 46 88 49 88 C53 92 53 92 53 95 C52 95 52 95 51 95 C52 96 52 98 53 99 C54 107 52 114 49 121 C49 121 49 121 47 122 C46 116 46 116 46 114 C45 114 44 114 43 114 C42 112 42 111 41 109 C40 106 39 104 36 101 C33 98 32 95 31 90 C30 87 29 85 27 83 C23 79 22 75 21 70 C21 69 20 69 20 68 C24 69 24 69 26 72 C27 73 27 74 28 75 C27 73 26 71 25 69 C26 69 26 69 27 69 C27 69 28 70 28 70 C21 63 21 63 16 63 C8 63 -2 64 -8 70 C-10 73 -10 73 -12 77 C-14 79 -15 82 -17 84 C-18 84 -18 84 -19 84 C-19 83 -20 82 -20 81 C-21 80 -22 79 -22 78 C-23 77 -23 76 -24 74 C-28 67 -34 63 -41 58 C-41 59 -41 60 -41 61 C-39 63 -39 63 -35 64 C-26 70 -22 78 -18 88 C-16 91 -14 94 -11 97 C-11 98 -11 98 -11 99 C-20 96 -20 96 -22 94 C-24 94 -25 94 -27 94 C-30 92 -30 92 -32 90 C-32 96 -31 101 -30 107 C-30 108 -30 108 -30 110 C-29 114 -28 118 -27 123 C-26 128 -25 134 -24 140 C-23 143 -23 143 -19 146 C-16 147 -16 147 -13 147 C-13 147 -13 147 -10 147 C-10 147 -9 147 -8 147 C-8 148 -9 150 -9 151 C-9 153 -9 155 -9 158 C-9 160 -9 163 -9 165 C-9 166 -9 167 -9 168 C-9 175 -11 179 -15 185 C-18 188 -19 191 -21 195 C-22 190 -22 185 -22 180 C-23 178 -23 176 -23 174 C-23 171 -23 167 -23 164 C-24 155 -26 147 -28 138 C-28 137 -29 136 -29 135 C-31 128 -35 123 -39 117 C-43 112 -45 107 -47 102 C-49 98 -51 95 -55 93 C-55 94 -54 94 -54 95 C-53 96 -53 96 -52 97 C-51 98 -51 99 -50 100 C-50 100 -49 101 -49 102 C-49 102 -49 102 -50 105 C-53 102 -56 99 -58 95 C-58 94 -57 94 -57 93 C-58 93 -58 93 -59 93 C-59 92 -59 92 -59 91 C-60 91 -61 91 -61 90 C-65 89 -65 89 -68 86 C-75 82 -85 83 -93 85 C-94 85 -94 85 -95 85 C-101 85 -105 85 -111 82 C-112 81 -113 80 -114 79 C-119 76 -123 74 -129 74 C-135 75 -141 77 -147 80 C-145 75 -143 74 -138 72 C-130 70 -122 70 -113 70 C-113 70 -113 70 -109 70 C-106 70 -103 70 -100 70 C-100 70 -100 70 -102 68 C-101 68 -101 67 -100 67 C-100 65 -100 65 -99 62 C-99 61 -99 60 -99 59 C-99 56 -99 56 -99 53 C-99 50 -99 50 -97 48 C-94 46 -92 45 -88 45 C-88 45 -88 46 -88 46 C-87 46 -86 46 -84 46 C-59 46 -59 46 -49 51 C-50 51 -50 51 -53 49 C-58 46 -63 46 -69 45 C-71 45 -72 45 -74 45 C-74 45 -74 45 -77 45 C-74 34 -67 26 -59 19 C-58 18 -58 18 -56 16 C-50 12 -44 12 -37 12 C-36 12 -35 12 -34 12 C-30 11 -27 11 -24 12 C-21 15 -21 15 -20 18 C-16 19 -14 18 -10 18 C-9 17 -9 17 -8 16 C3 21 3 21 6 25 C6 31 5 37 4 43 C6 41 8 38 10 36 C9 36 8 36 7 36 C7 35 7 34 7 33 C7 30 7 27 6 23 C2 20 -1 18 -6 17 C-9 15 -9 15 -10 13 C-11 10 -11 7 -11 4 C-8 -1 -5 -1 0 0 Z " fill="#E1B4B4" transform="translate(462,120)"/>
<path d="M0 0 C2 1 2 1 4 3 C4 4 4 5 5 6 C11 24 27 33 43 41 C45 42 45 42 49 45 C49 46 49 48 49 49 C50 49 51 49 52 49 C54 50 54 50 57 51 C63 51 67 50 72 49 C72 51 71 54 70 56 C72 53 74 51 76 48 C78 54 75 59 71 64 C69 67 69 67 66 69 C66 70 66 70 66 71 C69 73 69 73 72 74 C74 73 75 73 76 72 C76 74 76 77 76 79 C77 79 78 79 78 79 C78 78 78 78 78 77 C79 77 79 77 82 78 C82 79 83 80 83 82 C83 86 83 86 85 90 C86 93 86 97 86 100 C86 103 86 103 88 107 C88 107 87 107 86 107 C86 108 86 108 85 109 C86 109 87 109 87 109 C87 110 87 111 87 112 C88 111 89 110 90 109 C91 109 92 109 92 109 C92 110 92 110 92 111 C93 111 94 111 94 111 C95 110 95 108 95 107 C97 109 99 110 100 112 C103 112 103 112 105 111 C107 111 108 111 109 111 C110 111 111 110 112 110 C113 109 113 108 113 107 C114 107 114 107 116 108 C119 109 122 109 124 110 C125 109 126 108 127 107 C130 104 132 101 135 99 C136 99 137 99 137 99 C138 97 139 95 139 93 C139 92 139 92 138 91 C147 93 147 93 149 94 C148 105 139 115 132 123 C126 126 121 128 114 129 C110 130 110 130 108 133 C109 132 110 132 110 131 C114 129 117 128 121 128 C128 126 133 125 137 118 C139 116 140 114 142 112 C143 109 143 109 146 105 C148 102 149 99 150 95 C151 95 152 95 152 95 C151 107 145 118 135 126 C125 133 114 137 103 141 C101 142 98 143 95 144 C94 144 93 145 92 145 C89 146 89 146 88 147 C81 147 75 146 69 145 C66 144 62 143 59 143 C54 142 54 142 51 140 C51 140 51 140 47 138 C45 134 45 132 45 127 C45 127 44 127 43 127 C44 124 44 121 45 118 C44 120 43 122 42 124 C42 124 41 124 40 124 C40 125 40 125 38 128 C37 129 36 129 35 130 C35 129 35 129 34 128 C28 129 28 129 24 131 C18 131 13 130 8 126 C2 119 0 112 -1 103 C-2 100 -3 98 -5 95 C-7 93 -7 93 -10 92 C-13 91 -15 90 -18 88 C-19 88 -20 88 -21 88 C-26 81 -30 75 -32 67 C-32 65 -32 64 -33 63 C-36 47 -35 35 -27 20 C-24 17 -22 14 -19 12 C-20 15 -21 17 -22 20 C-24 22 -24 22 -23 26 C-22 25 -22 25 -22 24 C-19 15 -12 0 0 0 Z " fill="#F0C8C7" transform="translate(194.625,410.0078125)"/>
<path d="M0 0 C9 1 19 3 26 9 C31 15 32 20 32 27 C33 31 36 34 39 37 C39 39 39 39 38 42 C38 47 39 48 42 51 C42 52 42 52 42 53 C43 53 43 53 44 53 C45 54 46 56 47 57 C47 58 47 59 48 60 C49 62 49 62 49 64 C50 64 50 65 51 65 C55 76 55 89 50 99 C49 101 48 102 47 104 C46 104 46 104 45 104 C43 108 43 108 43 109 C44 109 44 109 47 106 C48 106 48 106 49 106 C49 115 48 123 44 131 C41 136 39 141 37 146 C36 149 36 149 33 153 C32 153 32 153 31 153 C31 153 31 153 30 156 C30 157 30 158 30 159 C29 160 29 161 29 162 C28 165 28 165 26 167 C26 168 25 169 25 171 C23 180 15 187 7 193 C5 195 5 195 3 198 C1 199 1 199 -2 201 C-3 201 -3 201 -6 203 C-7 204 -8 204 -9 205 C-10 205 -11 204 -12 204 C-10 203 -9 202 -7 201 C-11 201 -11 201 -14 204 C-22 211 -33 215 -44 217 C-45 217 -47 218 -48 218 C-66 221 -81 221 -98 214 C-94 210 -89 209 -84 207 C-83 206 -81 206 -80 205 C-67 201 -67 201 -64 201 C-64 200 -64 200 -64 199 C-63 199 -62 198 -61 198 C-51 194 -43 190 -35 181 C-33 179 -30 177 -27 175 C-16 165 -8 156 -4 141 C-3 136 0 131 3 126 C7 117 10 110 10 99 C10 98 10 98 10 97 C10 89 10 81 4 75 C-2 74 -5 76 -10 79 C-9 75 -7 72 -5 68 C3 52 2 31 -3 14 C-4 11 -4 11 -4 6 C-2 3 -2 3 0 0 Z " fill="#ECC4C4" transform="translate(559,235)"/>
<path d="M0 0 C4 3 4 3 7 5 C6 8 6 10 5 13 C3 24 1 37 6 48 C7 51 7 51 6 55 C6 55 6 55 3 53 C1 53 -2 52 -4 52 C-4 53 -4 53 -4 54 C-5 54 -5 54 -8 54 C-9 55 -11 55 -12 55 C-13 56 -13 57 -14 58 C-15 58 -15 58 -16 58 C-16 59 -16 60 -16 60 C-17 63 -17 63 -18 66 C-18 69 -18 73 -18 76 C-18 79 -18 79 -19 82 C-19 84 -19 84 -17 87 C-14 90 -12 92 -9 95 C-8 96 -7 97 -6 98 C-6 99 -6 99 -6 100 C-5 100 -4 99 -3 99 C-3 100 -3 100 -3 101 C-2 101 -2 101 -1 101 C0 105 1 109 2 113 C1 113 1 113 -2 115 C-2 116 -2 116 -3 119 C-3 120 -4 120 -4 121 C-4 126 -2 129 0 133 C1 134 1 135 2 137 C6 144 9 150 16 155 C17 156 18 157 19 158 C20 158 21 159 22 159 C22 160 22 160 22 161 C24 161 25 161 27 161 C33 162 36 164 40 169 C44 175 44 175 44 176 C31 179 24 176 12 169 C17 172 21 174 26 177 C26 177 26 178 26 178 C13 179 -1 178 -11 170 C-13 168 -15 165 -17 163 C-22 156 -28 150 -34 144 C-40 139 -42 133 -45 126 C-42 135 -38 141 -32 148 C-30 150 -30 150 -30 152 C-31 152 -32 153 -33 153 C-38 155 -41 157 -45 161 C-47 162 -47 162 -52 162 C-52 162 -52 162 -50 160 C-51 160 -52 160 -52 159 C-64 157 -64 157 -69 153 C-72 148 -74 143 -75 138 C-73 136 -73 136 -68 136 C-67 136 -65 136 -64 136 C-64 136 -64 136 -65 134 C-65 131 -66 127 -67 124 C-67 124 -67 124 -68 121 C-69 114 -69 108 -68 101 C-68 100 -68 99 -68 98 C-66 92 -65 84 -59 80 C-57 79 -57 79 -54 80 C-54 82 -53 84 -53 86 C-53 83 -53 80 -53 77 C-52 77 -52 78 -51 78 C-51 77 -51 76 -52 75 C-52 70 -51 67 -49 62 C-50 63 -51 65 -52 66 C-51 56 -46 50 -39 43 C-38 42 -37 41 -36 40 C-34 38 -34 38 -32 36 C-29 33 -29 30 -28 26 C-26 17 -26 17 -23 13 C-22 13 -22 13 -21 13 C-20 12 -20 10 -19 9 C-8 -2 -8 -2 0 0 Z " fill="#F0CFCC" transform="translate(148,229)"/>
<path d="M0 0 C3 4 2 6 2 11 C2 12 2 13 3 14 C3 23 -2 32 -6 40 C-7 41 -8 42 -9 44 C-12 47 -12 47 -12 52 C-13 53 -13 55 -13 56 C-14 57 -15 58 -16 58 C-19 61 -19 61 -19 64 C-19 66 -19 68 -19 70 C-19 78 -24 85 -29 92 C-30 93 -30 93 -31 94 C-31 95 -31 96 -31 97 C-34 101 -38 104 -42 107 C-43 108 -43 108 -44 109 C-53 116 -64 121 -75 124 C-80 126 -85 128 -90 130 C-93 131 -96 133 -100 134 C-102 135 -102 135 -105 137 C-108 137 -110 137 -113 137 C-114 137 -115 137 -117 137 C-118 137 -119 137 -120 137 C-119 129 -119 129 -118 127 C-113 127 -107 128 -102 128 C-102 127 -102 127 -102 126 C-101 126 -101 126 -99 126 C-80 123 -64 116 -48 106 C-49 107 -51 107 -52 108 C-61 114 -70 118 -81 121 C-83 122 -84 122 -86 123 C-92 124 -98 125 -104 126 C-105 126 -107 126 -108 127 C-111 127 -114 127 -117 126 C-117 125 -117 124 -117 123 C-120 115 -127 111 -134 107 C-132 104 -132 104 -130 101 C-127 100 -124 100 -121 100 C-120 100 -120 100 -118 100 C-116 100 -114 99 -112 99 C-104 99 -104 99 -102 98 C-109 98 -116 98 -123 98 C-118 94 -117 94 -111 94 C-104 94 -98 93 -92 92 C-93 92 -94 92 -95 93 C-101 93 -107 93 -113 93 C-113 92 -113 92 -113 91 C-112 90 -111 89 -109 88 C-104 84 -100 80 -97 74 C-94 69 -91 67 -86 65 C-84 65 -82 64 -81 63 C-80 63 -80 63 -78 62 C-75 60 -71 58 -68 56 C-66 55 -64 54 -62 53 C-57 50 -53 46 -49 42 C-46 40 -44 37 -41 35 C-43 37 -46 39 -48 41 C-49 41 -49 40 -50 40 C-49 39 -49 39 -48 38 C-47 37 -47 36 -46 35 C-45 34 -44 33 -43 33 C-41 30 -40 28 -38 26 C-38 27 -38 27 -37 30 C-31 25 -26 20 -22 13 C-20 10 -18 7 -16 4 C-15 4 -14 5 -13 5 C-12 4 -10 3 -9 3 C-5 0 -5 0 0 0 Z " fill="#E1B4B4" transform="translate(563,311)"/>
<path d="M0 0 C1 1 2 2 2 2 C5 5 5 5 8 6 C8 7 8 7 8 8 C9 9 11 9 12 10 C15 13 15 16 16 20 C17 25 18 29 21 34 C22 35 22 37 23 38 C24 39 26 39 27 40 C28 41 29 42 30 43 C33 44 33 44 36 44 C36 40 37 36 37 32 C38 33 38 35 39 36 C39 35 40 34 40 34 C41 33 41 32 42 31 C43 31 45 31 46 31 C46 32 46 33 46 34 C45 37 45 37 45 41 C46 38 47 35 48 32 C49 32 49 32 50 32 C50 33 51 33 51 34 C52 34 52 34 55 34 C61 35 66 37 70 41 C71 44 71 48 72 51 C72 51 72 51 74 51 C75 51 76 52 77 52 C78 52 79 52 80 52 C83 53 83 53 86 57 C87 59 87 61 88 64 C89 67 89 67 90 70 C94 72 94 72 98 73 C99 74 99 76 100 77 C101 77 101 77 104 78 C106 80 106 80 108 83 C109 84 109 85 110 86 C114 93 114 97 113 105 C114 105 114 105 115 105 C116 108 116 108 115 111 C111 114 111 114 107 116 C106 118 104 119 103 121 C99 123 98 123 94 122 C93 122 93 122 90 120 C88 120 88 120 85 120 C84 120 83 120 82 120 C80 120 78 120 76 120 C69 119 64 118 58 115 C57 115 57 115 55 114 C47 112 42 109 38 102 C37 101 36 99 35 98 C32 93 31 87 29 81 C30 86 32 91 33 96 C29 92 29 90 27 85 C26 83 26 82 25 80 C24 77 23 73 22 69 C22 70 23 71 23 72 C23 73 24 75 24 76 C24 77 25 79 25 80 C26 83 27 87 27 90 C26 90 24 90 23 90 C21 88 21 88 20 85 C20 84 21 84 21 83 C20 83 20 83 19 83 C15 78 15 75 15 69 C14 68 13 67 12 66 C12 65 11 64 11 63 C10 63 9 63 8 63 C4 51 4 40 3 27 C3 19 2 12 -1 4 C-1 3 0 1 0 0 Z " fill="#EDB5B5" transform="translate(226,276)"/>
<path d="M0 0 C2 0 3 0 5 0 C9 1 11 2 14 4 C20 5 25 4 30 2 C34 1 37 1 40 1 C42 4 43 7 45 10 C52 10 52 10 55 9 C58 9 58 9 62 9 C66 13 69 17 72 21 C74 25 77 27 80 29 C85 34 85 38 86 45 C86 46 86 47 87 49 C87 50 87 51 87 52 C86 52 85 52 84 53 C83 53 81 53 80 53 C79 53 78 53 76 54 C73 54 73 54 70 57 C70 60 70 60 70 63 C70 67 69 71 68 75 C56 76 45 76 33 76 C33 71 34 69 36 64 C36 62 37 60 37 58 C27 56 18 55 8 57 C6 52 7 47 6 42 C6 35 6 35 4 33 C-6 30 -14 32 -23 36 C-24 37 -24 37 -28 38 C-31 40 -31 40 -33 42 C-36 44 -39 46 -42 47 C-43 48 -44 48 -45 49 C-46 49 -47 50 -48 50 C-48 50 -48 50 -50 51 C-51 42 -48 35 -42 28 C-38 23 -34 17 -31 12 C-28 7 -25 4 -20 2 C-19 2 -19 1 -18 1 C-12 -1 -6 -1 0 0 Z " fill="#F1C9C9" transform="translate(294.0625,112.75)"/>
<path d="M0 0 C4 4 7 8 10 12 C17 20 27 22 38 22 C41 22 43 22 46 23 C47 23 47 23 50 23 C52 23 55 23 57 23 C53 26 50 28 46 30 C44 31 43 32 42 32 C41 33 40 33 39 34 C40 34 41 34 42 34 C42 35 42 37 42 38 C42 38 41 39 41 39 C43 38 45 36 47 35 C48 35 48 36 49 36 C48 37 47 38 46 39 C36 50 34 63 35 77 C35 84 37 90 39 96 C39 97 40 98 40 99 C43 105 46 111 52 115 C53 115 54 116 55 116 C55 117 55 118 55 119 C54 122 54 125 54 128 C42 130 42 130 36 128 C31 122 27 111 27 103 C23 104 20 106 17 108 C14 108 11 108 8 108 C5 103 2 98 2 92 C1 92 0 92 0 92 C-3 91 -3 91 -5 88 C-3 82 -1 76 2 70 C4 67 4 67 5 62 C2 64 0 67 -3 69 C-3 69 -3 69 -5 68 C-4 67 -3 66 -1 65 C1 63 2 61 2 58 C2 54 2 51 1 48 C-1 48 -3 49 -6 49 C-6 49 -6 49 -9 50 C-14 51 -15 53 -18 56 C-21 58 -24 57 -27 57 C-28 56 -29 55 -30 54 C-30 53 -30 51 -30 50 C-31 50 -33 49 -34 49 C-36 48 -37 48 -39 47 C-39 47 -39 47 -40 44 C-40 44 -40 44 -43 45 C-43 47 -44 48 -44 50 C-44 50 -45 50 -45 50 C-46 39 -40 27 -34 18 C-33 17 -31 16 -30 15 C-30 14 -29 13 -29 12 C-28 11 -27 10 -26 9 C-25 8 -24 6 -23 5 C-22 5 -22 5 -21 5 C-21 4 -21 4 -21 3 C-6 -5 -6 -5 0 0 Z " fill="#EABABB" transform="translate(125,386)"/>
<path d="M0 0 C6 3 11 1 18 -1 C21 -1 21 -1 25 -1 C28 2 28 2 28 5 C29 5 29 5 30 7 C34 8 37 8 42 7 C42 7 42 7 43 8 C43 8 44 7 45 7 C45 8 45 9 45 10 C46 10 47 11 48 11 C49 15 49 15 51 19 C52 19 53 19 54 19 C58 20 59 21 62 24 C62 24 62 24 64 25 C71 29 76 34 81 40 C81 40 82 41 83 41 C83 44 83 46 84 49 C84 49 85 49 86 49 C86 51 86 54 87 56 C83 57 83 57 79 57 C78 56 77 56 76 55 C73 52 72 52 68 52 C67 52 66 52 65 52 C62 52 60 52 57 51 C57 51 57 51 58 49 C56 49 54 50 52 50 C51 50 50 50 49 51 C47 51 47 51 46 52 C45 52 45 52 42 52 C38 53 36 54 33 57 C32 57 31 56 31 56 C31 55 31 55 31 54 C30 56 30 57 29 59 C27 63 25 66 22 69 C22 65 23 61 24 57 C22 62 20 68 19 73 C17 69 17 69 15 65 C13 61 11 60 7 58 C1 54 -2 50 -6 44 C-7 42 -7 42 -9 41 C-17 41 -17 41 -19 42 C-22 42 -24 42 -26 42 C-28 39 -30 36 -31 33 C-33 33 -34 33 -36 33 C-37 34 -38 34 -39 34 C-41 34 -41 34 -44 35 C-48 37 -53 37 -57 36 C-62 34 -62 34 -64 32 C-63 28 -61 25 -59 22 C-59 21 -58 20 -58 19 C-58 19 -58 19 -56 17 C-55 17 -54 17 -53 17 C-52 15 -52 15 -50 12 C-51 12 -52 11 -52 11 C-51 10 -49 8 -47 7 C-46 6 -45 5 -44 4 C-41 2 -39 1 -35 1 C-33 0 -31 0 -28 -1 C-17 -4 -10 -5 0 0 Z " fill="#F2D1CF" transform="translate(365.328125,79.87890625)"/>
<path d="M0 0 C7 6 11 11 13 20 C13 25 13 30 13 35 C13 36 13 36 13 39 C13 43 13 46 13 50 C10 49 8 48 5 47 C-2 45 -5 48 -11 52 C-13 54 -13 54 -16 57 C-20 55 -20 55 -23 53 C-23 54 -24 55 -24 57 C-27 60 -30 62 -34 64 C-35 64 -35 65 -36 66 C-37 66 -39 66 -40 66 C-40 67 -39 68 -39 70 C-39 70 -39 70 -41 71 C-42 70 -43 69 -44 68 C-48 67 -48 67 -52 67 C-53 68 -54 69 -55 71 C-57 71 -58 71 -60 71 C-60 71 -60 71 -61 75 C-62 75 -63 75 -64 75 C-64 75 -65 76 -65 77 C-65 76 -65 75 -65 74 C-67 73 -68 73 -69 72 C-74 71 -74 71 -75 70 C-78 69 -80 69 -83 70 C-84 72 -85 75 -86 79 C-89 76 -91 73 -94 70 C-97 66 -100 64 -105 62 C-108 61 -108 61 -109 57 C-110 56 -110 55 -110 54 C-108 54 -107 55 -105 56 C-105 55 -105 54 -105 53 C-105 45 -100 38 -94 33 C-89 30 -84 31 -79 31 C-75 30 -73 30 -70 28 C-69 25 -69 25 -68 23 C-66 16 -61 11 -55 7 C-50 6 -47 6 -43 8 C-41 11 -41 11 -38 15 C-38 15 -38 15 -35 16 C-35 13 -35 11 -35 9 C-31 6 -30 6 -25 8 C-24 8 -22 9 -21 10 C-21 8 -20 7 -20 6 C-18 3 -18 3 -16 0 C-11 -2 -5 -2 0 0 Z " fill="#F1C6C7" transform="translate(425.0625,284.5)"/>
<path d="M0 0 C2 3 3 6 4 9 C6 17 9 21 16 25 C21 27 27 28 33 28 C36 27 36 27 38 25 C39 25 40 25 41 25 C41 26 41 26 42 29 C45 28 45 28 47 25 C48 25 50 25 51 25 C51 26 51 26 52 27 C52 28 52 29 52 30 C53 31 53 32 53 33 C54 35 54 35 55 37 C62 40 68 41 75 42 C79 43 79 43 82 44 C93 45 103 42 113 38 C114 38 115 37 116 37 C118 36 120 35 122 34 C125 33 127 32 130 31 C141 27 151 19 157 8 C158 8 158 8 159 8 C159 9 160 10 160 10 C161 12 161 13 162 14 C162 15 163 16 163 17 C165 20 165 20 168 24 C167 34 158 43 151 49 C150 50 149 50 148 51 C147 51 145 50 144 50 C141 53 141 53 139 57 C136 58 136 58 134 58 C134 59 134 59 134 60 C129 61 126 61 121 61 C115 60 110 61 106 64 C104 66 104 66 102 68 C99 71 99 71 95 72 C95 73 94 73 94 74 C91 75 88 76 85 77 C84 77 83 77 82 77 C77 79 73 79 67 78 C67 77 67 77 67 76 C66 76 65 76 64 76 C58 74 54 71 50 67 C45 63 39 60 33 57 C26 54 19 50 11 47 C8 45 8 45 5 44 C2 42 0 40 -2 37 C-3 34 -4 30 -5 27 C-6 24 -6 24 -8 20 C-9 16 -9 12 -8 8 C-5 5 -5 5 -2 3 C-1 2 -1 1 0 0 Z " fill="#EBC8C6" transform="translate(187,513)"/>
<path d="M0 0 C0 0 1 0 1 0 C1 1 1 1 1 3 C1 12 2 18 5 26 C6 28 6 28 6 31 C5 32 4 34 3 35 C-1 42 -2 49 -4 57 C-5 61 -6 64 -7 67 C-10 66 -12 65 -14 63 C-17 62 -17 62 -22 62 C-30 67 -38 73 -42 81 C-43 86 -43 86 -44 91 C-46 97 -50 101 -55 105 C-63 114 -67 119 -68 131 C-69 131 -69 132 -70 132 C-71 130 -72 128 -73 126 C-74 124 -75 122 -76 120 C-78 115 -79 110 -80 105 C-81 101 -82 98 -83 95 C-83 92 -83 92 -82 90 C-80 89 -78 88 -76 87 C-75 83 -75 83 -76 81 C-78 75 -78 70 -75 64 C-71 56 -71 56 -67 54 C-65 54 -63 54 -61 54 C-57 53 -54 53 -50 52 C-50 51 -50 49 -50 48 C-48 28 -48 28 -41 21 C-35 17 -28 17 -21 17 C-18 18 -18 18 -15 19 C-15 17 -15 16 -14 14 C-13 9 -11 6 -8 2 C-6 3 -3 3 -1 4 C-1 3 0 1 0 0 Z " fill="#EFC6C4" transform="translate(163,165)"/>
<path d="M0 0 C-1 3 -3 6 -5 9 C-9 16 -13 24 -14 33 C-13 32 -13 32 -12 31 C-12 32 -11 32 -10 33 C-8 35 -8 35 -4 36 C0 38 0 38 1 41 C2 41 2 42 2 43 C3 44 3 44 6 44 C10 44 10 44 14 41 C15 41 15 41 16 41 C16 40 17 39 17 38 C18 38 19 38 20 38 C24 37 24 37 25 36 C27 36 29 36 31 36 C32 40 33 44 33 49 C31 52 29 54 26 56 C33 50 33 50 35 50 C35 55 34 58 31 62 C29 67 27 71 26 76 C28 79 28 79 32 80 C33 82 33 82 34 85 C35 89 36 92 38 95 C45 95 48 95 53 91 C54 91 56 91 57 91 C57 92 58 94 58 95 C59 97 59 98 60 100 C60 101 60 102 60 103 C62 108 64 112 68 115 C71 117 74 116 77 116 C78 116 80 116 81 116 C82 116 83 116 84 116 C84 115 84 115 83 113 C83 109 83 109 84 105 C88 107 89 108 92 111 C88 119 86 120 78 123 C73 124 68 125 63 125 C60 125 60 125 56 127 C49 130 42 131 35 129 C27 127 20 123 16 115 C14 110 14 104 13 99 C12 95 12 95 9 93 C6 92 6 92 2 92 C-2 91 -2 91 -5 88 C-5 87 -6 86 -6 85 C-8 81 -8 81 -11 79 C-13 77 -13 77 -14 74 C-14 73 -14 73 -14 71 C-13 71 -13 71 -12 71 C-12 70 -12 69 -12 68 C-13 64 -13 64 -13 60 C-13 55 -15 52 -18 48 C-21 43 -21 36 -20 30 C-19 27 -18 24 -16 21 C-15 20 -15 18 -14 17 C-5 0 -5 0 0 0 Z " fill="#F2E2DF" transform="translate(95,398)"/>
<path d="M0 0 C4 0 7 0 10 2 C15 7 13 12 13 19 C13 19 13 19 13 23 C12 29 12 35 10 41 C9 46 9 52 9 57 C9 63 8 67 4 72 C3 72 1 71 0 71 C-1 75 -1 75 0 78 C1 79 2 79 3 80 C6 85 5 90 5 96 C5 108 6 116 11 127 C13 130 13 130 13 133 C14 133 16 134 17 134 C19 136 21 139 22 142 C25 146 29 151 32 155 C35 159 35 159 35 161 C36 161 38 162 39 162 C47 167 47 167 49 171 C49 172 49 173 49 174 C36 170 25 162 17 151 C12 144 6 140 -2 136 C-4 134 -4 134 -7 130 C-8 127 -8 127 -8 124 C-9 113 -13 102 -20 93 C-22 92 -23 91 -25 90 C-32 85 -36 78 -39 71 C-40 59 -33 51 -26 42 C-23 37 -20 33 -18 27 C-17 24 -15 23 -12 21 C-11 19 -9 17 -8 15 C-7 15 -7 15 -6 15 C-6 14 -5 13 -5 12 C-4 8 -2 4 0 0 Z " fill="#ECBCBD" transform="translate(193,189)"/>
<path d="M0 0 C8 -1 12 1 19 5 C20 6 22 6 23 7 C26 9 26 9 28 13 C27 13 25 12 24 12 C26 14 26 14 29 15 C32 16 32 18 33 21 C36 22 36 22 38 23 C38 27 37 28 35 32 C31 37 31 37 30 39 C29 39 29 39 26 39 C24 39 22 39 20 39 C19 39 19 39 17 39 C11 40 7 40 2 43 C1 43 0 43 -1 43 C-1 42 -1 42 -2 37 C-3 37 -4 37 -4 37 C-5 37 -6 37 -7 37 C-8 37 -9 36 -10 36 C-13 36 -13 36 -16 34 C-21 33 -25 32 -29 34 C-35 38 -40 43 -42 50 C-42 53 -42 53 -42 56 C-43 56 -43 56 -47 57 C-47 56 -47 56 -47 55 C-50 55 -54 54 -57 54 C-58 55 -58 56 -59 57 C-61 60 -63 63 -66 66 C-66 67 -67 67 -67 68 C-68 68 -68 68 -69 68 C-70 71 -71 74 -72 77 C-73 77 -73 76 -74 76 C-74 75 -73 74 -73 73 C-74 73 -75 72 -76 72 C-77 73 -77 75 -78 76 C-79 76 -79 76 -82 78 C-83 83 -85 89 -84 94 C-81 97 -79 98 -75 99 C-75 100 -75 100 -75 101 C-76 102 -78 103 -79 104 C-80 104 -80 103 -81 103 C-81 103 -81 103 -83 105 C-84 105 -86 105 -87 105 C-92 92 -89 80 -84 67 C-83 62 -82 56 -82 50 C-82 40 -76 32 -70 25 C-68 24 -67 22 -65 21 C-66 26 -66 26 -68 28 C-65 25 -64 23 -63 19 C-61 17 -61 17 -57 17 C-55 17 -54 17 -52 17 C-50 17 -49 17 -47 17 C-43 17 -43 17 -41 18 C-38 18 -38 18 -35 18 C-32 15 -32 15 -32 13 C-31 8 -27 6 -23 3 C-20 2 -20 2 -18 2 C-19 3 -19 4 -20 5 C-20 5 -20 5 -18 6 C-18 7 -18 7 -17 10 C-14 10 -11 10 -8 10 C-7 10 -7 10 -5 10 C2 10 2 10 5 8 C5 7 6 6 6 5 C5 5 5 5 4 5 C4 4 5 4 5 3 C5 3 5 3 7 4 C7 3 7 3 7 2 C4 2 2 2 -1 2 C-1 1 0 1 0 0 Z " fill="#F7DEDC" transform="translate(269,72)"/>
<path d="M0 0 C2 1 4 2 7 4 C9 5 9 5 11 6 C15 7 17 9 19 12 C28 21 39 25 51 30 C54 31 56 32 58 35 C55 35 52 34 49 34 C51 36 53 36 55 37 C55 38 55 39 55 39 C55 41 55 42 55 43 C56 44 56 45 56 46 C56 49 56 51 57 54 C53 56 52 56 48 55 C51 56 55 57 58 58 C60 61 60 61 60 63 C61 63 61 63 62 63 C62 64 62 64 62 65 C61 65 61 65 60 65 C63 71 63 71 65 72 C64 71 63 69 62 68 C62 66 63 65 63 63 C62 62 62 60 61 59 C67 60 72 60 77 62 C77 63 77 63 77 64 C79 64 79 64 88 62 C88 63 89 64 89 65 C88 65 87 65 86 65 C85 66 84 66 83 66 C83 67 82 67 82 68 C82 68 82 68 79 69 C78 70 77 72 76 73 C77 73 77 73 80 70 C83 70 83 70 85 71 C85 72 85 73 85 74 C84 74 84 74 83 74 C83 75 83 76 83 77 C85 77 86 76 88 76 C88 78 89 79 89 81 C87 81 86 81 84 81 C84 81 84 81 83 84 C84 84 84 84 85 84 C84 88 84 88 81 92 C78 97 78 100 79 106 C81 112 85 116 89 121 C86 124 85 125 81 127 C81 127 81 127 78 126 C78 125 78 125 78 124 C80 123 82 122 84 121 C83 122 82 122 80 123 C76 124 74 124 69 122 C62 118 59 114 55 107 C53 102 50 98 47 94 C41 87 39 81 38 72 C36 64 36 64 32 60 C28 58 28 58 23 57 C22 57 20 56 19 56 C18 56 17 55 16 55 C16 50 16 46 16 41 C15 40 13 40 12 39 C5 35 5 35 4 33 C4 30 4 28 4 25 C3 18 2 13 0 6 C0 2 0 2 0 0 Z " fill="#EDBBBC" transform="translate(181,331)"/>
<path d="M0 0 C1 1 2 2 3 3 C6 5 8 7 11 9 C17 13 20 20 23 26 C23 27 23 27 23 28 C27 24 31 19 34 14 C37 9 44 8 50 7 C60 5 60 5 64 7 C67 10 70 12 72 15 C72 16 71 17 71 18 C71 17 71 17 69 13 C69 16 70 18 71 21 C68 18 67 17 65 13 C65 13 64 14 64 14 C66 23 66 23 70 27 C74 31 74 34 75 39 C77 43 79 45 82 48 C85 54 85 54 85 58 C86 58 87 58 88 58 C91 66 91 66 89 70 C89 71 88 72 88 73 C85 78 84 84 84 90 C82 106 76 120 67 132 C66 132 66 132 65 132 C64 133 64 135 63 136 C58 141 52 144 46 147 C48 135 52 127 61 118 C66 112 70 106 74 99 C74 100 73 100 73 101 C72 102 72 103 71 103 C71 104 70 105 70 106 C68 108 68 108 66 109 C66 108 65 106 65 105 C66 103 68 102 69 100 C70 98 71 95 72 93 C71 93 71 93 70 93 C70 95 69 97 69 99 C69 99 68 99 68 99 C68 95 67 92 67 88 C66 88 66 88 63 87 C63 86 63 84 63 83 C61 78 61 78 57 76 C56 75 56 75 53 74 C49 70 48 66 45 62 C43 57 40 53 37 49 C36 48 35 46 34 45 C32 42 30 40 27 37 C24 34 22 30 20 26 C18 22 16 18 13 14 C13 13 13 13 13 12 C12 12 12 11 11 11 C8 10 5 9 3 7 C2 7 1 6 0 6 C-1 6 -1 5 -2 5 C-1 4 0 4 1 3 C1 2 0 1 0 0 Z " fill="#E4B3B3" transform="translate(420,176)"/>
<path d="M0 0 C1 0 1 0 2 0 C4 4 4 7 4 12 C5 12 5 12 6 13 C10 15 12 17 14 21 C14 23 14 26 14 28 C14 29 14 31 14 32 C14 33 14 34 14 35 C15 34 15 32 16 31 C16 37 15 44 15 50 C15 52 15 55 15 57 C14 64 13 71 10 78 C10 78 10 78 8 79 C8 76 9 73 9 70 C9 70 9 70 7 71 C7 69 7 68 7 66 C7 67 7 67 7 68 C3 86 -2 101 -14 116 C-15 117 -16 118 -17 120 C-28 131 -43 141 -58 147 C-59 147 -59 146 -60 146 C-59 144 -58 143 -57 141 C-56 140 -56 139 -55 138 C-53 136 -53 136 -49 135 C-41 129 -33 122 -26 114 C-29 116 -32 119 -35 122 C-39 126 -44 130 -49 134 C-49 130 -47 128 -45 124 C-40 115 -38 107 -37 96 C-36 96 -36 96 -35 96 C-33 102 -33 107 -33 113 C-34 114 -34 115 -35 116 C-31 112 -31 110 -30 105 C-29 94 -26 86 -21 77 C-19 74 -18 71 -17 67 C-21 65 -23 65 -27 65 C-26 62 -25 59 -24 56 C-18 42 -16 28 -14 13 C-12 14 -12 14 -9 15 C-8 16 -8 18 -7 19 C-6 19 -6 20 -5 20 C-5 19 -5 19 -5 17 C-4 13 -4 13 -2 11 C-1 11 1 11 2 11 C1 7 1 4 0 0 Z " fill="#E1B4B4" transform="translate(532,228)"/>
<path d="M0 0 C5 0 8 0 12 2 C13 4 13 4 14 7 C20 21 27 33 39 43 C39 44 39 45 39 46 C40 47 42 47 43 48 C45 51 45 51 46 53 C42 52 40 50 37 48 C37 47 37 47 37 46 C36 46 36 46 35 46 C35 48 35 49 35 51 C34 51 34 51 33 51 C33 52 32 54 32 55 C31 55 31 55 30 55 C31 51 31 49 33 45 C32 45 32 45 31 45 C28 53 29 61 29 69 C29 71 29 72 29 74 C29 99 29 99 36 108 C36 109 36 110 36 111 C32 111 30 111 26 109 C26 108 26 108 26 107 C25 107 25 107 24 107 C20 106 19 104 16 101 C15 100 15 100 13 97 C8 93 6 87 3 81 C3 80 2 79 2 78 C0 75 -1 73 -1 69 C1 65 2 63 5 60 C5 59 4 58 4 57 C3 53 3 53 3 49 C2 49 2 49 1 49 C-5 47 -8 42 -11 38 C-11 38 -11 38 -14 35 C-17 31 -16 29 -15 24 C-15 22 -15 20 -15 18 C-15 12 -14 9 -10 4 C-7 1 -4 2 0 2 C0 1 0 1 0 0 Z " fill="#E4A7A7" transform="translate(144,281)"/>
<path d="M0 0 C1 1 2 2 3 2 C13 9 19 10 30 8 C41 6 48 7 56 13 C58 14 59 15 60 16 C60 17 60 17 58 19 C58 19 57 19 56 19 C56 20 56 21 56 22 C57 22 57 22 58 21 C58 22 58 23 58 24 C57 30 58 33 59 38 C60 41 61 45 62 48 C59 52 59 52 56 55 C53 52 53 52 53 49 C51 45 50 44 46 42 C45 42 44 41 43 41 C41 40 40 39 38 38 C35 36 35 36 32 33 C26 30 21 28 14 27 C14 27 14 26 14 26 C15 26 15 26 19 26 C20 26 21 26 22 26 C24 26 24 26 27 27 C27 25 27 24 27 22 C21 22 21 22 18 24 C15 25 15 25 11 25 C5 25 2 27 -2 31 C-2 31 -2 31 -4 32 C-3 36 -2 37 0 41 C1 44 1 44 0 47 C0 47 0 47 -5 48 C-5 49 -5 51 -6 52 C-10 55 -14 57 -20 56 C-22 55 -24 53 -27 51 C-29 50 -31 50 -33 49 C-37 46 -38 43 -40 38 C-38 37 -37 36 -36 35 C-35 34 -34 34 -33 33 C-26 28 -19 26 -11 25 C-10 25 -10 25 -8 24 C-3 24 2 23 7 22 C6 21 5 20 4 19 C4 20 4 20 4 21 C3 21 3 21 2 21 C-11 21 -23 22 -35 26 C-34 24 -34 24 -34 21 C-25 15 -17 14 -7 14 C-18 12 -26 15 -36 20 C-35 16 -34 13 -32 9 C-31 10 -31 10 -31 11 C-30 11 -29 11 -28 11 C-27 10 -27 8 -27 7 C-24 2 -20 1 -15 -1 C-9 -2 -5 -3 0 0 Z " fill="#D9999C" transform="translate(341.6328125,196.8984375)"/>
<path d="M0 0 C0 0 0 0 3 2 C3 6 3 9 2 14 C-1 13 -4 12 -6 11 C-7 12 -8 13 -8 15 C-9 15 -9 15 -10 17 C-12 20 -12 24 -12 28 C-13 28 -14 28 -14 29 C-16 28 -17 27 -18 27 C-22 26 -22 26 -26 27 C-27 27 -28 27 -30 27 C-35 28 -38 29 -42 33 C-45 39 -46 45 -47 51 C-47 52 -47 53 -47 54 C-47 56 -47 58 -47 61 C-51 62 -55 63 -59 63 C-65 63 -65 63 -68 66 C-73 73 -75 78 -74 87 C-73 91 -73 91 -72 94 C-75 97 -78 98 -82 100 C-82 101 -82 102 -82 103 C-79 111 -78 120 -76 129 C-77 128 -78 128 -78 128 C-78 127 -78 126 -78 126 C-79 126 -80 126 -80 126 C-81 123 -82 121 -83 118 C-84 117 -84 116 -85 114 C-86 111 -87 107 -88 104 C-89 103 -89 102 -89 101 C-90 94 -89 89 -88 83 C-89 82 -89 82 -89 82 C-89 72 -89 72 -87 70 C-87 70 -86 70 -85 70 C-85 69 -85 68 -85 67 C-85 66 -85 66 -81 66 C-82 64 -82 63 -82 62 C-81 60 -80 59 -79 58 C-79 56 -78 55 -77 53 C-76 51 -74 48 -73 46 C-71 43 -71 40 -70 37 C-70 37 -69 37 -68 37 C-68 36 -68 35 -68 34 C-66 28 -63 23 -57 21 C-56 20 -54 20 -52 20 C-43 18 -40 15 -34 9 C-25 -2 -13 -4 0 0 Z " fill="#F3E5E1" transform="translate(161.4375,156.5)"/>
<path d="M0 0 C15 8 15 8 18 13 C18 14 17 16 17 17 C16 17 16 17 13 14 C13 15 13 16 13 17 C12 22 10 26 8 30 C8 31 7 32 7 33 C5 39 2 45 -3 48 C-8 49 -12 50 -16 50 C-16 51 -16 51 -17 52 C-18 55 -18 55 -20 58 C-24 62 -25 65 -26 70 C-29 73 -31 73 -34 74 C-36 74 -37 74 -38 74 C-39 75 -40 75 -41 75 C-42 75 -44 76 -45 76 C-46 75 -46 73 -47 72 C-48 72 -48 73 -49 73 C-60 78 -71 81 -84 78 C-86 78 -88 78 -91 79 C-91 79 -91 79 -94 78 C-94 79 -94 79 -94 80 C-103 79 -115 76 -122 69 C-122 66 -122 63 -122 60 C-122 59 -122 58 -122 57 C-122 55 -122 53 -122 51 C-117 52 -113 54 -109 57 C-96 64 -85 64 -71 63 C-70 63 -69 63 -68 63 C-62 62 -62 62 -61 61 C-59 61 -56 60 -54 60 C-38 55 -16 40 -7 25 C-3 19 -1 13 0 6 C0 5 0 5 0 3 C0 2 0 1 0 0 Z " fill="#EBB3B4" transform="translate(424,417)"/>
<path d="M0 0 C4 1 8 3 12 5 C16 6 19 8 23 9 C23 10 23 11 23 11 C23 19 23 24 26 31 C29 34 33 35 37 36 C38 36 39 37 40 37 C44 39 47 40 50 40 C54 41 56 42 59 45 C59 45 60 46 60 47 C58 52 54 54 50 57 C48 59 48 59 45 62 C43 64 43 64 40 64 C37 63 37 63 33 60 C33 61 32 63 32 64 C31 64 29 64 28 64 C27 64 27 64 24 66 C20 66 19 65 15 62 C15 63 14 63 14 64 C13 64 13 64 12 64 C12 63 12 63 12 62 C11 62 11 62 10 62 C10 63 9 64 9 65 C8 65 8 65 7 65 C7 64 7 63 7 62 C6 62 6 62 5 62 C5 61 6 60 6 59 C6 58 6 58 6 57 C6 57 6 57 5 56 C5 52 5 49 4 45 C4 42 4 42 2 38 C2 36 2 33 2 31 C1 31 -1 30 -2 30 C-2 31 -2 31 -2 32 C-3 32 -3 32 -4 32 C-4 30 -4 27 -4 25 C-6 26 -7 27 -9 28 C-9 27 -9 27 -9 26 C-11 26 -12 25 -14 25 C-14 24 -14 23 -14 22 C-13 21 -12 21 -11 20 C-8 17 -6 14 -4 10 C-4 9 -3 7 -2 6 C-1 3 -1 3 0 0 Z " fill="#DF9DA1" transform="translate(275,457)"/>
<path d="M0 0 C0 0 1 0 1 0 C1 3 1 5 1 8 C1 9 1 9 1 13 C1 24 -3 34 -7 44 C-10 51 -12 58 -14 65 C-10 63 -10 63 -9 60 C-9 60 -8 59 -8 58 C-8 59 -7 60 -7 61 C-6 60 -4 59 -3 58 C-2 57 -1 57 -1 56 C1 55 3 53 5 52 C5 51 5 51 7 50 C8 49 9 48 10 48 C12 46 12 46 16 45 C17 54 14 60 9 68 C6 70 4 72 1 74 C-1 78 -3 82 -5 86 C-17 109 -17 109 -27 113 C-28 113 -29 114 -30 114 C-28 111 -27 108 -25 106 C-22 102 -20 99 -18 96 C-18 95 -17 94 -16 94 C-15 91 -15 91 -13 87 C-13 86 -13 85 -12 84 C-11 84 -10 83 -9 83 C-9 82 -9 81 -9 80 C-11 80 -12 80 -14 80 C-15 79 -16 78 -17 77 C-17 76 -17 76 -17 75 C-18 75 -18 75 -19 75 C-19 74 -20 73 -20 72 C-20 73 -21 73 -21 74 C-25 82 -29 89 -37 93 C-37 92 -37 90 -37 89 C-38 91 -38 92 -39 94 C-40 94 -41 94 -42 94 C-41 90 -41 85 -40 81 C-41 83 -41 85 -42 86 C-45 96 -50 103 -59 108 C-60 108 -60 108 -63 110 C-63 110 -63 110 -64 112 C-67 111 -70 111 -73 110 C-72 109 -72 108 -71 108 C-71 107 -71 107 -70 105 C-70 104 -71 103 -71 102 C-69 102 -68 102 -66 102 C-63 98 -60 95 -58 91 C-57 90 -55 88 -54 87 C-53 85 -52 84 -51 82 C-50 81 -50 80 -49 79 C-48 77 -48 77 -48 74 C-45 72 -45 72 -41 71 C-40 72 -39 72 -38 73 C-34 73 -33 72 -30 69 C-29 66 -28 63 -27 61 C-25 56 -24 52 -21 48 C-20 48 -20 48 -18 48 C-14 47 -14 47 -12 45 C-11 42 -9 39 -8 36 C-8 35 -7 34 -7 33 C-3 26 -2 20 -4 13 C-3 10 -2 8 -1 5 C-1 3 0 2 0 0 Z " fill="#E7B0B0" transform="translate(473,273)"/>
<path d="M0 0 C4 2 4 2 6 5 C6 5 6 5 4 7 C1 13 0 19 -2 26 C-3 32 -4 35 -9 39 C-10 39 -10 39 -12 42 C-16 45 -21 49 -26 50 C-26 50 -26 50 -29 49 C-32 48 -35 48 -38 48 C-40 48 -41 48 -42 48 C-43 48 -43 48 -46 48 C-47 48 -48 48 -50 48 C-53 48 -56 48 -59 48 C-59 48 -59 48 -59 46 C-60 41 -60 36 -62 31 C-64 27 -64 25 -63 21 C-61 17 -61 17 -60 16 C-53 15 -49 17 -43 21 C-41 22 -41 22 -38 22 C-38 21 -37 19 -37 18 C-36 18 -35 18 -35 18 C-32 17 -32 17 -29 13 C-26 13 -24 14 -21 14 C-21 14 -21 14 -20 17 C-19 17 -18 17 -17 17 C-17 17 -17 17 -16 14 C-17 14 -18 13 -19 13 C-18 13 -17 12 -16 12 C-12 11 -12 11 -8 8 C-7 8 -6 7 -5 7 C-3 5 -2 3 0 0 Z " fill="#D8858A" transform="translate(402,337)"/>
<path d="M0 0 C1 0 1 0 2 0 C5 9 6 16 6 25 C5 24 3 22 2 21 C5 30 8 35 17 40 C18 41 19 41 20 42 C20 42 20 42 20 45 C20 45 20 45 19 48 C19 49 19 50 19 51 C19 52 19 53 19 54 C22 57 24 57 28 57 C35 59 35 59 38 61 C39 66 40 70 41 75 C43 82 46 88 50 94 C55 99 58 105 61 111 C63 117 66 119 72 122 C73 122 73 123 74 123 C74 123 74 124 74 124 C69 124 68 123 64 120 C60 117 56 115 53 113 C38 105 26 95 21 78 C21 76 21 76 22 73 C20 73 19 73 17 73 C15 70 15 70 12 67 C7 59 7 59 4 56 C-1 51 -1 44 -2 38 C-2 37 -2 36 -2 35 C-3 25 -3 14 -3 4 C-2 4 -2 3 -1 3 C-1 2 0 1 0 0 Z " fill="#F2D0CE" transform="translate(177,332)"/>
<path d="M0 0 C2 1 4 2 6 3 C6 3 6 3 8 3 C12 4 15 6 18 9 C18 10 18 10 18 11 C19 12 21 12 22 13 C24 15 24 15 26 17 C26 18 27 18 27 19 C37 31 38 41 37 57 C36 66 33 76 28 84 C27 84 27 84 24 85 C25 79 26 73 27 68 C28 65 28 65 28 62 C26 69 25 75 23 82 C23 82 22 82 22 82 C22 79 22 75 22 72 C22 71 22 70 22 69 C22 64 22 61 24 57 C23 57 22 57 21 58 C16 58 13 56 8 53 C7 51 7 51 7 48 C7 47 6 46 6 45 C6 44 6 44 6 42 C6 40 5 37 5 35 C5 34 5 34 5 33 C4 30 3 28 2 25 C1 22 1 18 0 14 C0 13 0 13 0 12 C-1 7 -1 4 0 0 Z " fill="#DEA8A8" transform="translate(430,210)"/>
<path d="M0 0 C4 2 4 2 6 6 C12 30 6 57 -3 79 C-4 81 -4 82 -5 84 C-4 84 -4 84 -1 84 C3 85 3 85 5 87 C4 91 3 94 1 98 C-5 108 -8 119 -9 131 C-10 133 -10 133 -12 136 C-13 136 -13 136 -14 136 C-14 135 -13 134 -13 133 C-13 127 -13 122 -14 116 C-15 116 -15 116 -16 116 C-17 113 -17 111 -18 108 C-19 108 -20 108 -21 108 C-21 109 -20 109 -20 110 C-20 116 -20 121 -23 126 C-24 126 -24 126 -25 126 C-24 121 -24 121 -23 120 C-23 118 -23 117 -22 115 C-22 114 -22 114 -22 110 C-29 114 -34 119 -40 124 C-43 126 -43 126 -47 126 C-50 128 -50 128 -52 131 C-53 127 -53 126 -51 123 C-51 122 -50 121 -50 119 C-50 118 -49 117 -49 116 C-48 115 -48 114 -48 113 C-46 108 -44 103 -41 99 C-40 103 -40 104 -42 107 C-44 112 -44 112 -44 114 C-29 105 -29 105 -26 100 C-25 100 -25 100 -24 100 C-23 99 -23 97 -22 96 C-21 95 -21 94 -20 93 C-14 81 -10 72 -9 59 C-8 49 -5 41 -1 32 C3 24 4 16 2 7 C3 7 3 7 4 7 C3 6 3 6 0 0 Z " fill="#AD7374" transform="translate(511,208)"/>
<path d="M0 0 C-1 1 -2 2 -4 3 C-10 7 -14 13 -16 21 C-15 21 -13 21 -12 21 C-11 23 -11 24 -10 26 C-11 26 -11 26 -12 26 C-12 27 -11 29 -11 30 C-9 41 -7 51 -6 62 C1 61 1 61 4 58 C7 58 7 58 9 59 C12 64 11 67 9 72 C8 76 5 78 2 81 C1 83 1 83 1 86 C0 86 0 86 -1 86 C-1 87 -1 87 -1 88 C-3 88 -5 88 -7 88 C-7 87 -7 86 -7 85 C-16 85 -16 85 -19 87 C-19 87 -19 87 -19 85 C-20 74 -20 74 -24 69 C-26 68 -27 68 -29 67 C-32 64 -32 64 -34 61 C-34 53 -31 48 -27 42 C-27 42 -28 42 -28 42 C-29 41 -29 41 -30 40 C-29 32 -29 32 -27 29 C-26 29 -26 29 -25 29 C-25 29 -25 29 -25 26 C-25 17 -19 10 -12 4 C-4 -1 -4 -1 0 0 Z " fill="#DFA3A5" transform="translate(284,221)"/>
<path d="M0 0 C1 0 2 1 3 1 C3 2 3 2 3 3 C4 3 5 4 6 4 C6 5 6 5 6 6 C8 6 9 6 11 6 C11 7 11 8 11 9 C10 10 9 10 8 11 C7 13 7 15 6 17 C5 19 4 20 3 22 C3 23 2 24 2 24 C-1 28 -4 32 -7 35 C-9 38 -10 41 -11 44 C-14 49 -20 51 -25 53 C-26 53 -27 52 -28 52 C-28 52 -28 52 -30 55 C-31 56 -32 57 -33 58 C-33 59 -33 59 -35 62 C-42 70 -42 70 -47 71 C-52 70 -56 69 -60 67 C-61 67 -63 66 -64 66 C-58 69 -54 71 -47 71 C-47 72 -48 72 -48 73 C-56 74 -61 72 -67 67 C-68 66 -69 65 -70 64 C-70 63 -70 62 -70 61 C-67 59 -67 59 -64 57 C-63 57 -62 56 -61 55 C-58 54 -58 54 -56 54 C-56 53 -55 52 -55 51 C-52 49 -52 49 -49 48 C-48 47 -47 47 -46 46 C-43 45 -43 45 -41 45 C-41 44 -42 42 -42 41 C-39 41 -36 41 -33 41 C-33 40 -32 38 -32 37 C-33 37 -34 36 -35 36 C-35 35 -35 35 -35 34 C-33 32 -30 31 -28 29 C-27 28 -26 26 -25 25 C-22 23 -20 22 -16 21 C-10 18 -7 15 -4 9 C-4 8 -3 7 -2 6 C-1 3 -1 3 0 0 Z " fill="#E1B4B4" transform="translate(453,347)"/>
<path d="M0 0 C6 1 9 3 13 7 C17 14 17 14 17 18 C18 17 20 17 21 16 C32 16 32 16 36 20 C36 21 36 21 36 22 C37 22 38 23 39 23 C41 26 41 28 41 31 C40 32 40 32 40 33 C39 33 39 33 38 33 C38 34 38 34 38 35 C39 35 40 35 40 36 C47 38 53 42 57 47 C57 47 57 47 56 49 C55 48 55 48 54 47 C54 47 53 46 52 46 C51 45 51 44 50 44 C48 42 48 42 46 42 C47 43 47 44 48 44 C53 51 57 57 60 64 C61 65 61 67 62 68 C62 71 62 73 62 76 C62 76 62 76 60 77 C60 76 59 74 59 73 C59 73 58 74 58 74 C58 75 59 76 59 77 C60 80 60 82 59 86 C59 85 58 85 58 84 C54 86 54 86 53 90 C53 91 52 92 52 93 C51 93 50 92 49 92 C48 91 48 89 47 88 C46 88 45 87 44 87 C44 86 44 85 44 84 C43 60 43 60 38 54 C33 53 31 53 27 56 C23 55 23 55 21 52 C19 49 18 46 17 43 C18 43 18 43 19 43 C19 41 19 39 19 37 C19 36 18 35 18 34 C18 31 17 29 16 26 C16 24 15 22 15 20 C13 13 12 9 6 5 C5 4 4 4 3 3 C2 2 1 1 0 0 Z " fill="#CEA3A3" transform="translate(475,155)"/>
<path d="M0 0 C-1 7 -1 7 -2 8 C-2 10 -2 12 -3 14 C-3 14 -3 14 -3 17 C-3 17 -3 18 -3 19 C-4 19 -5 20 -6 20 C-13 23 -16 27 -19 34 C-22 38 -22 38 -26 39 C-27 39 -28 39 -29 39 C-34 40 -40 43 -45 46 C-48 47 -48 47 -50 47 C-50 46 -50 44 -50 43 C-53 45 -53 45 -54 48 C-55 48 -55 48 -56 48 C-56 49 -56 49 -56 50 C-58 50 -59 49 -61 49 C-61 48 -61 48 -61 47 C-67 47 -70 50 -74 54 C-77 57 -77 57 -79 60 C-79 56 -78 55 -75 52 C-75 52 -74 51 -74 50 C-73 50 -73 50 -72 48 C-73 48 -73 48 -76 49 C-74 46 -74 46 -72 43 C-71 43 -71 43 -68 42 C-66 37 -66 33 -66 27 C-66 27 -66 26 -66 25 C-59 19 -50 19 -41 19 C-35 19 -31 19 -26 16 C-25 15 -25 14 -24 13 C-21 9 -19 8 -14 5 C-12 4 -12 4 -9 2 C-6 -1 -4 -2 0 0 Z " fill="#DFA3A5" transform="translate(328,172)"/>
<path d="M0 0 C-1 0 -1 1 -2 1 C-3 2 -4 2 -5 3 C-6 3 -7 4 -8 4 C-10 6 -10 6 -12 10 C-10 10 -9 10 -7 10 C-4 10 -3 10 0 13 C1 14 2 16 3 17 C5 21 8 23 12 24 C21 25 31 24 40 23 C40 23 40 23 42 26 C41 26 40 26 40 26 C39 26 39 26 37 26 C36 26 35 26 34 26 C31 26 31 26 28 28 C28 29 27 31 27 32 C25 36 23 38 20 41 C19 44 19 44 18 47 C16 47 15 47 13 47 C13 48 13 48 13 49 C12 49 10 48 9 48 C6 49 4 51 2 53 C1 52 1 51 0 51 C-2 48 -2 48 -6 46 C-6 47 -6 48 -6 49 C-4 50 -2 50 0 51 C1 55 1 56 -1 60 C-2 61 -2 63 -3 64 C-4 65 -4 67 -5 68 C-5 61 -5 61 -4 58 C-6 61 -5 65 -6 68 C-6 70 -6 71 -6 73 C-6 73 -6 73 -6 76 C-10 73 -10 73 -11 70 C-11 68 -11 66 -11 64 C-11 63 -11 63 -12 61 C-15 60 -15 60 -17 59 C-17 58 -17 57 -17 56 C-19 44 -19 44 -23 39 C-24 38 -26 37 -27 36 C-27 35 -27 34 -27 33 C-26 33 -25 32 -25 32 C-24 32 -24 32 -22 31 C-21 31 -20 30 -19 30 C-16 29 -16 29 -14 28 C-14 29 -14 29 -16 33 C-15 33 -15 33 -14 33 C-14 32 -13 31 -13 30 C-12 27 -12 27 -10 25 C-11 25 -13 26 -14 26 C-14 25 -14 24 -14 23 C-12 23 -11 22 -9 22 C-10 17 -11 15 -14 11 C-14 8 -13 6 -11 4 C-10 3 -9 3 -9 2 C-8 2 -7 1 -6 0 C-4 -1 -4 -1 0 0 Z " fill="#B47C7D" transform="translate(351,222)"/>
<path d="M0 0 C2 2 2 2 2 6 C2 11 1 14 -2 18 C-5 23 -7 28 -9 34 C-12 34 -14 34 -17 34 C-20 39 -21 45 -23 51 C-25 55 -27 57 -30 60 C-33 60 -33 60 -35 59 C-36 59 -37 58 -38 58 C-39 59 -40 59 -41 60 C-42 60 -43 60 -44 60 C-44 61 -43 62 -43 63 C-44 66 -44 66 -46 69 C-47 70 -47 71 -48 72 C-50 75 -50 75 -54 78 C-55 80 -56 81 -57 83 C-59 85 -60 87 -62 89 C-64 89 -65 88 -67 88 C-66 89 -66 91 -65 92 C-68 95 -69 96 -73 97 C-74 97 -75 97 -76 97 C-75 96 -75 95 -74 94 C-69 86 -68 77 -66 68 C-64 59 -60 54 -52 48 C-47 46 -43 46 -38 46 C-35 47 -35 47 -33 48 C-32 48 -31 48 -30 48 C-30 48 -30 48 -30 45 C-30 38 -29 33 -25 27 C-25 26 -24 25 -23 23 C-22 20 -20 17 -18 14 C-17 14 -17 14 -16 14 C-16 13 -16 12 -16 11 C-15 11 -14 10 -14 10 C-12 9 -11 9 -10 8 C-9 8 -8 7 -7 7 C-4 5 -2 3 0 0 Z " fill="#F5D4D1" transform="translate(469,287)"/>
<path d="M0 0 C1 1 1 1 1 4 C1 5 1 6 1 7 C0 7 -2 6 -3 6 C-5 6 -8 6 -10 6 C-9 6 -7 6 -5 7 C0 8 4 10 8 13 C8 14 8 14 8 15 C9 15 9 16 10 16 C13 17 16 19 19 21 C20 21 21 22 22 22 C25 25 26 26 27 30 C28 35 28 35 26 38 C25 42 25 46 25 50 C25 50 25 50 24 53 C23 54 21 54 20 55 C19 57 19 57 19 60 C19 61 18 62 18 63 C18 66 18 66 18 69 C17 68 17 67 16 67 C14 64 14 64 11 61 C11 60 11 59 11 58 C10 56 10 56 8 54 C7 54 6 54 5 53 C4 52 3 52 1 51 C1 47 1 45 3 42 C4 41 4 41 5 40 C6 40 6 40 7 40 C7 39 8 37 8 36 C10 31 10 31 13 29 C16 29 20 29 23 29 C23 29 22 28 22 28 C20 28 18 28 16 28 C2 29 -6 30 -17 21 C-17 20 -18 19 -18 18 C-20 15 -22 15 -25 15 C-27 14 -28 14 -30 14 C-29 10 -28 9 -24 6 C-20 4 -15 3 -10 2 C-6 0 -4 0 0 0 Z " fill="#EEC3C2" transform="translate(369,218)"/>
<path d="M0 0 C1 1 2 1 2 2 C5 4 5 4 7 5 C7 9 6 12 6 16 C5 16 4 16 3 16 C-1 18 -1 20 -3 24 C-5 29 -5 33 -6 38 C-6 39 -6 40 -6 41 C-7 49 -7 55 -4 63 C-3 66 -3 69 -3 72 C-6 73 -9 73 -12 73 C-12 73 -12 73 -15 74 C-16 73 -16 72 -17 71 C-19 69 -21 67 -24 65 C-28 62 -28 62 -29 59 C-29 56 -29 52 -28 49 C-28 48 -28 46 -28 45 C-27 42 -27 42 -25 38 C-26 38 -28 37 -29 37 C-28 37 -28 37 -26 36 C-22 34 -22 34 -21 32 C-21 30 -21 28 -20 26 C-20 25 -20 24 -20 23 C-20 22 -20 21 -20 20 C-19 20 -19 20 -13 19 C-13 18 -12 16 -12 15 C-11 13 -10 11 -9 9 C-9 8 -9 7 -8 6 C-7 3 -7 3 -3 1 C-2 1 -1 0 0 0 Z " fill="#F5E1DB" transform="translate(87,293)"/>
<path d="M0 0 C3 1 3 1 5 4 C6 15 3 25 -3 33 C-6 36 -9 37 -13 39 C-13 40 -13 40 -15 43 C-19 47 -21 47 -26 48 C-32 51 -35 55 -39 60 C-44 66 -49 70 -56 74 C-57 75 -58 75 -59 76 C-64 79 -70 79 -77 79 C-81 78 -85 76 -89 74 C-95 71 -101 69 -107 67 C-107 66 -107 66 -107 65 C-106 65 -105 65 -104 65 C-100 65 -100 65 -96 64 C-95 65 -93 65 -92 66 C-88 66 -88 66 -84 65 C-83 65 -81 65 -80 64 C-79 64 -77 64 -76 64 C-75 63 -73 63 -72 63 C-68 62 -65 61 -62 59 C-61 59 -61 59 -60 59 C-59 60 -59 61 -58 62 C-57 62 -57 62 -54 61 C-53 61 -52 61 -51 60 C-50 60 -49 60 -47 60 C-46 60 -45 59 -44 59 C-41 58 -41 58 -39 56 C-38 53 -38 53 -37 50 C-36 45 -34 44 -31 41 C-31 41 -31 41 -30 38 C-30 38 -29 37 -29 36 C-26 35 -26 35 -23 35 C-22 35 -21 34 -20 34 C-19 34 -18 34 -17 34 C-16 34 -14 33 -13 33 C-12 31 -12 31 -11 28 C-10 27 -10 26 -9 26 C-6 21 -5 17 -4 12 C-3 9 -3 9 -1 6 C-1 4 -1 3 -1 1 C-1 1 0 0 0 0 Z " fill="#F2D5D3" transform="translate(437,430)"/>
<path d="M0 0 C4 5 2 11 1 17 C-3 27 -9 36 -16 45 C-18 47 -19 50 -21 53 C-22 54 -22 55 -23 56 C-24 56 -24 56 -25 56 C-25 57 -25 58 -25 59 C-28 68 -35 75 -42 80 C-43 80 -43 80 -44 80 C-44 81 -44 81 -44 82 C-46 84 -46 84 -49 85 C-50 85 -51 84 -52 84 C-53 85 -53 85 -54 86 C-56 86 -57 86 -59 86 C-59 87 -59 87 -59 88 C-64 92 -69 95 -74 97 C-75 98 -76 98 -78 99 C-81 100 -81 100 -86 100 C-86 100 -86 100 -84 98 C-81 96 -79 94 -77 91 C-76 90 -75 89 -74 89 C-72 87 -71 84 -69 82 C-65 78 -61 76 -56 74 C-53 72 -50 70 -47 67 C-46 67 -45 66 -44 66 C-41 64 -39 62 -37 59 C-36 58 -35 57 -34 55 C-30 51 -27 46 -25 40 C-18 25 -18 25 -9 21 C-9 21 -9 21 -8 23 C-8 21 -7 20 -7 18 C-5 14 -4 11 -2 7 C-1 5 -1 2 0 0 Z " fill="#EEC7C6" transform="translate(492,321)"/>
<path d="M0 0 C2 0 4 0 7 0 C8 1 9 1 10 1 C11 1 12 1 13 1 C13 2 13 3 13 4 C12 4 10 4 9 4 C2 5 -4 9 -10 13 C-14 16 -15 16 -20 16 C-20 16 -20 16 -23 18 C-26 20 -26 20 -30 20 C-31 20 -32 19 -33 19 C-34 19 -35 19 -35 19 C-38 18 -38 18 -42 17 C-47 16 -50 17 -55 19 C-57 19 -60 20 -62 20 C-67 20 -71 21 -75 22 C-75 23 -75 23 -75 24 C-76 24 -76 24 -77 24 C-77 26 -78 27 -78 29 C-83 28 -88 26 -93 24 C-93 20 -92 19 -90 16 C-84 12 -79 11 -72 12 C-72 12 -71 13 -71 13 C-67 13 -65 13 -61 11 C-60 10 -60 10 -59 9 C-49 1 -41 0 -29 1 C-25 2 -22 2 -18 4 C-12 4 -7 4 -1 1 C-1 1 0 0 0 0 Z " fill="#F5D4D2" transform="translate(391,386)"/>
<path d="M0 0 C-1 6 -2 11 -6 15 C-9 17 -12 19 -16 21 C-14 21 -13 20 -11 20 C-11 22 -11 22 -12 25 C-15 26 -17 28 -20 29 C-23 32 -25 33 -26 37 C-23 37 -20 38 -17 38 C-17 39 -16 40 -16 41 C-14 45 -14 45 -12 47 C-12 50 -12 50 -12 54 C-13 55 -14 56 -15 57 C-15 58 -15 59 -15 60 C-16 64 -16 64 -18 66 C-19 67 -20 67 -21 68 C-21 68 -21 68 -22 70 C-21 70 -21 71 -20 71 C-22 71 -25 71 -27 71 C-29 66 -30 61 -31 56 C-32 46 -32 46 -33 42 C-33 40 -33 37 -33 35 C-33 35 -33 35 -32 34 C-35 31 -35 31 -37 30 C-37 24 -34 20 -30 15 C-28 13 -26 12 -24 10 C-23 9 -23 9 -22 8 C-19 5 -16 4 -12 2 C-11 1 -10 1 -8 0 C-5 -1 -3 -1 0 0 Z " fill="#EFC1C1" transform="translate(305,212)"/>
<path d="M0 0 C1 1 1 1 2 2 C2 6 1 9 0 13 C1 13 2 13 3 13 C7 14 7 14 9 16 C9 17 10 18 10 19 C13 21 13 21 16 22 C17 23 17 23 18 27 C17 32 17 32 15 34 C13 35 10 37 8 38 C7 39 6 39 5 40 C5 39 5 38 5 37 C4 39 2 42 1 44 C0 40 0 40 1 36 C1 38 0 39 0 41 C-1 44 -2 47 -4 50 C-5 49 -5 48 -6 48 C-10 44 -12 44 -17 44 C-18 43 -18 43 -18 39 C-19 34 -20 33 -24 30 C-27 29 -27 29 -29 29 C-29 28 -29 28 -29 27 C-27 26 -26 25 -24 24 C-17 20 -15 15 -13 7 C-13 6 -13 5 -13 4 C-13 4 -13 4 -12 2 C-8 0 -5 0 0 0 Z " fill="#E39897" transform="translate(317,283)"/>
<path d="M0 0 C1 3 1 3 0 6 C-1 7 -1 8 -2 9 C-5 15 -5 15 -6 18 C-9 24 -15 26 -22 29 C-26 30 -30 32 -34 34 C-33 34 -33 33 -32 33 C-26 31 -20 29 -14 28 C-16 31 -19 32 -21 34 C-25 37 -27 39 -29 43 C-30 43 -31 42 -32 42 C-32 41 -32 39 -32 38 C-41 40 -49 41 -55 49 C-56 51 -57 53 -57 56 C-58 56 -58 56 -59 56 C-59 57 -60 58 -60 59 C-64 62 -64 62 -68 62 C-71 61 -71 61 -73 60 C-71 65 -67 67 -63 71 C-56 76 -56 76 -54 80 C-57 78 -59 77 -62 75 C-62 74 -62 74 -62 73 C-63 72 -65 72 -66 71 C-71 68 -71 68 -72 66 C-73 66 -75 65 -76 65 C-81 57 -83 50 -83 41 C-80 42 -77 42 -74 43 C-65 45 -58 45 -50 40 C-49 39 -47 37 -46 36 C-45 35 -43 34 -42 33 C-36 29 -32 24 -28 18 C-23 13 -18 12 -11 11 C-11 11 -11 11 -10 9 C-8 5 -6 3 -2 1 C-2 1 -1 0 0 0 Z " fill="#E0ADAF" transform="translate(432,466)"/>
<path d="M0 0 C4 1 6 2 9 4 C10 6 11 9 12 11 C14 12 15 13 17 14 C19 18 19 21 20 25 C20 26 20 27 20 28 C20 28 20 28 20 30 C17 29 17 29 16 26 C15 25 15 24 14 23 C10 20 7 21 2 21 C-3 23 -3 23 -6 24 C-5 24 -4 23 -3 23 C3 21 3 21 7 22 C10 24 13 26 16 29 C15 33 15 33 13 36 C14 35 16 33 17 32 C20 33 22 34 24 36 C25 39 26 42 27 45 C28 49 30 49 33 51 C36 55 36 59 36 64 C31 64 26 64 21 64 C21 63 21 62 21 60 C20 56 20 56 17 54 C15 53 14 53 13 52 C12 51 12 49 11 48 C7 47 7 47 3 47 C3 46 4 45 4 43 C5 39 5 38 4 34 C-4 34 -4 34 -7 36 C-8 33 -8 30 -9 27 C-9 27 -9 27 -10 24 C-10 21 -9 20 -7 18 C-3 12 -1 7 0 0 Z " fill="#EABBBB" transform="translate(313,250)"/>
<path d="M0 0 C1 0 3 0 4 0 C5 0 7 0 8 1 C8 1 8 1 8 2 C2 2 -4 2 -10 3 C-12 7 -12 7 -13 9 C-15 12 -17 14 -19 16 C-20 15 -21 15 -21 15 C-20 14 -19 13 -18 12 C-17 11 -16 10 -15 10 C-15 9 -15 8 -15 7 C-24 16 -30 25 -31 38 C-31 45 -32 50 -34 57 C-38 67 -38 78 -36 90 C-35 90 -34 90 -32 90 C-33 93 -35 94 -37 96 C-38 97 -38 97 -39 98 C-41 100 -41 100 -43 100 C-44 101 -45 102 -45 104 C-45 104 -45 104 -46 106 C-47 106 -48 106 -48 106 C-49 102 -49 98 -49 94 C-49 94 -49 94 -49 91 C-49 90 -49 88 -49 87 C-49 86 -49 85 -49 84 C-49 81 -49 78 -49 75 C-50 75 -51 75 -51 75 C-51 81 -51 87 -51 94 C-52 94 -52 94 -52 94 C-53 69 -50 52 -38 30 C-38 29 -37 28 -37 27 C-36 26 -36 25 -35 24 C-35 23 -34 23 -34 22 C-32 20 -32 20 -28 17 C-28 17 -27 17 -26 17 C-27 16 -27 15 -27 14 C-24 8 -20 5 -14 3 C-14 2 -14 1 -13 1 C-9 -1 -5 0 0 0 Z M-30 86 C-30 86 -29 86 -28 87 C-29 87 -29 87 -31 89 C-31 88 -31 87 -30 86 Z " fill="#E1B4B4" transform="translate(218.3125,87.4375)"/>
<path d="M0 0 C4 1 5 3 8 6 C10 10 10 10 11 15 C12 16 12 18 13 19 C14 23 14 23 14 28 C15 32 15 32 17 35 C18 35 18 36 19 36 C19 37 18 38 18 38 C15 47 16 56 18 65 C17 65 16 65 16 65 C7 66 7 66 3 71 C2 72 2 73 1 74 C0 74 -1 73 -2 73 C-6 64 -10 50 -7 41 C-5 37 -2 35 1 32 C2 32 4 32 5 32 C3 27 2 22 -1 18 C-2 15 -2 13 -2 10 C-2 8 -2 7 -2 6 C-2 3 -2 3 0 0 Z " fill="#F5DDDA" transform="translate(403,216)"/>
<path d="M0 0 C9 0 9 0 13 2 C13 2 13 2 14 4 C14 4 13 5 13 5 C14 5 14 5 18 4 C18 5 18 6 18 7 C16 8 13 10 11 11 C9 12 8 13 7 13 C3 15 3 15 0 14 C-1 15 -2 15 -2 16 C-7 20 -12 23 -18 25 C-19 25 -19 24 -20 24 C-21 25 -23 26 -24 27 C-27 28 -30 29 -33 30 C-33 30 -33 30 -37 32 C-45 34 -51 34 -59 34 C-61 34 -62 34 -64 34 C-65 34 -66 34 -68 34 C-69 34 -70 34 -71 34 C-75 34 -78 33 -82 31 C-81 29 -81 27 -80 25 C-79 25 -79 25 -78 25 C-78 24 -78 24 -78 23 C-72 21 -67 20 -61 19 C-58 19 -55 18 -53 17 C-48 16 -46 16 -41 18 C-39 18 -38 19 -36 19 C-35 19 -34 20 -33 20 C-28 20 -27 19 -23 16 C-22 16 -21 16 -20 16 C-16 16 -14 14 -11 12 C-4 6 1 4 10 5 C10 4 10 3 10 2 C9 2 9 2 6 2 C2 2 2 2 0 0 Z " fill="#E8ADAF" transform="translate(394,385)"/>
<path d="M0 0 C1 0 2 0 3 0 C4 9 4 9 1 12 C1 17 2 23 2 28 C0 28 -2 29 -4 29 C-3 35 -3 41 -1 47 C3 58 3 71 3 83 C4 83 4 83 4 84 C5 87 5 90 6 93 C6 94 6 96 6 97 C6 98 6 98 6 101 C-7 89 -17 69 -18 50 C-18 49 -18 48 -18 47 C-17 48 -16 49 -16 50 C-14 52 -14 52 -13 53 C-13 51 -14 50 -15 48 C-14 48 -13 48 -13 48 C-13 47 -13 46 -13 45 C-13 40 -11 35 -10 30 C-9 30 -8 30 -8 30 C-8 29 -7 28 -7 27 C-6 0 -6 0 0 0 Z " fill="#CB7D81" transform="translate(225.5625,235.9375)"/>
<path d="M0 0 C1 2 1 2 1 6 C-1 7 -3 9 -5 10 C-10 13 -13 17 -16 21 C-16 22 -15 23 -15 24 C-15 25 -16 25 -16 26 C-18 30 -19 32 -19 36 C-20 36 -20 36 -21 36 C-22 40 -22 44 -23 48 C-22 47 -20 47 -19 46 C-21 51 -23 54 -27 58 C-28 61 -28 61 -29 63 C-30 62 -30 62 -31 61 C-31 56 -29 51 -28 46 C-28 45 -27 44 -27 43 C-26 40 -25 37 -24 34 C-24 34 -24 34 -27 35 C-28 39 -28 39 -29 43 C-30 49 -32 54 -34 59 C-38 57 -42 55 -45 52 C-47 47 -46 42 -44 36 C-42 34 -41 31 -39 29 C-38 28 -38 27 -37 26 C-33 20 -33 20 -30 17 C-29 16 -29 16 -28 15 C-23 10 -19 6 -13 3 C-13 4 -13 4 -13 5 C-12 5 -12 5 -11 5 C-11 5 -11 5 -10 7 C-9 7 -7 8 -6 8 C-6 7 -6 7 -6 6 C-5 6 -5 6 -4 6 C-4 5 -3 3 -3 2 C-2 1 -1 1 0 0 Z " fill="#C45F65" transform="translate(278,214)"/>
<path d="M0 0 C0 1 1 1 1 2 C1 1 2 1 2 0 C4 1 7 1 9 2 C9 4 9 6 9 8 C10 8 11 8 11 8 C14 9 14 9 16 11 C16 20 13 25 8 32 C8 32 7 33 7 33 C7 37 8 40 9 43 C9 50 7 55 3 60 C-1 64 -4 66 -9 68 C-10 68 -10 68 -11 68 C-9 64 -9 64 -6 61 C-2 55 -1 53 -1 46 C-2 45 -2 43 -2 42 C-4 42 -5 42 -7 42 C-8 43 -8 43 -9 44 C-10 44 -11 44 -12 44 C-10 40 -10 40 -6 38 C-6 37 -6 36 -6 35 C-6 31 -6 31 -3 28 C-3 25 -3 25 -3 21 C-4 20 -5 19 -6 18 C-7 15 -7 15 -7 12 C-10 12 -13 11 -16 11 C-15 7 -15 7 -11 4 C-3 0 -3 0 0 0 Z " fill="#F7E0DC" transform="translate(295,238)"/>
<path d="M0 0 C2 0 3 0 5 0 C5 1 5 1 5 2 C6 2 6 2 9 3 C12 4 15 6 19 7 C26 10 33 10 40 11 C41 11 42 11 43 11 C45 11 48 11 50 11 C50 11 50 12 50 12 C48 12 46 12 44 12 C44 13 44 14 44 15 C43 19 43 19 41 22 C38 24 36 23 32 22 C29 22 25 23 22 23 C21 23 20 23 19 23 C19 24 19 24 19 25 C18 29 15 30 12 32 C12 33 12 33 15 37 C13 36 12 36 10 35 C10 36 9 36 9 37 C0 29 0 29 -3 25 C-3 24 -3 24 -3 23 C-4 23 -4 23 -7 25 C-8 21 -8 21 -6 17 C-6 18 -5 18 -5 19 C-5 18 -5 17 -5 16 C-4 10 -2 5 0 0 Z " fill="#CD7E83" transform="translate(441,450)"/>
<path d="M0 0 C2 4 3 8 5 12 C5 14 6 15 6 17 C6 18 7 19 7 20 C6 20 5 20 4 20 C0 20 -2 20 -5 22 C-5 24 -5 26 -5 28 C-6 27 -7 26 -8 25 C-12 22 -14 20 -20 20 C-26 22 -31 25 -35 31 C-36 33 -36 35 -37 37 C-38 40 -38 40 -42 43 C-45 32 -47 21 -42 9 C-39 5 -37 3 -33 2 C-26 1 -22 1 -16 5 C-14 8 -13 10 -11 13 C-9 15 -8 16 -6 18 C-6 17 -6 17 -7 16 C-7 11 -7 7 -5 3 C-2 1 -2 1 0 0 Z " fill="#E6AAAA" transform="translate(393,270)"/>
<path d="M0 0 C5 4 9 8 11 14 C11 18 11 18 11 20 C12 20 12 20 13 20 C13 21 13 23 13 24 C14 24 14 24 15 24 C15 42 13 60 1 74 C0 75 -1 76 -2 77 C-2 78 -3 79 -3 81 C-6 88 -12 95 -19 100 C-20 94 -17 91 -15 87 C-10 79 -8 71 -7 62 C-6 59 -5 57 -2 55 C-2 58 -3 61 -3 64 C0 56 2 48 2 39 C2 37 2 34 2 32 C3 28 3 25 3 21 C3 23 2 25 2 27 C2 27 1 27 1 27 C1 23 1 18 1 14 C1 14 2 14 2 14 C2 9 2 5 0 0 Z " fill="#F0CDCC" transform="translate(544,242)"/>
<path d="M0 0 C0 1 0 1 0 2 C-2 3 -2 3 -4 5 C-9 8 -13 12 -17 16 C-19 19 -19 19 -23 20 C-28 20 -32 20 -37 21 C-43 21 -48 22 -54 26 C-56 29 -55 32 -55 36 C-55 39 -56 41 -58 44 C-60 45 -61 46 -63 47 C-64 48 -65 49 -65 50 C-68 54 -71 57 -74 59 C-76 61 -77 62 -79 64 C-80 64 -80 64 -81 64 C-78 51 -73 42 -64 32 C-63 31 -63 31 -62 30 C-58 25 -54 22 -49 19 C-47 17 -47 17 -44 13 C-39 6 -29 5 -20 3 C-20 3 -20 3 -17 2 C-11 0 -6 0 0 0 Z " fill="#F3DAD7" transform="translate(318,170)"/>
<path d="M0 0 C3 1 3 1 4 3 C5 4 5 5 6 6 C6 5 7 4 8 3 C13 7 17 11 20 16 C24 22 28 24 34 27 C36 32 36 37 36 43 C36 44 36 45 36 46 C36 53 36 53 35 55 C29 55 29 55 26 53 C26 52 26 52 26 51 C25 51 25 51 23 50 C18 48 17 42 15 37 C14 34 13 31 13 28 C12 25 11 23 9 20 C8 20 7 19 7 19 C7 18 7 18 7 17 C5 17 4 16 3 16 C-1 14 -1 14 -3 11 C-4 7 -4 4 -4 1 C-2 0 -2 0 0 0 Z " fill="#F4D1D0" transform="translate(227.4375,265.125)"/>
<path d="M0 0 C1 0 1 0 2 0 C3 2 4 4 6 6 C9 12 13 14 19 18 C27 26 29 37 31 47 C32 52 33 56 36 60 C37 60 37 60 40 61 C50 65 56 74 62 83 C65 86 67 88 71 90 C71 90 71 90 69 91 C58 87 50 80 43 72 C40 68 40 68 38 66 C35 64 32 61 30 58 C29 57 27 55 26 54 C21 48 17 42 13 36 C12 35 12 34 11 33 C7 27 4 20 2 13 C2 12 1 10 1 9 C0 6 0 3 0 0 Z " fill="#E9C1C0" transform="translate(153,265)"/>
<path d="M0 0 C4 2 6 4 9 7 C9 8 10 9 11 9 C16 16 16 16 16 18 C18 18 19 18 21 18 C21 19 21 20 21 20 C21 31 29 41 37 48 C41 51 46 53 50 56 C52 57 55 59 57 60 C58 61 59 61 60 62 C63 64 63 64 66 66 C68 68 68 68 72 68 C71 68 71 68 68 66 C62 63 60 58 57 53 C54 47 51 43 48 38 C43 32 43 32 43 29 C44 29 44 29 45 29 C46 31 47 32 48 34 C50 37 52 40 55 43 C57 46 58 49 60 53 C63 59 67 63 73 66 C78 68 80 67 85 65 C86 65 87 65 88 65 C84 68 84 68 81 68 C81 69 82 70 82 71 C79 71 79 71 66 72 C66 71 66 69 66 68 C65 68 65 68 62 66 C41 55 27 46 18 24 C10 25 5 30 0 36 C-2 41 -4 46 -6 51 C-6 50 -7 48 -7 47 C-8 48 -8 48 -9 49 C-9 44 -6 40 -3 36 C-11 44 -17 56 -17 68 C-17 74 -16 79 -15 84 C-15 86 -14 88 -14 91 C-13 95 -11 99 -9 103 C-9 103 -9 103 -10 105 C-13 101 -14 99 -15 95 C-15 94 -16 93 -16 91 C-16 91 -16 91 -17 88 C-17 87 -18 86 -18 85 C-22 70 -19 56 -12 43 C-10 40 -8 38 -5 35 C-6 36 -7 36 -8 37 C-12 39 -12 39 -15 39 C-14 38 -12 38 -11 37 C-11 36 -11 34 -11 33 C-12 33 -12 33 -15 34 C-10 29 -4 26 2 23 C-5 23 -11 22 -18 22 C-18 21 -18 21 -18 20 C-14 20 -10 19 -6 19 C-7 19 -8 18 -9 18 C-10 17 -11 16 -12 16 C-13 15 -14 14 -15 14 C-18 12 -18 12 -19 10 C-15 11 -12 13 -9 15 C-2 19 5 19 13 17 C12 16 12 16 11 15 C3 5 3 5 0 0 Z " fill="#513B3B" transform="translate(178,387)"/>
<path d="M0 0 C1 0 2 0 3 0 C7 0 7 0 12 2 C12 6 12 6 13 25 C8 27 6 28 1 27 C0 27 -1 26 -2 25 C-5 23 -8 23 -12 24 C-17 25 -21 28 -25 32 C-25 33 -25 33 -27 35 C-28 36 -29 37 -29 37 C-30 37 -30 36 -30 35 C-32 35 -33 34 -34 33 C-34 33 -34 33 -33 31 C-28 26 -24 20 -20 14 C-18 11 -17 9 -14 6 C-14 6 -13 6 -12 6 C-12 5 -11 4 -10 2 C-6 0 -4 0 0 0 Z " fill="#F8DFDE" transform="translate(287.4375,145.75)"/>
<path d="M0 0 C0 0 1 0 1 0 C1 1 1 2 1 3 C2 23 7 42 14 60 C14 60 14 60 11 59 C12 60 13 60 14 61 C17 64 18 66 20 70 C23 74 26 78 29 82 C34 86 37 91 38 98 C38 98 38 98 37 101 C36 100 35 99 34 99 C31 96 31 96 28 95 C26 92 24 89 22 87 C21 86 21 85 20 84 C17 80 14 76 12 72 C9 68 9 68 6 67 C5 64 3 61 2 58 C1 57 1 56 0 54 C-4 45 -3 36 -3 26 C-3 25 -3 24 -3 22 C-3 21 -3 20 -2 19 C-3 15 -5 14 -8 12 C-9 8 -9 8 -7 4 C-6 4 -4 4 -3 4 C-2 3 -1 1 0 0 Z " fill="#CD7A7E" transform="translate(200,255)"/>
<path d="M0 0 C0 0 0 0 1 2 C3 1 5 1 7 0 C4 3 3 4 -1 5 C2 4 4 4 7 3 C7 4 6 5 6 6 C5 7 3 7 2 8 C4 12 4 12 6 15 C9 21 9 28 10 35 C9 35 9 35 8 35 C8 34 8 34 7 26 C7 28 6 31 6 33 C6 33 5 33 5 33 C5 32 5 31 5 30 C4 17 4 17 0 12 C-4 10 -8 12 -12 13 C-14 14 -17 15 -19 17 C-41 27 -64 31 -88 25 C-91 24 -93 23 -96 21 C-97 21 -99 20 -100 19 C-101 19 -101 19 -103 18 C-103 17 -103 17 -103 16 C-105 16 -106 16 -108 16 C-108 18 -109 20 -109 22 C-110 22 -110 22 -111 22 C-111 19 -110 16 -109 13 C-108 9 -107 6 -107 2 C-106 3 -105 3 -104 4 C-105 7 -105 11 -106 14 C-104 14 -101 14 -99 14 C-97 14 -96 13 -95 13 C-91 13 -91 13 -88 11 C-87 11 -86 11 -85 11 C-85 12 -85 12 -85 13 C-86 14 -86 14 -87 15 C-85 16 -84 16 -82 17 C-81 17 -80 18 -79 18 C-58 25 -32 18 -13 9 C-12 8 -10 8 -9 7 C-5 5 -3 3 0 0 Z " fill="#4A3536" transform="translate(549,434)"/>
<path d="M0 0 C3 1 3 1 5 3 C8 6 8 6 11 7 C14 9 14 9 15 14 C16 15 16 17 16 18 C17 18 19 19 20 19 C20 22 21 25 21 28 C21 27 22 25 22 24 C23 24 24 23 25 23 C24 27 23 29 21 32 C19 35 19 35 19 39 C21 35 24 32 26 28 C26 28 26 28 27 30 C22 40 16 47 8 55 C6 57 5 59 4 62 C3 62 3 62 2 62 C2 60 3 57 3 55 C4 54 4 53 4 52 C4 52 4 52 5 49 C5 45 5 41 6 37 C6 35 6 33 6 32 C6 30 6 29 6 28 C5 28 5 28 4 28 C4 30 4 31 3 33 C2 39 -1 43 -6 48 C-7 48 -7 47 -8 47 C-7 46 -7 45 -6 44 C2 30 2 15 0 0 Z " fill="#AD7374" transform="translate(468,245)"/>
<path d="M0 0 C4 1 5 4 7 8 C10 12 12 16 15 21 C22 30 25 44 25 56 C25 57 26 58 26 59 C26 62 26 65 26 68 C24 64 23 62 22 58 C22 57 22 56 22 54 C21 54 21 53 21 52 C21 53 21 53 22 57 C23 61 23 62 22 66 C22 66 22 66 20 65 C20 64 19 63 18 63 C17 62 17 61 16 61 C13 58 10 58 6 57 C5 57 4 57 3 57 C2 57 2 57 0 57 C0 57 0 56 0 56 C3 56 6 56 9 56 C9 55 9 55 8 52 C5 45 5 37 7 30 C8 30 8 29 9 29 C7 25 7 25 5 23 C5 21 4 19 4 17 C3 12 2 8 0 4 C0 3 0 1 0 0 Z " fill="#E1B4B4" transform="translate(412,225)"/>
<path d="M0 0 C1 0 1 0 2 0 C4 6 5 12 5 19 C5 20 5 21 5 22 C5 29 4 35 -1 40 C-6 48 -10 56 -13 66 C-16 76 -23 84 -30 91 C-31 91 -33 90 -34 90 C-34 89 -33 89 -33 88 C-26 80 -22 73 -22 63 C-22 60 -22 60 -22 57 C-19 54 -19 54 -16 52 C-16 51 -16 51 -16 48 C-15 42 -13 40 -9 36 C-3 28 0 18 0 8 C-1 7 -1 6 -1 5 C-1 2 -1 2 0 0 Z " fill="#83696B" transform="translate(565,315)"/>
<path d="M0 0 C9 1 15 4 23 8 C25 9 26 9 28 10 C29 11 31 11 32 12 C32 12 32 13 32 13 C28 12 24 12 20 10 C22 19 24 27 29 35 C30 35 30 36 31 36 C31 37 31 38 32 39 C35 48 43 54 50 60 C46 60 45 59 42 56 C42 55 41 55 40 54 C40 53 40 53 38 52 C40 57 43 60 47 63 C47 63 47 63 44 64 C38 58 33 51 28 44 C28 45 28 45 26 48 C19 58 11 67 -1 73 C-1 73 -1 73 -3 72 C-2 68 -1 67 2 64 C2 64 2 64 4 65 C4 65 3 66 3 66 C11 64 17 57 21 50 C25 44 25 44 24 39 C22 36 20 33 18 30 C17 27 17 27 17 24 C16 24 16 24 15 24 C15 25 15 25 14 26 C10 37 -1 44 -12 48 C-12 48 -12 48 -14 49 C-18 50 -22 52 -26 54 C-28 55 -31 56 -34 57 C-35 57 -35 57 -38 59 C-42 60 -42 60 -46 59 C-40 57 -34 54 -28 52 C-28 52 -28 52 -25 50 C-22 50 -20 49 -18 48 C-3 42 8 34 15 19 C16 15 17 12 18 8 C17 8 17 8 16 8 C16 10 15 11 15 13 C14 10 14 10 15 7 C14 7 13 7 12 6 C11 6 10 6 9 6 C9 5 9 5 6 5 C3 4 3 4 0 2 C0 1 0 1 0 0 Z " fill="#4A3536" transform="translate(329,497)"/>
<path d="M0 0 C0 0 0 0 1 2 C0 2 -1 2 -1 2 C-13 0 -23 1 -32 8 C-32 9 -33 11 -33 12 C-32 12 -31 11 -30 11 C-19 7 -6 4 6 7 C6 6 6 6 6 5 C7 5 8 6 9 6 C9 7 9 7 9 8 C2 10 -4 11 -11 12 C-21 14 -30 17 -37 25 C-37 25 -37 25 -35 27 C-34 30 -34 32 -35 35 C-35 35 -36 35 -36 35 C-36 33 -36 31 -36 29 C-37 29 -38 29 -38 29 C-41 28 -41 28 -43 27 C-43 28 -44 29 -44 30 C-44 29 -45 28 -45 27 C-46 27 -46 27 -49 29 C-52 30 -52 30 -54 31 C-55 31 -55 30 -56 30 C-55 29 -55 29 -49 26 C-47 25 -47 25 -46 21 C-48 22 -51 22 -53 23 C-50 20 -46 18 -42 16 C-39 13 -39 13 -38 10 C-37 7 -37 7 -33 5 C-33 5 -33 5 -31 4 C-20 -2 -12 -3 0 0 Z " fill="#5C3F3F" transform="translate(340,211)"/>
<path d="M0 0 C0 0 1 0 1 0 C2 17 -1 27 -12 39 C-17 47 -22 55 -21 64 C-19 67 -19 67 -17 71 C-13 77 -13 77 -13 79 C-13 79 -13 79 -11 80 C0 85 3 94 8 106 C9 110 10 115 10 120 C11 124 12 125 15 128 C17 129 17 129 20 130 C29 135 34 141 40 149 C42 152 45 155 47 158 C42 155 38 153 35 148 C30 140 23 133 14 130 C10 128 10 126 8 122 C7 118 6 115 6 111 C4 102 1 92 -6 86 C-8 85 -10 84 -11 83 C-16 80 -18 76 -21 71 C-21 70 -21 70 -21 69 C-22 69 -22 69 -23 69 C-19 87 -19 87 -16 95 C-19 92 -20 89 -22 85 C-24 78 -24 78 -25 77 C-27 65 -26 54 -23 43 C-23 43 -23 43 -21 42 C-21 45 -22 47 -22 50 C-22 49 -22 49 -20 46 C-18 42 -15 38 -12 34 C-6 26 -2 20 -1 10 C-1 2 -1 2 0 0 Z " fill="#483634" transform="translate(176,196)"/>
<path d="M0 0 C4 2 4 2 7 5 C10 7 10 7 14 8 C17 11 17 11 20 18 C22 13 23 7 25 2 C25 2 26 2 26 2 C25 7 25 11 24 16 C27 11 30 6 32 1 C33 2 33 3 34 4 C35 3 35 3 36 2 C40 -1 42 0 47 0 C46 4 44 4 41 7 C32 14 25 22 21 33 C22 33 23 33 24 33 C33 33 43 32 50 39 C51 40 51 40 52 41 C51 41 51 40 50 40 C49 40 48 39 47 39 C46 38 45 38 44 37 C33 34 20 35 9 35 C9 34 10 34 10 33 C12 33 15 33 17 33 C17 32 16 32 16 31 C16 27 15 24 15 20 C14 15 11 12 6 8 C3 5 2 4 0 0 Z " fill="#5E4947" transform="translate(364,132)"/>
<path d="M0 0 C1 0 1 0 2 0 C5 7 5 12 5 19 C6 19 7 18 8 18 C10 18 12 18 14 18 C15 18 16 18 17 18 C18 18 19 18 21 18 C22 18 23 18 24 18 C27 18 30 18 33 18 C33 19 33 19 33 20 C44 20 52 12 60 5 C61 9 61 9 60 11 C60 12 60 12 59 14 C56 18 56 18 56 20 C50 25 43 25 35 25 C32 24 32 24 30 23 C25 22 21 22 17 22 C16 22 16 22 13 22 C5 22 -2 26 -7 31 C-11 34 -11 34 -15 34 C-18 34 -18 34 -19 33 C-21 33 -23 33 -25 32 C-26 32 -27 32 -28 32 C-29 32 -30 32 -31 32 C-31 31 -31 31 -31 30 C-33 30 -35 30 -37 30 C-37 30 -37 29 -37 29 C-35 29 -32 29 -30 29 C-28 29 -27 29 -26 29 C-22 29 -20 30 -17 32 C-13 32 -11 31 -8 29 C-8 28 -7 27 -6 26 C-3 23 -1 22 3 21 C3 19 3 17 3 15 C2 15 2 15 1 15 C1 13 1 12 1 10 C1 7 1 3 0 0 Z " fill="#432526" transform="translate(338,366)"/>
<path d="M0 0 C1 0 2 0 4 1 C7 1 7 1 10 4 C10 7 10 7 10 9 C10 10 11 11 11 12 C11 13 11 13 11 16 C11 17 11 18 11 19 C11 21 11 24 11 26 C12 26 13 26 14 25 C21 23 29 24 36 26 C36 27 35 28 35 28 C34 29 33 29 33 29 C28 31 25 33 21 36 C19 37 19 37 15 39 C15 40 15 40 13 42 C10 46 8 47 3 48 C-1 48 -4 48 -7 48 C-13 48 -19 49 -24 50 C-24 50 -23 49 -23 48 C-16 46 -8 46 0 46 C3 45 6 45 9 43 C10 41 12 39 13 37 C16 34 21 31 25 28 C26 28 26 28 27 28 C27 28 27 27 27 26 C19 28 11 29 3 31 C2 31 1 32 -1 32 C-10 34 -15 37 -21 45 C-26 49 -26 49 -30 49 C-30 49 -30 49 -27 47 C-23 43 -23 43 -20 39 C-19 39 -19 39 -18 39 C-17 38 -17 37 -16 35 C-12 32 -7 31 -2 30 C-1 29 0 29 1 29 C7 27 7 27 9 27 C9 27 9 27 8 25 C8 22 8 18 7 15 C7 14 7 13 7 12 C7 9 7 7 7 4 C3 3 0 3 -3 3 C-5 3 -6 3 -7 3 C-12 3 -14 5 -17 9 C-22 14 -26 20 -30 26 C-31 26 -31 26 -32 25 C-30 22 -28 20 -26 17 C-26 16 -25 15 -24 14 C-20 8 -20 8 -19 7 C-21 8 -24 8 -26 8 C-23 5 -21 5 -17 3 C-4 -1 -4 -1 0 0 Z " fill="#5C3F3F" transform="translate(291.0625,143.6875)"/>
<path d="M0 0 C4 2 5 3 8 6 C8 5 9 5 9 4 C9 4 9 4 12 6 C15 9 15 9 19 11 C23 13 24 14 26 18 C27 21 27 23 27 26 C29 35 31 40 39 46 C42 47 42 47 45 47 C46 48 47 48 48 48 C52 48 53 47 56 45 C58 45 59 45 61 45 C62 46 62 46 63 47 C64 46 64 45 65 45 C66 44 66 43 67 42 C68 42 68 42 69 42 C69 41 70 40 70 39 C71 36 71 36 74 32 C73 37 72 41 70 45 C71 45 71 45 72 45 C72 47 72 50 72 52 C71 52 71 51 70 51 C70 49 70 48 70 46 C66 47 66 47 64 50 C63 50 62 50 61 50 C61 49 61 49 60 46 C59 47 58 47 57 48 C51 51 45 50 39 49 C32 47 28 43 24 37 C22 32 20 27 19 22 C18 23 17 24 17 25 C14 28 14 28 12 29 C12 31 12 33 12 35 C12 36 12 37 12 38 C12 41 12 41 13 45 C13 45 13 45 11 46 C11 43 10 41 10 38 C10 37 10 35 9 34 C9 30 9 30 9 28 C8 28 7 29 7 29 C4 30 4 30 1 29 C3 28 5 28 7 27 C8 27 9 26 10 26 C13 25 13 25 15 25 C16 22 17 20 17 16 C15 13 13 11 9 10 C5 7 3 5 0 1 C0 1 0 0 0 0 Z " fill="#513B3B" transform="translate(168,492)"/>
<path d="M0 0 C2 1 2 1 3 4 C4 6 4 7 5 9 C5 10 6 11 6 13 C6 14 7 15 7 16 C7 16 8 16 8 16 C8 19 8 23 8 26 C8 27 8 28 8 29 C8 37 8 37 7 40 C8 40 8 40 9 40 C17 38 21 39 28 44 C35 50 39 58 40 67 C40 68 40 69 40 70 C40 72 40 72 42 74 C42 74 42 74 41 77 C41 77 40 76 40 76 C40 78 39 79 39 81 C39 81 38 81 38 81 C38 80 38 79 38 78 C37 61 37 61 32 54 C25 48 15 45 6 45 C2 49 3 54 3 59 C0 56 0 54 -1 50 C-3 46 -5 41 -8 38 C-10 35 -11 32 -13 28 C-13 27 -13 27 -14 24 C-14 23 -15 22 -15 21 C-15 20 -16 19 -16 18 C-15 18 -15 18 -14 18 C-14 19 -13 20 -13 21 C-10 29 -6 36 -1 43 C-1 44 -1 45 -1 46 C0 46 0 46 1 46 C1 45 2 43 2 42 C3 37 3 37 4 36 C5 24 4 13 0 2 C0 1 0 1 0 0 Z " fill="#83696B" transform="translate(553,191)"/>
<path d="M0 0 C1 0 1 1 2 1 C2 2 2 3 2 4 C10 4 17 4 25 4 C22 7 18 7 14 7 C12 7 11 7 10 7 C8 7 6 7 4 7 C-4 7 -4 7 -8 11 C-9 11 -9 12 -10 13 C-9 15 -9 15 -6 17 C-1 19 4 22 6 27 C6 29 6 31 6 33 C12 33 16 33 22 31 C25 31 27 31 30 31 C28 33 26 34 23 34 C23 34 23 34 21 33 C21 34 21 34 21 35 C15 35 9 35 3 35 C3 33 2 32 2 30 C1 25 0 23 -4 21 C-6 20 -7 19 -9 18 C-11 17 -13 15 -15 14 C-15 15 -15 15 -15 19 C-16 30 -22 40 -30 48 C-31 48 -31 47 -32 47 C-31 46 -30 45 -29 43 C-26 40 -24 38 -23 34 C-24 35 -25 36 -26 37 C-27 37 -27 36 -28 36 C-27 35 -26 33 -25 32 C-23 27 -21 22 -20 16 C-21 16 -21 17 -22 17 C-25 18 -25 18 -29 17 C-12 7 -12 7 -7 5 C-7 4 -7 4 -7 3 C-7 3 -7 3 -4 2 C-1 1 -1 1 0 0 Z " fill="#4D3132" transform="translate(440,404)"/>
<path d="M0 0 C0 0 1 0 1 0 C1 3 1 7 1 10 C2 10 2 10 3 10 C3 20 4 30 4 41 C5 41 5 41 6 41 C7 40 7 38 8 37 C12 33 16 30 20 26 C21 26 21 27 22 27 C17 32 11 38 6 43 C5 46 5 46 5 49 C5 48 4 48 4 47 C3 47 3 47 2 47 C0 51 -1 55 -2 59 C-2 59 -2 59 -3 62 C-3 64 -4 65 -4 66 C-6 73 -6 73 -7 75 C-8 79 -9 82 -10 86 C-10 86 -10 86 -12 85 C-12 85 -12 85 -11 82 C-12 81 -14 81 -15 80 C-16 79 -17 79 -17 78 C-20 77 -20 77 -22 77 C-30 80 -34 84 -39 90 C-40 90 -40 90 -41 90 C-42 94 -44 97 -45 101 C-45 102 -45 103 -45 104 C-46 105 -46 105 -46 106 C-46 106 -47 106 -47 106 C-48 99 -46 92 -41 87 C-29 74 -29 74 -21 74 C-17 75 -14 77 -10 80 C-10 79 -10 77 -9 76 C-6 55 -6 55 0 47 C2 44 2 44 2 42 C1 39 0 37 -1 35 C-2 29 -2 24 -3 18 C-3 15 -3 13 -3 11 C-3 10 -3 9 -3 8 C-3 6 -3 6 -5 4 C-4 4 -2 3 -1 3 C-1 2 0 1 0 0 Z " fill="#483634" transform="translate(166,152)"/>
<path d="M0 0 C0 4 -2 5 -4 8 C-2 6 0 4 2 2 C2 2 2 2 4 3 C-2 9 -8 14 -14 19 C-15 20 -16 20 -17 21 C-19 23 -21 24 -24 26 C-25 26 -26 27 -27 27 C-29 28 -30 28 -31 29 C-34 30 -37 32 -39 33 C-43 35 -47 37 -51 39 C-52 41 -53 43 -55 45 C-58 52 -62 57 -69 59 C-69 60 -69 60 -69 61 C-61 60 -54 60 -46 59 C-50 63 -57 63 -63 63 C-65 63 -68 63 -70 63 C-73 63 -73 63 -77 64 C-76 63 -74 61 -73 60 C-72 60 -72 60 -71 60 C-71 59 -71 59 -71 58 C-70 57 -69 56 -67 56 C-59 50 -54 43 -52 33 C-51 33 -51 33 -50 33 C-48 30 -47 28 -45 25 C-44 24 -43 24 -42 23 C-42 24 -43 25 -43 25 C-44 27 -44 29 -45 31 C-34 26 -24 20 -15 13 C-14 12 -13 11 -12 11 C-8 7 -4 4 0 0 Z " fill="#4D3132" transform="translate(519,343)"/>
<path d="M0 0 C1 3 1 3 0 5 C-2 8 -3 11 -5 14 C-5 15 -5 15 -7 17 C-11 22 -15 25 -21 27 C-24 29 -26 30 -29 33 C-31 35 -31 35 -35 37 C-35 38 -35 38 -35 39 C-34 39 -32 40 -31 40 C-32 41 -32 43 -33 44 C-36 44 -39 45 -42 45 C-46 47 -46 47 -48 49 C-49 49 -49 48 -50 48 C-49 47 -47 45 -46 44 C-50 42 -54 41 -59 41 C-59 40 -58 40 -58 39 C-57 39 -57 39 -53 39 C-52 39 -51 39 -51 39 C-48 39 -48 39 -44 41 C-44 40 -43 39 -43 38 C-41 37 -41 37 -38 35 C-31 31 -26 25 -23 17 C-22 13 -21 9 -20 4 C-20 4 -19 4 -19 4 C-19 7 -19 9 -19 12 C-19 13 -20 15 -20 16 C-20 20 -20 20 -22 23 C-21 23 -20 23 -19 23 C-18 21 -18 19 -17 17 C-17 18 -17 18 -16 21 C-8 15 -4 9 0 0 Z " fill="#432526" transform="translate(453,344)"/>
<path d="M0 0 C1 0 1 1 2 1 C1 2 1 2 0 3 C-8 12 -15 21 -19 33 C-20 35 -21 38 -22 40 C-21 39 -20 38 -18 37 C-14 33 -10 30 -6 27 C-8 31 -10 33 -13 37 C-19 44 -24 52 -28 61 C-28 61 -29 61 -29 61 C-30 48 -27 36 -21 24 C-21 23 -21 23 -20 21 C-18 16 -15 14 -11 11 C-7 8 -3 4 0 0 Z " fill="#DFA3A5" transform="translate(259,194)"/>
<path d="M0 0 C2 2 3 4 4 7 C5 8 5 8 6 8 C6 8 7 7 7 6 C7 7 8 8 8 9 C9 10 11 11 12 11 C13 14 13 14 14 17 C15 23 15 23 17 25 C17 25 17 25 17 22 C17 21 17 21 17 18 C17 17 17 15 17 14 C18 10 19 9 22 6 C22 7 21 8 21 9 C20 11 20 11 20 14 C21 13 22 12 23 11 C23 12 23 14 23 15 C22 24 22 31 25 40 C26 39 28 38 29 37 C28 41 28 41 26 43 C22 45 19 45 15 45 C13 44 12 44 10 44 C10 44 10 44 7 44 C7 44 8 43 8 42 C13 42 17 42 22 42 C22 37 21 33 18 29 C17 29 16 28 16 28 C12 26 12 24 11 20 C10 15 9 15 5 11 C1 13 0 14 -3 17 C-2 13 -2 13 1 10 C1 9 2 8 2 7 C1 7 -1 6 -2 5 C-3 5 -3 4 -4 3 C-8 0 -12 1 -17 2 C-18 3 -20 3 -21 3 C-17 -3 -6 -4 0 0 Z " fill="#432526" transform="translate(326.9375,271.6875)"/>
<path d="M0 0 C0 0 0 0 1 2 C1 3 0 3 0 4 C-6 11 -11 18 -16 25 C-16 25 -16 25 -18 28 C-23 35 -23 42 -21 51 C-21 52 -21 52 -21 53 C-22 53 -23 53 -24 53 C-24 52 -25 51 -25 51 C-26 50 -26 49 -27 48 C-30 48 -30 48 -33 48 C-32 55 -30 62 -28 69 C-27 72 -27 75 -28 79 C-28 79 -29 79 -29 79 C-29 78 -29 77 -30 76 C-30 75 -30 73 -30 72 C-31 70 -31 69 -31 68 C-32 64 -32 64 -33 61 C-34 58 -34 56 -34 53 C-34 52 -34 51 -34 49 C-34 49 -34 48 -34 47 C-33 47 -33 47 -28 46 C-28 46 -28 46 -29 43 C-31 36 -31 29 -30 22 C-29 21 -29 20 -28 19 C-28 22 -28 25 -28 28 C-27 28 -27 27 -26 27 C-26 29 -25 32 -25 34 C-24 33 -24 32 -23 31 C-17 19 -9 9 0 0 Z " fill="#432526" transform="translate(256,218)"/>
<path d="M0 0 C2 2 2 2 3 4 C-3 7 -10 10 -16 13 C-15 16 -14 19 -13 22 C-13 23 -13 23 -12 26 C-15 23 -16 21 -18 17 C-18 16 -18 15 -18 14 C-19 14 -21 14 -22 14 C-22 16 -22 16 -21 28 C-24 25 -23 24 -24 20 C-24 19 -24 18 -24 17 C-24 17 -24 16 -24 15 C-25 15 -27 16 -28 16 C-37 16 -45 17 -54 14 C-55 14 -56 14 -56 13 C-63 12 -69 9 -75 5 C-70 4 -69 5 -65 7 C-64 7 -63 8 -62 8 C-62 8 -62 8 -59 10 C-53 12 -47 11 -40 11 C-38 11 -37 11 -36 11 C-27 11 -20 10 -12 7 C-11 7 -10 6 -9 6 C-6 4 -3 3 0 0 Z " fill="#4D3132" transform="translate(374,407)"/>
<path d="M0 0 C3 3 3 5 4 8 C4 9 4 9 4 11 C5 12 5 12 5 14 C6 14 7 13 8 13 C8 17 8 21 9 24 C9 25 9 26 9 28 C9 29 9 30 9 31 C9 32 9 33 9 34 C9 35 9 37 9 39 C9 39 9 39 10 36 C12 33 12 33 16 30 C15 35 13 39 11 43 C8 48 8 54 8 60 C7 60 7 60 4 61 C4 60 4 60 4 59 C5 59 5 59 6 59 C6 54 6 49 6 45 C6 44 6 44 6 40 C5 31 5 22 -2 15 C-3 14 -3 14 -4 13 C-8 9 -11 9 -17 9 C-18 9 -19 9 -20 9 C-21 9 -22 9 -23 9 C-24 10 -24 12 -25 13 C-26 13 -26 12 -27 12 C-25 10 -25 10 -23 7 C-20 6 -20 6 -16 6 C-14 6 -13 6 -12 6 C-5 7 -2 11 2 15 C1 10 1 5 0 0 Z " fill="#432526" transform="translate(432,275)"/>
<path d="M0 0 C1 0 1 0 2 0 C3 2 3 2 5 4 C5 5 6 6 6 7 C7 8 7 9 8 10 C12 17 16 23 22 29 C24 31 26 33 28 35 C30 38 34 41 37 44 C39 46 41 49 44 51 C47 55 50 58 55 60 C57 61 58 62 60 63 C61 63 63 64 64 65 C60 66 58 65 55 63 C48 60 43 55 38 50 C34 46 31 45 27 44 C26 43 24 42 23 41 C24 46 24 51 25 56 C23 55 23 55 21 51 C20 45 20 41 20 36 C21 36 21 36 22 36 C23 37 25 39 26 40 C26 40 26 40 29 41 C28 40 27 40 27 39 C24 36 24 36 22 32 C21 31 20 30 18 29 C10 22 5 11 0 2 C0 1 0 1 0 0 Z " fill="#483634" transform="translate(159,291)"/>
<path d="M0 0 C-2 4 -2 4 -5 6 C-10 11 -13 18 -14 25 C-15 25 -17 24 -18 24 C-17 27 -17 27 -16 30 C-14 31 -11 32 -9 33 C-3 37 2 42 5 49 C5 50 4 50 4 51 C2 48 0 45 -3 42 C-5 39 -5 39 -8 38 C-9 37 -10 35 -11 34 C-12 34 -14 33 -15 33 C-20 30 -20 29 -22 24 C-24 17 -24 17 -24 13 C-23 14 -22 16 -21 17 C-21 16 -20 15 -20 14 C-20 13 -20 12 -19 11 C-19 10 -19 8 -18 7 C-17 4 -17 4 -14 1 C-15 4 -15 7 -16 10 C-14 8 -13 5 -11 3 C-11 4 -11 5 -11 6 C-10 5 -8 4 -7 3 C-2 0 -2 0 0 0 Z " fill="#432526" transform="translate(334,315)"/>
<path d="M0 0 C-1 3 -3 6 -5 9 C-8 14 -12 19 -15 23 C-16 25 -17 26 -18 27 C-22 34 -24 39 -24 47 C-21 45 -18 43 -14 41 C-14 41 -14 41 -12 40 C-11 39 -10 39 -9 38 C-7 37 -7 37 -4 37 C-19 49 -19 49 -25 49 C-25 50 -26 51 -26 52 C-30 54 -30 54 -33 54 C-32 53 -31 53 -31 52 C-28 48 -28 46 -28 41 C-25 27 -16 12 -5 2 C-2 0 -2 0 0 0 Z " fill="#5E4947" transform="translate(269,116)"/>
<path d="M0 0 C3 4 3 4 5 8 C8 16 14 21 20 27 C25 32 29 37 34 43 C38 49 43 50 50 52 C53 52 55 52 57 53 C57 54 58 54 58 55 C50 56 43 54 37 49 C32 46 29 42 26 37 C23 33 23 33 19 31 C13 32 9 33 4 36 C3 36 3 36 2 36 C2 37 2 37 2 38 C1 39 -1 41 -2 42 C-3 43 -3 44 -4 45 C-5 45 -5 45 -6 45 C-6 46 -7 48 -7 49 C-8 50 -9 50 -10 51 C-9 49 -8 47 -7 45 C-8 45 -8 44 -9 44 C-8 42 -6 41 -5 39 C-6 39 -7 38 -8 38 C-6 37 -6 37 -1 37 C1 35 1 35 4 33 C11 28 11 28 16 28 C16 28 16 28 14 26 C0 9 0 9 0 0 Z " fill="#513B3B" transform="translate(102,353)"/>
<path d="M0 0 C0 0 0 0 1 2 C1 3 0 3 0 4 C-1 8 -1 10 0 13 C-1 13 -2 12 -3 12 C-4 17 -3 20 -2 24 C-3 24 -3 23 -4 23 C-4 23 -4 23 -5 20 C-6 21 -8 21 -9 22 C-8 18 -7 15 -6 11 C-10 13 -12 14 -14 18 C-18 22 -20 22 -25 23 C-31 25 -35 30 -38 34 C-42 39 -45 42 -50 46 C-52 47 -52 47 -55 50 C-62 55 -68 55 -76 55 C-76 54 -77 54 -77 53 C-76 53 -76 53 -75 53 C-60 50 -48 43 -39 32 C-34 25 -29 21 -21 19 C-17 18 -17 17 -15 13 C-12 11 -10 9 -6 8 C-4 6 -4 6 -3 4 C-2 3 -1 1 0 0 Z " fill="#4A3536" transform="translate(438,456)"/>
<path d="M0 0 C1 4 1 4 0 8 C-3 13 -7 15 -12 18 C-13 18 -13 18 -14 18 C-14 19 -14 19 -14 20 C-12 20 -11 20 -9 20 C-6 22 -6 22 -4 25 C-4 25 -3 26 -3 26 C-3 29 -2 31 -2 34 C-1 34 1 34 2 34 C3 35 5 35 6 35 C6 36 7 36 7 37 C2 37 -1 37 -5 35 C-6 33 -6 33 -6 30 C-6 27 -6 27 -7 25 C-13 20 -17 20 -25 19 C-25 18 -26 17 -26 16 C-27 16 -27 16 -28 16 C-28 17 -28 18 -29 18 C-29 19 -29 20 -29 21 C-30 22 -30 23 -30 24 C-31 27 -31 27 -33 30 C-33 25 -32 20 -30 15 C-31 15 -33 14 -34 14 C-30 13 -29 13 -25 14 C-25 15 -25 16 -25 17 C-23 17 -21 17 -19 17 C-19 16 -19 16 -19 15 C-18 15 -18 14 -17 14 C-10 10 -5 6 0 0 Z " fill="#432526" transform="translate(302,292)"/>
<path d="M0 0 C1 0 1 1 2 1 C5 3 5 3 9 4 C12 5 12 5 15 7 C17 9 17 9 20 10 C25 9 28 7 32 4 C32 4 32 4 34 3 C35 3 36 4 37 4 C35 7 34 9 32 12 C31 12 31 12 30 12 C30 11 30 10 30 9 C29 9 27 10 26 11 C22 12 22 12 19 12 C19 13 19 14 19 15 C20 16 22 16 23 17 C27 21 28 25 29 31 C29 32 28 34 28 35 C28 34 28 33 27 32 C27 31 27 30 27 29 C26 28 26 27 26 26 C25 21 25 21 22 20 C19 18 19 18 17 15 C17 14 17 12 17 11 C17 11 17 11 15 10 C12 9 10 8 8 7 C8 8 8 10 8 11 C7 18 3 23 -1 29 C-1 31 -1 31 0 34 C1 40 1 44 -1 49 C-2 49 -2 49 -3 49 C-3 49 -3 49 -3 47 C-3 45 -2 44 -2 43 C-2 42 -2 41 -2 40 C-2 37 -2 37 -4 33 C-4 28 -4 27 -1 23 C3 18 5 15 5 9 C5 8 5 7 5 6 C3 4 3 4 0 3 C0 2 0 1 0 0 Z " fill="#432526" transform="translate(305,243)"/>
<path d="M0 0 C0 1 1 1 1 2 C0 5 -2 7 -3 10 C-4 13 -5 16 -6 19 C-6 21 -7 22 -7 24 C-8 28 -8 28 -7 32 C-6 30 -5 28 -4 26 C-4 27 -3 27 -3 28 C-3 29 -4 29 -4 30 C-5 34 -5 36 -5 39 C-3 42 -1 45 3 46 C6 48 7 49 9 53 C10 57 10 60 10 64 C10 64 10 64 12 63 C11 67 11 68 8 71 C8 70 8 68 7 67 C7 65 7 63 7 61 C6 60 6 59 6 58 C5 51 5 51 4 49 C3 48 2 48 0 47 C-6 44 -10 39 -13 33 C-13 32 -13 32 -13 31 C-14 31 -14 31 -18 29 C-18 28 -18 28 -18 27 C-19 27 -20 26 -21 26 C-21 25 -20 25 -20 24 C-18 26 -15 27 -13 29 C-10 23 -9 18 -7 12 C-6 8 -5 6 -2 3 C-1 2 -1 1 0 0 Z " fill="#432526" transform="translate(256,243)"/>
<path d="M0 0 C2 1 2 1 3 4 C5 11 6 18 6 26 C7 27 9 27 10 28 C14 31 17 35 20 39 C22 41 22 41 24 42 C27 51 27 59 27 68 C27 68 26 68 26 68 C26 64 26 61 26 57 C25 57 25 57 24 57 C24 56 24 54 24 53 C23 53 23 53 22 53 C22 52 22 51 21 50 C20 44 17 40 14 36 C13 36 13 35 12 35 C13 36 13 38 14 39 C14 42 14 45 14 48 C14 48 13 48 13 48 C13 46 13 45 12 43 C11 38 10 36 6 33 C5 32 4 32 3 31 C3 27 3 23 3 18 C3 13 2 11 -1 7 C-1 3 -1 3 0 0 Z " fill="#83696B" transform="translate(533,209)"/>
<path d="M0 0 C2 4 3 7 4 11 C4 12 5 13 5 14 C6 17 6 20 7 23 C9 29 11 34 15 39 C15 38 16 36 16 35 C17 36 17 36 18 37 C19 35 20 34 21 32 C21 33 22 33 22 34 C21 36 21 37 20 39 C18 44 18 47 19 53 C18 53 18 52 17 52 C17 55 17 58 17 61 C13 57 14 53 14 48 C14 44 14 44 15 42 C14 42 13 41 13 41 C10 40 10 40 8 38 C5 38 5 38 2 39 C3 38 3 38 4 37 C5 37 6 37 7 37 C6 36 6 34 5 33 C3 29 3 29 4 26 C4 26 5 26 5 26 C5 24 4 21 4 19 C3 18 3 16 3 15 C2 11 2 11 1 8 C0 5 0 5 0 0 Z " fill="#483634" transform="translate(79,256)"/>
<path d="M0 0 C4 1 6 3 9 5 C11 3 14 2 16 0 C17 0 17 1 18 1 C18 1 17 2 17 2 C18 2 18 3 19 3 C19 2 19 2 19 1 C22 0 24 0 27 1 C32 3 34 4 36 9 C36 10 36 12 36 13 C37 14 39 14 40 15 C41 16 42 18 43 19 C43 20 42 20 42 21 C34 14 34 14 32 10 C31 7 31 7 28 6 C23 5 17 4 12 6 C9 9 7 12 5 15 C5 14 4 14 4 13 C5 12 5 11 6 10 C6 7 6 7 5 5 C2 4 2 4 -1 4 C-1 3 0 1 0 0 Z " fill="#432526" transform="translate(345,268)"/>
<path d="M0 0 C0 0 0 0 1 2 C2 2 4 1 5 1 C5 2 4 2 4 3 C2 6 1 8 1 11 C0 11 0 11 -4 9 C-5 12 -7 15 -8 18 C-9 17 -9 15 -10 14 C-16 15 -21 17 -26 19 C-27 20 -28 20 -29 20 C-39 25 -45 31 -52 39 C-52 34 -48 31 -45 28 C-36 20 -23 13 -11 12 C-10 11 -9 11 -8 11 C-6 8 -6 8 -5 5 C-2 2 -2 2 0 0 Z " fill="#5C3F3F" transform="translate(314,198)"/>
<path d="M0 0 C1 0 3 1 4 1 C4 6 3 9 1 13 C1 15 0 17 0 19 C1 19 1 19 3 19 C32 17 32 17 38 20 C38 20 38 21 38 21 C38 21 38 21 35 21 C31 21 27 21 23 21 C22 21 20 21 19 21 C8 21 -2 21 -11 28 C-12 28 -12 27 -13 27 C-10 23 -7 21 -2 21 C-2 20 -2 19 -2 19 C-2 18 -2 18 -2 16 C-2 15 -2 14 -2 13 C-2 10 -2 10 0 7 C0 5 0 2 0 0 Z " fill="#5C3F3F" transform="translate(327,170)"/>
<path d="M0 0 C1 1 3 1 4 2 C5 2 7 3 8 3 C6 8 3 12 0 16 C-1 19 -1 19 -1 21 C5 25 11 24 18 24 C18 25 18 25 18 26 C14 27 10 27 5 27 C4 27 4 26 3 26 C-5 21 -16 21 -25 23 C-27 24 -28 24 -30 25 C-31 25 -33 26 -34 26 C-31 22 -30 21 -25 20 C-21 20 -18 20 -14 20 C-13 20 -12 20 -11 20 C-9 20 -6 20 -4 20 C-4 19 -3 18 -3 17 C-2 14 -1 12 1 9 C2 8 2 8 3 7 C3 6 4 6 4 5 C3 4 3 4 2 3 C0 1 0 1 0 0 Z " fill="#5E4947" transform="translate(303,91)"/>
<path d="M0 0 C4 6 5 9 5 16 C6 16 7 17 8 17 C13 18 17 21 21 24 C21 27 21 27 21 31 C21 32 21 33 21 34 C21 35 21 35 21 37 C22 37 22 37 25 36 C19 44 19 44 17 45 C17 44 17 44 18 41 C19 35 20 30 18 24 C14 21 14 21 10 20 C9 19 7 19 6 18 C5 19 4 19 3 20 C-1 21 -1 21 -6 20 C-9 17 -9 17 -10 14 C-10 13 -9 13 -9 12 C-8 13 -8 14 -7 15 C-3 18 -1 17 4 17 C4 16 4 16 4 15 C3 15 3 14 2 14 C3 14 3 14 4 14 C4 13 3 11 3 10 C2 10 2 10 1 10 C1 8 1 7 1 5 C0 5 0 4 -1 4 C-1 3 0 1 0 0 Z " fill="#5E4947" transform="translate(448,119)"/>
<path d="M0 0 C0 0 0 0 1 2 C-1 6 -3 10 -5 14 C-8 19 -10 24 -11 30 C-15 41 -21 48 -30 56 C-31 57 -32 57 -32 58 C-34 59 -35 61 -37 62 C-38 62 -38 61 -39 61 C-36 58 -32 54 -28 51 C-20 44 -15 33 -12 23 C-10 18 -7 13 -5 8 C-4 8 -4 7 -3 6 C-2 4 -1 2 0 0 Z " fill="#4A3536" transform="translate(565,352)"/>
<path d="M0 0 C6 2 12 5 17 7 C24 10 29 11 37 11 C38 11 40 11 41 11 C45 11 48 11 51 10 C54 10 58 10 61 10 C60 11 60 12 59 13 C56 13 53 14 50 14 C49 14 48 14 47 14 C30 16 16 12 1 2 C1 1 0 1 0 0 Z " fill="#4D3132" transform="translate(303,467)"/>
<path d="M0 0 C1 3 1 4 0 7 C-1 8 -1 8 -1 10 C-2 11 -2 11 -2 12 C-3 11 -3 10 -4 9 C-12 13 -15 22 -19 29 C-23 39 -29 48 -38 54 C-41 55 -41 55 -44 55 C-41 52 -41 52 -38 50 C-30 45 -26 39 -22 31 C-21 29 -20 27 -20 25 C-19 24 -19 23 -18 22 C-13 13 -13 13 -8 9 C-5 7 -2 4 0 0 Z " fill="#AD7374" transform="translate(486,334)"/>
<path d="M0 0 C0 0 1 0 1 0 C0 6 -1 11 -2 17 C-2 18 -2 18 -3 22 C-3 22 -3 22 -4 25 C-4 25 -4 25 -1 24 C1 22 4 21 6 20 C11 15 12 9 14 3 C14 3 15 3 15 3 C15 11 13 16 8 22 C4 25 0 28 -5 28 C-5 29 -5 30 -5 31 C-7 33 -7 33 -9 35 C-10 35 -10 35 -11 35 C-9 29 -9 29 -7 27 C-6 25 -6 22 -5 20 C-3 13 -2 6 0 0 Z " fill="#432526" transform="translate(458,270)"/>
<path d="M0 0 C1 0 1 0 2 0 C5 14 4 29 -4 42 C-4 43 -5 44 -6 45 C-7 45 -7 44 -8 44 C-8 43 -7 43 -7 42 C-2 28 0 15 0 0 Z " fill="#432526" transform="translate(467,247)"/>
<path d="M0 0 C1 0 1 0 2 0 C2 1 1 2 1 3 C0 8 0 13 0 19 C0 20 0 21 0 22 C0 35 1 48 4 61 C-1 58 -1 53 -2 48 C-3 40 -3 32 -3 24 C-3 23 -3 21 -3 20 C-3 13 -3 7 0 0 Z " fill="#513B3B" transform="translate(175,326)"/>
<path d="M0 0 C0 0 1 0 1 0 C1 1 1 1 1 2 C2 9 3 14 7 20 C7 22 8 25 8 27 C7 27 7 27 6 28 C1 30 -2 33 -4 38 C-4 40 -5 41 -5 42 C-5 42 -6 42 -6 42 C-7 38 -6 36 -4 32 C-3 31 -1 29 0 27 C2 25 2 25 3 22 C2 20 2 20 1 17 C-2 8 -2 8 -3 3 C-2 2 -1 1 0 0 Z " fill="#432526" transform="translate(400,221)"/>
<path d="M0 0 C3 2 3 2 6 4 C5 4 4 5 3 5 C2 5 2 4 1 4 C-7 3 -11 4 -17 9 C-23 15 -25 20 -27 28 C-27 30 -28 32 -28 34 C-28 36 -29 37 -29 39 C-29 40 -30 40 -30 41 C-31 41 -31 41 -32 41 C-30 25 -27 14 -14 4 C-9 1 -6 -1 0 0 Z " fill="#432526" transform="translate(430,330)"/>
<path d="M0 0 C0 0 0 0 1 3 C-1 6 -4 8 -6 11 C-7 12 -8 14 -10 15 C-13 19 -13 19 -17 22 C-16 23 -15 23 -14 24 C-17 25 -19 25 -21 25 C-22 25 -23 25 -24 25 C-27 25 -27 25 -29 24 C-29 23 -29 23 -29 22 C-26 22 -23 21 -20 21 C-21 21 -23 21 -24 20 C-30 19 -34 17 -38 14 C-34 14 -32 15 -28 17 C-25 18 -25 18 -23 18 C-22 18 -21 18 -20 18 C-13 18 -10 14 -7 9 C-4 6 -2 3 0 0 Z " fill="#4D3132" transform="translate(425,398)"/>
<path d="M0 0 C4 6 4 12 5 18 C6 21 7 23 8 26 C9 26 11 25 12 25 C12 26 12 26 10 32 C9 31 7 31 6 30 C2 29 0 29 -4 30 C-3 29 -2 27 -1 26 C2 26 2 26 5 26 C5 25 4 23 4 22 C3 20 3 19 2 17 C2 16 1 15 1 14 C0 10 -1 6 -1 1 C-1 1 0 0 0 0 Z " fill="#432526" transform="translate(394,263)"/>
<path d="M0 0 C7 4 10 11 13 18 C16 23 18 27 21 31 C24 35 26 38 26 43 C23 40 21 37 19 33 C18 30 16 27 14 25 C10 18 5 11 2 4 C1 3 1 1 0 0 Z " fill="#432526" transform="translate(407,213)"/>
<path d="M0 0 C0 0 1 0 1 0 C1 4 1 8 1 12 C1 12 1 12 4 13 C5 13 6 13 7 13 C8 13 9 14 11 14 C16 16 18 17 21 22 C22 26 23 30 24 34 C24 36 24 37 24 39 C25 40 25 41 25 42 C20 37 19 31 18 24 C17 21 17 21 15 18 C12 17 12 17 8 17 C1 15 1 15 -2 12 C-2 8 -2 4 0 0 Z " fill="#513B3B" transform="translate(197,374)"/>
<path d="M0 0 C4 1 4 1 7 3 C7 2 8 2 8 1 C13 7 17 13 22 20 C22 20 22 20 24 23 C25 26 25 28 24 31 C23 31 23 30 22 30 C22 29 21 28 21 26 C20 21 19 20 15 17 C13 15 11 12 10 10 C8 8 8 8 4 5 C4 4 4 4 4 3 C3 2 1 2 0 1 C0 1 0 0 0 0 Z " fill="#432526" transform="translate(444,216)"/>
<path d="M0 0 C0 0 1 0 1 0 C1 3 2 5 2 8 C2 6 3 5 3 3 C3 3 4 3 4 3 C4 4 4 5 4 6 C4 7 4 9 4 10 C4 12 4 13 4 14 C5 18 5 18 8 20 C9 21 10 21 11 22 C12 22 13 23 14 23 C20 26 26 28 32 30 C32 30 32 31 32 31 C25 31 20 29 14 26 C13 26 13 26 11 25 C6 23 6 23 3 21 C0 14 0 8 0 0 Z " fill="#4A3536" transform="translate(297,467)"/>
<path d="M0 0 C0 1 0 1 0 2 C-2 2 -3 3 -5 3 C-5 4 -5 4 -5 5 C-6 5 -7 6 -8 6 C-9 6 -11 7 -12 7 C-13 8 -15 8 -16 9 C-20 10 -20 10 -24 12 C-28 13 -32 14 -36 15 C-33 11 -30 10 -26 8 C-22 7 -19 6 -16 4 C-11 2 -6 0 0 0 Z " fill="#4A3536" transform="translate(500,431)"/>
<path d="M0 0 C3 9 -3 25 -7 34 C-11 39 -14 45 -18 50 C-19 50 -19 49 -20 49 C-19 48 -19 47 -18 47 C-10 33 -5 21 -2 5 C-1 1 -1 1 0 0 Z " fill="#4D3132" transform="translate(539,293)"/>
<path d="M0 0 C2 0 3 1 5 1 C8 18 4 29 -4 43 C-4 43 -4 43 -6 45 C-7 45 -7 45 -8 45 C-7 43 -5 40 -4 38 C1 28 5 20 4 9 C4 9 3 8 3 8 C2 9 2 9 1 10 C1 9 1 9 1 6 C1 2 1 2 0 0 Z " fill="#4D3132" transform="translate(489,315)"/>
<path d="M0 0 C2 3 4 5 5 9 C12 9 12 9 14 8 C18 8 21 7 25 10 C27 12 29 15 31 18 C31 19 30 19 30 20 C30 19 29 19 28 18 C23 11 23 11 18 10 C15 11 15 11 12 12 C9 12 9 12 5 12 C3 9 1 7 0 3 C-4 3 -9 3 -13 4 C-9 0 -5 -1 0 0 Z " fill="#5E4947" transform="translate(334,112)"/>
<path d="M0 0 C1 3 1 3 0 5 C-3 9 -6 12 -9 15 C-15 20 -19 25 -22 33 C-23 33 -23 33 -24 33 C-24 22 -13 14 -6 7 C-3 4 -3 4 0 0 Z " fill="#483634" transform="translate(119,258)"/>
<path d="M0 0 C1 1 2 1 3 2 C7 5 12 5 17 6 C17 7 17 7 17 8 C8 9 2 5 -6 0 C-10 -3 -13 -4 -19 -3 C-23 -2 -26 -1 -30 0 C-27 -4 -24 -4 -19 -5 C-11 -7 -6 -4 0 0 Z " fill="#432526" transform="translate(349,199)"/>
<path d="M0 0 C3 2 5 4 7 7 C7 5 8 4 8 2 C9 2 9 2 10 2 C10 5 10 7 10 10 C8 10 7 10 5 10 C5 9 5 8 5 8 C5 7 4 6 4 5 C3 4 1 4 0 3 C0 3 -1 2 -1 2 C-6 1 -8 1 -12 3 C-18 8 -21 12 -23 19 C-23 19 -24 19 -24 19 C-23 13 -22 9 -17 4 C-11 0 -8 -2 0 0 Z " fill="#432526" transform="translate(380,290)"/>
<path d="M0 0 C0 1 0 1 0 2 C1 2 1 2 2 2 C0 6 0 6 -3 10 C-3 10 -3 10 -4 8 C-5 9 -5 9 -6 10 C-5 6 -5 5 -2 2 C-4 1 -6 0 -8 -1 C-8 -2 -8 -2 -11 -3 C-16 -6 -22 -7 -27 -5 C-31 -5 -34 -5 -37 -5 C-37 -6 -36 -6 -36 -7 C-22 -11 -11 -8 0 0 Z " fill="#432526" transform="translate(403,211)"/>
<path d="M0 0 C1 3 1 3 0 6 C-2 9 -4 11 -7 14 C-8 15 -8 15 -9 16 C-11 17 -14 18 -16 18 C-19 19 -21 20 -24 21 C-28 22 -31 23 -35 23 C-32 20 -29 20 -25 18 C-9 12 -9 12 -4 7 C-3 5 -3 4 -2 2 C-1 1 -1 1 0 0 Z " fill="#4A3536" transform="translate(429,478)"/>
<path d="M0 0 C1 1 2 2 3 3 C3 4 2 5 2 6 C1 5 1 4 0 3 C-6 3 -8 5 -13 8 C-14 8 -15 7 -16 7 C-16 8 -17 8 -17 9 C-21 15 -25 20 -29 26 C-29 23 -29 23 -27 21 C-25 18 -24 16 -23 13 C-21 8 -19 6 -14 3 C-13 3 -12 3 -11 3 C-10 3 -9 2 -9 2 C-5 0 -4 0 0 0 Z " fill="#83696B" transform="translate(563,309)"/>
<path d="M0 0 C0 4 -1 4 -3 7 C-4 8 -5 8 -5 9 C-8 12 -10 13 -14 13 C-25 14 -34 22 -41 29 C-37 20 -28 15 -19 11 C-17 11 -16 11 -14 11 C-8 10 -4 5 0 0 Z " fill="#5C3F3F" transform="translate(259,170)"/>
<path d="M0 0 C0 1 0 2 0 3 C-1 3 -2 4 -3 4 C-4 4 -4 4 -7 5 C-9 6 -10 6 -11 7 C-15 8 -15 8 -19 11 C-19 12 -18 12 -18 13 C-22 15 -26 15 -30 15 C-30 15 -31 14 -31 14 C-33 14 -35 14 -37 13 C-38 13 -39 13 -40 13 C-40 13 -41 13 -42 13 C-42 13 -42 12 -42 12 C-41 12 -40 12 -38 12 C-24 13 -24 13 -19 9 C-18 8 -18 7 -17 7 C-12 3 -6 1 0 0 Z " fill="#4D3132" transform="translate(411,440)"/>
<path d="M0 0 C2 1 2 1 3 3 C1 4 -1 5 -2 6 C-3 6 -4 7 -5 8 C-8 9 -8 9 -11 10 C-9 14 -7 16 -3 19 C-2 19 -1 20 0 21 C1 21 1 22 2 22 C-1 23 -1 23 -4 22 C-8 19 -11 16 -14 12 C-15 12 -16 11 -17 11 C-16 10 -15 10 -14 9 C-13 9 -11 8 -10 7 C-9 6 -8 6 -6 5 C-3 3 -3 3 0 0 Z " fill="#4D3132" transform="translate(394,398)"/>
<path d="M0 0 C0 3 0 3 -2 5 C-2 5 -2 5 -4 7 C-13 16 -20 27 -26 38 C-27 35 -27 35 -26 32 C-19 20 -10 10 0 0 Z " fill="#5E4947" transform="translate(235,170)"/>
<path d="M0 0 C0 4 -2 7 -5 10 C-5 11 -5 11 -7 14 C-10 18 -12 20 -15 23 C-16 24 -17 24 -17 25 C-22 28 -26 28 -31 29 C-35 30 -37 31 -40 34 C-41 34 -41 33 -42 33 C-38 29 -35 28 -30 27 C-23 26 -18 23 -13 18 C-10 14 -7 9 -4 5 C-2 2 -2 2 0 0 Z " fill="#4A3536" transform="translate(343,510)"/>
<path d="M0 0 C1 0 1 0 2 0 C2 6 3 13 3 19 C4 19 4 19 8 21 C10 22 12 24 14 25 C14 26 13 26 13 27 C11 26 10 25 8 24 C7 24 6 23 5 23 C1 20 -1 17 -3 12 C-3 11 -4 10 -4 9 C-5 6 -5 6 -4 4 C-3 5 -2 7 -1 8 C-1 5 0 3 0 0 Z " fill="#483634" transform="translate(183,347)"/>
<path d="M0 0 C0 1 0 2 0 3 C-5 8 -11 12 -17 17 C-18 17 -19 18 -20 18 C-27 23 -34 28 -43 27 C-43 26 -42 26 -42 25 C-41 25 -39 25 -38 24 C-25 21 -9 10 0 0 Z " fill="#4D3132" transform="translate(407,451)"/>
<path d="M0 0 C1 0 2 1 3 1 C-20 14 -20 14 -32 17 C-33 17 -34 18 -35 18 C-38 19 -42 20 -45 20 C-41 17 -38 16 -33 15 C-23 12 -15 8 -6 3 C-4 2 -2 1 0 0 Z " fill="#4D3132" transform="translate(515,416)"/>
<path d="M0 0 C1 0 1 0 2 0 C3 1 3 3 4 4 C5 4 7 4 8 4 C8 5 8 5 8 6 C19 11 32 12 44 13 C44 13 44 14 44 14 C36 14 29 14 21 12 C18 11 15 10 13 10 C8 9 5 8 2 6 C1 3 1 3 0 0 Z " fill="#513B3B" transform="translate(239,544)"/>
<path d="M0 0 C3 2 7 3 10 5 C11 6 12 6 13 7 C14 7 14 7 16 8 C17 9 18 9 19 10 C21 11 21 11 22 14 C18 13 15 12 11 10 C7 8 4 6 0 5 C0 3 0 2 0 0 Z " fill="#483634" transform="translate(223,353)"/>
<path d="M0 0 C0 0 1 0 1 0 C0 14 -2 23 -9 35 C-10 35 -10 35 -11 35 C-10 32 -9 30 -8 27 C-4 20 -3 13 -2 4 C-1 1 -1 1 0 0 Z " fill="#83696B" transform="translate(559,277)"/>
<path d="M0 0 C0 1 1 2 1 3 C-2 8 -4 12 -9 15 C-11 17 -12 18 -14 20 C-16 22 -18 24 -20 25 C-21 26 -22 27 -23 28 C-23 28 -23 28 -25 30 C-26 30 -26 29 -27 29 C-25 27 -22 25 -20 23 C-20 22 -21 22 -21 21 C-20 21 -20 21 -17 19 C-10 14 -3 8 0 0 Z " fill="#4A3536" transform="translate(583,408)"/>
<path d="M0 0 C0 4 -1 5 -4 8 C-9 13 -15 17 -22 19 C-23 19 -24 18 -25 18 C-24 17 -23 17 -21 16 C-21 15 -20 15 -19 14 C-17 13 -15 12 -13 11 C-8 8 -4 4 0 0 Z " fill="#4A3536" transform="translate(525,413)"/>
<path d="M0 0 C0 3 0 3 -2 6 C-22 25 -22 25 -30 26 C-28 23 -28 23 -25 20 C-24 20 -23 20 -22 20 C-14 14 -7 7 0 0 Z " fill="#4D3132" transform="translate(506,340)"/>
<path d="M0 0 C0 1 1 1 1 2 C0 5 -2 7 -3 10 C-5 15 -6 20 -7 26 C-8 29 -8 29 -10 31 C-11 21 -7 11 -2 2 C-1 1 -1 1 0 0 Z " fill="#432526" transform="translate(239,214)"/>
<path d="M0 0 C0 0 0 0 -2 1 C3 2 8 2 13 2 C13 2 13 3 13 3 C10 4 6 4 3 4 C2 4 1 4 0 4 C-1 4 -2 4 -3 4 C-4 4 -5 4 -6 4 C-9 4 -11 4 -14 4 C-10 -1 -6 -2 0 0 Z " fill="#5E4947" transform="translate(425,129)"/>
<path d="M0 0 C1 0 1 0 2 0 C6 11 7 20 7 32 C5 27 4 24 4 19 C3 12 1 6 0 0 Z " fill="#432526" transform="translate(432,256)"/>
</svg>