<svg role="img" aria-label="rose" viewBox="0 0 700 700" version="1.1" xmlns="http://www.w3.org/2000/svg">
<path d="M0 0 C9 4 17 11 24 17 C26 18 28 20 29 21 C30 22 31 23 32 24 C34 25 36 26 37 28 C51 39 62 55 64 73 C65 86 65 86 62 91 C61 100 62 106 67 113 C68 114 68 114 69 115 C68 119 68 119 65 121 C57 129 51 140 49 152 C49 155 49 158 49 160 C48 167 47 171 44 177 C43 179 42 181 42 183 C39 188 37 193 33 198 C31 202 29 205 27 209 C21 220 15 227 4 235 C1 237 -3 240 -6 243 C-10 246 -15 249 -19 252 C-23 255 -26 258 -29 262 C-37 271 -44 273 -55 276 C-57 277 -60 277 -62 278 C-63 278 -64 279 -65 279 C-69 280 -72 282 -75 283 C-74 283 -73 282 -72 282 C-71 282 -70 281 -69 281 C-68 281 -67 280 -66 280 C-63 279 -63 279 -60 280 C-60 280 -60 281 -60 281 C-59 280 -57 279 -56 278 C-52 276 -49 275 -45 274 C-37 272 -32 268 -27 262 C-23 258 -18 255 -14 251 C-13 250 -12 249 -11 248 C-6 245 -1 241 3 237 C5 237 6 236 7 235 C8 234 9 233 10 233 C18 226 24 219 29 210 C30 208 31 206 32 204 C32 203 33 202 33 201 C35 198 37 195 39 192 C47 180 51 166 54 152 C54 151 55 150 55 149 C56 149 56 149 57 149 C57 150 57 151 57 152 C58 152 59 153 60 153 C63 158 65 163 68 168 C69 170 70 172 71 174 C79 189 81 204 82 220 C82 221 82 222 82 223 C82 229 80 231 77 236 C76 240 76 240 75 244 C74 251 72 258 70 265 C70 266 69 266 69 267 C67 276 67 276 65 279 C64 279 64 280 63 280 C63 282 63 282 63 285 C62 289 61 293 60 297 C59 300 58 304 58 307 C57 310 57 310 56 311 C56 312 56 313 55 315 C54 322 51 330 46 336 C42 337 39 337 35 337 C29 337 25 340 20 344 C21 344 21 343 22 343 C29 339 34 338 42 339 C42 343 41 346 41 350 C40 350 39 350 38 350 C38 349 38 349 38 348 C36 348 34 348 32 348 C32 349 32 350 32 352 C31 356 30 358 27 362 C25 362 23 361 21 361 C20 362 20 364 19 365 C13 368 11 367 5 365 C5 364 4 364 4 363 C5 362 7 362 8 361 C9 359 9 359 11 356 C12 353 14 350 16 347 C12 351 9 355 7 360 C4 363 3 362 0 362 C-1 362 -2 362 -3 363 C-4 363 -4 363 -7 363 C-8 363 -9 363 -10 363 C-13 363 -15 363 -18 363 C-18 364 -18 364 -18 365 C-16 365 -15 364 -13 364 C-18 371 -23 373 -30 375 C-33 376 -36 377 -39 379 C-43 381 -47 382 -52 381 C-53 380 -53 380 -54 379 C-45 374 -36 371 -27 368 C-28 368 -29 369 -31 369 C-43 373 -43 373 -47 375 C-50 376 -52 376 -54 377 C-62 380 -71 381 -80 380 C-83 379 -87 379 -90 379 C-100 378 -109 377 -119 374 C-119 373 -118 373 -118 372 C-119 372 -120 372 -120 372 C-138 371 -154 360 -166 348 C-167 347 -167 347 -168 346 C-173 341 -176 336 -179 330 C-181 327 -182 325 -184 323 C-187 319 -189 316 -190 311 C-190 310 -189 308 -189 307 C-188 307 -186 307 -185 307 C-167 305 -154 299 -139 289 C-136 287 -134 286 -130 285 C-127 282 -125 279 -123 276 C-120 274 -119 274 -115 273 C-114 272 -114 270 -113 269 C-110 268 -110 268 -108 267 C-111 277 -111 277 -112 280 C-113 283 -113 286 -113 289 C-112 289 -112 290 -111 290 C-111 289 -111 287 -111 286 C-111 282 -111 282 -109 280 C-109 281 -108 282 -108 283 C-106 286 -106 286 -104 288 C-101 288 -101 288 -98 288 C-97 288 -96 287 -95 287 C-95 287 -95 287 -93 287 C-94 287 -94 287 -95 287 C-103 287 -103 287 -107 284 C-109 280 -110 277 -108 273 C-106 267 -105 264 -99 261 C-96 260 -93 258 -91 257 C-90 257 -90 257 -86 255 C-85 255 -84 254 -83 254 C-84 254 -85 255 -86 255 C-87 256 -88 256 -89 257 C-91 257 -92 258 -93 258 C-96 259 -96 259 -98 258 C-98 258 -98 257 -98 257 C-99 258 -99 259 -100 259 C-103 262 -103 262 -106 263 C-110 265 -110 265 -113 268 C-117 271 -117 271 -120 271 C-124 270 -127 268 -131 267 C-136 264 -142 263 -147 262 C-148 262 -148 262 -150 262 C-162 259 -174 258 -186 260 C-187 260 -188 260 -188 260 C-191 260 -193 260 -196 261 C-203 261 -207 255 -211 251 C-221 243 -231 239 -243 236 C-256 231 -270 224 -277 211 C-278 207 -278 205 -278 201 C-278 200 -278 199 -278 198 C-278 197 -278 196 -278 195 C-277 196 -276 196 -275 197 C-273 197 -272 198 -270 199 C-270 199 -270 199 -266 201 C-262 203 -259 203 -254 204 C-252 205 -250 207 -247 208 C-245 210 -242 212 -239 213 C-235 216 -232 218 -228 221 C-223 224 -217 227 -211 230 C-210 231 -209 231 -208 232 C-205 233 -202 234 -199 235 C-196 235 -192 236 -189 238 C-182 240 -174 240 -167 241 C-167 242 -167 242 -167 243 C-165 243 -164 243 -162 243 C-162 244 -161 245 -161 246 C-151 246 -143 246 -134 243 C-134 243 -134 243 -132 242 C-124 240 -117 236 -111 232 C-111 231 -110 230 -110 229 C-108 228 -108 228 -105 226 C-104 226 -104 226 -102 225 C-99 224 -99 224 -96 224 C-84 221 -72 211 -63 204 C-60 202 -57 201 -54 200 C-53 200 -53 201 -52 201 C-51 200 -51 198 -50 197 C-46 194 -40 191 -35 190 C-34 190 -32 191 -31 191 C-33 194 -36 197 -38 201 C-40 203 -41 205 -43 207 C-46 210 -49 214 -52 218 C-56 222 -58 225 -60 230 C-64 237 -69 243 -75 248 C-65 242 -60 234 -55 224 C-52 219 -49 216 -44 212 C-38 207 -35 200 -31 194 C-29 191 -28 189 -26 187 C-24 187 -23 186 -21 186 C-20 184 -20 184 -19 181 C-17 178 -16 175 -14 172 C-9 163 -5 155 -4 144 C-3 144 -2 144 -1 144 C-1 143 -1 143 0 140 C1 135 3 129 5 124 C6 122 6 120 7 118 C5 120 4 122 3 126 C2 131 2 131 1 133 C0 133 0 132 -1 132 C-1 131 -1 129 -1 128 C-1 123 -2 119 -3 115 C-4 115 -4 115 -5 115 C-5 109 -4 103 -2 97 C0 90 1 84 0 76 C0 75 0 75 0 71 C-1 62 -2 54 -5 45 C-7 38 -8 30 -9 23 C-10 21 -10 20 -10 19 C-10 18 -10 17 -10 16 C-11 13 -11 13 -12 10 C-12 7 -12 3 -12 0 C-8 -2 -4 -1 0 0 Z " fill="#F3C9C5" transform="translate(510,205)"/>
<path d="M0 0 C0 1 0 1 -1 2 C-3 10 -4 17 -4 25 C-5 29 -6 32 -7 36 C-8 43 -8 50 -6 57 C-6 59 -6 59 -5 64 C-7 67 -7 67 -10 70 C-11 74 -11 74 -11 78 C-10 80 -8 82 -6 84 C1 92 1 100 1 110 C3 126 6 138 14 151 C19 159 19 159 19 163 C18 163 18 163 17 163 C17 164 17 165 17 166 C18 166 18 166 19 166 C20 169 20 173 21 176 C20 176 18 176 17 176 C13 176 13 176 10 177 C11 182 13 185 16 188 C17 189 18 190 19 191 C21 193 21 193 23 195 C26 198 25 201 26 205 C26 210 28 214 30 219 C31 223 32 228 33 232 C36 241 39 248 45 255 C47 258 47 258 47 261 C48 261 49 262 50 262 C50 263 49 265 49 266 C48 266 48 266 47 266 C46 267 46 269 45 270 C44 270 43 271 42 271 C42 275 42 275 42 279 C45 282 46 282 51 283 C52 284 54 284 55 285 C58 285 58 285 61 285 C62 285 62 285 63 285 C66 285 66 285 69 283 C72 283 72 283 76 284 C77 286 79 288 80 290 C83 295 88 298 93 301 C96 304 96 304 98 307 C107 315 121 319 133 322 C134 322 135 323 136 323 C145 326 154 325 163 323 C168 323 172 323 177 324 C177 325 176 326 176 327 C177 328 177 328 178 329 C169 333 160 333 151 334 C151 332 150 331 150 329 C149 329 149 329 148 329 C148 331 148 332 148 334 C142 336 135 336 129 336 C123 336 119 337 113 338 C105 339 97 338 89 336 C88 336 87 336 86 336 C67 332 67 332 59 325 C52 318 46 314 36 313 C33 312 31 311 28 310 C23 309 17 308 12 307 C11 307 11 307 8 307 C8 307 7 307 6 307 C6 306 6 306 6 305 C6 301 6 298 6 295 C6 293 6 292 6 291 C6 284 6 279 3 272 C3 272 2 271 2 271 C2 272 3 273 4 275 C5 279 5 281 5 285 C4 285 4 284 3 284 C3 281 2 279 2 276 C1 276 0 275 -1 275 C-6 267 -11 259 -14 250 C-14 249 -13 247 -13 246 C-12 247 -12 248 -11 249 C-10 250 -9 252 -9 253 C-8 254 -8 254 -6 257 C-4 260 -4 260 -3 261 C-11 247 -11 247 -17 241 C-22 235 -25 229 -29 222 C-30 221 -30 220 -31 219 C-36 209 -37 198 -35 187 C-35 186 -34 186 -34 185 C-30 179 -29 172 -28 166 C-27 160 -24 155 -21 149 C-23 151 -24 154 -25 156 C-27 151 -25 145 -22 140 C-19 136 -16 133 -12 129 C-11 129 -11 130 -10 130 C-10 130 -10 131 -10 131 C-9 130 -8 129 -7 128 C-3 125 -3 125 -1 125 C-1 124 -1 124 -1 123 C-13 127 -21 134 -27 145 C-28 148 -28 148 -28 150 C-28 152 -29 153 -29 154 C-29 154 -29 154 -29 157 C-31 167 -34 177 -37 187 C-39 194 -41 203 -38 211 C-36 213 -35 216 -33 218 C-32 220 -31 222 -30 223 C-28 228 -25 231 -23 235 C-18 241 -15 248 -13 255 C-11 260 -9 264 -6 268 C-5 271 -4 273 -3 276 C-10 274 -16 271 -22 267 C-23 267 -25 266 -26 265 C-44 256 -44 256 -51 248 C-53 244 -56 241 -58 239 C-67 228 -70 214 -74 201 C-75 199 -75 197 -76 195 C-80 183 -80 183 -81 178 C-82 173 -84 168 -87 163 C-88 162 -88 161 -88 161 C-91 156 -94 151 -97 146 C-102 136 -105 127 -108 116 C-109 113 -109 113 -110 112 C-110 109 -110 107 -111 104 C-111 102 -111 102 -113 99 C-112 95 -111 93 -108 90 C-107 89 -106 88 -106 88 C-103 85 -103 85 -100 83 C-97 80 -94 76 -91 72 C-87 67 -83 62 -79 57 C-78 55 -76 53 -75 51 C-63 35 -49 24 -33 13 C-32 12 -30 11 -29 10 C-7 -4 -7 -4 0 0 Z " fill="#F8D8D3" transform="translate(168,177)"/>
<path d="M0 0 C0 1 0 1 0 2 C6 3 6 3 9 2 C9 3 9 3 9 4 C10 4 11 4 12 4 C18 5 23 7 29 9 C30 9 31 9 32 10 C46 15 58 19 69 30 C69 30 69 31 69 31 C69 31 69 31 66 31 C61 31 57 31 52 31 C51 31 49 31 48 31 C17 31 -12 46 -35 66 C-37 68 -37 68 -38 70 C-40 73 -42 75 -45 78 C-46 79 -46 80 -47 81 C-51 82 -55 82 -59 83 C-63 83 -66 84 -69 87 C-71 90 -73 93 -75 97 C-78 105 -83 113 -87 121 C-87 122 -88 122 -88 123 C-89 124 -89 125 -90 126 C-92 130 -93 133 -94 137 C-94 138 -94 139 -94 140 C-95 143 -95 146 -96 148 C-97 157 -99 166 -101 175 C-101 176 -101 176 -101 177 C-103 184 -103 184 -104 185 C-104 188 -104 191 -105 194 C-105 195 -105 195 -105 199 C-105 203 -105 206 -104 210 C-102 218 -101 225 -101 233 C-101 239 -99 244 -98 250 C-97 253 -97 253 -98 256 C-99 254 -100 252 -101 250 C-101 252 -101 252 -100 260 C-100 259 -101 259 -101 258 C-102 257 -104 257 -105 256 C-107 253 -107 253 -108 249 C-111 243 -111 243 -113 242 C-109 251 -105 258 -99 266 C-95 271 -91 276 -87 281 C-84 285 -82 287 -79 290 C-77 292 -76 294 -75 296 C-72 299 -70 303 -66 306 C-66 306 -65 307 -64 308 C-64 309 -64 309 -64 310 C-63 310 -62 311 -61 311 C-60 313 -59 315 -58 317 C-57 318 -57 319 -56 320 C-54 322 -54 322 -53 325 C-52 329 -50 331 -47 334 C-58 332 -67 325 -75 319 C-78 316 -82 313 -86 311 C-91 306 -97 302 -102 297 C-105 295 -108 293 -111 290 C-115 287 -120 282 -124 278 C-125 277 -126 276 -126 276 C-129 273 -131 271 -134 268 C-134 267 -135 267 -136 266 C-138 262 -140 259 -142 255 C-143 254 -143 252 -144 251 C-152 236 -157 221 -159 204 C-159 194 -161 185 -168 177 C-170 174 -170 174 -170 170 C-169 166 -167 165 -164 162 C-155 153 -150 142 -145 130 C-139 115 -128 107 -113 101 C-101 96 -89 93 -77 94 C-77 93 -77 93 -77 92 C-101 95 -124 100 -141 119 C-144 123 -146 126 -148 131 C-148 131 -148 131 -150 135 C-150 135 -150 135 -152 139 C-155 145 -159 151 -163 157 C-164 157 -164 156 -165 156 C-165 155 -165 155 -165 154 C-164 154 -164 154 -163 154 C-163 153 -163 152 -163 151 C-163 138 -160 129 -155 118 C-156 120 -157 122 -158 125 C-159 125 -159 125 -160 128 C-163 134 -164 140 -165 146 C-165 148 -165 149 -165 150 C-165 151 -165 152 -165 153 C-169 147 -168 139 -167 132 C-167 130 -166 128 -166 126 C-166 125 -165 124 -165 123 C-165 120 -164 116 -163 113 C-163 112 -163 111 -162 110 C-160 99 -157 89 -150 79 C-147 75 -146 70 -144 65 C-143 63 -142 60 -141 58 C-141 57 -140 56 -140 54 C-140 54 -139 53 -139 52 C-138 52 -137 52 -136 52 C-135 51 -134 49 -134 48 C-130 41 -123 36 -117 31 C-106 22 -98 13 -94 -1 C-91 -3 -91 -3 -88 -3 C-83 -2 -78 0 -73 1 C-67 3 -62 3 -55 1 C-47 -2 -41 -1 -32 1 C-29 2 -29 2 -22 2 C-27 1 -32 0 -37 -1 C-37 -2 -37 -2 -37 -3 C-25 -7 -12 -3 0 0 Z " fill="#F5CEC8" transform="translate(329,80)"/>
<path d="M0 0 C4 9 6 17 5 26 C5 29 5 29 6 31 C12 33 19 33 25 34 C32 34 37 38 43 41 C49 45 55 48 62 51 C65 53 65 53 68 55 C72 57 77 58 82 59 C83 59 84 59 85 60 C96 62 108 62 119 60 C124 59 130 59 135 59 C136 59 137 59 138 59 C140 59 143 59 145 59 C145 60 145 60 146 62 C152 82 167 102 184 112 C189 114 195 116 200 118 C201 118 201 118 203 119 C208 121 212 122 217 123 C212 133 198 143 187 147 C181 149 175 149 168 149 C157 150 147 151 136 155 C128 158 118 156 110 153 C99 150 89 151 79 155 C76 156 76 156 71 156 C69 154 69 154 68 151 C64 146 62 143 55 141 C51 141 46 140 42 140 C37 139 33 137 30 133 C24 126 20 117 18 108 C18 108 18 108 19 105 C23 110 26 114 28 120 C26 111 20 105 14 98 C12 95 10 92 8 89 C7 88 6 87 5 86 C5 85 5 85 5 84 C4 84 4 84 3 84 C-5 75 -12 67 -12 55 C-12 54 -12 54 -12 52 C-12 53 -11 53 -11 54 C-11 53 -10 52 -10 51 C-11 51 -11 51 -12 51 C-16 38 -18 20 -12 7 C-9 2 -6 0 0 0 Z " fill="#F3CDC3" transform="translate(167,455)"/>
<path d="M0 0 C3 1 6 2 8 3 C11 4 11 4 15 4 C20 4 23 6 28 8 C35 12 41 14 49 12 C52 12 54 12 57 12 C56 16 56 19 55 23 C57 23 59 23 61 23 C60 23 60 23 57 26 C56 29 56 29 56 31 C57 31 57 31 60 31 C65 31 69 32 73 34 C75 36 77 39 79 42 C85 50 85 50 88 51 C90 58 91 64 92 71 C94 90 100 107 107 124 C107 125 107 126 108 128 C108 128 109 129 109 130 C114 143 112 162 106 174 C106 175 105 176 105 177 C100 177 99 176 95 172 C90 167 84 162 78 157 C77 156 76 156 75 155 C65 147 58 144 45 145 C42 140 40 135 39 129 C37 122 35 115 32 109 C32 109 32 109 31 106 C25 97 19 90 10 84 C0 77 -6 69 -10 57 C-11 57 -12 57 -13 57 C-17 57 -21 57 -25 57 C-27 57 -28 57 -30 57 C-44 57 -44 57 -51 54 C-53 52 -53 52 -54 49 C-65 39 -78 35 -92 30 C-96 29 -96 29 -98 27 C-97 26 -95 26 -94 25 C-93 24 -91 23 -90 22 C-89 22 -89 22 -88 22 C-88 21 -88 21 -88 20 C-70 13 -70 13 -60 12 C-51 10 -43 8 -35 4 C-31 4 -27 4 -23 4 C-14 3 -9 -1 0 0 Z " fill="#F7D5CF" transform="translate(451,58)"/>
<path d="M0 0 C7 2 13 3 20 0 C22 0 24 0 25 0 C26 0 27 0 28 0 C29 0 30 0 31 0 C33 4 34 8 35 12 C36 12 36 12 37 12 C37 13 37 14 38 15 C42 22 49 27 56 33 C71 44 78 59 82 77 C83 79 83 79 85 83 C87 87 88 91 88 95 C89 98 90 101 90 104 C92 110 93 117 94 123 C95 130 96 136 98 142 C101 150 101 158 101 166 C101 167 101 167 101 170 C102 183 97 195 93 207 C92 203 92 201 94 197 C99 175 98 149 91 128 C91 126 91 123 91 120 C90 121 89 121 88 121 C88 120 87 119 87 119 C86 115 86 115 83 113 C83 113 83 113 81 110 C78 104 76 103 70 101 C70 105 71 109 72 112 C68 109 66 106 64 101 C59 90 52 83 41 77 C40 77 39 77 39 76 C35 75 31 75 27 75 C26 75 24 75 23 75 C19 75 19 75 16 76 C17 76 17 76 18 76 C32 76 44 78 55 88 C60 94 64 102 68 110 C70 114 72 117 76 120 C79 123 79 123 80 127 C80 128 79 129 79 130 C79 131 79 132 79 133 C79 135 79 135 78 138 C78 140 78 143 78 145 C78 145 78 145 78 149 C77 151 77 154 77 156 C77 163 77 170 75 176 C75 176 74 176 74 176 C74 174 74 174 72 162 C72 162 71 162 71 162 C71 161 71 160 71 159 C71 132 71 132 63 122 C62 121 61 119 60 117 C55 110 52 105 44 100 C42 100 41 99 39 98 C35 96 35 96 31 97 C27 96 27 96 24 94 C23 93 22 91 21 90 C20 89 19 88 18 87 C18 86 17 85 16 83 C15 83 14 82 14 81 C12 78 11 76 10 74 C8 69 8 69 4 67 C1 67 -1 67 -4 67 C-6 67 -7 67 -9 67 C-12 67 -16 67 -19 67 C-31 66 -31 66 -34 64 C-36 62 -36 62 -38 58 C-41 57 -41 57 -43 55 C-44 55 -45 54 -46 54 C-47 53 -48 53 -49 52 C-50 52 -52 51 -53 50 C-57 48 -61 46 -65 44 C-66 44 -67 43 -68 43 C-73 40 -78 40 -84 39 C-85 39 -86 39 -87 39 C-95 39 -102 40 -110 43 C-114 44 -117 44 -121 43 C-119 33 -106 25 -97 19 C-65 0 -38 -10 0 0 Z " fill="#F3C9C5" transform="translate(408.125,115.625)"/>
<path d="M0 0 C5 0 7 2 11 5 C12 5 13 6 13 7 C14 8 15 8 16 9 C17 10 17 10 18 11 C24 15 28 21 32 26 C36 32 41 37 46 42 C42 37 38 32 34 27 C38 27 39 29 42 31 C43 32 44 33 45 34 C46 34 46 34 48 36 C49 37 50 38 52 39 C53 40 54 41 55 42 C55 42 55 42 57 44 C63 50 64 56 65 64 C65 65 66 67 66 69 C67 72 67 74 66 78 C67 80 67 80 71 82 C72 79 72 77 73 74 C73 74 74 74 74 74 C74 76 74 77 74 79 C74 81 74 83 74 85 C74 85 74 85 74 88 C74 89 74 90 74 91 C74 92 74 92 74 93 C74 98 76 101 79 105 C81 109 82 111 82 115 C82 116 81 117 81 118 C80 122 80 126 80 131 C81 136 81 141 80 146 C80 146 79 146 79 146 C79 144 79 144 78 134 C77 134 77 135 76 135 C76 141 76 147 76 153 C77 152 77 152 78 151 C78 155 77 157 75 160 C75 162 74 163 74 165 C73 167 73 169 72 170 C71 174 70 177 69 181 C67 189 62 197 56 204 C55 204 55 204 54 204 C54 205 54 205 53 206 C52 209 50 212 48 214 C44 219 41 223 38 228 C36 230 36 230 33 233 C32 236 32 239 31 242 C30 243 30 243 29 244 C29 243 29 242 29 241 C28 237 28 233 28 229 C28 228 28 228 27 225 C27 217 26 211 23 204 C22 201 21 198 21 195 C18 183 13 178 3 171 C3 164 5 159 8 153 C8 152 9 151 9 150 C10 148 12 146 14 144 C15 144 16 143 16 142 C17 142 17 141 18 141 C17 135 14 131 10 127 C10 124 10 124 10 122 C10 121 10 120 10 119 C10 116 10 116 11 114 C12 110 12 107 12 104 C12 103 12 101 12 100 C12 97 12 97 11 96 C11 94 11 93 10 91 C8 78 3 68 -7 59 C-4 50 -4 50 -2 48 C-2 51 -2 54 -2 57 C2 38 1 19 0 0 Z " fill="#EECCC5" transform="translate(564,182)"/>
<path d="M0 0 C1 0 1 0 4 0 C8 0 8 0 11 2 C15 4 17 3 21 2 C33 1 44 9 53 15 C58 19 58 19 59 23 C59 23 58 23 57 24 C43 27 31 33 21 43 C20 44 20 45 19 46 C11 54 4 63 -1 74 C0 74 1 74 1 73 C1 77 0 80 -1 83 C-2 84 -2 85 -2 86 C-3 88 -3 89 -3 90 C-4 91 -4 92 -5 93 C-6 98 -8 102 -9 107 C-10 108 -10 109 -11 111 C-11 112 -11 113 -12 114 C-13 117 -13 121 -14 124 C-14 124 -14 124 -15 124 C-19 109 -15 93 -10 79 C-17 94 -17 109 -18 125 C-22 123 -22 118 -24 114 C-28 101 -28 87 -22 75 C-4 46 -4 46 5 43 C7 43 10 43 12 43 C13 43 13 43 16 43 C16 43 17 43 18 43 C18 43 18 42 18 41 C6 41 -4 42 -13 50 C-15 52 -16 54 -17 57 C-17 58 -17 59 -18 60 C-19 62 -19 64 -20 67 C-22 71 -22 71 -24 75 C-29 84 -27 98 -27 108 C-27 115 -27 121 -29 127 C-30 127 -31 127 -32 127 C-34 120 -35 113 -36 106 C-36 105 -36 105 -36 104 C-37 100 -37 95 -38 91 C-42 92 -44 93 -47 95 C-52 103 -54 112 -53 121 C-51 125 -49 127 -46 129 C-43 134 -44 138 -44 143 C-44 144 -44 145 -44 147 C-44 148 -44 149 -44 150 C-44 150 -44 150 -45 150 C-45 146 -45 142 -45 137 C-45 137 -46 137 -47 137 C-47 139 -47 140 -47 142 C-47 144 -47 146 -46 149 C-46 150 -46 151 -46 152 C-46 159 -48 165 -51 172 C-53 168 -53 166 -53 162 C-53 161 -54 160 -54 158 C-54 157 -54 156 -54 155 C-54 152 -54 150 -54 147 C-54 146 -54 145 -54 144 C-55 141 -55 141 -56 137 C-56 139 -55 140 -55 142 C-55 149 -54 156 -54 163 C-54 168 -54 172 -53 177 C-53 182 -53 182 -54 184 C-55 197 -56 208 -51 220 C-50 223 -50 223 -51 226 C-61 216 -61 216 -63 213 C-62 211 -62 211 -62 208 C-62 204 -63 203 -65 200 C-68 195 -70 190 -72 185 C-72 184 -73 182 -73 181 C-74 179 -75 177 -76 174 C-77 172 -78 169 -79 166 C-81 159 -84 153 -85 145 C-84 145 -83 145 -83 145 C-83 144 -83 142 -83 141 C-83 112 -83 112 -77 102 C-76 102 -76 102 -74 101 C-74 102 -74 103 -74 104 C-72 105 -70 105 -68 105 C-68 105 -68 104 -68 103 C-67 103 -66 103 -66 103 C-67 101 -69 98 -71 95 C-73 78 -70 53 -59 38 C-56 36 -53 34 -50 33 C-48 31 -48 31 -46 27 C-45 25 -45 23 -45 20 C-43 20 -41 20 -40 20 C-40 20 -40 20 -40 18 C-38 12 -34 11 -30 8 C-25 5 -19 3 -13 2 C-8 1 -5 0 0 0 Z " fill="#E89597" transform="translate(314.75,158.75)"/>
<path d="M0 0 C1 0 1 0 4 0 C5 0 7 0 8 0 C9 0 10 0 11 0 C14 0 14 0 16 3 C16 4 17 5 17 5 C19 10 21 13 24 16 C28 21 32 25 35 30 C37 33 40 35 42 37 C46 42 49 46 50 52 C51 55 52 58 53 61 C53 62 53 62 54 64 C55 65 55 66 55 67 C62 91 56 117 49 139 C49 141 48 142 48 143 C47 147 45 148 42 150 C42 149 43 148 43 146 C44 141 45 135 45 129 C45 126 45 126 46 124 C46 121 46 117 46 113 C46 112 46 111 46 110 C46 103 46 98 43 91 C42 88 41 85 40 81 C39 81 39 81 38 81 C39 83 39 84 40 85 C44 95 44 105 44 115 C44 116 44 117 44 118 C43 125 43 125 41 127 C39 123 39 123 38 119 C37 115 37 115 34 111 C34 110 33 109 33 108 C31 104 31 104 29 101 C27 97 26 95 24 92 C24 90 24 89 23 87 C22 87 22 87 21 86 C21 87 21 87 20 89 C20 89 19 89 19 89 C17 83 17 77 17 70 C17 58 14 52 6 43 C5 42 4 41 3 40 C-1 37 -3 37 -8 36 C-8 36 -8 35 -8 34 C-15 33 -19 33 -26 35 C-27 35 -29 35 -30 35 C-31 37 -31 38 -32 39 C-40 39 -40 39 -42 37 C-42 38 -42 39 -42 39 C-42 39 -42 39 -44 40 C-51 41 -56 42 -62 45 C-61 45 -60 45 -59 45 C-58 44 -57 44 -56 43 C-55 43 -54 43 -53 42 C-44 40 -36 43 -28 46 C-28 47 -27 48 -27 49 C-28 49 -29 49 -30 49 C-45 47 -55 48 -68 57 C-69 58 -69 58 -72 58 C-73 61 -73 61 -74 65 C-74 66 -75 67 -75 68 C-79 82 -78 94 -71 107 C-70 108 -70 109 -69 110 C-68 111 -68 112 -67 113 C-66 115 -65 117 -64 118 C-69 117 -72 114 -75 109 C-82 95 -83 81 -78 65 C-76 58 -71 53 -66 47 C-76 54 -80 66 -83 77 C-86 74 -86 74 -87 71 C-87 71 -88 71 -88 71 C-88 73 -88 73 -90 78 C-92 69 -85 56 -80 47 C-79 44 -79 44 -78 41 C-79 43 -81 45 -82 47 C-82 47 -83 46 -83 45 C-82 44 -81 43 -80 41 C-80 40 -79 40 -79 39 C-77 36 -77 36 -73 33 C-72 33 -72 33 -69 31 C-68 30 -66 29 -65 27 C-64 27 -63 26 -63 26 C-56 21 -50 18 -43 14 C-38 11 -33 8 -27 4 C-19 0 -10 0 0 0 Z " fill="#E9A9A7" transform="translate(398.875,184.5625)"/>
<path d="M0 0 C0 0 1 0 1 0 C1 2 1 4 1 6 C0 6 0 6 -1 6 C-3 13 -3 18 -1 25 C2 33 -1 40 -4 48 C-5 50 -5 53 -6 55 C-10 69 -15 80 -25 91 C-26 91 -26 91 -27 91 C-27 92 -27 92 -27 93 C-28 93 -29 94 -29 94 C-32 96 -32 96 -33 99 C-37 102 -39 102 -44 102 C-44 103 -44 103 -44 104 C-45 105 -47 105 -48 106 C-56 111 -64 117 -71 124 C-73 125 -73 125 -76 125 C-76 125 -76 125 -77 128 C-79 130 -79 130 -81 132 C-82 132 -82 132 -83 132 C-84 133 -84 135 -85 136 C-87 139 -88 142 -90 145 C-90 144 -91 144 -91 143 C-91 143 -91 143 -93 143 C-96 142 -96 142 -100 139 C-101 139 -103 138 -104 137 C-105 137 -105 138 -106 138 C-112 137 -115 134 -120 130 C-119 131 -119 132 -118 132 C-118 133 -117 134 -117 135 C-117 136 -118 136 -118 137 C-127 136 -129 134 -135 128 C-138 124 -139 122 -140 117 C-143 114 -143 114 -145 111 C-145 111 -145 111 -144 109 C-139 115 -134 120 -130 126 C-128 128 -128 128 -125 131 C-125 127 -126 126 -129 123 C-130 122 -130 122 -131 121 C-133 119 -135 117 -137 115 C-139 112 -141 110 -143 108 C-142 104 -140 101 -137 98 C-129 94 -122 93 -114 92 C-105 91 -96 89 -87 86 C-84 85 -82 84 -79 84 C-79 83 -79 83 -79 82 C-78 82 -77 81 -76 81 C-68 77 -62 73 -55 66 C-54 65 -53 64 -53 64 C-48 59 -44 55 -40 49 C-35 43 -30 39 -24 34 C-21 32 -19 29 -17 26 C-16 25 -15 25 -15 24 C-9 18 -5 11 -2 3 C-1 3 -1 3 0 3 C0 2 0 1 0 0 Z " fill="#D9767D" transform="translate(413,283)"/>
<path d="M0 0 C0 5 -3 8 -7 12 C-7 12 -8 13 -9 14 C-10 15 -10 15 -12 17 C-15 19 -15 19 -19 20 C-31 26 -38 40 -43 52 C-46 61 -51 69 -56 78 C-57 80 -57 80 -58 83 C-60 84 -60 84 -64 85 C-65 85 -66 86 -67 86 C-69 87 -71 87 -74 88 C-79 89 -83 91 -88 94 C-89 94 -90 94 -90 95 C-94 96 -97 98 -100 100 C-100 101 -100 102 -100 103 C-103 106 -103 106 -106 108 C-106 108 -106 108 -108 107 C-108 107 -108 106 -108 106 C-113 111 -118 116 -123 122 C-126 126 -129 129 -133 132 C-138 137 -142 143 -146 149 C-147 148 -147 146 -148 145 C-148 144 -149 144 -149 143 C-152 138 -154 135 -153 129 C-151 123 -148 117 -143 113 C-141 110 -141 110 -140 107 C-138 101 -135 97 -131 92 C-131 92 -131 92 -129 91 C-130 95 -132 99 -133 104 C-137 115 -140 125 -142 137 C-141 137 -141 137 -140 137 C-140 136 -140 135 -140 135 C-139 122 -136 110 -130 98 C-129 95 -129 95 -128 91 C-128 91 -128 91 -127 88 C-125 87 -124 87 -122 86 C-121 84 -119 81 -118 79 C-117 79 -117 79 -114 77 C-114 76 -113 76 -113 75 C-114 75 -114 75 -119 77 C-115 73 -112 73 -107 72 C-106 72 -104 72 -103 72 C-103 66 -103 59 -103 53 C-98 53 -92 53 -87 53 C-87 53 -87 53 -89 54 C-89 55 -90 57 -90 58 C-91 60 -92 63 -93 65 C-91 65 -91 65 -89 63 C-85 59 -81 54 -77 50 C-71 43 -66 40 -57 38 C-54 37 -54 37 -52 36 C-51 35 -51 33 -50 32 C-50 32 -50 32 -52 30 C-51 30 -50 30 -50 29 C-47 28 -46 27 -44 24 C-38 16 -32 10 -23 5 C-23 5 -22 4 -22 4 C-18 4 -14 4 -10 4 C-3 3 -3 3 0 0 Z " fill="#F3D7D0" transform="translate(227,91)"/>
<path d="M0 0 C1 0 2 1 3 1 C3 2 3 3 3 4 C5 5 7 5 9 6 C9 7 9 8 9 9 C10 9 11 9 12 9 C13 10 14 11 15 12 C18 13 21 14 24 15 C24 14 24 14 24 13 C26 13 27 13 29 13 C30 12 30 12 31 11 C33 11 34 11 36 11 C36 11 36 11 37 14 C38 15 40 15 41 16 C42 16 42 17 43 17 C43 18 43 18 43 19 C48 19 48 19 51 18 C51 18 51 18 52 20 C54 21 56 21 58 22 C64 23 69 25 74 28 C77 29 79 30 82 30 C83 29 83 27 84 26 C88 25 88 25 91 25 C91 25 92 26 92 26 C102 26 102 26 104 25 C108 25 111 25 115 25 C116 25 117 25 118 25 C120 25 123 25 125 25 C125 26 126 26 126 27 C129 27 132 28 135 28 C143 29 150 30 158 32 C159 32 160 33 161 33 C166 34 171 36 175 38 C175 38 175 38 173 39 C170 41 168 43 166 46 C165 47 164 48 164 49 C163 50 163 50 162 51 C161 50 161 50 160 49 C161 48 162 47 163 46 C163 42 163 42 163 39 C162 39 162 38 161 38 C161 39 161 39 160 40 C158 46 154 50 148 53 C147 53 146 53 145 53 C144 54 144 56 143 57 C138 60 133 63 128 65 C127 64 126 64 125 63 C126 62 126 61 127 60 C119 60 112 60 105 61 C98 62 93 62 87 60 C86 60 84 59 83 59 C72 56 63 53 54 47 C53 46 51 46 50 45 C47 43 47 43 46 40 C45 39 43 39 42 38 C37 34 31 30 28 25 C26 21 26 21 22 20 C19 20 19 20 16 22 C13 22 13 22 11 22 C10 22 9 22 8 22 C5 22 5 22 1 20 C0 20 -1 20 -2 20 C-5 19 -5 19 -7 17 C-9 15 -9 15 -9 11 C-8 6 -5 3 0 0 Z " fill="#F3BAB7" transform="translate(218,441)"/>
<path d="M0 0 C1 1 1 1 2 2 C4 5 6 7 8 10 C11 13 14 16 17 19 C22 26 28 31 35 36 C37 38 39 40 41 41 C46 45 50 49 55 52 C53 53 53 53 51 52 C50 52 50 52 48 51 C47 51 47 51 45 50 C44 50 44 49 43 49 C43 50 44 50 44 51 C43 51 43 51 36 52 C36 52 36 52 34 52 C34 52 34 52 33 54 C34 54 35 54 36 54 C36 55 36 55 36 58 C36 69 40 75 48 83 C49 84 50 85 50 85 C60 95 69 101 82 105 C95 109 108 117 119 126 C119 127 118 127 118 128 C117 128 116 128 115 128 C114 130 114 131 113 133 C109 132 105 131 101 129 C96 127 91 125 86 124 C85 124 85 124 83 123 C83 122 82 121 82 120 C81 120 80 121 80 121 C77 122 77 122 74 121 C74 120 74 120 74 119 C73 119 73 119 70 117 C69 116 68 115 67 114 C62 114 62 114 58 116 C58 116 58 116 55 115 C55 116 55 116 55 117 C50 117 47 116 43 113 C43 112 43 112 43 111 C42 111 41 111 40 111 C40 110 40 109 40 108 C39 108 37 107 36 107 C36 107 36 107 34 106 C34 105 34 104 34 103 C33 103 32 102 31 102 C28 99 28 99 27 96 C25 93 25 93 22 89 C14 79 12 66 9 53 C8 51 8 51 7 48 C6 46 6 43 6 41 C5 35 5 35 3 32 C2 32 1 31 0 30 C-2 28 -3 27 -5 25 C-6 24 -6 23 -7 23 C-9 20 -9 20 -9 15 C-5 12 -3 13 2 14 C2 14 2 14 1 11 C0 8 0 8 0 4 C-1 4 -1 4 -2 4 C-2 3 -2 2 -2 1 C-1 1 -1 0 0 0 Z " fill="#E8908D" transform="translate(187,339)"/>
<path d="M0 0 C1 4 0 7 -1 11 C-2 13 -2 14 -3 16 C-4 18 -4 21 -5 24 C-6 27 -6 27 -5 31 C-6 34 -7 38 -8 41 C-9 45 -9 45 -10 49 C-12 56 -14 60 -20 64 C-23 65 -27 67 -30 69 C-32 70 -34 71 -37 73 C-40 75 -44 76 -48 78 C-53 80 -58 82 -63 84 C-70 87 -76 88 -83 89 C-87 89 -87 89 -90 90 C-98 93 -110 91 -119 90 C-120 90 -120 90 -122 90 C-126 89 -131 89 -135 87 C-134 86 -134 86 -133 85 C-131 83 -131 83 -131 80 C-130 79 -130 78 -129 77 C-128 78 -126 78 -125 79 C-122 78 -120 76 -117 75 C-116 75 -115 74 -114 74 C-111 72 -108 71 -105 69 C-96 64 -87 60 -77 57 C-68 54 -60 50 -52 47 C-51 46 -50 46 -49 45 C-28 35 -12 20 0 0 Z " fill="#CD6569" transform="translate(457,348)"/>
<path d="M0 0 C2 3 4 5 6 9 C10 17 15 22 23 26 C26 28 28 30 31 32 C35 35 38 36 43 38 C46 39 48 41 50 43 C54 45 58 46 62 48 C60 52 60 52 57 55 C57 55 56 54 56 54 C53 63 52 71 51 81 C51 82 51 84 51 85 C51 89 50 92 50 96 C38 98 27 95 16 89 C13 86 13 86 11 84 C10 84 10 83 9 83 C8 75 8 67 9 59 C8 59 8 58 7 58 C7 56 8 55 8 53 C7 53 7 53 4 54 C4 53 3 53 3 52 C3 52 3 52 5 51 C4 47 3 45 0 42 C-1 41 -3 41 -4 40 C-9 30 -4 19 -1 9 C0 5 0 5 0 0 Z " fill="#F1D2CD" transform="translate(97,405)"/>
<path d="M0 0 C1 6 2 11 2 17 C2 29 4 41 11 50 C16 54 22 58 28 61 C29 61 29 61 31 62 C46 70 60 73 78 74 C72 78 64 78 57 77 C50 75 43 73 37 69 C33 68 30 67 26 66 C17 63 13 59 7 52 C7 52 7 52 4 51 C5 52 5 54 6 55 C6 56 7 57 7 58 C8 60 8 60 9 61 C9 62 9 63 9 64 C10 68 11 72 13 76 C14 78 14 79 15 81 C16 85 16 85 19 87 C19 88 19 88 19 89 C24 91 28 91 33 90 C36 91 36 91 38 93 C39 93 39 92 40 92 C44 88 49 85 54 82 C55 81 56 81 57 80 C62 79 66 78 71 78 C74 77 76 76 79 75 C85 74 91 73 97 73 C96 72 96 72 93 72 C92 72 91 72 90 72 C90 72 90 71 90 71 C94 71 97 70 101 70 C101 71 101 71 99 74 C98 74 98 74 97 74 C97 75 97 75 95 78 C76 95 52 105 29 115 C28 116 27 116 27 116 C20 119 20 119 17 118 C17 118 17 118 16 116 C17 116 18 116 19 116 C19 115 18 113 18 112 C18 112 18 112 19 109 C19 109 19 109 16 110 C15 109 15 107 14 106 C13 105 11 105 10 104 C10 103 10 101 10 100 C8 100 6 100 4 100 C3 98 2 95 1 93 C0 92 0 91 -1 90 C-3 84 -2 78 -2 72 C-2 70 -2 67 -2 65 C-2 64 -2 63 -2 62 C-2 59 -2 59 -3 57 C-3 54 -3 50 -3 47 C-2 47 0 47 1 47 C2 48 2 48 3 49 C0 44 -3 41 -7 38 C-12 33 -13 27 -13 20 C-13 13 -10 6 -5 1 C-3 0 -3 0 0 0 Z " fill="#E89FA3" transform="translate(277,250)"/>
<path d="M0 0 C1 11 2 18 -4 27 C-5 29 -7 32 -8 34 C-8 35 -8 35 -10 38 C-13 43 -16 49 -18 56 C-24 71 -32 82 -43 93 C-44 94 -44 94 -45 95 C-59 110 -81 121 -101 127 C-114 131 -125 137 -136 144 C-141 146 -147 148 -152 150 C-150 141 -140 135 -132 129 C-131 129 -131 128 -130 128 C-125 124 -120 121 -114 118 C-109 115 -104 111 -99 108 C-98 107 -97 107 -96 106 C-88 101 -81 96 -74 90 C-71 88 -67 86 -64 84 C-58 81 -55 77 -51 72 C-40 60 -40 60 -35 59 C-27 57 -24 48 -20 42 C-20 41 -19 41 -19 40 C-18 40 -18 40 -17 40 C-17 39 -17 39 -17 38 C-16 38 -16 38 -15 38 C-15 37 -14 37 -14 36 C-13 34 -13 32 -12 30 C-8 21 -4 11 -3 1 C-1 0 -1 0 0 0 Z " fill="#F2CBC9" transform="translate(481,277)"/>
<path d="M0 0 C0 1 -1 2 -1 3 C-2 4 -4 4 -5 5 C-9 7 -11 8 -13 12 C-13 13 -13 13 -13 14 C-12 14 -11 15 -10 15 C-6 17 -6 17 -3 20 C1 23 1 23 6 25 C11 27 12 30 15 35 C17 44 16 51 13 60 C13 60 13 60 12 63 C5 84 5 84 -3 90 C-3 89 -3 89 -3 88 C-3 85 -4 81 -4 78 C-4 77 -4 76 -4 75 C-5 64 -8 55 -15 47 C-18 45 -20 44 -23 42 C-22 41 -22 41 -21 40 C-21 39 -20 37 -20 36 C-27 33 -35 32 -42 35 C-47 38 -51 40 -55 43 C-53 36 -49 32 -43 27 C-42 27 -41 26 -40 26 C-49 27 -54 28 -61 34 C-62 35 -64 36 -65 37 C-66 38 -66 39 -67 40 C-67 34 -66 28 -62 23 C-53 16 -45 13 -35 13 C-34 13 -34 13 -30 13 C-26 13 -23 14 -19 15 C-24 10 -31 8 -38 8 C-42 8 -45 9 -48 10 C-50 11 -52 11 -54 12 C-55 11 -55 11 -56 10 C-48 7 -42 5 -34 5 C-34 4 -34 4 -34 3 C-31 3 -27 4 -24 4 C-23 3 -23 2 -22 1 C-15 -2 -7 -4 0 0 Z " fill="#CE7B7C" transform="translate(391,219)"/>
<path d="M0 0 C9 3 9 3 13 7 C14 10 14 10 15 13 C16 14 18 16 19 17 C21 21 22 23 22 28 C23 33 23 39 25 45 C26 53 26 62 26 71 C26 72 26 74 26 75 C26 82 26 88 24 95 C23 97 22 100 22 103 C21 109 20 115 18 120 C18 121 17 122 17 123 C16 126 16 128 15 130 C14 133 13 136 12 139 C12 141 11 143 10 146 C10 146 10 147 10 148 C8 155 5 161 0 166 C-2 168 -2 168 -2 170 C-3 175 -8 177 -11 179 C-12 180 -12 180 -14 181 C-19 185 -25 188 -30 192 C-30 191 -31 191 -31 190 C-30 190 -30 189 -29 189 C-28 187 -27 185 -27 183 C-24 177 -22 173 -17 169 C-16 167 -15 166 -14 164 C-13 162 -12 161 -11 159 C-7 153 -3 146 0 139 C0 138 1 137 1 136 C4 131 5 125 6 119 C6 116 6 116 7 115 C7 113 8 110 8 108 C9 108 10 108 11 108 C11 107 11 105 11 104 C12 99 12 99 13 97 C12 96 12 94 11 93 C11 90 11 88 11 85 C9 85 8 85 6 85 C6 82 7 79 8 77 C11 68 10 58 11 49 C11 48 11 47 11 45 C11 44 11 43 11 42 C11 39 11 37 12 34 C13 23 13 23 10 19 C9 18 8 18 7 17 C3 13 1 11 0 5 C0 3 0 2 0 0 Z " fill="#F1B7B4" transform="translate(477,216)"/>
<path d="M0 0 C0 0 1 0 1 0 C1 1 1 3 1 4 C2 9 3 13 5 18 C5 20 6 21 6 23 C9 34 15 43 21 53 C21 54 22 54 22 55 C23 57 25 60 26 62 C28 66 30 70 31 75 C31 76 32 78 32 79 C33 81 33 83 34 84 C34 85 34 86 35 87 C36 92 38 97 40 102 C40 104 40 105 41 106 C42 109 42 111 43 113 C47 127 55 138 65 148 C65 148 65 148 67 150 C78 160 95 166 108 173 C108 172 107 172 107 171 C102 164 99 157 96 149 C93 141 89 135 85 128 C81 123 78 117 74 111 C73 108 73 108 71 105 C69 93 74 81 77 70 C79 63 81 55 82 48 C83 42 85 38 89 33 C90 32 90 31 91 30 C96 25 103 20 110 20 C110 21 110 21 110 22 C106 25 103 28 98 30 C98 30 98 30 99 27 C91 34 88 40 86 51 C87 48 89 46 90 43 C91 46 91 46 90 49 C89 50 88 51 88 52 C85 58 83 63 82 70 C82 74 80 81 77 84 C74 102 80 116 90 131 C92 133 94 136 96 138 C101 145 106 151 110 159 C110 160 109 160 109 161 C105 155 102 150 98 144 C99 149 101 153 103 157 C103 158 103 158 105 161 C111 172 111 172 113 173 C114 176 114 178 115 181 C115 175 114 171 111 166 C111 165 112 165 112 164 C120 177 119 189 117 204 C118 204 118 204 119 204 C128 204 136 205 144 208 C146 209 146 209 151 209 C160 211 169 219 175 225 C182 230 191 231 200 232 C200 232 201 233 202 233 C211 234 219 235 227 233 C243 230 243 230 248 234 C247 234 246 234 245 234 C240 234 235 235 229 236 C212 240 188 237 172 228 C172 228 172 228 170 226 C167 225 164 223 161 222 C156 219 150 216 145 212 C141 210 137 210 132 210 C126 209 121 208 115 206 C114 203 114 201 114 198 C114 191 113 186 111 180 C110 177 110 177 110 175 C105 176 102 178 99 182 C93 195 96 212 98 226 C99 226 99 226 100 226 C100 227 101 228 101 229 C100 229 100 229 99 229 C98 230 98 232 97 233 C95 225 94 217 93 209 C93 215 92 221 92 227 C92 227 91 227 91 227 C88 212 90 193 95 179 C96 179 97 179 98 179 C100 176 100 176 102 173 C101 173 100 172 98 172 C93 170 88 167 82 164 C79 162 79 162 75 160 C72 159 70 158 68 156 C65 153 62 151 58 149 C48 142 40 129 37 117 C37 117 37 116 37 115 C40 119 42 122 44 126 C48 135 53 143 62 148 C61 147 60 146 59 145 C45 131 39 114 33 95 C32 92 31 88 30 85 C29 83 29 81 28 79 C24 64 16 50 8 37 C7 35 7 35 7 32 C6 32 6 32 5 32 C2 28 1 24 1 19 C1 17 1 16 0 15 C0 13 0 12 0 11 C0 10 0 9 0 8 C-1 2 -1 2 0 0 Z " fill="#453331" transform="translate(57,280)"/>
<path d="M0 0 C4 1 5 3 8 6 C8 6 8 6 11 9 C15 13 14 18 14 24 C14 25 14 26 14 26 C13 29 13 32 13 35 C13 36 13 36 13 39 C13 41 13 44 12 47 C12 56 11 64 7 72 C6 75 6 77 5 80 C4 82 4 82 1 85 C1 84 1 83 1 82 C-12 105 -12 105 -12 116 C-11 114 -11 114 -7 101 C-6 105 -7 107 -8 111 C-8 112 -8 114 -9 115 C-10 119 -11 122 -12 126 C-15 134 -17 143 -18 151 C-20 161 -23 171 -28 180 C-27 180 -25 179 -24 179 C-24 180 -24 180 -24 181 C-27 183 -30 185 -33 187 C-34 188 -36 189 -37 190 C-58 203 -58 203 -64 204 C-67 205 -70 206 -73 208 C-79 210 -84 211 -90 213 C-91 213 -93 214 -94 214 C-113 218 -132 218 -151 213 C-154 213 -156 213 -159 213 C-159 212 -159 211 -159 210 C-160 210 -160 210 -163 212 C-166 211 -166 211 -170 208 C-175 205 -179 203 -184 202 C-187 200 -187 200 -189 198 C-189 197 -189 197 -189 196 C-188 196 -188 196 -187 196 C-188 195 -188 193 -189 192 C-186 192 -184 193 -181 193 C-182 192 -182 191 -183 190 C-183 189 -183 188 -183 187 C-179 189 -179 189 -177 191 C-174 194 -170 194 -166 194 C-164 195 -162 196 -160 197 C-159 198 -158 198 -157 199 C-156 199 -155 200 -154 200 C-150 198 -147 195 -143 191 C-138 186 -132 181 -125 177 C-125 178 -125 179 -125 180 C-127 182 -127 182 -131 185 C-138 190 -145 196 -150 203 C-150 204 -150 205 -150 206 C-151 207 -152 207 -153 208 C-148 210 -143 211 -138 211 C-138 211 -138 211 -135 211 C-114 213 -114 213 -106 210 C-104 210 -101 210 -99 210 C-91 209 -86 207 -79 204 C-76 203 -74 202 -71 200 C-70 200 -69 199 -68 199 C-65 197 -62 196 -59 195 C-53 193 -47 189 -42 185 C-38 183 -38 183 -34 181 C-33 178 -31 175 -30 172 C-30 171 -30 170 -29 169 C-24 154 -24 154 -26 147 C-25 144 -24 141 -23 139 C-21 134 -20 129 -19 124 C-20 125 -20 126 -21 127 C-22 127 -22 127 -23 127 C-22 124 -21 122 -19 119 C-17 115 -16 111 -14 107 C-10 96 -5 85 2 75 C6 67 8 59 8 50 C8 49 8 48 8 46 C8 44 9 41 9 38 C9 37 9 36 9 34 C9 33 9 32 9 31 C9 28 9 28 10 25 C11 15 11 15 9 11 C7 9 5 8 3 6 C1 3 1 3 0 0 Z " fill="#462021" transform="translate(476,226)"/>
<path d="M0 0 C-4 2 -8 2 -12 2 C-12 2 -12 2 -15 1 C-24 -4 -35 -1 -44 2 C-46 2 -47 3 -49 3 C-55 5 -60 8 -64 12 C-66 16 -66 16 -66 19 C-68 19 -69 18 -71 18 C-71 19 -71 20 -71 21 C-71 25 -71 27 -74 30 C-82 36 -82 36 -85 36 C-85 37 -86 37 -86 38 C-87 41 -88 43 -89 46 C-92 52 -93 58 -94 65 C-94 66 -95 67 -95 68 C-98 91 -98 91 -94 96 C-93 96 -93 97 -92 98 C-92 99 -92 100 -92 101 C-93 101 -93 101 -94 101 C-94 102 -94 102 -94 103 C-96 103 -98 103 -100 103 C-100 102 -101 101 -101 100 C-102 100 -102 100 -103 100 C-107 115 -111 132 -107 147 C-108 146 -108 144 -109 143 C-110 143 -110 143 -111 143 C-114 134 -115 127 -115 118 C-115 117 -115 116 -115 115 C-115 109 -114 104 -113 98 C-110 87 -108 76 -107 64 C-105 55 -103 47 -98 39 C-98 38 -98 38 -97 36 C-94 32 -92 28 -89 23 C-86 19 -84 14 -82 10 C-80 7 -80 7 -77 4 C-74 3 -74 3 -70 3 C-69 3 -68 2 -66 2 C-63 2 -63 2 -58 2 C-57 1 -56 1 -55 0 C-53 0 -51 -1 -49 -1 C-44 -2 -40 -3 -36 -4 C-25 -6 -10 -7 0 0 Z " fill="#F5D4CE" transform="translate(341,161)"/>
<path d="M0 0 C2 4 4 8 6 12 C6 12 6 12 7 14 C8 16 9 18 10 20 C9 16 9 16 7 12 C6 7 6 5 7 0 C7 0 8 0 8 0 C8 1 8 2 8 2 C9 8 10 13 13 18 C13 19 14 20 14 21 C15 21 16 21 17 21 C17 20 18 20 18 19 C18 20 19 20 19 21 C21 22 24 22 26 23 C29 24 32 25 35 26 C39 27 43 28 47 29 C51 30 51 30 53 33 C54 32 54 32 60 29 C58 30 56 30 54 31 C54 30 54 29 54 28 C55 28 56 27 57 27 C69 24 80 20 87 9 C88 6 89 3 90 0 C97 7 96 17 96 27 C96 27 96 28 97 29 C96 33 96 36 94 39 C92 41 92 41 89 42 C89 42 89 42 88 44 C87 44 87 44 81 43 C77 43 75 44 72 45 C57 48 40 45 27 39 C26 39 25 38 24 38 C14 33 3 27 -4 17 C-4 16 -5 14 -5 13 C-4 13 -4 13 -3 13 C-2 9 -1 4 0 0 Z " fill="#E68C91" transform="translate(290,277)"/>
<path d="M0 0 C0 0 0 0 3 2 C2 3 2 5 2 7 C-4 7 -10 8 -16 9 C-16 9 -16 10 -16 11 C-14 11 -11 12 -9 12 C-5 14 -3 14 -1 18 C-1 21 -1 21 -1 24 C-1 22 -1 20 0 19 C4 21 6 23 8 28 C7 34 4 37 0 41 C-3 43 -7 45 -10 47 C-11 46 -11 46 -12 46 C-10 44 -8 42 -6 40 C-7 39 -7 38 -7 38 C-8 39 -9 40 -10 41 C-15 47 -20 50 -27 52 C-33 50 -35 45 -38 40 C-39 38 -40 37 -41 36 C-43 31 -44 27 -43 23 C-42 19 -40 15 -37 12 C-36 14 -36 14 -37 18 C-37 18 -36 18 -35 18 C-35 17 -35 17 -34 13 C-34 10 -34 10 -33 8 C-32 7 -31 6 -29 6 C-28 5 -27 4 -25 3 C-17 -2 -9 -3 0 0 Z " fill="#AE4A50" transform="translate(368.25,253.5)"/>
<path d="M0 0 C10 3 20 8 25 17 C25 18 26 19 26 20 C27 22 28 23 30 25 C30 26 30 26 31 28 C32 30 32 30 35 33 C42 55 38 80 26 100 C26 102 25 103 24 104 C24 104 23 104 22 104 C22 105 22 105 22 106 C22 106 21 107 21 107 C18 110 16 113 15 117 C13 120 10 123 7 126 C4 126 4 126 1 126 C2 125 3 124 4 123 C6 120 8 117 10 115 C13 111 13 111 16 108 C23 96 29 84 30 70 C30 71 30 72 30 73 C27 83 23 92 18 101 C17 97 18 96 19 92 C20 85 21 79 21 72 C21 71 21 70 21 69 C20 65 20 61 19 57 C19 58 18 58 17 59 C17 58 17 57 17 56 C15 47 13 40 10 32 C10 30 9 29 9 27 C5 17 1 10 -6 2 C-3 0 -3 0 0 0 Z " fill="#EAA8A7" transform="translate(441.69140625,211.12890625)"/>
<path d="M0 0 C3 2 6 6 8 9 C8 9 8 9 10 11 C15 19 15 27 16 36 C16 37 16 38 16 39 C17 46 14 52 12 59 C12 60 11 61 11 62 C7 77 -4 91 -17 100 C-21 104 -25 109 -29 114 C-50 140 -76 148 -109 152 C-111 153 -113 153 -115 153 C-112 150 -107 149 -103 148 C-99 146 -95 144 -92 142 C-88 141 -84 139 -81 137 C-59 127 -39 117 -21 100 C-20 99 -20 99 -19 98 C-10 90 2 75 4 63 C5 58 6 54 7 50 C9 43 11 37 8 30 C5 26 3 22 -2 20 C-4 20 -5 20 -7 20 C-9 19 -9 19 -11 17 C-14 13 -17 12 -22 10 C-18 2 -9 -2 0 0 Z " fill="#EBB8B7" transform="translate(399,223)"/>
<path d="M0 0 C2 1 2 1 3 4 C4 6 4 7 4 9 C6 13 7 17 9 21 C10 24 11 27 11 30 C14 42 14 42 18 46 C19 51 19 55 16 59 C8 68 -3 75 -14 81 C-14 82 -14 83 -14 84 C-16 86 -19 88 -21 90 C-22 90 -22 90 -24 91 C-30 95 -36 99 -43 103 C-48 107 -53 110 -58 114 C-59 114 -59 114 -61 115 C-69 121 -77 127 -84 134 C-85 135 -86 136 -86 136 C-87 137 -87 137 -88 138 C-88 134 -86 131 -84 128 C-83 128 -83 128 -82 128 C-81 127 -81 125 -80 124 C-77 121 -77 121 -74 119 C-70 117 -68 115 -65 112 C-59 107 -53 102 -45 100 C-45 99 -45 99 -45 98 C-41 97 -38 96 -34 95 C-34 94 -34 94 -33 91 C-30 90 -30 90 -28 89 C-28 88 -28 88 -28 87 C-26 85 -25 84 -23 82 C-11 70 -8 52 -4 36 C-3 35 -3 33 -2 31 C-2 26 -2 22 -4 17 C-5 11 -5 8 -2 2 C-1 2 -1 2 0 2 C0 1 0 1 0 0 Z " fill="#CC5F64" transform="translate(414,287)"/>
<path d="M0 0 C0 1 1 1 1 2 C0 4 -1 7 -3 9 C-7 18 -10 27 -13 36 C-13 35 -12 34 -12 33 C-11 32 -11 32 -10 31 C-10 32 -10 32 -10 33 C-9 33 -9 34 -8 34 C-7 35 -7 36 -6 37 C-6 36 -6 35 -5 34 C-2 24 2 16 10 8 C11 8 11 9 12 9 C11 10 10 11 9 12 C5 16 3 19 1 24 C0 25 0 26 -1 28 C-5 40 -4 55 1 67 C4 72 6 75 11 78 C10 77 10 76 9 75 C0 61 -3 52 0 34 C1 29 3 24 5 19 C6 19 6 19 7 19 C7 20 6 22 6 23 C4 28 4 28 4 32 C5 31 5 31 6 30 C7 30 8 29 9 28 C9 27 10 27 11 26 C16 22 21 22 27 21 C28 21 28 21 31 21 C32 21 32 21 34 21 C31 23 31 23 28 24 C21 27 17 32 14 39 C13 42 12 45 11 48 C10 48 10 48 9 48 C9 46 9 45 9 43 C5 49 3 53 4 60 C6 66 9 70 12 74 C13 75 13 76 14 78 C16 80 16 80 19 81 C19 81 20 81 21 81 C21 82 22 83 22 84 C23 84 23 84 29 82 C26 86 24 88 19 88 C19 87 19 86 19 85 C18 85 17 85 16 84 C7 82 0 80 -8 77 C-14 75 -14 75 -18 75 C-23 69 -24 63 -24 55 C-23 55 -23 55 -22 55 C-19 47 -17 40 -14 32 C-14 31 -13 30 -13 29 C-12 27 -12 25 -11 23 C-8 14 -5 7 0 0 Z " fill="#732A2E" transform="translate(322,223)"/>
<path d="M0 0 C3 2 4 3 5 7 C5 11 5 15 5 19 C5 21 5 22 5 24 C5 35 5 45 2 56 C2 56 2 56 0 57 C0 54 0 52 0 49 C-1 52 -2 55 -3 58 C-2 59 -2 59 -1 60 C8 69 13 80 15 93 C15 95 15 95 16 96 C16 98 16 100 16 103 C16 104 16 105 16 106 C16 110 15 112 14 115 C13 119 13 122 14 126 C16 129 16 129 19 131 C21 134 21 134 22 137 C21 141 21 141 17 144 C12 148 11 154 9 160 C9 161 8 162 8 163 C7 166 7 166 7 170 C9 171 11 173 13 174 C21 181 23 189 26 199 C27 203 27 203 29 208 C33 223 33 240 31 256 C31 256 30 256 30 256 C30 254 30 253 30 251 C29 226 27 195 8 176 C6 174 6 174 6 171 C5 171 5 171 4 171 C4 172 4 172 3 175 C3 175 3 175 3 177 C2 179 2 181 2 183 C0 190 -2 197 -5 203 C-6 204 -6 205 -6 206 C-9 211 -12 216 -16 221 C-17 221 -17 221 -18 221 C-17 217 -15 213 -12 210 C-10 205 -8 200 -6 195 C-5 192 -5 192 -4 191 C-4 188 -4 186 -4 183 C-3 167 2 155 13 143 C14 142 16 141 17 140 C16 136 14 132 11 129 C10 125 10 123 10 119 C10 118 10 117 10 116 C10 113 10 113 12 109 C13 87 5 71 -9 55 C-12 52 -14 50 -17 48 C-19 47 -21 45 -22 44 C-23 43 -24 42 -25 41 C-28 39 -30 37 -32 35 C-40 28 -48 24 -59 21 C-59 20 -58 20 -58 19 C-47 20 -39 25 -31 32 C-30 33 -29 33 -28 34 C-23 39 -18 43 -13 48 C-10 51 -10 51 -8 52 C-7 52 -6 51 -5 51 C-4 48 -4 48 -3 45 C-3 44 -2 43 -2 41 C0 35 0 29 0 23 C0 21 0 19 0 18 C0 13 0 9 -1 5 C-1 2 -1 2 0 0 Z " fill="#452F2D" transform="translate(561,183)"/>
<path d="M0 0 C1 0 1 0 2 0 C2 0 2 0 2 2 C5 15 9 28 14 41 C15 43 15 44 16 46 C19 56 23 65 28 74 C29 75 29 77 30 78 C29 78 29 78 28 78 C28 84 29 85 34 89 C35 90 36 91 37 93 C37 93 38 94 39 95 C39 94 38 92 38 91 C37 89 37 87 36 85 C36 84 35 82 35 81 C33 72 33 61 36 52 C36 48 35 45 35 41 C35 37 35 34 35 30 C34 22 34 14 33 6 C34 6 34 7 35 7 C37 17 37 28 38 38 C42 34 42 31 42 25 C42 25 42 25 42 22 C42 21 43 20 43 19 C43 18 43 18 43 15 C43 13 43 10 43 7 C44 7 44 7 45 7 C45 6 46 6 46 5 C47 5 47 5 48 5 C49 15 47 25 45 35 C44 40 43 45 42 50 C42 53 42 55 41 58 C41 58 40 58 40 58 C40 70 44 82 51 91 C50 91 50 91 47 93 C46 94 46 96 45 97 C45 98 44 98 44 99 C37 98 33 94 29 88 C27 86 26 83 25 81 C23 79 23 79 21 77 C17 74 15 71 12 68 C12 67 11 66 11 65 C9 63 8 61 6 59 C5 58 4 56 3 55 C-9 38 -9 38 -9 33 C-8 33 -7 34 -6 34 C-5 36 -5 39 -4 41 C-3 41 -3 42 -2 42 C-1 44 0 46 1 48 C2 48 2 48 3 48 C3 45 2 43 2 40 C5 41 5 43 6 46 C6 45 5 44 5 43 C3 35 2 28 2 20 C2 16 1 13 0 9 C0 6 0 3 0 0 Z " fill="#462021" transform="translate(225,289)"/>
<path d="M0 0 C2 1 3 3 4 4 C13 12 24 17 35 21 C37 22 37 22 38 25 C37 25 37 25 36 25 C40 30 43 31 49 33 C53 35 56 37 60 39 C63 40 63 40 66 39 C66 40 66 41 66 42 C67 42 67 41 68 41 C72 41 76 41 80 42 C86 44 93 45 99 45 C100 45 101 45 102 45 C116 46 131 43 144 38 C146 38 147 38 149 38 C145 46 132 50 123 53 C116 55 108 56 100 55 C99 54 98 53 97 52 C94 51 94 51 92 51 C92 50 92 50 92 49 C91 49 90 49 89 49 C80 49 72 47 63 44 C60 43 60 43 56 42 C46 39 36 33 27 27 C5 13 5 13 -2 12 C-5 11 -8 10 -10 9 C-11 8 -11 8 -13 7 C-15 6 -15 6 -18 4 C-18 6 -18 8 -18 10 C-18 11 -18 12 -18 13 C-18 16 -18 18 -17 21 C-23 17 -25 12 -27 5 C-27 2 -27 -1 -27 -4 C-18 -7 -8 -4 0 0 Z " fill="#E7A2A3" transform="translate(251,397)"/>
<path d="M0 0 C0 1 1 2 1 3 C3 3 4 3 6 3 C6 4 6 5 6 7 C7 11 7 11 8 14 C10 17 8 20 7 24 C7 25 6 25 6 26 C5 26 4 26 3 26 C3 27 3 28 3 29 C3 33 3 33 2 34 C2 36 1 38 1 40 C-1 58 -13 80 -27 93 C-28 93 -28 93 -29 94 C-29 93 -29 93 -28 92 C-27 86 -26 81 -24 75 C-19 50 -19 50 -15 40 C-14 37 -14 37 -14 34 C-15 38 -17 42 -18 46 C-18 46 -19 46 -19 46 C-18 33 -13 22 -6 10 C-5 10 -5 9 -4 9 C-4 10 -4 11 -4 12 C-2 8 -1 4 0 0 Z " fill="#E38A87" transform="translate(482,298)"/>
<path d="M0 0 C1 0 1 0 2 0 C3 3 3 6 4 9 C4 8 5 8 5 7 C6 7 7 8 8 8 C9 10 9 12 10 14 C12 18 14 22 16 25 C18 28 19 30 20 33 C20 34 21 34 22 35 C24 39 24 43 25 47 C26 47 27 46 28 46 C28 57 27 69 20 78 C19 78 19 78 18 78 C18 79 17 79 17 80 C17 79 17 79 17 78 C17 77 17 76 17 75 C17 74 17 73 17 72 C16 69 16 69 13 65 C11 60 9 54 8 49 C7 44 5 39 3 35 C2 32 1 30 0 27 C0 26 -1 24 -1 23 C-2 23 -3 22 -4 22 C-4 23 -4 23 -4 24 C-6 32 -12 39 -17 45 C-17 44 -18 44 -18 43 C-16 40 -15 38 -13 35 C-7 26 -4 17 -2 7 C-1 5 -1 2 0 0 Z " fill="#742627" transform="translate(415,264)"/>
<path d="M0 0 C1 1 3 3 4 4 C4 4 3 5 3 5 C3 14 3 14 4 18 C4 20 4 22 4 24 C4 25 4 26 4 28 C4 30 4 33 4 35 C4 36 4 36 4 39 C4 40 4 41 4 42 C4 46 5 48 7 51 C8 53 8 55 9 57 C10 57 11 57 12 57 C13 57 14 58 15 58 C16 61 16 61 17 63 C18 63 19 63 20 63 C21 64 21 66 22 67 C23 67 23 67 24 67 C24 71 24 74 23 78 C20 79 20 79 17 80 C12 81 9 83 5 87 C-1 84 -2 79 -4 73 C-7 64 -9 56 -8 47 C-7 48 -7 49 -6 50 C-6 49 -6 49 -6 48 C-5 45 -5 41 -4 38 C-4 37 -4 36 -4 35 C-3 30 -2 26 -1 21 C0 17 0 13 0 9 C0 7 0 5 0 4 C0 2 0 1 0 0 Z " fill="#C9535A" transform="translate(272,292)"/>
<path d="M0 0 C1 0 1 0 2 0 C2 1 2 1 5 4 C11 12 19 13 29 16 C34 17 38 19 42 22 C47 24 51 24 56 25 C56 26 56 26 56 27 C55 28 53 28 52 29 C47 30 43 33 39 36 C37 38 34 40 32 41 C32 40 31 39 31 38 C30 38 30 38 29 38 C19 40 19 40 14 36 C11 33 9 31 8 27 C8 26 7 25 7 24 C7 23 6 22 6 21 C6 20 5 19 5 18 C4 15 4 15 4 11 C3 8 3 8 1 6 C1 4 0 2 0 0 Z " fill="#F4B7BA" transform="translate(282,303)"/>
<path d="M0 0 C1 0 1 1 2 1 C2 2 1 2 1 3 C2 3 2 3 3 3 C5 7 5 9 6 13 C6 16 6 18 7 21 C7 20 7 19 8 18 C8 17 8 16 8 15 C9 14 9 12 9 11 C10 8 10 8 12 5 C13 5 13 6 14 6 C12 14 9 21 6 29 C6 29 6 29 5 32 C5 32 5 32 3 33 C2 36 2 40 2 43 C1 46 1 46 -2 50 C-2 51 -3 52 -3 53 C-7 61 -11 68 -16 74 C-17 74 -17 73 -18 73 C-17 71 -17 69 -16 67 C-17 68 -18 70 -19 71 C-22 71 -24 72 -27 72 C-28 72 -28 72 -31 74 C-31 73 -32 73 -32 72 C-32 72 -32 72 -29 71 C-28 70 -27 69 -26 68 C-25 68 -25 68 -22 66 C-14 56 -10 44 -5 33 C-5 34 -6 34 -6 35 C-8 39 -10 43 -12 47 C-13 42 -12 39 -11 34 C-10 33 -10 31 -9 30 C-9 28 -8 27 -8 25 C-7 23 -7 21 -6 19 C-2 2 -2 2 0 0 Z " fill="#C86A6A" transform="translate(504,317)"/>
<path d="M0 0 C1 0 1 0 2 0 C2 1 2 1 4 4 C7 13 10 21 14 30 C16 35 18 40 19 46 C20 48 20 48 21 51 C22 55 22 58 22 62 C23 62 25 62 26 62 C35 63 43 71 49 78 C52 82 52 82 52 84 C53 84 54 85 55 85 C55 86 55 86 55 87 C55 87 55 87 57 88 C60 89 62 91 65 93 C66 94 66 95 67 95 C68 96 68 96 69 97 C64 97 62 94 58 91 C59 92 60 93 61 95 C64 98 67 101 70 105 C70 106 69 106 69 107 C63 101 57 94 52 87 C46 80 41 74 33 69 C32 69 32 69 30 67 C27 65 27 65 23 64 C23 65 23 66 23 66 C23 67 23 67 22 69 C21 69 21 69 18 71 C9 48 1 25 0 0 Z " fill="#6C5E59" transform="translate(541,118)"/>
<path d="M0 0 C7 2 10 8 14 14 C14 14 14 15 15 16 C21 26 28 33 38 39 C39 39 39 39 42 42 C54 49 66 51 80 52 C80 52 80 53 80 53 C77 53 75 54 72 54 C73 54 74 54 75 55 C75 55 75 55 78 55 C79 56 79 56 82 56 C83 56 83 56 85 57 C85 58 86 58 86 59 C82 59 78 59 74 58 C71 57 69 57 66 58 C64 60 61 63 59 65 C55 68 55 68 53 68 C53 67 53 67 53 66 C52 66 52 66 49 67 C53 63 56 60 60 57 C62 55 62 55 63 53 C62 53 61 53 60 53 C38 50 20 37 6 21 C4 17 3 16 3 12 C2 11 2 9 1 8 C0 4 0 4 0 0 Z " fill="#5F4645" transform="translate(321,525)"/>
<path d="M0 0 C0 0 1 0 1 0 C1 1 1 2 1 3 C3 14 7 19 15 27 C16 28 16 28 17 29 C26 38 38 43 51 47 C63 51 72 56 81 65 C85 69 87 69 93 69 C96 69 99 69 101 69 C122 67 145 70 164 78 C168 80 168 80 172 79 C172 79 173 78 174 78 C173 80 173 81 172 83 C165 83 160 82 154 80 C140 75 127 75 113 74 C113 74 113 73 113 73 C114 73 114 73 120 72 C117 72 113 72 110 72 C109 72 108 72 107 72 C99 72 99 72 97 73 C87 74 82 70 75 64 C65 57 52 52 40 48 C30 44 22 38 14 30 C14 30 14 30 11 28 C3 20 -1 13 -1 1 C-1 1 0 0 0 0 Z " fill="#372120" transform="translate(223,395)"/>
<path d="M0 0 C0 0 1 0 1 0 C2 19 -3 37 -15 53 C-16 53 -16 53 -17 53 C-18 54 -18 56 -19 57 C-23 62 -28 67 -33 72 C-37 76 -42 81 -46 85 C-49 90 -54 93 -59 95 C-62 97 -64 98 -66 101 C-72 105 -79 110 -85 114 C-86 115 -88 116 -89 116 C-95 121 -102 125 -109 129 C-112 131 -115 133 -118 135 C-119 135 -119 134 -120 134 C-112 128 -104 123 -96 117 C-90 114 -85 110 -79 106 C-78 105 -76 104 -75 103 C-74 103 -73 102 -72 101 C-72 100 -72 99 -72 98 C-70 97 -70 97 -67 95 C-58 90 -50 84 -43 77 C-43 77 -43 77 -41 75 C-40 75 -40 75 -39 75 C-39 74 -39 74 -39 73 C-38 73 -38 73 -37 73 C-31 61 -30 49 -28 36 C-28 36 -27 36 -27 36 C-27 39 -27 42 -27 45 C-27 46 -27 47 -27 48 C-28 54 -29 59 -30 65 C-25 61 -25 56 -23 50 C-23 48 -23 46 -22 44 C-22 44 -22 44 -22 41 C-21 39 -21 39 -19 35 C-19 35 -18 35 -18 35 C-19 41 -20 47 -21 53 C-20 53 -20 53 -19 53 C-19 52 -18 50 -18 49 C-17 46 -15 43 -14 40 C-13 40 -13 41 -12 41 C-4 28 -1 15 0 0 Z " fill="#462021" transform="translate(472,269)"/>
<path d="M0 0 C1 5 0 7 -2 11 C-6 19 -7 24 -8 32 C-8 34 -8 35 -8 37 C-8 38 -8 39 -8 40 C-9 40 -9 40 -10 40 C-9 41 -9 41 -8 42 C-2 32 4 22 9 11 C11 8 13 6 16 4 C2 39 2 39 -11 51 C-14 54 -14 56 -14 60 C-13 63 -13 63 -11 65 C-4 73 -3 80 -3 90 C-1 107 4 120 11 135 C12 137 13 139 14 141 C17 148 21 153 27 159 C27 160 26 160 26 161 C17 153 11 143 6 132 C5 131 5 130 4 129 C4 128 3 126 2 125 C2 125 2 125 1 122 C-4 111 -5 101 -6 89 C-6 81 -8 75 -12 68 C-12 67 -12 67 -12 66 C-13 66 -14 65 -15 65 C-18 61 -18 61 -18 57 C-17 53 -17 53 -14 50 C-12 47 -12 47 -12 44 C-13 41 -14 39 -14 36 C-16 28 -15 20 -12 12 C-12 12 -11 12 -11 12 C-11 17 -11 22 -12 27 C-12 30 -12 33 -11 36 C-11 35 -11 34 -11 33 C-10 25 -9 19 -5 12 C-4 10 -3 8 -2 5 C-2 4 -1 3 -1 2 C-1 2 0 1 0 0 Z " fill="#372120" transform="translate(174,194)"/>
<path d="M0 0 C5 2 8 4 11 8 C11 9 11 9 11 10 C12 10 13 10 14 10 C22 10 30 10 38 10 C40 10 41 10 43 10 C47 11 49 11 52 14 C53 16 54 19 55 21 C58 26 62 30 66 34 C69 38 73 42 76 47 C76 47 76 47 78 49 C82 54 83 59 85 65 C82 62 82 62 80 58 C78 53 75 50 71 46 C68 43 65 39 62 36 C60 32 57 29 54 26 C51 23 50 19 48 15 C43 15 39 15 34 15 C33 15 32 15 30 15 C18 15 9 17 -2 24 C-4 25 -5 26 -7 27 C-8 27 -8 27 -10 29 C-13 30 -16 32 -18 34 C-24 37 -29 40 -34 44 C-35 45 -37 47 -39 48 C-34 37 -20 31 -9 26 C-3 22 3 19 9 15 C2 15 -3 16 -9 20 C-10 20 -12 19 -13 19 C-6 14 0 11 9 11 C8 9 8 9 7 6 C6 5 4 5 3 4 C2 3 1 3 0 2 C0 1 0 1 0 0 Z " fill="#462021" transform="translate(365,171)"/>
<path d="M0 0 C0 3 0 3 -2 7 C-1 7 -1 8 0 8 C-1 8 -1 8 -4 10 C-6 12 -7 15 -9 17 C-10 19 -11 20 -12 21 C-13 24 -15 26 -16 28 C-18 31 -20 33 -22 35 C-28 40 -32 46 -36 53 C-46 69 -46 69 -54 71 C-53 70 -52 69 -51 68 C-51 67 -50 67 -50 66 C-49 65 -47 63 -46 62 C-43 58 -40 55 -38 50 C-35 44 -31 40 -27 35 C-23 31 -19 26 -16 21 C-14 18 -12 16 -10 13 C-17 14 -23 16 -28 21 C-30 23 -30 23 -33 23 C-34 23 -35 23 -36 23 C-32 18 -29 15 -24 12 C-23 11 -22 10 -20 9 C-17 7 -15 6 -12 6 C-12 6 -11 5 -11 5 C-10 5 -8 5 -7 5 C-3 4 -3 4 0 0 Z " fill="#462021" transform="translate(488,383)"/>
<path d="M0 0 C0 1 1 2 1 3 C7 16 14 23 24 31 C40 43 48 59 51 78 C52 81 53 85 54 88 C50 86 49 81 48 77 C47 75 47 73 46 71 C41 54 32 42 18 31 C15 29 13 26 10 24 C10 24 10 24 7 21 C5 19 4 17 4 14 C3 14 3 14 2 14 C1 10 -1 7 -2 3 C-4 3 -6 3 -7 3 C-8 3 -9 3 -10 3 C-13 3 -13 3 -16 4 C-18 4 -20 4 -22 4 C-23 4 -24 4 -25 4 C-27 4 -27 4 -29 3 C-29 2 -29 2 -29 1 C-19 0 -10 0 0 0 Z " fill="#452F2D" transform="translate(441,114)"/>
<path d="M0 0 C1 1 2 1 3 2 C0 14 -2 26 -6 37 C-7 40 -7 40 -7 43 C-7 42 -6 41 -6 40 C-5 39 -5 37 -4 36 C-4 35 -3 33 -3 32 C-1 29 -1 29 1 28 C-3 41 -9 55 -18 65 C-19 65 -19 65 -22 66 C-23 67 -24 68 -25 69 C-25 63 -24 62 -20 58 C-13 50 -11 36 -8 26 C-7 23 -7 20 -6 18 C-5 15 -4 13 -4 10 C-4 10 -4 10 -3 7 C-2 6 -2 5 -2 3 C-1 1 -1 1 0 0 Z " fill="#452F2D" transform="translate(499,320)"/>
<path d="M0 0 C6 7 11 16 12 25 C12 26 12 27 12 29 C12 30 12 31 12 32 C13 33 13 34 13 35 C13 38 13 41 13 44 C15 42 17 40 18 38 C18 42 15 45 12 49 C12 49 11 49 10 49 C9 44 9 40 9 35 C10 28 9 20 5 14 C5 15 4 16 4 18 C0 26 -6 31 -14 36 C-14 35 -15 35 -16 35 C-15 34 -14 33 -13 33 C-12 32 -11 31 -10 30 C-10 30 -10 30 -7 28 C-5 26 -3 23 -1 21 C-1 16 -1 14 -4 11 C-5 10 -6 9 -7 9 C-7 12 -7 15 -8 18 C-8 18 -8 18 -9 18 C-9 17 -9 16 -9 15 C-9 7 -9 7 -12 4 C-15 2 -18 2 -22 2 C-22 1 -22 1 -22 1 C-16 0 -12 0 -8 4 C-6 5 -4 7 -3 9 C-2 10 -1 11 0 11 C0 12 0 12 1 14 C1 8 1 6 -3 2 C-7 -1 -11 -1 -16 -1 C-17 -1 -17 -1 -20 -1 C-21 0 -21 0 -24 0 C-24 -1 -24 -2 -24 -2 C-15 -5 -8 -5 0 0 Z " fill="#341415" transform="translate(375.6875,264.4375)"/>
<path d="M0 0 C2 0 3 0 5 0 C6 0 7 0 9 0 C9 1 9 2 9 2 C8 2 7 2 6 2 C-3 3 -8 4 -15 11 C-19 16 -23 22 -26 28 C-27 29 -28 30 -29 32 C-29 33 -30 34 -30 35 C-31 36 -32 36 -32 37 C-35 43 -35 50 -35 57 C-35 58 -35 60 -35 62 C-35 63 -35 64 -35 65 C-37 63 -37 63 -38 60 C-38 38 -38 38 -32 30 C-32 28 -31 26 -30 24 C-27 14 -23 8 -14 2 C-9 0 -5 0 0 0 Z " fill="#492628" transform="translate(324.5,199.75)"/>
<path d="M0 0 C4 1 7 3 10 7 C14 11 18 14 22 18 C25 20 28 22 30 24 C37 30 43 35 50 39 C52 41 54 42 56 44 C64 50 72 54 81 58 C84 60 84 60 85 62 C72 61 60 52 51 43 C48 41 46 40 42 40 C37 39 37 39 35 38 C33 38 31 38 29 38 C29 38 29 38 26 38 C26 38 25 38 24 38 C24 39 23 39 23 40 C23 39 23 39 23 38 C22 38 22 38 18 39 C21 35 21 35 26 34 C26 34 26 34 30 34 C30 33 29 33 29 32 C30 32 32 33 33 34 C38 35 38 35 39 35 C26 24 26 24 22 21 C14 15 7 8 0 1 C0 1 0 0 0 0 Z " fill="#372120" transform="translate(200,355)"/>
<path d="M0 0 C0 0 0 0 1 2 C-6 18 -15 30 -30 40 C-35 44 -40 48 -45 52 C-48 54 -51 57 -54 59 C-58 62 -60 65 -63 68 C-68 73 -73 76 -80 77 C-82 77 -83 77 -85 77 C-84 75 -84 75 -82 74 C-81 74 -79 74 -78 73 C-71 71 -66 67 -61 60 C-56 54 -49 50 -43 46 C-39 42 -34 39 -30 36 C-28 34 -26 32 -24 31 C-15 24 -10 15 -4 5 C-2 2 -2 2 0 0 Z " fill="#452F2D" transform="translate(543,404)"/>
<path d="M0 0 C-4 2 -7 4 -11 7 C-12 7 -12 8 -13 8 C-18 11 -23 13 -28 16 C-36 20 -42 25 -49 31 C-49 31 -49 31 -52 33 C-51 29 -49 27 -47 24 C-46 24 -45 23 -45 22 C-44 21 -43 21 -42 20 C-42 19 -41 19 -40 18 C-34 12 -28 7 -20 4 C-19 3 -18 3 -17 3 C-17 3 -16 2 -15 2 C-14 2 -13 1 -12 1 C-8 0 -4 0 0 0 Z " fill="#E9A9A7" transform="translate(377,185)"/>
<path d="M0 0 C1 0 1 0 2 0 C3 1 3 3 4 4 C9 4 14 3 19 3 C19 4 18 4 18 5 C15 6 15 6 11 6 C10 6 9 6 8 7 C7 7 7 7 5 7 C6 11 7 15 8 19 C7 19 6 19 5 19 C5 21 6 23 6 24 C7 25 7 26 7 27 C8 30 8 30 10 34 C9 34 8 34 7 34 C1 27 -3 18 -4 9 C-6 9 -9 8 -11 8 C-11 7 -10 7 -10 6 C-8 6 -6 6 -4 6 C-4 5 -3 4 -3 3 C-3 4 -3 5 -3 6 C-2 6 -2 5 -1 5 C0 2 0 2 0 0 Z " fill="#453331" transform="translate(316,506)"/>
<path d="M0 0 C0 0 1 0 1 0 C1 1 1 2 1 3 C2 4 2 6 2 7 C2 8 2 10 2 11 C3 15 4 18 5 21 C6 20 8 20 9 19 C9 21 8 23 8 25 C7 25 7 25 6 25 C11 33 16 38 25 43 C27 44 29 45 31 47 C36 49 40 51 45 52 C46 53 48 53 49 54 C53 55 58 55 62 56 C69 57 69 57 72 59 C50 60 30 51 12 39 C3 29 -1 18 -1 5 C-1 1 -1 1 0 0 Z " fill="#492628" transform="translate(279,265)"/>
<path d="M0 0 C1 0 1 1 2 1 C0 2 -2 3 -4 4 C-6 5 -7 6 -8 6 C-12 8 -12 8 -17 10 C-21 13 -23 17 -24 22 C-24 27 -23 28 -20 32 C-17 33 -17 33 -13 33 C-12 33 -11 33 -10 33 C-9 33 -8 33 -7 33 C-10 36 -13 36 -17 36 C-20 36 -20 36 -23 34 C-23 34 -24 33 -24 32 C-25 31 -25 30 -26 29 C-26 32 -27 34 -27 37 C-28 37 -29 36 -30 36 C-30 31 -29 27 -27 22 C-27 20 -27 19 -26 18 C-26 17 -25 16 -25 15 C-26 15 -28 16 -29 16 C-26 12 -23 9 -18 7 C-15 4 -15 4 -13 2 C-12 2 -12 3 -11 3 C-11 4 -12 4 -12 5 C-11 5 -10 4 -9 4 C-9 4 -9 4 -6 2 C-6 2 -6 2 -3 1 C-2 1 -1 0 0 0 Z " fill="#372120" transform="translate(426,458)"/>
<path d="M0 0 C1 0 2 1 3 1 C3 4 3 4 3 8 C-8 18 -29 31 -44 31 C-42 29 -40 28 -37 27 C-29 25 -21 22 -16 15 C-15 14 -13 14 -12 13 C-6 10 -3 6 0 0 Z " fill="#453331" transform="translate(379,479)"/>
<path d="M0 0 C1 0 1 0 2 0 C10 23 13 44 6 68 C5 68 5 68 4 68 C4 65 4 62 5 59 C6 53 6 47 6 41 C6 39 6 38 6 37 C6 26 5 16 0 6 C-1 3 -1 3 0 0 Z " fill="#462021" transform="translate(449,236)"/>
<path d="M0 0 C1 0 1 0 2 0 C3 18 3 36 -6 52 C-7 52 -7 52 -8 52 C-7 44 -6 37 -4 30 C-2 20 0 10 0 0 Z " fill="#EAA8A7" transform="translate(459,270)"/>
<path d="M0 0 C0 0 1 0 1 0 C1 2 2 3 2 5 C2 7 3 9 3 11 C3 12 3 12 3 15 C3 15 3 15 4 18 C4 19 4 20 4 21 C5 23 5 25 6 27 C7 35 7 42 7 50 C7 51 7 53 7 54 C7 64 7 74 3 83 C3 83 3 83 1 84 C1 80 1 77 2 73 C5 66 4 59 4 51 C4 50 4 48 4 47 C4 36 3 26 1 16 C0 11 0 5 0 0 Z " fill="#452F2D" transform="translate(498,236)"/>
<path d="M0 0 C0 0 0 0 2 1 C-4 4 -11 7 -17 9 C-21 10 -21 10 -25 12 C-38 18 -50 17 -64 15 C-67 15 -69 15 -72 14 C-72 14 -72 14 -75 14 C-76 14 -76 14 -77 14 C-77 13 -77 13 -77 12 C-74 12 -71 12 -67 12 C-67 12 -67 12 -65 12 C-60 12 -56 12 -51 13 C-40 14 -30 11 -19 7 C-16 6 -13 5 -9 4 C-7 3 -7 3 -3 1 C-2 1 -1 0 0 0 Z " fill="#5F4645" transform="translate(484,571)"/>
<path d="M0 0 C0 0 0 0 1 2 C-19 10 -19 10 -27 11 C-34 12 -41 14 -47 16 C-50 17 -52 17 -55 18 C-55 19 -55 19 -55 20 C-56 20 -58 21 -59 21 C-59 22 -60 23 -60 24 C-61 23 -62 23 -63 22 C-52 12 -39 9 -25 7 C-19 6 -14 5 -9 3 C-8 3 -7 2 -6 2 C-4 1 -2 1 0 0 Z " fill="#452F2D" transform="translate(418,60)"/>
<path d="M0 0 C4 3 4 3 7 6 C8 7 9 8 10 9 C17 18 18 25 18 36 C18 38 17 41 17 43 C17 43 16 43 16 43 C16 42 16 40 16 39 C13 20 13 20 7 11 C6 10 6 9 5 9 C3 5 1 3 -2 2 C-8 2 -12 3 -16 6 C-17 6 -17 5 -18 5 C-12 1 -8 -1 0 0 Z " fill="#742627" transform="translate(399,221)"/>
<path d="M0 0 C0 1 0 1 0 2 C-1 2 -1 2 -3 2 C-8 3 -8 4 -11 8 C-12 10 -14 13 -15 15 C-18 21 -21 26 -24 31 C-31 43 -34 53 -36 67 C-37 68 -37 69 -37 70 C-37 70 -37 70 -39 71 C-39 68 -38 64 -38 61 C-38 60 -38 59 -38 58 C-37 50 -34 44 -30 36 C-29 35 -29 34 -28 33 C-25 27 -22 22 -18 16 C-17 14 -16 11 -14 9 C-11 1 -9 -1 0 0 Z " fill="#462021" transform="translate(271,163)"/>
<path d="M0 0 C10 6 16 13 22 23 C22 23 22 23 23 25 C24 27 25 29 26 31 C25 31 25 31 25 33 C24 32 23 31 23 30 C15 16 9 6 -7 1 C-14 0 -21 0 -28 0 C-25 -8 -6 -3 0 0 Z " fill="#462021" transform="translate(451.5,192.9375)"/>
<path d="M0 0 C7 4 7 4 8 8 C11 12 16 12 21 13 C21 13 21 14 21 14 C17 14 14 14 10 13 C5 12 0 11 -5 11 C-6 11 -7 11 -8 11 C-19 10 -29 10 -39 13 C-40 13 -40 13 -43 14 C-44 14 -45 15 -46 15 C-46 14 -46 14 -46 13 C-35 7 -23 8 -10 8 C-9 8 -7 8 -6 8 C-2 8 2 8 6 8 C5 7 4 6 3 5 C0 2 0 2 0 0 Z " fill="#452F2D" transform="translate(391,102)"/>
<path d="M0 0 C1 0 2 1 3 1 C2 2 2 2 1 3 C-4 8 -6 13 -6 20 C-6 28 -5 33 1 38 C3 40 4 41 6 43 C7 44 7 44 8 45 C9 46 9 46 10 47 C10 48 9 49 9 50 C7 48 6 46 4 45 C2 43 2 43 -1 43 C-1 42 -1 42 -2 41 C-3 38 -3 38 -7 35 C-10 31 -11 27 -10 22 C-9 13 -6 6 0 0 Z " fill="#462021" transform="translate(271,250)"/>
<path d="M0 0 C3 0 5 1 8 1 C7 1 7 1 4 3 C5 13 7 23 9 33 C9 34 9 36 10 37 C11 44 13 51 15 58 C15 62 15 62 15 65 C9 56 8 45 6 35 C6 32 6 30 5 28 C5 27 5 25 5 24 C4 21 3 18 3 15 C2 12 2 9 2 5 C1 5 1 4 0 4 C0 3 0 1 0 0 Z " fill="#452F2D" transform="translate(494,202)"/>
<path d="M0 0 C0 1 0 1 0 2 C-2 2 -3 2 -5 2 C-25 4 -44 11 -59 24 C-60 24 -60 24 -63 26 C-51 11 -31 3 -13 0 C-9 0 -4 0 0 0 Z " fill="#372120" transform="translate(252,172)"/>
<path d="M0 0 C0 3 0 3 -1 6 C9 4 9 4 14 3 C21 1 29 0 36 1 C37 2 38 2 39 3 C38 3 38 3 35 3 C25 4 16 5 6 8 C3 8 -1 9 -4 9 C-4 10 -5 11 -5 12 C-5 11 -5 11 -5 10 C-6 10 -6 10 -7 11 C-10 11 -14 11 -17 11 C-17 10 -16 10 -16 9 C-14 9 -13 9 -11 8 C-7 8 -6 7 -3 4 C-3 3 -3 2 -2 1 C-1 1 -1 0 0 0 Z " fill="#462021" transform="translate(288,153)"/>
<path d="M0 0 C0 7 -9 14 -13 19 C-21 27 -29 33 -39 38 C-40 38 -40 37 -41 37 C-40 36 -39 35 -37 34 C-37 34 -37 34 -35 33 C-33 31 -31 30 -29 28 C-19 20 -10 11 -1 1 C-1 1 0 0 0 0 Z " fill="#462021" transform="translate(453,353)"/>
<path d="M0 0 C5 0 7 1 10 4 C15 11 17 16 16 24 C15 28 14 33 12 37 C11 41 11 41 11 45 C10 49 9 52 6 55 C6 56 5 57 4 58 C4 59 4 59 3 60 C2 60 2 59 1 59 C1 58 2 57 2 56 C16 26 16 26 12 12 C9 7 7 4 2 2 C1 1 1 1 0 1 C0 1 0 0 0 0 Z " fill="#341415" transform="translate(393,242)"/>
<path d="M0 0 C-2 1 -4 2 -7 4 C-8 5 -10 6 -12 7 C-17 9 -21 12 -26 14 C-37 20 -47 27 -55 36 C-56 36 -56 35 -57 35 C-48 24 -15 -5 0 0 Z " fill="#462021" transform="translate(345,117)"/>
<path d="M0 0 C1 0 1 0 2 0 C2 1 3 2 3 3 C3 4 4 5 4 7 C5 8 5 9 6 10 C6 12 7 14 8 16 C9 19 9 22 9 25 C9 25 9 25 9 28 C9 29 9 30 9 31 C9 32 9 34 9 35 C9 37 9 40 9 43 C8 43 8 43 5 44 C4 40 4 36 5 31 C5 20 4 10 0 0 Z " fill="#742627" transform="translate(437,266)"/>
<path d="M0 0 C-1 3 -1 3 -5 5 C-20 15 -29 30 -38 45 C-39 42 -39 42 -38 40 C-32 29 -25 21 -17 12 C-16 11 -16 11 -15 10 C-6 0 -6 0 0 0 Z " fill="#462021" transform="translate(352,190)"/>
<path d="M0 0 C0 1 1 1 1 2 C0 5 0 5 -1 7 C0 8 0 8 1 9 C13 20 13 20 17 27 C17 29 17 30 17 32 C14 29 11 25 8 22 C3 16 -2 10 -8 4 C-8 3 -8 3 -8 2 C-8 2 -8 2 -6 3 C-5 3 -4 3 -3 3 C-2 2 -1 1 0 0 Z " fill="#341415" transform="translate(272,384)"/>
<path d="M0 0 C0 0 1 0 1 0 C1 6 1 11 -1 16 C-2 19 -2 22 -3 25 C-3 26 -4 28 -4 29 C-5 35 -5 40 -6 45 C-6 46 -6 47 -6 48 C-6 50 -6 53 -6 55 C-7 54 -9 54 -10 53 C-10 52 -9 50 -9 49 C-9 44 -9 40 -8 35 C-8 32 -8 29 -6 26 C-5 23 -5 20 -4 18 C-4 17 -4 17 -3 13 C-2 9 -2 9 -1 5 C-1 1 -1 1 0 0 Z " fill="#462021" transform="translate(232,234)"/>
<path d="M0 0 C1 0 1 0 2 0 C2 1 3 2 3 2 C4 6 5 9 6 13 C7 13 7 13 8 16 C8 17 8 19 9 20 C9 21 9 22 10 23 C11 26 11 26 13 29 C13 30 14 31 14 32 C14 33 13 33 13 34 C9 28 6 22 3 15 C2 16 2 18 1 19 C0 19 0 19 -1 19 C-1 13 0 6 0 0 Z " fill="#492628" transform="translate(288,265)"/>
<path d="M0 0 C1 0 1 0 2 0 C4 24 4 24 1 33 C0 37 0 40 -1 44 C-2 48 -3 51 -5 55 C-6 55 -6 54 -7 54 C-7 53 -7 53 -6 52 C-6 49 -5 46 -4 43 C-4 42 -4 41 -3 40 C-3 39 -3 37 -2 36 C-2 35 -2 35 -2 34 C-1 29 0 25 0 21 C0 19 0 18 0 17 C0 16 0 15 0 13 C0 12 0 11 0 9 C0 6 0 3 0 0 Z " fill="#452F2D" transform="translate(508,267)"/>
<path d="M0 0 C0 0 0 0 1 2 C-13 9 -27 16 -41 22 C-43 23 -45 24 -47 24 C-48 25 -49 25 -50 26 C-51 26 -52 27 -53 27 C-55 28 -55 28 -59 27 C-58 26 -57 26 -55 25 C-54 25 -52 24 -50 23 C-49 23 -48 22 -47 22 C-31 15 -15 8 0 0 Z " fill="#341415" transform="translate(345,346)"/>
<path d="M0 0 C5 5 8 10 12 16 C14 19 16 22 18 25 C23 33 25 41 26 50 C24 47 24 47 23 43 C21 36 17 29 13 23 C13 24 12 26 12 27 C11 24 10 21 9 18 C7 13 4 9 1 4 C0 2 0 2 0 0 Z " fill="#6C5E59" transform="translate(529,91)"/>
<path d="M0 0 C5 1 5 2 8 5 C12 11 16 12 23 14 C25 15 28 16 30 17 C32 17 33 17 34 18 C37 19 37 19 39 21 C43 22 46 23 50 24 C51 25 53 25 54 25 C54 25 54 25 57 26 C57 26 57 27 57 27 C49 28 43 25 35 21 C30 18 24 17 18 15 C11 13 7 10 3 4 C3 3 3 3 3 2 C2 2 1 2 0 2 C0 1 0 1 0 0 Z " fill="#492628" transform="translate(281,301)"/>
<path d="M0 0 C12 -1 12 -1 17 3 C20 8 21 10 21 16 C18 13 15 10 13 7 C9 3 5 3 -1 2 C-1 1 0 1 0 0 Z " fill="#AE4A50" transform="translate(357,263)"/>
<path d="M0 0 C0 1 -1 1 -1 2 C-1 2 -1 2 0 4 C-1 4 -1 4 -3 5 C-17 7 -17 7 -22 9 C-27 10 -31 10 -36 10 C-36 9 -36 9 -36 8 C-34 8 -34 8 -22 6 C-22 5 -22 4 -22 3 C-21 3 -20 3 -19 3 C-18 2 -17 2 -16 2 C-15 2 -15 2 -12 2 C-3 0 -3 0 0 0 Z " fill="#492628" transform="translate(374,319)"/>
<path d="M0 0 C1 0 3 1 4 1 C9 2 9 2 14 2 C15 1 16 1 17 0 C17 1 17 3 17 4 C18 4 20 5 21 5 C49 15 49 15 53 21 C49 20 46 18 43 16 C35 13 28 10 20 8 C17 7 14 6 11 5 C8 4 4 3 0 2 C0 1 0 1 0 0 Z " fill="#452F2D" transform="translate(338,82)"/>
<path d="M0 0 C0 4 -2 6 -5 8 C-6 9 -6 10 -7 11 C-7 11 -7 11 -9 13 C-16 19 -23 24 -30 29 C-30 29 -30 29 -33 31 C-34 32 -36 33 -38 34 C-39 34 -39 33 -40 33 C-39 33 -39 32 -38 32 C-14 15 -14 15 -12 11 C-11 11 -11 11 -10 11 C-10 10 -9 9 -9 8 C-8 8 -8 8 -7 8 C-7 7 -7 7 -7 6 C-8 6 -10 5 -11 5 C-10 5 -9 5 -8 5 C-4 4 -3 3 0 0 Z " fill="#341415" transform="translate(386,313)"/>
<path d="M0 0 C0 1 0 1 0 2 C-1 2 -1 3 -2 3 C-5 4 -8 6 -11 7 C-12 8 -13 8 -14 9 C-19 11 -23 13 -27 16 C-30 18 -33 19 -36 20 C-37 21 -38 21 -39 21 C-41 22 -41 22 -45 23 C-42 20 -38 18 -34 16 C-29 13 -24 11 -19 8 C-5 0 -5 0 0 0 Z " fill="#462021" transform="translate(375,405)"/>
<path d="M0 0 C5 5 3 14 3 20 C3 28 2 35 0 43 C-1 43 -1 43 -2 43 C-2 41 -2 39 -2 38 C-1 37 -1 36 -1 35 C-1 32 -1 32 0 28 C0 26 0 24 0 21 C0 20 0 19 0 18 C0 16 0 15 0 14 C0 13 0 13 0 10 C0 7 0 3 0 0 Z " fill="#462021" transform="translate(460,266)"/>
<path d="M0 0 C0 1 0 1 0 2 C-29 16 -29 16 -37 16 C-36 14 -36 14 -33 13 C-31 12 -29 12 -28 11 C-20 9 -13 6 -5 2 C-2 0 -2 0 0 0 Z " fill="#462021" transform="translate(412,390)"/>
<path d="M0 0 C-23 8 -23 8 -36 8 C-36 7 -35 7 -35 6 C-33 6 -33 6 -30 5 C-23 4 -16 3 -9 1 C-3 -1 -3 -1 0 0 Z " fill="#341415" transform="translate(334,367)"/>
<path d="M0 0 C0 1 1 1 1 2 C0 4 -1 6 -1 8 C-5 16 -5 23 -6 31 C-6 32 -6 33 -6 34 C-6 36 -6 39 -6 41 C-7 41 -7 40 -8 40 C-8 26 -7 14 -1 1 C-1 1 0 0 0 0 Z " fill="#732A2E" transform="translate(305,237)"/>
<path d="M0 0 C7 -1 12 2 18 5 C18 5 18 5 21 6 C36 13 36 13 38 17 C33 16 29 14 25 11 C17 7 9 3 0 2 C0 1 0 1 0 0 Z " fill="#462021" transform="translate(327,155)"/>
<path d="M0 0 C1 0 1 1 2 1 C0 5 0 5 -3 9 C-2 9 -2 9 -1 9 C-1 10 -1 10 -1 11 C-7 13 -12 14 -18 16 C-18 15 -18 15 -18 14 C-18 14 -18 14 -16 13 C-9 10 -5 6 0 0 Z " fill="#341415" transform="translate(361,290)"/>
<path d="M0 0 C0 1 -1 2 -1 3 C-3 4 -4 4 -6 5 C-7 6 -9 7 -10 8 C-11 7 -11 7 -12 6 C-15 6 -18 7 -22 9 C-26 10 -26 10 -30 9 C-26 8 -23 6 -19 5 C-18 5 -17 4 -16 4 C-15 4 -14 3 -13 3 C-12 3 -12 2 -11 2 C-7 1 -4 0 0 0 Z " fill="#452F2D" transform="translate(458,480)"/>
<path d="M0 0 C0 1 0 1 0 2 C2 2 2 2 12 1 C12 2 12 2 12 3 C11 3 11 3 9 3 C1 5 -5 6 -12 11 C-13 11 -13 11 -14 11 C-14 10 -14 10 -14 9 C-12 7 -11 6 -9 4 C-8 4 -8 4 -6 2 C-3 0 -3 0 0 0 Z " fill="#341415" transform="translate(286,373)"/>
</svg>